<?xml version="1.0" encoding="UTF-8" standalone="no"?>
<!-- Created with Inkscape (http://www.inkscape.org/) -->

<svg
   width="159.29967mm"
   height="163.70683mm"
   viewBox="0 0 159.29967 163.70683"
   version="1.1"
   id="svg5"
   inkscape:version="1.2.2 (732a01da63, 2022-12-09)"
   xml:space="preserve"
   sodipodi:docname="check.svg"
   xmlns:inkscape="http://www.inkscape.org/namespaces/inkscape"
   xmlns:sodipodi="http://sodipodi.sourceforge.net/DTD/sodipodi-0.dtd"
   xmlns="http://www.w3.org/2000/svg"
   xmlns:svg="http://www.w3.org/2000/svg"><sodipodi:namedview
     id="namedview7"
     pagecolor="#7c7c7c"
     bordercolor="#000000"
     borderopacity="0.25"
     inkscape:showpageshadow="2"
     inkscape:pageopacity="0"
     inkscape:pagecheckerboard="true"
     inkscape:deskcolor="#2c2c2c"
     inkscape:document-units="mm"
     showgrid="false"
     inkscape:lockguides="false"
     inkscape:zoom="0.74564394"
     inkscape:cx="-85.16129"
     inkscape:cy="249.44882"
     inkscape:window-width="1920"
     inkscape:window-height="1017"
     inkscape:window-x="1272"
     inkscape:window-y="-8"
     inkscape:window-maximized="1"
     inkscape:current-layer="layer1" /><defs
     id="defs2" /><g
     inkscape:label="Layer 1"
     inkscape:groupmode="layer"
     id="layer1"
     transform="translate(-32.319792,-33.571098)"><path
       style="fill:#ffffff;stroke-width:0.499999;stroke-linecap:round;stroke-linejoin:round"
       d="m 166.39582,77.30581 c 4.31541,0.45528 7.21343,5.474207 6.30214,9.688107 -2.18823,6.247666 -4.46936,7.300427 -8.77643,12.074949 -9.53727,12.101944 -19.53763,17.945964 -29.80109,29.349124 -6.94548,6.29259 -16.02457,16.38624 -20.85142,24.45069 -4.26079,5.4493 -7.17013,12.36141 -12.89122,16.43799 -6.319764,2.58076 -11.672433,-3.91806 -13.854174,-9.12315 -5.486994,-6.29992 -10.678447,-12.85305 -16.271304,-19.0614 -4.396091,-5.93954 -4.204524,-6.52374 -8.390676,-12.63901 -2.865158,-4.79352 -8.421739,-11.63456 -2.420371,-16.33129 5.332748,-3.42798 11.842769,1.29543 14.771507,5.84052 4.471617,10.09329 7.155429,13.18449 14.353196,21.46245 2.97382,2.46505 5.166602,7.86264 8.651143,8.3483 5.986249,-3.9684 8.069379,-11.47379 12.714969,-16.70558 8.63086,-8.31923 16.90138,-17.06483 25.80902,-25.11384 12.02689,-9.181972 16.8236,-19.277154 28.72561,-28.577805 0.66735,-0.13687 1.31262,-0.165097 1.9291,-0.100053 z"
       id="path15568"
       sodipodi:nodetypes="scccccccccccccccss" /><path
       style="display:none;fill:#ffffff;stroke-width:0.499999;stroke-linecap:round;stroke-linejoin:round"
       d="m 110.30986,33.571615 c -8.42706,0.03159 -16.938194,1.57109 -24.807784,4.188891 -10.12024,3.366473 -19.177578,10.02747 -26.784412,17.503325 -9.318122,9.157668 -17.240482,20.268509 -22.007442,32.432645 -3.547014,9.051095 -4.257425,19.112364 -4.381645,28.832864 -0.09575,7.49252 0.556188,15.15697 2.808614,22.30355 3.607763,11.44689 9.206794,22.55125 16.798458,31.84715 6.035138,7.38994 13.792888,13.51957 22.1387,18.1436 7.212666,3.99618 15.235154,7.08085 23.439396,7.90701 14.971555,1.50762 30.823905,-0.0161 44.792095,-5.61155 10.14096,-4.06232 18.96718,-11.44011 26.33793,-19.5032 6.37048,-6.96887 10.94017,-15.54313 14.75052,-24.18198 3.75809,-8.52033 6.88339,-17.55847 7.80314,-26.82524 0.92236,-9.2931 0.42006,-19.00686 -2.38435,-27.914576 C 185.31904,81.595867 179.51345,70.750428 171.32371,62.485612 158.76076,49.807498 142.58823,39.39597 125.23143,35.236113 c -4.8391,-1.159776 -9.86532,-1.683454 -14.92157,-1.664498 z"
       id="path5594" /></g></svg>
