<?xml version="1.0" encoding="UTF-8" standalone="no"?>
<!-- Created with Inkscape (http://www.inkscape.org/) -->

<svg
   width="60.364159mm"
   height="54.602734mm"
   viewBox="0 0 60.364159 54.602734"
   version="1.1"
   id="svg5"
   inkscape:version="1.2.2 (732a01da63, 2022-12-09)"
   xml:space="preserve"
   sodipodi:docname="fire_orb.svg"
   xmlns:inkscape="http://www.inkscape.org/namespaces/inkscape"
   xmlns:sodipodi="http://sodipodi.sourceforge.net/DTD/sodipodi-0.dtd"
   xmlns="http://www.w3.org/2000/svg"
   xmlns:svg="http://www.w3.org/2000/svg"><sodipodi:namedview
     id="namedview7"
     pagecolor="#7c7c7c"
     bordercolor="#000000"
     borderopacity="0.25"
     inkscape:showpageshadow="2"
     inkscape:pageopacity="0"
     inkscape:pagecheckerboard="true"
     inkscape:deskcolor="#2c2c2c"
     inkscape:document-units="mm"
     showgrid="false"
     inkscape:lockguides="false"
     inkscape:zoom="2.9825758"
     inkscape:cx="49.286258"
     inkscape:cy="95.89027"
     inkscape:window-width="1920"
     inkscape:window-height="1017"
     inkscape:window-x="1272"
     inkscape:window-y="-8"
     inkscape:window-maximized="1"
     inkscape:current-layer="layer1" /><defs
     id="defs2"><inkscape:path-effect
       effect="fill_between_many"
       method="originald"
       linkedpaths="#path5702-8,0,1"
       id="path-effect23769"
       join="true"
       close="true"
       autoreverse="true"
       is_visible="true"
       lpeversion="0" /><inkscape:path-effect
       effect="fill_between_many"
       method="originald"
       linkedpaths="#path5702-0,0,1"
       id="path-effect23769-5"
       join="true"
       close="true"
       autoreverse="true"
       is_visible="true"
       lpeversion="0" /><inkscape:path-effect
       effect="fill_between_many"
       method="originald"
       linkedpaths="#path5702-0,0,1"
       id="path-effect23769-5-7"
       join="true"
       close="true"
       autoreverse="true"
       is_visible="true"
       lpeversion="0" /></defs><g
     inkscape:label="Body"
     inkscape:groupmode="layer"
     id="layer1"
     transform="translate(-3.3209498,-3.0528001)"><path
       inkscape:original-d="M 0,0"
       inkscape:path-effect="#path-effect23769-5"
       d="M 14.314805,13.412555 C -6.6616057,30.402777 17.444939,68.240964 50.020435,47.132876 65.758431,36.935057 59.297975,11.924196 41.504865,7.1202469 29.94033,5.3850198 20.941256,8.2150622 14.314805,13.412555 Z"
       id="path23771-0"
       class="UnoptimicedTransforms"
       style="fill:#ff6361;fill-opacity:1"
       inkscape:label="Fill"
       transform="translate(0.67858835,0.59308931)" /><path
       inkscape:original-d="M 0,0"
       inkscape:path-effect="#path-effect23769-5-7"
       d="M -23.374052,-3.5661367 C -44.350462,13.424085 -20.243918,51.262272 12.331578,30.154184 28.069574,19.956365 21.609118,-5.0544957 3.8160079,-9.8584448 -7.7485271,-11.593672 -16.747601,-8.7636295 -23.374052,-3.5661367 Z"
       id="path23771-0-8"
       class="UnoptimicedTransforms"
       style="fill:#ba1816;fill-opacity:1"
       inkscape:label="Fill"
       transform="translate(38.367445,17.571781)" /><path
       style="fill:#ff4a48;fill-opacity:1;stroke:#000000;stroke-width:2;stroke-linecap:round;stroke-linejoin:round;stroke-dasharray:none;stroke-opacity:1"
       d="M 31.249037,44.133951 C 25.80788,44.322795 19.351514,39.931336 20.980308,33.77474 c 0.737125,-2.786226 3.444002,-4.558406 3.607931,-7.568032 0.09211,-1.691097 -0.160157,-3.105027 -1.006057,-4.589524 -0.655905,-1.151067 -1.701657,-1.891055 -1.595817,-1.948206 2.852312,-1.540188 6.163675,2.527591 6.799563,4.83305 0.440259,1.596188 -1.546282,6.251823 -0.03469,4.870515 6.32368,-5.778642 -1.863032,-11.341297 6.244497,-15.510718 0.487071,-0.250485 1.790388,-0.957815 2.428416,-0.842975 0.459642,0.08273 -0.477965,0.805906 -0.659142,1.236362 -0.434675,1.032747 -0.834935,2.249544 -0.901982,3.371895 -0.163356,2.73444 2.034647,4.806209 1.873348,7.680429 -0.105162,1.87394 -1.520235,3.431439 -1.387665,3.503024 0.661596,0.357249 2.295311,-0.515212 2.844714,-0.824241 2.906277,-1.634716 2.705949,-3.580726 2.705949,-6.593928 0,-0.888337 -0.04756,-2.251658 -0.624448,-2.978508 -0.112781,-0.142096 -0.417984,-0.534337 -0.242844,-0.487051 1.103911,0.298044 2.646622,1.524888 3.365091,2.397792 0.854632,1.038339 1.210597,2.328992 1.457051,3.615421 1.072033,5.5958 -2.611878,6.260658 -2.9141,10.340478 -0.201803,2.724229 1.86825,6.630412 -1.001486,8.512062 -3.080184,2.019641 -7.256874,1.563798 -10.6896,1.341366 z"
       id="path4075"
       sodipodi:nodetypes="sssssssssscssssssscssss" /><path
       style="fill:#ffffff;fill-opacity:0.17280453;stroke:none;stroke-width:4.62059;stroke-linecap:round;stroke-linejoin:round;stroke-dasharray:none;stroke-opacity:1"
       d="m 12.028562,24.833471 c 1.721684,-4.771135 6.229762,-8.634759 10.205105,-11.322942 4.989455,-3.373939 11.430244,-3.6230367 16.673641,-1.244604 1.651154,0.748972 4.172769,2.644679 2.237516,4.671625 -3.075672,3.221398 -8.931606,3.046751 -13.390218,5.116284 -4.458612,2.069532 -7.342483,7.092923 -11.570802,7.226528 -3.149777,0.09953 -6.4050585,-0.07509 -4.155242,-4.446891 z"
       id="path8940"
       sodipodi:nodetypes="csssssc"
       inkscape:label="Shine 2" /><path
       style="fill:#ffffff;fill-opacity:0.50609756;stroke:none;stroke-width:4;stroke-linecap:round;stroke-linejoin:round;stroke-dasharray:none;stroke-opacity:1"
       d="m 17.885748,21.65098 c 0.593082,-1.639364 1.772082,-3.058908 3.063528,-4.221163 1.867511,-1.680694 7.93362,-5.544328 9.771596,-2.566923 0.185388,0.300317 0.31609,1.28469 0.10564,1.597197 -1.041611,1.546732 -14.225637,10.510053 -12.940764,5.190889 z"
       id="path7670"
       inkscape:label="Shine 1" /><g
       id="g25444"
       inkscape:label="tabs"
       transform="translate(0.67858835,0.59308931)"><path
         id="path23362"
         style="fill:#003f5c;fill-opacity:1;stroke:#000000;stroke-width:3;stroke-linecap:round;stroke-linejoin:round;stroke-dasharray:none;stroke-opacity:1"
         d="m 17.652344,11.751953 c -1.210779,0.14444 -1.829552,1.34642 -2.769375,1.975428 -1.021923,1.017281 -2.45493,1.760743 -3.007969,3.155431 -0.299509,1.174855 1.033524,1.81635 1.967934,2.040564 1.727216,0.442322 3.651989,1.381638 5.379722,0.418421 1.209899,-0.833218 0.956679,-2.460932 0.749772,-3.704968 C 19.755143,14.546011 19.826333,13.331552 19.25,12.351562 18.865145,11.891633 18.231272,11.727827 17.652344,11.751953 Z" /><path
         id="path23372"
         style="fill:#003f5c;fill-opacity:1;stroke:#000000;stroke-width:3;stroke-linecap:round;stroke-linejoin:round;stroke-dasharray:none;stroke-opacity:1"
         d="m 49.011719,11.445312 c -0.789627,-0.009 -1.545621,0.429402 -1.736328,1.234376 -0.269015,1.383699 -0.587377,2.755702 -1.016342,4.100973 -0.565201,1.458504 0.755353,3.063473 2.264389,2.99473 2.183576,0.181476 4.39455,0.02032 6.563266,0.356906 0.82824,0.106469 1.587079,-0.729509 1.205892,-1.531853 -0.740344,-1.704999 -2.227151,-2.937044 -3.498181,-4.244775 -1.006896,-0.91267 -1.94502,-1.93104 -2.995587,-2.775591 -0.245193,-0.113301 -0.518833,-0.152254 -0.787109,-0.134766 z" /><path
         id="path23376"
         style="fill:#003f5c;fill-opacity:1;stroke:#000000;stroke-width:3;stroke-linecap:round;stroke-linejoin:round;stroke-dasharray:none;stroke-opacity:1"
         d="m 19.888672,42.3125 c -1.875029,0.217966 -3.734704,0.61951 -5.552734,1.105469 -1.213011,0.685068 -0.921347,2.67633 0.365107,3.099127 1.714616,1.315838 3.525933,2.536317 5.130986,3.971185 1.069143,0.65989 2.756075,-0.317462 2.366471,-1.624046 -0.353043,-1.884101 0.169142,-3.938585 -0.663307,-5.717289 -0.384494,-0.49962 -0.998807,-0.878341 -1.646523,-0.834446 z" /><path
         id="path23378"
         style="fill:#003f5c;fill-opacity:1;stroke:#000000;stroke-width:3;stroke-linecap:round;stroke-linejoin:round;stroke-dasharray:none;stroke-opacity:1"
         d="m 47.439453,40.402344 c -1.662351,0.15277 -2.655914,1.98446 -2.354907,3.528022 0.07145,1.355763 0.0017,2.735438 0.120436,4.076895 0.312486,0.909033 1.477362,0.456852 2.107518,0.186098 2.389954,-1.108571 4.61124,-2.565783 6.794922,-4.021484 0.996182,-1.181309 -0.112231,-3.167744 -1.621641,-3.055982 -1.669972,-0.298426 -3.339777,-0.729809 -5.046328,-0.713549 z" /></g><path
       style="fill:none;fill-opacity:0.237805;stroke:#000000;stroke-width:4;stroke-linecap:round;stroke-linejoin:round;stroke-dasharray:none;stroke-opacity:1"
       d="M 14.574753,13.593066 C -6.4016573,30.583288 17.704887,68.421475 50.280383,47.313387 66.018379,37.115568 59.557923,12.104707 41.764813,7.3007579 30.200278,5.5655308 21.201204,8.3955732 14.574753,13.593066 Z"
       id="path5702-0"
       sodipodi:nodetypes="cscc"
       class="UnoptimicedTransforms"
       inkscape:label="Outside Path"
       transform="translate(0.4186399,0.4125783)" /></g></svg>
