<?xml version="1.0" encoding="UTF-8" standalone="no"?>
<!-- Created with Inkscape (http://www.inkscape.org/) -->

<svg
   width="60.364159mm"
   height="54.602734mm"
   viewBox="0 0 60.364159 54.602734"
   version="1.1"
   id="svg5"
   inkscape:version="1.2.2 (732a01da63, 2022-12-09)"
   xml:space="preserve"
   sodipodi:docname="fire_orb.svg"
   xmlns:inkscape="http://www.inkscape.org/namespaces/inkscape"
   xmlns:sodipodi="http://sodipodi.sourceforge.net/DTD/sodipodi-0.dtd"
   xmlns="http://www.w3.org/2000/svg"
   xmlns:svg="http://www.w3.org/2000/svg"><sodipodi:namedview
     id="namedview7"
     pagecolor="#7c7c7c"
     bordercolor="#000000"
     borderopacity="0.25"
     inkscape:showpageshadow="2"
     inkscape:pageopacity="0"
     inkscape:pagecheckerboard="true"
     inkscape:deskcolor="#2c2c2c"
     inkscape:document-units="mm"
     showgrid="false"
     inkscape:lockguides="false"
     inkscape:zoom="1.4912879"
     inkscape:cx="-12.070104"
     inkscape:cy="73.091185"
     inkscape:window-width="1920"
     inkscape:window-height="1017"
     inkscape:window-x="1272"
     inkscape:window-y="-8"
     inkscape:window-maximized="1"
     inkscape:current-layer="layer1" /><defs
     id="defs2" /><g
     inkscape:label="Body"
     inkscape:groupmode="layer"
     id="layer1"
     transform="translate(-3.3209498,-3.0528001)"><path
       style="fill:#ff6361;fill-opacity:1;stroke:#000000;stroke-width:4;stroke-linecap:round;stroke-linejoin:round;stroke-dasharray:none;stroke-opacity:1"
       d="M 15.076571,13.843975 C -5.8998397,30.834197 18.206705,68.672384 50.782201,47.564296 66.520197,37.366477 60.059741,12.355616 42.266631,7.5516668 30.702096,5.8164397 21.703022,8.6464821 15.076571,13.843975 Z"
       id="path5702"
       sodipodi:nodetypes="cscc" /><path
       style="fill:#ff3634;fill-opacity:1;stroke:#000000;stroke-width:2.21491;stroke-linecap:round;stroke-linejoin:round;stroke-dasharray:none;stroke-opacity:1"
       d="m 29.596538,47.993492 c -6.487412,0.225156 -14.185243,-5.010718 -12.243256,-12.351137 0.878864,-3.321977 4.106234,-5.434921 4.301684,-9.023254 0.109826,-2.016271 -0.190953,-3.702079 -1.199507,-5.472023 -0.782026,-1.372401 -2.028861,-2.254677 -1.902669,-2.322818 3.40077,-1.836343 7.34886,3.01361 8.10702,5.762375 0.524914,1.903112 -1.84361,7.453958 -0.04136,5.807044 7.539632,-6.88979 -2.221265,-13.522063 7.445223,-18.493203 0.580728,-0.298649 2.134654,-1.141988 2.895365,-1.005066 0.548025,0.09864 -0.569871,0.960869 -0.785885,1.474096 -0.518257,1.231329 -0.995481,2.682098 -1.07542,4.020261 -0.194767,3.260233 2.42588,5.730373 2.233565,9.157264 -0.125383,2.234271 -1.812554,4.091255 -1.654493,4.176604 0.788812,0.425943 2.736666,-0.61428 3.391712,-0.98273 3.465111,-1.949048 3.226263,-4.269248 3.226263,-7.861845 0,-1.059151 -0.0567,-2.684619 -0.74452,-3.551231 -0.134467,-0.169419 -0.498356,-0.637083 -0.289539,-0.580704 1.316176,0.355353 3.155529,1.818102 4.012149,2.858853 1.018965,1.237996 1.443377,2.776823 1.73722,4.310613 1.278169,6.671791 -3.114104,7.464491 -3.474439,12.328802 -0.240606,3.248058 2.227487,7.905343 -1.194057,10.148807 -3.672459,2.407989 -8.652265,1.864495 -12.745054,1.599292 z"
       id="path4075"
       sodipodi:nodetypes="sssssssssscssssssscssss" /></g></svg>
