<?xml version="1.0" encoding="UTF-8" standalone="no"?>
<!-- Created with Inkscape (http://www.inkscape.org/) -->

<svg
   width="60.364159mm"
   height="54.602734mm"
   viewBox="0 0 60.364159 54.602734"
   version="1.1"
   id="svg5"
   inkscape:version="1.2.2 (732a01da63, 2022-12-09)"
   xml:space="preserve"
   sodipodi:docname="fire_orb.svg"
   xmlns:inkscape="http://www.inkscape.org/namespaces/inkscape"
   xmlns:sodipodi="http://sodipodi.sourceforge.net/DTD/sodipodi-0.dtd"
   xmlns="http://www.w3.org/2000/svg"
   xmlns:svg="http://www.w3.org/2000/svg"><sodipodi:namedview
     id="namedview7"
     pagecolor="#7c7c7c"
     bordercolor="#000000"
     borderopacity="0.25"
     inkscape:showpageshadow="2"
     inkscape:pageopacity="0"
     inkscape:pagecheckerboard="true"
     inkscape:deskcolor="#2c2c2c"
     inkscape:document-units="mm"
     showgrid="false"
     inkscape:lockguides="false"
     inkscape:zoom="1.4912879"
     inkscape:cx="4.3586486"
     inkscape:cy="72.420623"
     inkscape:window-width="1920"
     inkscape:window-height="1017"
     inkscape:window-x="1272"
     inkscape:window-y="-8"
     inkscape:window-maximized="1"
     inkscape:current-layer="layer1" /><defs
     id="defs2" /><g
     inkscape:label="Body"
     inkscape:groupmode="layer"
     id="layer1"
     transform="translate(-3.3209498,-3.0528001)"><path
       style="fill:#ff6361;fill-opacity:1;stroke:#000000;stroke-width:8;stroke-linecap:round;stroke-linejoin:round;stroke-dasharray:none;stroke-opacity:1"
       d="M 15.076571,13.843975 C -5.8998397,30.834197 18.206705,68.672384 50.782201,47.564296 66.520197,37.366477 60.059741,12.355616 42.266631,7.5516668 30.702096,5.8164397 21.703022,8.6464821 15.076571,13.843975 Z"
       id="path5702"
       sodipodi:nodetypes="cscc" /><path
       style="fill:#ff3634;fill-opacity:1;stroke:#000000;stroke-width:2;stroke-linecap:round;stroke-linejoin:round;stroke-dasharray:none;stroke-opacity:1"
       d="m 29.84355,46.235392 c -5.857942,0.203309 -12.808857,-4.524531 -11.0553,-11.152713 0.793588,-2.999648 3.707808,-4.907574 3.884294,-8.147733 0.09917,-1.820633 -0.172425,-3.342868 -1.08312,-4.941076 -0.706146,-1.239237 -1.832001,-2.035907 -1.718054,-2.097436 3.070796,-1.658164 6.635805,2.721201 7.320401,5.203255 0.473982,1.718454 -1.664726,6.730705 -0.03735,5.24359 6.808066,-6.221278 -2.005737,-12.210025 6.722817,-16.698818 0.524381,-0.269671 1.92753,-1.031182 2.61443,-0.907545 0.49485,0.08907 -0.514577,0.867636 -0.709631,1.331065 -0.467971,1.111854 -0.89889,2.421856 -0.971073,3.630178 -0.175869,2.943894 2.190498,5.174358 2.016844,8.268739 -0.113218,2.017481 -1.636683,3.694283 -1.493959,3.771351 0.712274,0.384614 2.471129,-0.554677 3.062616,-0.887376 3.128893,-1.759933 2.913221,-3.855006 2.913221,-7.099015 0,-0.956382 -0.0512,-2.424132 -0.67228,-3.206657 -0.12142,-0.15298 -0.450001,-0.575267 -0.261445,-0.524359 1.188468,0.320874 2.84935,1.641693 3.622852,2.58146 0.920096,1.117874 1.303327,2.50739 1.568659,3.892357 1.154149,6.024431 -2.811944,6.740216 -3.137316,11.132545 -0.21726,2.932901 2.491968,8.259723 -0.597585,10.285505 -3.316123,2.174343 -8.293354,0.562153 -11.989022,0.322683 z"
       id="path4075" /></g></svg>
