<?xml version="1.0" encoding="UTF-8" standalone="no"?>
<!-- Created with Inkscape (http://www.inkscape.org/) -->

<svg
   width="124.21489mm"
   height="123.64418mm"
   viewBox="0 0 124.21488 123.64418"
   version="1.1"
   id="svg5"
   inkscape:version="1.2.2 (732a01da63, 2022-12-09)"
   xml:space="preserve"
   sodipodi:docname="info.svg"
   xmlns:inkscape="http://www.inkscape.org/namespaces/inkscape"
   xmlns:sodipodi="http://sodipodi.sourceforge.net/DTD/sodipodi-0.dtd"
   xmlns="http://www.w3.org/2000/svg"
   xmlns:svg="http://www.w3.org/2000/svg"><sodipodi:namedview
     id="namedview7"
     pagecolor="#7c7c7c"
     bordercolor="#000000"
     borderopacity="0.25"
     inkscape:showpageshadow="2"
     inkscape:pageopacity="0"
     inkscape:pagecheckerboard="true"
     inkscape:deskcolor="#2c2c2c"
     inkscape:document-units="mm"
     showgrid="false"
     inkscape:lockguides="false"
     inkscape:zoom="1.0544998"
     inkscape:cx="24.65624"
     inkscape:cy="215.26794"
     inkscape:window-width="1920"
     inkscape:window-height="1017"
     inkscape:window-x="1272"
     inkscape:window-y="-8"
     inkscape:window-maximized="1"
     inkscape:current-layer="layer1" /><defs
     id="defs2" /><g
     inkscape:label="Layer 1"
     inkscape:groupmode="layer"
     id="layer1"
     transform="translate(-19.882122,-21.933975)"><path
       id="path2468"
       style="fill:none;fill-opacity:1;stroke:#000000;stroke-width:8;stroke-linecap:round;stroke-linejoin:round;stroke-dasharray:none;stroke-opacity:1"
       d="m 84.493034,25.934851 c -9.580836,0.04823 -19.29718,2.091449 -28.038082,5.490621 -8.086986,3.144875 -15.139806,9.256766 -20.424076,16.139067 -5.437662,7.082074 -8.321684,15.963518 -10.616923,24.592297 -0.944434,3.550526 -1.055854,7.282222 -1.236617,10.95282 -1.865268,13.916065 5.573152,26.786374 13.592968,37.509854 5.335148,8.54123 14.388028,13.74059 23.453349,17.53226 8.236067,4.77908 18.09462,3.67783 27.004037,1.81075 9.49316,-0.40268 19.02808,-3.58474 26.80715,-8.88628 8.37018,-5.70441 15.04874,-14.22499 19.44687,-23.34948 3.94582,-8.186075 6.1054,-17.629628 5.51905,-26.698114 C 139.24815,69.388821 135.50235,57.333839 128.56321,47.958313 121.88775,38.939025 112.14139,31.222166 101.35195,28.140401 95.941196,26.594938 90.241534,25.905914 84.493034,25.934851 Z"
       sodipodi:nodetypes="ssssccccssssss" /><path
       style="fill:none;fill-opacity:1;stroke:#000000;stroke-width:15;stroke-linecap:round;stroke-linejoin:round;stroke-dasharray:none;stroke-opacity:1"
       d="m 72.145523,70.330193 c 3.418688,1.414864 12.620869,-2.318736 12.881784,0.939695 0.166722,2.082093 -1.399373,10.152525 -1.560537,11.385369 -1.44046,11.019093 -1.924334,22.334433 -2.154688,33.425583 -0.02418,1.16481 -0.48035,17.71202 -0.182601,10.87891"
       id="path27756"
       sodipodi:nodetypes="csssc" /><path
       style="fill:#000000;fill-opacity:1;stroke:none;stroke-width:19.9854;stroke-linecap:round;stroke-linejoin:round;stroke-dasharray:none;stroke-opacity:1"
       d="m 81.924028,37.099447 c -4.588423,0.697979 -7.330745,3.261408 -9.817201,7.011104 -1.392494,2.099952 -1.362983,4.620808 -0.760038,6.954103 2.588324,10.016434 13.625776,9.060245 20.457772,3.705052 6.811785,-5.339348 3.930817,-18.867277 -5.636974,-18.867277 -1.351535,0 -3.638452,1.005939 -4.243559,1.197018 z"
       id="path27758" /></g></svg>
