<?xml version="1.0" encoding="UTF-8" standalone="no"?>
<!-- Created with Inkscape (http://www.inkscape.org/) -->

<svg
   width="116.20847mm"
   height="115.62268mm"
   viewBox="0 0 116.20847 115.62268"
   version="1.1"
   id="svg5"
   inkscape:version="1.2.2 (732a01da63, 2022-12-09)"
   xml:space="preserve"
   sodipodi:docname="info.svg"
   xmlns:inkscape="http://www.inkscape.org/namespaces/inkscape"
   xmlns:sodipodi="http://sodipodi.sourceforge.net/DTD/sodipodi-0.dtd"
   xmlns="http://www.w3.org/2000/svg"
   xmlns:svg="http://www.w3.org/2000/svg"><sodipodi:namedview
     id="namedview7"
     pagecolor="#7c7c7c"
     bordercolor="#000000"
     borderopacity="0.25"
     inkscape:showpageshadow="2"
     inkscape:pageopacity="0"
     inkscape:pagecheckerboard="true"
     inkscape:deskcolor="#2c2c2c"
     inkscape:document-units="mm"
     showgrid="false"
     inkscape:lockguides="false"
     inkscape:zoom="1.4912879"
     inkscape:cx="171.6637"
     inkscape:cy="187.75718"
     inkscape:window-width="1920"
     inkscape:window-height="1017"
     inkscape:window-x="1272"
     inkscape:window-y="-8"
     inkscape:window-maximized="1"
     inkscape:current-layer="layer1" /><defs
     id="defs2" /><g
     inkscape:label="Layer 1"
     inkscape:groupmode="layer"
     id="layer1"
     transform="translate(-23.887394,-25.933977)"><path
       id="path2468"
       style="fill:#ffffff;fill-opacity:1;stroke-width:0.499999;stroke-linecap:round;stroke-linejoin:round"
       d="m 84.493034,25.934851 c -9.580836,0.04823 -19.29718,2.091449 -28.038082,5.490621 -8.086986,3.144875 -15.139806,9.256766 -20.424076,16.139067 -5.437662,7.082074 -8.321684,15.963518 -10.616923,24.592297 -0.944434,3.550526 -1.055854,7.282222 -1.236617,10.95282 -1.865268,13.916065 5.573152,26.786374 13.592968,37.509854 5.335148,8.54123 14.388028,13.74059 23.453349,17.53226 8.236067,4.77908 18.09462,3.67783 27.004037,1.81075 9.49316,-0.40268 19.02808,-3.58474 26.80715,-8.88628 8.37018,-5.70441 15.04874,-14.22499 19.44687,-23.34948 3.94582,-8.186075 6.1054,-17.629628 5.51905,-26.698114 C 139.24815,69.388821 135.50235,57.333839 128.56321,47.958313 121.88775,38.939025 112.14139,31.222166 101.35195,28.140401 95.941196,26.594938 90.241534,25.905914 84.493034,25.934851 Z M 72.643059,46.470258 c 2.820103,-5.937115 16.341369,-5.246796 19.714594,0.394451 2.736898,4.577076 -1.990387,13.628076 -7.287809,14.242541 C 78.71224,61.844688 69.897018,52.251452 72.643059,46.470258 Z m 3.891344,60.597242 c -0.07617,-5.67952 0.505456,-18.605356 0.984654,-25.566732 0.479198,-6.961376 -0.02221,-14.858283 3.506463,-15.498121 7.814831,0.242415 5.167731,17.902961 5.11044,25.721341 -1.076494,10.908012 -1.153501,23.559672 -0.842683,34.483042 -0.01901,7.03523 -2.483532,11.11775 -6.251455,10.25034 -3.559475,-7.05516 -2.781351,-18.33917 -2.507419,-29.38987 z"
       sodipodi:nodetypes="ssssccccssssssaaaacsccccc" /></g></svg>
