<?xml version="1.0" encoding="UTF-8" standalone="no"?>
<!-- Created with Inkscape (http://www.inkscape.org/) -->

<svg
   width="40.312962mm"
   height="83.57106mm"
   viewBox="0 0 40.312962 83.57106"
   version="1.1"
   id="svg5"
   inkscape:version="1.2.2 (732a01da63, 2022-12-09)"
   xml:space="preserve"
   sodipodi:docname="lightning gem.svg"
   xmlns:inkscape="http://www.inkscape.org/namespaces/inkscape"
   xmlns:sodipodi="http://sodipodi.sourceforge.net/DTD/sodipodi-0.dtd"
   xmlns="http://www.w3.org/2000/svg"
   xmlns:svg="http://www.w3.org/2000/svg"><sodipodi:namedview
     id="namedview7"
     pagecolor="#7c7c7c"
     bordercolor="#000000"
     borderopacity="0.25"
     inkscape:showpageshadow="2"
     inkscape:pageopacity="0"
     inkscape:pagecheckerboard="true"
     inkscape:deskcolor="#2c2c2c"
     inkscape:document-units="mm"
     showgrid="false"
     inkscape:lockguides="false"
     inkscape:zoom="1.4912879"
     inkscape:cx="-58.338836"
     inkscape:cy="99.913638"
     inkscape:window-width="1920"
     inkscape:window-height="1017"
     inkscape:window-x="1272"
     inkscape:window-y="-8"
     inkscape:window-maximized="1"
     inkscape:current-layer="layer1" /><defs
     id="defs2"><inkscape:path-effect
       effect="fill_between_many"
       method="originald"
       linkedpaths="#path494,0,1|#path1179,0,1"
       id="path-effect1250"
       is_visible="true"
       lpeversion="0"
       join="true"
       close="true"
       autoreverse="true" /></defs><g
     inkscape:label="Layer 1"
     inkscape:groupmode="layer"
     id="layer1"
     transform="translate(-130.87754,-78.685401)"><path
       style="fill:#623f00;fill-opacity:1;stroke:#000000;stroke-width:0;stroke-linecap:round;stroke-linejoin:round;stroke-dasharray:none"
       d="m 134.04032,149.03226 23.77419,-11.8871 9.93549,9.93548 -21.73387,12.24194 z"
       id="path1258"
       inkscape:label="Bottom fill" /><path
       style="fill:#ffa600;fill-opacity:1;stroke:#000000;stroke-width:0;stroke-linecap:round;stroke-linejoin:round;stroke-dasharray:none"
       d="m 133.59677,148.85484 23.50807,-11.26613 0.17742,-35.04032 -23.33065,-10.290326 z"
       id="path1992"
       inkscape:label="Left Fill" /><path
       style="fill:#bd7b00;fill-opacity:1;stroke:none;stroke-width:0;stroke-linecap:round;stroke-linejoin:round;stroke-dasharray:none"
       d="m 156.92742,102.81452 c 0.44355,-0.62097 11.35484,-10.290327 11.35484,-10.290327 v 54.290317 l -11.17742,-10.55645 z"
       id="path1260"
       inkscape:label="Right fill" /><path
       style="fill:#ffc456;fill-opacity:1;stroke:none;stroke-width:0;stroke-linecap:round;stroke-linejoin:round;stroke-dasharray:none"
       d="M 134.39516,91.637095 146.7258,81.169353 167.21774,91.459676 157.01613,103.08064 Z"
       id="path1262"
       inkscape:label="Fill top" /><path
       style="fill:none;fill-opacity:1;stroke:#000000;stroke-width:4.99999;stroke-linecap:round;stroke-linejoin:round"
       d="m 154.93046,155.52422 c -2.44425,1.53191 -6.96109,2.31217 -8.94019,4.23233 -2.82938,-2.21823 -9.65456,-8.8446 -12.61274,-11.09028 0.21651,-4.5702 0.6366,-8.22736 0.57234,-12.07627 0.0605,-5.74861 -0.21621,-5.99657 -0.10698,-11.74007 -0.0813,-3.79234 0.8948,-7.57751 0.11048,-11.36017 -0.57778,-6.252 0.51042,-12.51105 -0.0206,-18.757241 -0.20109,-3.626979 3.62816,-4.711314 5.70448,-6.894753 2.26545,-1.984927 4.62175,-4.323189 7.07708,-6.652423 3.25537,1.663758 5.29763,2.847178 8.57151,3.936925 3.80487,1.001136 6.88849,3.363709 10.20918,5.303262 3.34874,0.812082 3.45423,4.025537 2.97199,6.790867 -0.21597,5.201513 0.0704,10.401153 -0.21189,15.601833 -0.005,3.55522 -0.087,7.08702 -0.0601,10.63046 0.0326,4.29148 0.25889,8.58043 0.26833,12.87202 0.008,3.81618 -0.36348,7.7181 -0.18823,11.44701 -3.88699,2.96729 -11.56343,6.76024 -13.34466,7.7565 z"
       id="path494"
       sodipodi:nodetypes="cccccccccccccaacc" /><path
       style="fill:none;stroke:#000000;stroke-width:3;stroke-linecap:round;stroke-linejoin:round;stroke-dasharray:none"
       d="m 168.65401,91.514828 c -3.76471,3.613994 -7.07644,7.738619 -11.07967,11.075602 -4.29753,-1.13557 -8.99155,-3.46663 -13.41837,-5.147215 -3.12447,-1.741787 -6.07963,-3.825594 -9.41484,-5.162016"
       id="path1179"
       sodipodi:nodetypes="csscsssc" /><path
       style="fill:none;stroke:#000000;stroke-width:3;stroke-linecap:round;stroke-linejoin:round;stroke-dasharray:none"
       d="m 168.09378,147.98427 c -1.95606,-3.16384 -7.18093,-7.58749 -10.69222,-9.9656 -2.03578,0.519 -4.06838,1.82453 -7.0278,3.00315 -3.41015,1.51652 -4.74699,2.64675 -8.37897,4.16997 -2.56655,0.97927 -4.814,2.56491 -7.46866,3.35924"
       id="path1185"
       sodipodi:nodetypes="ccscc"
       class="UnoptimicedTransforms" /><path
       style="fill:none;stroke:#000000;stroke-width:3;stroke-linecap:round;stroke-linejoin:round;stroke-dasharray:none"
       d="m 157.28441,137.6779 c -0.005,-3.96368 -0.27593,-7.92958 0.0939,-11.8767 -0.30182,-4.54066 0.37237,-9.06994 0.0802,-13.60099 -0.13678,-3.20282 -0.53869,-6.48668 -0.0807,-9.68462"
       id="path1244"
       sodipodi:nodetypes="csssccsscc" /></g></svg>
