<?xml version="1.0" encoding="UTF-8" standalone="no"?>
<!-- Created with Inkscape (http://www.inkscape.org/) -->

<svg
   width="159.29967mm"
   height="163.70683mm"
   viewBox="0 0 159.29967 163.70683"
   version="1.1"
   id="svg5"
   inkscape:version="1.2.2 (732a01da63, 2022-12-09)"
   xml:space="preserve"
   sodipodi:docname="lock.svg"
   xmlns:inkscape="http://www.inkscape.org/namespaces/inkscape"
   xmlns:sodipodi="http://sodipodi.sourceforge.net/DTD/sodipodi-0.dtd"
   xmlns="http://www.w3.org/2000/svg"
   xmlns:svg="http://www.w3.org/2000/svg"><sodipodi:namedview
     id="namedview7"
     pagecolor="#7c7c7c"
     bordercolor="#000000"
     borderopacity="0.25"
     inkscape:showpageshadow="2"
     inkscape:pageopacity="0"
     inkscape:pagecheckerboard="true"
     inkscape:deskcolor="#2c2c2c"
     inkscape:document-units="mm"
     showgrid="false"
     inkscape:lockguides="false"
     inkscape:zoom="0.74564394"
     inkscape:cx="39.563119"
     inkscape:cy="336.62179"
     inkscape:window-width="1920"
     inkscape:window-height="1017"
     inkscape:window-x="1272"
     inkscape:window-y="-8"
     inkscape:window-maximized="1"
     inkscape:current-layer="layer1" /><defs
     id="defs2" /><g
     inkscape:label="Layer 1"
     inkscape:groupmode="layer"
     id="layer1"
     transform="translate(-32.319792,-33.571098)"><path
       id="path5594"
       style="fill:#ffffff;stroke-width:0.499999;stroke-linecap:round;stroke-linejoin:round"
       d="m 110.31006,33.571594 c -8.42707,0.03159 -16.938187,1.571088 -24.807785,4.188892 -10.12025,3.366476 -19.17757,10.027462 -26.784412,17.503324 -9.318131,9.157677 -17.240477,20.268497 -22.007442,32.432646 -3.547017,9.051104 -4.257425,19.112354 -4.381645,28.832864 -0.09575,7.49253 0.556186,15.15696 2.808614,22.30355 3.607767,11.4469 9.206786,22.55124 16.798458,31.84715 6.035144,7.38995 13.792879,13.51957 22.1387,18.1436 7.212673,3.99619 15.235145,7.08085 23.439396,7.90701 14.971566,1.50762 30.823886,-0.0161 44.792096,-5.61155 10.14097,-4.06233 18.96717,-11.4401 26.33793,-19.5032 6.37049,-6.96888 10.94016,-15.54313 14.75052,-24.18199 3.75809,-8.52033 6.88339,-17.55845 7.80314,-26.82523 0.92236,-9.29311 0.42006,-19.00685 -2.38435,-27.914576 -3.49405,-11.098248 -9.29962,-21.943668 -17.48937,-30.208492 -12.56296,-12.678127 -28.73547,-23.089638 -46.09228,-27.2495 -4.83911,-1.159777 -9.86532,-1.683454 -14.92157,-1.664498 z m 1.5565,23.038904 c 3.89659,0.017 7.74363,0.532239 11.36726,1.604037 7.71306,2.281372 13.94819,8.969516 18.28881,15.741158 4.80322,7.493332 6.12561,16.850356 7.37733,25.662516 1.54501,10.876941 0.0793,21.972591 0.0749,32.958711 -0.003,8.15887 0.5543,16.34197 -0.0749,24.47654 -0.36592,4.73037 0.51214,11.44687 -2.14613,14.07046 -2.65827,2.62359 -8.68138,0.96151 -13.04054,1.17771 -11.18917,0.55494 -22.40456,0.37455 -33.60726,0.30437 -9.009265,-0.0564 -19.663151,2.24571 -27.022119,-0.58343 -5.136417,-2.66086 -2.502267,-7.59693 -2.989481,-11.54089 -0.704125,-5.69985 -0.02432,-11.48787 0.131774,-17.22893 0.192963,-7.09692 0.814364,-14.17844 0.994255,-21.2757 0.193114,-7.61892 -0.609666,-15.27463 0.09095,-22.86372 0.621559,-6.732743 0.889678,-13.776676 3.634403,-19.955888 2.738912,-6.166126 6.506317,-12.658382 12.343949,-16.041398 7.192846,-4.168387 16.004289,-6.542943 24.576799,-6.505546 z" /><path
       style="fill:#ffffff;stroke-width:0.499999;stroke-linecap:round;stroke-linejoin:round"
       d="m 83.569386,112.14964 c -2.102018,-9.13302 -1.294186,-20.419753 4.251937,-28.611689 2.582479,-5.064865 7.223972,-8.777332 12.758247,-10.069661 6.65008,-2.598755 17.58313,-2.402966 24.06339,1.567164 9.32393,4.974129 7.97588,10.599585 9.62969,16.855436 1.77203,6.70301 0.56786,16.1129 -0.0449,20.7998 -5.26002,0.20724 -14.3737,0.47314 -19.60716,1.05113 -6.39654,0.28314 -12.75505,-0.74811 -19.159145,-0.74433 -4.055398,-0.15578 -7.272266,0.58781 -11.892069,-0.84785 z"
       id="path5598"
       sodipodi:nodetypes="ccccacccc" /><path
       style="fill:#ffffff;stroke-width:0.499999;stroke-linecap:round;stroke-linejoin:round"
       d="m 105.46833,139.7491 c -3.15663,-2.8855 -6.541154,-6.81449 -6.211752,-11.01763 0.301079,-3.84174 3.647222,-7.51708 7.177122,-9.06287 3.4968,-1.53129 8.49007,-1.58392 11.41956,0.86364 2.73939,2.28873 3.21636,6.83352 2.69365,10.36471 -0.5194,3.50887 -4.57635,5.77831 -5.54555,9.08209 0.49489,5.18907 3.41744,9.5807 4.88973,14.44681 0.99705,3.2954 1.13333,6.85702 2.66775,9.97833 -2.02234,3.31599 -6.80931,0.10996 -9.89512,1.86964 -4.50704,0.11928 -9.0243,-0.089 -13.531364,-0.143 -4.880089,-0.43693 0.419513,-5.10084 0.962124,-7.59407 0.77022,-3.53905 2.25208,-6.88689 3.23761,-10.37212 0.78751,-2.78494 1.78431,-5.54649 2.13624,-8.41553 z"
       id="path5606"
       sodipodi:nodetypes="caaaacacccaac" /></g></svg>
