<?xml version="1.0" encoding="UTF-8" standalone="no"?>
<!-- Created with Inkscape (http://www.inkscape.org/) -->

<svg
   width="60.364159mm"
   height="54.602734mm"
   viewBox="0 0 60.364159 54.602734"
   version="1.1"
   id="svg5"
   inkscape:version="1.2.2 (732a01da63, 2022-12-09)"
   xml:space="preserve"
   sodipodi:docname="mana_orb.svg"
   xmlns:inkscape="http://www.inkscape.org/namespaces/inkscape"
   xmlns:sodipodi="http://sodipodi.sourceforge.net/DTD/sodipodi-0.dtd"
   xmlns="http://www.w3.org/2000/svg"
   xmlns:svg="http://www.w3.org/2000/svg"><sodipodi:namedview
     id="namedview7"
     pagecolor="#7c7c7c"
     bordercolor="#000000"
     borderopacity="0.25"
     inkscape:showpageshadow="2"
     inkscape:pageopacity="0"
     inkscape:pagecheckerboard="true"
     inkscape:deskcolor="#2c2c2c"
     inkscape:document-units="mm"
     showgrid="false"
     inkscape:lockguides="false"
     inkscape:zoom="2.9825758"
     inkscape:cx="15.08763"
     inkscape:cy="134.44755"
     inkscape:window-width="1920"
     inkscape:window-height="1017"
     inkscape:window-x="1272"
     inkscape:window-y="-8"
     inkscape:window-maximized="1"
     inkscape:current-layer="layer1" /><defs
     id="defs2" /><g
     inkscape:label="Body"
     inkscape:groupmode="layer"
     id="layer1"
     transform="translate(-3.3209498,-3.0528001)"><path
       style="fill:#58508d;fill-opacity:1;stroke:#000000;stroke-width:8;stroke-linecap:round;stroke-linejoin:round;stroke-dasharray:none;stroke-opacity:1"
       d="M 15.076571,13.843975 C -5.8998397,30.834197 18.206705,68.672384 50.782201,47.564296 66.520197,37.366477 60.059741,12.355616 42.266631,7.5516668 30.702096,5.8164397 21.703022,8.6464821 15.076571,13.843975 Z"
       id="path5702"
       sodipodi:nodetypes="cscc" /><path
       style="fill:#9f8ffc;fill-opacity:1;stroke-width:2;stroke-linecap:round;stroke-linejoin:round;stroke:#000000;stroke-opacity:1;stroke-dasharray:none"
       d="m 20.742147,18.238688 c 0,0.242431 0,0.484863 0,0.727295 0,1.533483 -0.553538,2.933317 -1.558174,4.078556 -0.339293,0.386778 -2.173523,1.519282 -1.346896,1.397547 1.525625,-0.224674 2.914818,0.495499 3.644542,1.825368 0.247922,0.45182 0.422532,0.941134 0.581013,1.426069 0.03065,0.09379 0.06714,0.383141 0.07923,0.285213 0.222198,-1.799735 -0.420464,-3.233405 1.452534,-4.36377 0.645877,-0.38979 1.317464,-0.75989 2.059958,-0.926944 0.288835,-0.06499 1.167576,-0.171128 0.871521,-0.171128 -1.448448,0 -2.815688,-0.512845 -3.75018,-1.711283 -0.769023,-0.986233 -0.777041,-2.431226 -2.033548,-2.566923 z"
       id="path1694" /><path
       style="fill:#9f8ffc;fill-opacity:1;stroke:#000000;stroke-width:2;stroke-linecap:round;stroke-linejoin:round;stroke-dasharray:none;stroke-opacity:1"
       d="m 29.180119,26.435941 c -1.737851,2.690472 -5.923938,3.465995 -7.935837,5.417692 1.741533,0.02791 6.230472,0.432502 8.503057,2.290404 2.346155,1.918048 3.777714,8.085356 4.062386,8.133094 0.04556,-2.328476 1.166051,-5.506303 2.841485,-7.64888 1.794532,-2.294882 4.313176,-4.292001 7.217163,-4.928895 -3.4383,-0.03909 -6.790524,-1.893465 -9.131704,-4.312213 -2.224284,-2.297979 -3.641348,-11.401991 -3.81204,-8.804641 -0.160496,3.441319 0.0653,7.051559 -1.74451,9.853439 z"
       id="path1698"
       sodipodi:nodetypes="asacasaca" /><path
       style="fill:#9f8ffc;fill-opacity:1;stroke:#000000;stroke-width:2;stroke-linecap:round;stroke-linejoin:round;stroke-dasharray:none;stroke-opacity:1"
       d="m 45.933279,33.782045 c -1.126961,0.930261 -3.054407,0.689962 -4.198618,1.261133 0.753489,0.252477 2.649837,1.047709 3.381802,2.169222 0.755663,1.157821 0.527311,4.037373 0.64452,4.09741 0.341074,-1.006323 1.266802,-2.233701 2.291027,-2.934303 1.097032,-0.750407 2.467883,-1.271417 3.818642,-1.147723 -1.489856,-0.491383 -2.691822,-1.760323 -3.376239,-3.135202 -0.650244,-1.30623 -0.01041,-5.460896 -0.443001,-4.354911 -0.544599,1.474416 -0.944508,3.075591 -2.118135,4.044374 z"
       id="path1698-1"
       sodipodi:nodetypes="asacasaca" /></g></svg>
