<?xml version="1.0" encoding="UTF-8" standalone="no"?>
<!-- Created with Inkscape (http://www.inkscape.org/) -->

<svg
   width="60.364159mm"
   height="54.602734mm"
   viewBox="0 0 60.364159 54.602734"
   version="1.1"
   id="svg5"
   inkscape:version="1.2.2 (732a01da63, 2022-12-09)"
   xml:space="preserve"
   sodipodi:docname="mana_orb.svg"
   xmlns:inkscape="http://www.inkscape.org/namespaces/inkscape"
   xmlns:sodipodi="http://sodipodi.sourceforge.net/DTD/sodipodi-0.dtd"
   xmlns="http://www.w3.org/2000/svg"
   xmlns:svg="http://www.w3.org/2000/svg"><sodipodi:namedview
     id="namedview7"
     pagecolor="#7c7c7c"
     bordercolor="#000000"
     borderopacity="0.25"
     inkscape:showpageshadow="2"
     inkscape:pageopacity="0"
     inkscape:pagecheckerboard="true"
     inkscape:deskcolor="#2c2c2c"
     inkscape:document-units="mm"
     showgrid="false"
     inkscape:lockguides="false"
     inkscape:zoom="2.9825758"
     inkscape:cx="56.159512"
     inkscape:cy="90.52578"
     inkscape:window-width="1920"
     inkscape:window-height="1017"
     inkscape:window-x="1272"
     inkscape:window-y="-8"
     inkscape:window-maximized="1"
     inkscape:current-layer="layer1" /><defs
     id="defs2" /><g
     inkscape:label="Body"
     inkscape:groupmode="layer"
     id="layer1"
     transform="translate(-3.3209498,-3.0528001)"><path
       style="fill:#9f8ffc;fill-opacity:1;stroke:#000000;stroke-width:4;stroke-linecap:round;stroke-linejoin:round;stroke-dasharray:none;stroke-opacity:1"
       d="M 15.076571,13.843975 C -5.8998397,30.834197 18.206705,68.672384 50.782201,47.564296 66.520197,37.366477 60.059741,12.355616 42.266631,7.5516668 30.702096,5.8164397 21.703022,8.6464821 15.076571,13.843975 Z"
       id="path5702"
       sodipodi:nodetypes="cscc" /><path
       style="fill:#58508d;fill-opacity:1;stroke:#000000;stroke-width:2.35246;stroke-linecap:round;stroke-linejoin:round;stroke-dasharray:none;stroke-opacity:1"
       d="m 17.830245,15.774835 c 0,0.285155 0,0.570311 0,0.855467 0,1.80373 -0.651089,3.450258 -1.832773,4.797323 -0.399087,0.454941 -2.556565,1.787027 -1.58426,1.643838 1.794487,-0.264268 3.428499,0.582822 4.286823,2.147055 0.291613,0.531444 0.496995,1.106991 0.683405,1.677386 0.03605,0.110319 0.07897,0.450663 0.09319,0.335477 0.261356,-2.116904 -0.494563,-3.803231 1.708515,-5.132802 0.759701,-0.458483 1.549642,-0.893806 2.422987,-1.0903 0.339736,-0.07644 1.373339,-0.201286 1.02511,-0.201286 -1.70371,0 -3.3119,-0.603224 -4.411078,-2.012864 -0.904549,-1.160038 -0.91398,-2.859683 -2.391922,-3.019294 z"
       id="path1694" /><path
       style="fill:#58508d;fill-opacity:1;stroke:#000000;stroke-width:2.35246;stroke-linecap:round;stroke-linejoin:round;stroke-dasharray:none;stroke-opacity:1"
       d="m 27.755249,25.416697 c -2.044115,3.164617 -6.96792,4.076811 -9.334377,6.372457 2.048445,0.03283 7.328473,0.508723 10.001558,2.694044 2.75962,2.256068 4.443464,9.510246 4.778304,9.566397 0.05359,-2.738825 1.371546,-6.476684 3.342243,-8.996849 2.110784,-2.699311 5.073291,-5.048385 8.48905,-5.797519 -4.044235,-0.04598 -7.987224,-2.227152 -10.740992,-5.072158 -2.616272,-2.702954 -4.283067,-13.411375 -4.48384,-10.356291 -0.18878,4.047785 0.07681,8.294261 -2.051946,11.589919 z"
       id="path1698"
       sodipodi:nodetypes="asacasaca" /><path
       style="fill:#58508d;fill-opacity:1;stroke:#000000;stroke-width:2.35246;stroke-linecap:round;stroke-linejoin:round;stroke-dasharray:none;stroke-opacity:1"
       d="m 47.460834,34.057412 c -1.325567,1.094202 -3.592688,0.811555 -4.938545,1.483384 0.886277,0.296971 3.11682,1.232348 3.97778,2.551506 0.888835,1.361865 0.62024,4.748883 0.758105,4.8195 0.401181,-1.183668 1.490051,-2.627348 2.694777,-3.451418 1.290362,-0.882652 2.9028,-1.49548 4.491604,-1.349987 -1.752414,-0.57798 -3.166204,-2.070546 -3.971236,-3.687722 -0.764837,-1.536428 -0.01225,-6.423274 -0.521072,-5.122381 -0.640574,1.734254 -1.110959,3.617606 -2.491416,4.757118 z"
       id="path1698-1"
       sodipodi:nodetypes="asacasaca" /></g></svg>
