<?xml version="1.0" encoding="UTF-8" standalone="no"?>
<!-- Created with Inkscape (http://www.inkscape.org/) -->

<svg
   width="93.574707mm"
   height="16.458738mm"
   viewBox="0 0 93.574707 16.458738"
   version="1.1"
   id="svg5"
   inkscape:version="1.2.2 (732a01da63, 2022-12-09)"
   xml:space="preserve"
   sodipodi:docname="card.svg"
   xmlns:inkscape="http://www.inkscape.org/namespaces/inkscape"
   xmlns:sodipodi="http://sodipodi.sourceforge.net/DTD/sodipodi-0.dtd"
   xmlns="http://www.w3.org/2000/svg"
   xmlns:svg="http://www.w3.org/2000/svg"><sodipodi:namedview
     id="namedview7"
     pagecolor="#7c7c7c"
     bordercolor="#000000"
     borderopacity="0.25"
     inkscape:showpageshadow="2"
     inkscape:pageopacity="0"
     inkscape:pagecheckerboard="true"
     inkscape:deskcolor="#2c2c2c"
     inkscape:document-units="mm"
     showgrid="false"
     inkscape:lockguides="false"
     inkscape:zoom="1.4912879"
     inkscape:cx="357.07391"
     inkscape:cy="356.06807"
     inkscape:window-width="1920"
     inkscape:window-height="1017"
     inkscape:window-x="1272"
     inkscape:window-y="-8"
     inkscape:window-maximized="1"
     inkscape:current-layer="layer3" /><defs
     id="defs2" /><g
     inkscape:groupmode="layer"
     id="layer5"
     inkscape:label="Text Box"
     inkscape:export-filename="textbox.svg"
     inkscape:export-xdpi="96"
     inkscape:export-ydpi="96"
     transform="translate(-48.466698,-72.531647)"><path
       style="fill:none;stroke:#000000;stroke-width:1.5;stroke-linecap:round;stroke-linejoin:round;stroke-dasharray:none;stroke-opacity:1"
       d="m 49.216661,87.640868 c 0.525963,-1.022432 0.112046,-3.007953 0.112046,-4.23521 0,-5.283086 0.08309,-3.751653 0.298791,-9.033112 3.431625,0.06655 6.753003,-0.705315 10.158926,-0.968047 5.072134,-0.391263 10.426912,0.268194 15.499829,0.463856 5.730223,0.221014 11.515744,-0.242012 17.255232,-0.242012 8.581365,0 17.068785,0.418154 25.621405,0.726036 2.5385,0.09138 4.95552,-0.473071 7.4698,-0.544527 5.10407,-0.145057 10.36513,-0.273229 15.42513,0 0.68018,2.49245 -0.35288,4.813051 -0.74698,7.260356 -0.30878,1.917457 0.0101,5.840146 0.59758,6.633163 -0.52289,0.141174 -1.0345,0.334007 -1.56866,0.423521 -2.39302,0.401023 -5.42523,-0.435968 -7.88063,-0.524359 -3.56772,-0.128433 -7.14824,-0.161341 -10.71916,-0.161341 -15.99843,0 -32.060234,-0.09828 -48.030797,0.6857 -5.312767,0.260798 -10.566872,-0.145901 -15.873319,-0.282347 -2.507688,-0.06448 -5.154877,0.282206 -7.619193,-0.201677 z"
       id="path497"
       sodipodi:nodetypes="cscssssscscsssssc" /></g></svg>
