<?xml version="1.0" encoding="UTF-8" standalone="no"?>
<!-- Created with Inkscape (http://www.inkscape.org/) -->

<svg
   width="210mm"
   height="297mm"
   viewBox="0 0 210 297"
   version="1.1"
   id="svg5"
   inkscape:version="1.2.2 (732a01da63, 2022-12-09)"
   xml:space="preserve"
   sodipodi:docname="card.svg"
   xmlns:inkscape="http://www.inkscape.org/namespaces/inkscape"
   xmlns:sodipodi="http://sodipodi.sourceforge.net/DTD/sodipodi-0.dtd"
   xmlns="http://www.w3.org/2000/svg"
   xmlns:svg="http://www.w3.org/2000/svg"><sodipodi:namedview
     id="namedview7"
     pagecolor="#7c7c7c"
     bordercolor="#000000"
     borderopacity="0.25"
     inkscape:showpageshadow="2"
     inkscape:pageopacity="0"
     inkscape:pagecheckerboard="true"
     inkscape:deskcolor="#2c2c2c"
     inkscape:document-units="mm"
     showgrid="false"
     inkscape:lockguides="false"
     inkscape:zoom="1.4912879"
     inkscape:cx="357.07391"
     inkscape:cy="356.06807"
     inkscape:window-width="1920"
     inkscape:window-height="1017"
     inkscape:window-x="1272"
     inkscape:window-y="-8"
     inkscape:window-maximized="1"
     inkscape:current-layer="layer3" /><defs
     id="defs2"><rect
       x="190.61171"
       y="291.1333"
       width="367.94697"
       height="100.5216"
       id="rect7117" /><inkscape:path-effect
       effect="fill_between_many"
       method="originald"
       linkedpaths="#path364,0,1|"
       id="path-effect4224" /><inkscape:path-effect
       effect="fill_between_many"
       method="originald"
       linkedpaths="#path5021,0,1|"
       id="path-effect5548" /></defs><g
     inkscape:groupmode="layer"
     id="layer3"
     inkscape:label="Card Face"><path
       style="fill:#ffb835;fill-opacity:1;stroke:#000000;stroke-width:3;stroke-linecap:round;stroke-linejoin:round;stroke-dasharray:none;stroke-opacity:1"
       d="m 147.77977,56.400325 c 2.88127,25.120209 -0.94617,56.110165 -0.91968,80.749755 0.0108,10.03715 3.65217,43.39321 0.61651,52.05753 l -104.965027,2.24988 c 2.477567,0.63706 1.344563,-29.53998 1.344563,-33.96234 0,-22.75259 -1.309582,-45.45577 -0.448189,-68.247345 0.334042,-8.838369 1.567011,-24.202673 1.625161,-33.064264 z"
       id="path5799"
       sodipodi:nodetypes="csccsscc" /></g><g
     inkscape:groupmode="layer"
     id="layer5"
     inkscape:label="Text Box"
     inkscape:export-filename="textbox.svg"
     inkscape:export-xdpi="96"
     inkscape:export-ydpi="96"><path
       style="fill:none;stroke:#000000;stroke-width:1.5;stroke-linecap:round;stroke-linejoin:round;stroke-dasharray:none;stroke-opacity:1"
       d="m 49.216661,87.640868 c 0.525963,-1.022432 0.112046,-3.007953 0.112046,-4.23521 0,-5.283086 0.08309,-3.751653 0.298791,-9.033112 3.431625,0.06655 6.753003,-0.705315 10.158926,-0.968047 5.072134,-0.391263 10.426912,0.268194 15.499829,0.463856 5.730223,0.221014 11.515744,-0.242012 17.255232,-0.242012 8.581365,0 17.068785,0.418154 25.621405,0.726036 2.5385,0.09138 4.95552,-0.473071 7.4698,-0.544527 5.10407,-0.145057 10.36513,-0.273229 15.42513,0 0.68018,2.49245 -0.35288,4.813051 -0.74698,7.260356 -0.30878,1.917457 0.0101,5.840146 0.59758,6.633163 -0.52289,0.141174 -1.0345,0.334007 -1.56866,0.423521 -2.39302,0.401023 -5.42523,-0.435968 -7.88063,-0.524359 -3.56772,-0.128433 -7.14824,-0.161341 -10.71916,-0.161341 -15.99843,0 -32.060234,-0.09828 -48.030797,0.6857 -5.312767,0.260798 -10.566872,-0.145901 -15.873319,-0.282347 -2.507688,-0.06448 -5.154877,0.282206 -7.619193,-0.201677 z"
       id="path497"
       sodipodi:nodetypes="cscssssscscsssssc" /></g><g
     inkscape:groupmode="layer"
     id="layer4"
     inkscape:label="drawing"><path
       style="fill:#fefefe;fill-opacity:0;stroke:#ff6361;stroke-width:1.67422;stroke-linecap:round;stroke-linejoin:round;stroke-dasharray:none;stroke-opacity:1"
       d="m 76.453395,135.6572 c 1.903659,0.11334 3.83828,0.27382 5.748042,0.16709 7.649305,-0.4273 15.145672,-0.95503 22.815293,-0.95503 4.7934,0 3.51664,-0.94554 4.01727,-2.27555"
       id="path8198"
       sodipodi:nodetypes="ccsc" /><path
       style="fill:#ff6361;fill-opacity:1;stroke:none;stroke-width:1.67422;stroke-linecap:round;stroke-linejoin:round;stroke-dasharray:none;stroke-opacity:1"
       d="m 87.307818,135.24611 c 1.368439,-6.50389 6.652506,-12.98387 12.800972,-15.53775 1.12654,-0.46794 2.34639,-0.95574 3.53726,-1.24153 0.15028,-0.036 1.4149,-0.0234 1.4149,-0.0239 0,-0.90438 -5.43733,3.7638 -6.013333,4.41696 -2.525217,2.86348 -2.89244,11.09341 -3.568733,11.82377"
       id="path8200"
       sodipodi:nodetypes="cscssc" /><path
       style="fill:#ff6361;fill-opacity:1;stroke:none;stroke-width:1.67422;stroke-linecap:round;stroke-linejoin:round;stroke-dasharray:none;stroke-opacity:1"
       d="m 88.347418,135.56974 c -8.95441,5.00148 -0.122772,9.49924 4.375118,9.40714 2.952488,-0.0605 8.121134,-5.57528 2.647985,-9.47552"
       id="path8202"
       sodipodi:nodetypes="csc" /><path
       style="fill:#ff6361;fill-opacity:1;stroke:none;stroke-width:1.67422;stroke-linecap:round;stroke-linejoin:round;stroke-dasharray:none;stroke-opacity:1"
       d="m 88.235401,142.51752 c -1.222985,1.39985 -3.859678,3.97497 -4.751709,5.60271 -1.891007,3.45064 -2.715204,7.07027 -5.040592,10.26649 -0.301122,0.41388 -3.836389,5.87897 -3.669903,5.96888 2.097978,1.13286 21.041309,-0.44759 24.628145,-1.00712 3.008508,-0.46931 13.570568,0.0905 13.684398,-0.0324 0.57836,-0.6246 -2.61405,-6.60984 -3.07264,-7.05428 -3.28116,-3.1801 -6.04927,-6.73163 -9.50637,-9.76509 -1.152719,-1.01149 -4.761801,-3.26616 -5.005683,-4.188"
       id="path8204"
       sodipodi:nodetypes="csscsscsc" /><path
       style="fill:#58508d;fill-opacity:1;stroke:none;stroke-width:1.67422;stroke-linecap:round;stroke-linejoin:round;stroke-dasharray:none;stroke-opacity:1"
       d="m 60.712609,129.9987 c -2.429831,0.6977 -3.090576,2.75771 -3.227746,5.10937 -0.257641,4.41708 7.626203,5.46906 9.417945,1.91004 2.05029,-4.07259 -1.840814,-10.85541 -6.190199,-7.01941 z"
       id="path8206" /><path
       style="fill:#58508d;fill-opacity:1;stroke:none;stroke-width:1.67422;stroke-linecap:round;stroke-linejoin:round;stroke-dasharray:none;stroke-opacity:1"
       d="m 72.695063,116.5329 c -3.811822,5.60616 -0.187797,8.63203 5.305882,5.39588 5.561613,-3.27616 3.731896,-7.95014 -2.781555,-7.95014"
       id="path8208"
       sodipodi:nodetypes="csc" /><path
       style="fill:#58508d;fill-opacity:1;stroke:none;stroke-width:1.67422;stroke-linecap:round;stroke-linejoin:round;stroke-dasharray:none;stroke-opacity:1"
       d="m 92.282616,108.1526 c -5.015656,6.98468 7.784994,8.93127 8.356764,0.2865 0.14633,-2.21236 -1.24201,-3.19792 -3.18353,-3.93946 -0.734914,-0.28069 -1.485861,-0.43047 -2.36554,0.62077 -1.498114,1.84029 -1.931245,1.81166 -2.807694,3.03219 z"
       id="path8210"
       sodipodi:nodetypes="ssscs" /><path
       style="fill:#58508d;fill-opacity:1;stroke:none;stroke-width:1.67422;stroke-linecap:round;stroke-linejoin:round;stroke-dasharray:none;stroke-opacity:1"
       d="m 116.64546,113.6201 c -2.44378,0.96554 -1.52726,0.22314 -3.13932,2.57854 -3.23171,4.72193 2.75383,6.92335 6.63236,4.94224 1.87238,-0.95639 4.77,-5.56577 1.85706,-7.09103 -1.5561,-0.8148 -3.67592,-0.56884 -5.3501,-0.42975 z"
       id="path8212" /><path
       style="fill:#58508d;fill-opacity:1;stroke:none;stroke-width:1.67422;stroke-linecap:round;stroke-linejoin:round;stroke-dasharray:none;stroke-opacity:1"
       d="m 132.21064,129.88941 c -2.04992,-0.89204 -4.32688,0.12593 -5.83773,1.68509 -5.5971,5.77597 2.37848,10.07185 7.6051,6.68514 3.6792,-2.38402 2.94256,-6.88243 -1.76737,-8.37023 z"
       id="path8214"
       sodipodi:nodetypes="ccsc" /></g><g
     inkscape:label="Top"
     inkscape:groupmode="layer"
     id="layer1"><path
       inkscape:original-d="M 0,0"
       inkscape:path-effect="#path-effect4224"
       d="m 45.487724,41.266543 c 6.588901,-0.38591 13.182598,1.200399 19.754472,1.397548 4.243004,0.127286 8.519911,-0.617614 12.729485,-1.026768 4.836149,-0.470057 9.715021,-0.664213 14.578166,-0.570429 6.972188,0.134459 14.342413,0.22991 21.290303,0.646767 5.09179,0.305496 9.64848,0.970266 14.73256,0.836344 2.90841,-0.07661 5.76192,0.02188 8.66238,-0.313735 4.11692,-0.476366 5.12508,-1.251219 9.27104,-1.423431 0.45261,-0.01879 2.47435,-0.09362 2.87377,0.01421 0.35649,0.09625 1.69786,0.711553 1.88011,1.006772 1.58213,2.562961 1.04161,8.838301 0.0779,11.440216 -0.17336,0.468061 -0.50567,2.092685 -1.47893,3.408304 -3.81628,1.49141 -8.57379,2.096323 -8.9265,2.096323 -7.28855,0 -14.58791,-0.01413 -21.86724,-0.285215 -6.2649,-0.233304 -12.53747,-0.268362 -18.80373,-0.45634 C 95.076017,57.881551 89.935393,57.617116 84.732568,57.837461 77.54036,58.142062 70.481493,59.36244 63.340696,60.005086 59.342993,60.364864 51.774471,59.154857 47.783335,59.837316 Z"
       id="path4226"
       class="UnoptimicedTransforms"
       style="fill:#ffa601;fill-opacity:1" /><path
       style="fill:#ab6e01;fill-opacity:1;stroke:none;stroke-width:3;stroke-linecap:round;stroke-linejoin:round;stroke-dasharray:none"
       d="m 50.071891,58.123074 c 6.961181,1.417306 17.28743,0.160504 24.191217,-0.507813 15.529215,-1.087206 30.046112,-1.303807 45.847582,-0.470589 7.39349,0.06157 20.66771,0.757836 24.8438,-0.316197 5.61239,-1.725571 5.72362,-1.865335 5.7603,-6.7242 -6.11177,1.176317 -15.14538,3.113164 -21.04719,3.290966 -13.24572,1.183091 -23.0771,0.221136 -35.554378,0.732973 -8.061826,0.650217 -16.144662,-1.125077 -24.185436,0.214463 -6.255865,0.489124 -12.6303,-0.382497 -18.713864,-1.685605"
       id="path3483"
       sodipodi:nodetypes="ccccccccc"
       inkscape:export-filename="top roll.svg"
       inkscape:export-xdpi="96"
       inkscape:export-ydpi="96" /><path
       style="fill:none;stroke:#000000;stroke-width:3;stroke-linecap:round;stroke-linejoin:round;stroke-dasharray:none;fill-opacity:1"
       d="m 45.487724,41.266543 c 6.588901,-0.38591 13.182598,1.200399 19.754472,1.397548 4.243004,0.127286 8.519911,-0.617614 12.729485,-1.026768 4.836149,-0.470057 9.715021,-0.664213 14.578166,-0.570429 6.972188,0.134459 14.342413,0.22991 21.290303,0.646767 5.09179,0.305496 9.64848,0.970266 14.73256,0.836344 2.90841,-0.07661 5.76192,0.02188 8.66238,-0.313735 4.11692,-0.476366 5.12508,-1.251219 9.27104,-1.423431 0.45261,-0.01879 2.47435,-0.09362 2.87377,0.01421 0.35649,0.09625 1.69786,0.711553 1.88011,1.006772 1.58213,2.562961 1.04161,8.838301 0.0779,11.440216 -0.17336,0.468061 -0.50567,2.092685 -1.47893,3.408304 -3.81628,1.49141 -8.57379,2.096323 -8.9265,2.096323 -7.28855,0 -14.58791,-0.01413 -21.86724,-0.285215 -6.2649,-0.233304 -12.53747,-0.268362 -18.80373,-0.45634 C 95.076017,57.881551 89.935393,57.617116 84.732568,57.837461 77.54036,58.142062 70.481493,59.36244 63.340696,60.005086 59.342993,60.364864 51.774471,59.154857 47.783335,59.837316"
       id="path364"
       sodipodi:nodetypes="csssssssscscsssssc"
       class="UnoptimicedTransforms" /><path
       style="fill:#ab6e01;stroke:#000000;stroke-width:3;stroke-linecap:round;stroke-linejoin:round;stroke-dasharray:none;fill-opacity:1"
       d="m 42.652404,41.653473 c -1.18509,0.202081 -2.109283,3.800005 -2.326088,4.648773 -0.834453,3.266749 -1.259497,8.638818 1.041491,11.620781 0.593286,0.768869 1.644843,1.128601 2.535333,1.369026 2.295361,0.619723 3.766743,0.59333 4.806569,-1.825369 0.452697,-1.053002 0.912611,-2.191848 1.056389,-3.337001 0.154897,-1.23371 0,-2.607974 0,-3.850384 0,-2.667807 -1.016604,-6.810134 -2.940958,-8.739912 -2.067842,-0.918941 -3.730027,0.0386 -4.172736,0.114086 z"
       id="path362"
       sodipodi:nodetypes="csssssscc" /></g><g
     inkscape:groupmode="layer"
     id="layer7"
     inkscape:label="Top Nubs"><path
       style="fill:#ffffff;stroke:#000000;stroke-width:3;stroke-linecap:round;stroke-linejoin:round;stroke-dasharray:none"
       d="m 151.82688,43.032325 c 3.10035,0.670263 5.40579,1.688183 5.69615,4.755569 0.19406,2.050095 -0.27222,3.98552 -0.70968,4.592985 -0.93349,1.296175 -4.37293,3.229018 -6.0156,2.34201 0.9603,-2.02301 1.10742,-3.563632 1.40886,-5.64299 0.17418,-3.421151 0.0307,-4.338655 -0.37973,-6.047574 z"
       id="path1747"
       inkscape:export-filename="Top Nubs.svg"
       inkscape:export-xdpi="96"
       inkscape:export-ydpi="96"
       sodipodi:nodetypes="cssccc" /><path
       style="fill:#ffffff;stroke:#000000;stroke-width:3;stroke-linecap:round;stroke-linejoin:round;stroke-dasharray:none"
       d="m 44.761571,44.536248 c -1.368783,-1.017509 -3.853218,-0.83189 -5.034651,0.413397 -1.116147,1.242506 -1.654894,2.919939 -1.810657,4.559829 -0.03662,1.378801 0.233925,2.778302 0.796358,4.038035 0.391077,0.753402 0.748224,1.347252 1.573068,1.966983 1.363377,0.803252 3.098,0.83942 4.680846,0.636831 0.710663,-1.819693 1.153346,-4.76485 1.060062,-6.473062 -0.02162,-1.362491 -0.07262,-3.731526 -1.265026,-5.142013 z"
       id="path1745"
       sodipodi:nodetypes="cccccccc" /></g><g
     inkscape:groupmode="layer"
     id="layer2"
     inkscape:label="Bottom"><path
       inkscape:original-d="M 0,0"
       inkscape:path-effect="#path-effect5548"
       d="m 45.961911,187.68917 c 6.783806,0.97216 13.707478,1.41802 20.500606,0.40557 7.059674,-0.3039 14.11235,0.17045 21.161959,0.38553 12.330151,-0.87313 24.696094,-1.38118 37.052224,-0.73543 5.13067,0.35663 10.23785,-0.11668 15.30506,-0.87795 3.6609,-0.19264 3.93166,-0.14929 7.56463,0.0596 3.10635,2.81109 4.4194,14.14961 0.12437,17.68788 -3.59569,-0.06 -5.29832,0.78089 -9.12666,0.18512 -8.86262,0.86071 -16.17473,0.15762 -25.07391,-0.34029 -13.18629,0.53414 -26.129932,1.47269 -39.344413,-0.1001 -5.121171,-0.18967 -10.211068,0.64259 -15.328741,0.67106 -4.468282,0.95018 -8.812282,1.14812 -13.405644,0.73861 z"
       id="path5550"
       class="UnoptimicedTransforms"
       style="fill:#ffa402;fill-opacity:1" /><path
       style="fill:#ab6e01;fill-opacity:1;stroke:none;stroke-width:3;stroke-linecap:round;stroke-linejoin:round;stroke-dasharray:none;stroke-opacity:1"
       d="m 48.602667,205.32948 c 0.269978,-1.30879 1.382596,-2.27116 1.755401,-3.52933 0.144103,-0.48633 0.146045,-1.46862 0.485537,-1.83526 0.226396,-0.2445 2.521532,-0.016 2.763825,-0.0202 2.325039,-0.0405 4.537532,-0.64233 6.834864,-0.76638 1.910379,-0.10315 3.774065,0.014 5.677046,0.0403 4.112207,0.0569 8.184422,-0.2623 12.287816,-0.36302 8.077575,-0.19826 16.097033,0.64693 24.164794,0.42352 4.44532,-0.12309 8.89507,-0.83842 13.33359,-0.98821 1.96905,-0.0665 3.9027,0.17305 5.86379,0.20167 4.25613,0.0621 8.51635,0.0202 12.77335,0.0202 2.71658,0 5.51458,0.55857 8.21678,0.22185 1.46379,-0.1824 2.86168,-0.74114 4.33248,-0.96805 0.76271,-0.11767 2.60029,-0.064 2.95057,-0.72604 l -2.25219,7.34657 -33.4879,0.26613 -32.245968,0.26612 -12.862904,-0.17741 z"
       id="path5733" /><path
       style="fill:none;fill-opacity:1;stroke:#000000;stroke-width:3;stroke-linecap:round;stroke-linejoin:round;stroke-dasharray:none;stroke-opacity:1"
       d="m 45.961911,187.68917 c 6.783806,0.97216 13.707478,1.41802 20.500606,0.40557 7.059674,-0.3039 14.11235,0.17045 21.161959,0.38553 12.330151,-0.87313 24.696094,-1.38118 37.052224,-0.73543 5.13067,0.35663 10.23785,-0.11668 15.30506,-0.87795 3.6609,-0.19264 3.93166,-0.14929 7.56463,0.0596 3.10635,2.81109 4.4194,14.14961 0.12437,17.68788 -3.59569,-0.06 -5.29832,0.78089 -9.12666,0.18512 -8.86262,0.86071 -16.17473,0.15762 -25.07391,-0.34029 -13.18629,0.53414 -26.129932,1.47269 -39.344413,-0.1001 -5.121171,-0.18967 -10.211068,0.64259 -15.328741,0.67106 -4.468282,0.95018 -8.812282,1.14812 -13.405644,0.73861"
       id="path5021"
       sodipodi:nodetypes="cccccccccccc"
       class="UnoptimicedTransforms" /><path
       style="fill:#a36901;fill-opacity:1;stroke:#000000;stroke-width:2.80755;stroke-linecap:round;stroke-linejoin:round;stroke-dasharray:none;stroke-opacity:1"
       d="m 45.439738,188.64976 c -5.508816,1.23262 -5.70132,6.07334 -5.70132,10.10656 0,1.25066 -0.257647,2.66987 0.376503,3.82675 0.657664,1.19977 2.285545,2.15774 3.603664,2.79647 0.802022,0.38865 2.127713,0.76809 3.065806,0.46609 2.529156,-0.81423 3.031693,-4.15104 3.280946,-6.08357 0.576258,-4.46787 1.759377,-9.71021 -4.625599,-11.1123 z"
       id="path5019" /></g><g
     inkscape:groupmode="layer"
     id="layer6"
     inkscape:label="Bottom Nubs"><path
       style="fill:#ffffff;fill-opacity:1;stroke:#000000;stroke-width:3.08808;stroke-linecap:round;stroke-linejoin:round;stroke-dasharray:none;stroke-opacity:1"
       d="m 149.43948,190.05016 c 1.99654,-0.30696 3.23894,0.15388 4.83747,1.24474 0.94864,0.64738 1.55418,1.85652 1.93285,2.96399 1.41845,4.14852 0.24789,5.24588 -3.13436,6.63076 -1.12958,0.46251 -2.29963,1.38428 -3.55186,1.01804 0.76567,-1.21155 0.98082,-3.1578 1.06637,-4.64297 -0.20144,-2.62288 -0.36759,-5.59074 -1.15047,-7.21456 z"
       id="path5041"
       inkscape:export-filename="bottom nubs.svg"
       inkscape:export-xdpi="96"
       inkscape:export-ydpi="96"
       sodipodi:nodetypes="csssccc" /><path
       style="fill:#ffffff;fill-opacity:1;stroke:#000000;stroke-width:3;stroke-linecap:round;stroke-linejoin:round;stroke-dasharray:none;stroke-opacity:1"
       d="m 46.219283,197.26657 c 1.28e-4,1.33106 0.06363,3.47758 -0.564382,4.74591 -1.818406,0.84469 -4.071065,0.35756 -5.888496,-0.42996 -1.123229,-0.49178 -1.959003,-1.57456 -2.030556,-2.8163 -0.262069,-2.3768 0.861373,-4.86353 2.766731,-6.29394 1.270247,-0.98159 3.339932,-0.83278 4.798349,-0.2359 0.405979,1.31079 0.980138,3.68397 0.918354,5.03019 z"
       id="path5037"
       sodipodi:nodetypes="ccccccc" /></g></svg>
