<?xml version="1.0" encoding="UTF-8" standalone="no"?>
<!-- Created with Inkscape (http://www.inkscape.org/) -->

<svg
   width="53.043018mm"
   height="68.029938mm"
   viewBox="0 0 53.043018 68.029938"
   version="1.1"
   id="svg5"
   inkscape:version="1.2.2 (732a01da63, 2022-12-09)"
   xml:space="preserve"
   sodipodi:docname="card_icon.svg"
   xmlns:inkscape="http://www.inkscape.org/namespaces/inkscape"
   xmlns:sodipodi="http://sodipodi.sourceforge.net/DTD/sodipodi-0.dtd"
   xmlns="http://www.w3.org/2000/svg"
   xmlns:svg="http://www.w3.org/2000/svg"><sodipodi:namedview
     id="namedview7"
     pagecolor="#7c7c7c"
     bordercolor="#000000"
     borderopacity="0.25"
     inkscape:showpageshadow="2"
     inkscape:pageopacity="0"
     inkscape:pagecheckerboard="true"
     inkscape:deskcolor="#2c2c2c"
     inkscape:document-units="mm"
     showgrid="false"
     inkscape:lockguides="false"
     inkscape:zoom="2.1089996"
     inkscape:cx="82.029413"
     inkscape:cy="86.770998"
     inkscape:window-width="1920"
     inkscape:window-height="1017"
     inkscape:window-x="1272"
     inkscape:window-y="-8"
     inkscape:window-maximized="1"
     inkscape:current-layer="layer2" /><defs
     id="defs2"><rect
       x="190.61171"
       y="291.1333"
       width="367.94696"
       height="100.5216"
       id="rect7117" /><inkscape:path-effect
       effect="fill_between_many"
       method="originald"
       linkedpaths="#path364,0,1"
       id="path-effect4224"
       is_visible="true"
       lpeversion="0"
       join="true"
       close="true"
       autoreverse="true" /><inkscape:path-effect
       effect="fill_between_many"
       method="originald"
       linkedpaths="#path5021,0,1"
       id="path-effect5548"
       is_visible="true"
       lpeversion="0"
       join="true"
       close="true"
       autoreverse="true" /></defs><g
     inkscape:groupmode="layer"
     id="layer3"
     inkscape:label="Card Face"
     transform="translate(-116.90456,-149.4941)"><path
       style="fill:#ffb835;fill-opacity:1;stroke:#000000;stroke-width:4;stroke-linecap:round;stroke-linejoin:round;stroke-dasharray:none;stroke-opacity:1"
       d="m 154.74389,159.07808 c 2.76838,7.62169 3.88087,17.57373 5.72293,25.25796 0.74994,3.13034 4.36883,13.2645 4.06672,16.19321 l -32.57591,8.5139 c 0.82029,0.0143 -1.77909,-9.31493 -2.10822,-10.69447 -1.69336,-7.09756 -3.79157,-14.08225 -5.21913,-21.25609 -0.55359,-2.78195 -1.31247,-7.66652 -1.95386,-10.43519 z"
       id="path5799"
       sodipodi:nodetypes="csccsscc" /></g><g
     inkscape:groupmode="layer"
     id="layer5"
     inkscape:label="Text Box"
     inkscape:export-filename="textbox.svg"
     inkscape:export-xdpi="96"
     inkscape:export-ydpi="96"
     transform="translate(-116.90456,-149.4941)" /><g
     inkscape:groupmode="layer"
     id="layer4"
     inkscape:label="drawing"
     transform="translate(-116.90456,-149.4941)"><path
       style="fill:#ff6361;fill-opacity:1;stroke:none;stroke-width:0.638592;stroke-linecap:round;stroke-linejoin:round;stroke-dasharray:none;stroke-opacity:1"
       d="m 135.76618,179.91647 c -0.23008,0.66883 -0.77914,1.92218 -0.87444,2.66832 -0.20203,1.58171 -0.0371,3.17183 -0.41074,4.67108 -0.0484,0.19416 -0.54394,2.73142 -0.47908,2.75977 0.81728,0.35737 6.78486,-1.44371 7.88367,-1.89554 0.92182,-0.37858 4.42123,-0.76973 4.44352,-0.8288 0.1133,-0.30037 -1.63981,-2.65841 -1.84199,-2.82032 -1.44657,-1.15849 -2.77081,-2.50567 -4.25705,-3.59126 -0.49556,-0.36197 -1.93806,-1.10694 -2.12753,-1.48488"
       id="path8204"
       sodipodi:nodetypes="csscsscsc" /><path
       style="fill:#58508d;fill-opacity:1;stroke:none;stroke-width:1.08371;stroke-linecap:round;stroke-linejoin:round;stroke-dasharray:none;stroke-opacity:1"
       d="m 137.75778,167.58884 c -1.51679,4.12176 1.20921,5.51241 4.13943,2.6497 2.96644,-2.89815 1.10673,-5.59943 -2.957,-4.64327"
       id="path8208"
       sodipodi:nodetypes="csc" /><path
       style="fill:#000000;fill-opacity:0;stroke:#000000;stroke-width:2.43447;stroke-linecap:round;stroke-linejoin:round;stroke-dasharray:none;stroke-opacity:1"
       d="m 128.87149,177.04858 c 1.68389,1.61628 3.73203,-2.67866 4.94971,-2.11947 0.64928,0.29818 0.92497,0.78986 1.69704,0.72675 1.1745,-0.096 1.90002,-0.86889 2.92288,-1.28624 0.86796,-0.35456 1.8427,-0.13166 2.7519,-0.24325 1.79789,-0.22067 3.74643,-0.89066 5.48986,-1.40412 0.5953,-0.17521 0.92716,0.36077 1.51017,0.41313 1.43995,0.12934 3.59103,-0.51956 4.80719,-1.25035"
       id="path5673" /><path
       style="fill:#000000;fill-opacity:0;stroke:#000000;stroke-width:2.5;stroke-linecap:round;stroke-linejoin:round;stroke-dasharray:none;stroke-opacity:1"
       d="m 134.395,194.89222 c 3.80185,-0.47389 7.39047,-2.02236 11.13437,-2.73945 1.0581,-0.2027 2.02381,0.11522 3.17335,-0.21804 1.99625,-0.57867 3.72714,-1.32464 5.71441,-1.79878"
       id="path5675" /><path
       style="fill:#000000;fill-opacity:0;stroke:#000000;stroke-width:2.5;stroke-linecap:round;stroke-linejoin:round;stroke-dasharray:none;stroke-opacity:1"
       d="m 136.84819,199.86357 c 5.8803,-0.96269 11.31614,-3.36231 17.09373,-4.63811 1.371,-0.30273 2.68244,-0.18385 4.06286,-0.51319"
       id="path5677" /><path
       style="fill:#ff6361;fill-opacity:1;stroke:none;stroke-width:3.91067;stroke-linecap:round;stroke-linejoin:round;stroke-dasharray:none;stroke-opacity:1"
       d="m 145.33742,179.37453 c -2.50951,4.7744 7.48502,5.84075 9.44132,2.18282 0.20743,-0.38786 -0.0951,-1.26331 -0.10529,-1.67073 -0.10171,-4.07042 -7.26547,-2.40838 -9.33603,-0.51209 z"
       id="path6461" /></g><g
     inkscape:label="Top"
     inkscape:groupmode="layer"
     id="layer1"
     transform="translate(-116.90456,-149.4941)"><path
       inkscape:original-d="M 0,0"
       inkscape:path-effect="#path-effect4224"
       d="m 147.91033,32.366871 c -2.53146,0.01444 -5.05872,0.249318 -7.52885,0.818833 -1.64949,0.351922 -3.39242,0.677171 -4.97506,0.780776 -3.39339,0.222891 -6.79953,0.192178 -10.19792,0.180239 -3.90774,-0.134343 -8.01969,-0.589037 -12.01458,-0.843562 -8.31782,-0.416638 -16.64821,-0.595924 -24.976121,-0.632258 -6.254993,0.02653 -12.477153,0.738351 -18.68272,1.450815 -4.122756,0.390789 -8.243518,-0.01704 -12.30895,-0.525914 -4.095014,-0.454582 -8.229317,-0.984911 -12.350804,-0.683797 -1.224716,0.344566 -2.678034,1.014184 -2.845859,2.445102 -0.448141,1.588491 0.171883,3.203867 0.245709,4.801043 0.63858,5.02876 1.211096,10.07445 1.890878,15.092651 0.439618,1.180245 1.209197,2.556643 2.625132,2.645369 1.386602,0.277103 2.778085,-0.187055 4.175781,-0.05078 4.84448,0.06288 9.701533,0.826442 14.535432,0.145489 8.393827,-0.922598 16.78904,-2.283018 25.261277,-1.994718 6.731516,0.141113 13.528875,0.420198 20.297605,0.499626 7.93471,0.205956 15.92182,0.517146 23.88574,0.487212 2.39252,-0.03364 4.80548,0.143546 7.18248,-0.168376 3.05192,-0.484026 6.13684,-1.096018 8.95856,-2.389155 2.04444,-1.383806 2.60271,-3.955055 3.28858,-6.168183 0.93032,-3.63035 1.1319,-7.517476 0.21142,-11.169708 -0.42545,-1.707653 -1.55122,-3.260391 -3.21094,-3.9375 -1.06996,-0.539477 -2.26926,-0.807162 -3.46679,-0.783204 z"
       id="path4226"
       class="UnoptimicedTransforms"
       style="fill:#ffa601;fill-opacity:1;stroke-width:1.00501;stroke-dasharray:none"
       transform="matrix(0.31194531,-0.07442522,0.07442522,0.31194531,104.44709,152.4828)" /><path
       id="path364"
       style="fill:none;fill-opacity:1;stroke:#000000;stroke-width:12.4727;stroke-linecap:round;stroke-linejoin:round;stroke-dasharray:none"
       class="UnoptimicedTransforms"
       d="m 148.29102,37.453125 c -2.53146,0.01444 -5.05872,0.249318 -7.52885,0.818833 -1.64949,0.351922 -3.39242,0.677171 -4.97506,0.780776 -3.39339,0.222891 -6.79953,0.192178 -10.19792,0.180239 -3.90774,-0.134343 -8.01969,-0.589037 -12.01458,-0.843562 -8.31782,-0.416638 -16.64821,-0.595924 -24.976121,-0.632258 -6.254993,0.02653 -12.477153,0.738351 -18.68272,1.450815 -4.122756,0.390789 -8.243518,-0.01704 -12.30895,-0.525914 -4.095014,-0.454582 -8.229317,-0.984911 -12.350804,-0.683797 -1.224716,0.344566 -2.678034,1.014184 -2.845859,2.445102 -0.448141,1.588491 0.171883,3.203867 0.245709,4.801043 0.63858,5.02876 1.211096,10.07445 1.890878,15.092651 0.439618,1.180245 1.209197,2.556643 2.625132,2.645369 1.386602,0.277103 2.778085,-0.187055 4.175781,-0.05078 4.84448,0.06288 9.701533,0.826442 14.535432,0.145489 8.393827,-0.922598 16.78904,-2.283018 25.261277,-1.994718 6.731516,0.141113 13.528875,0.420198 20.297605,0.499626 7.93471,0.205956 15.92182,0.517146 23.88574,0.487212 2.39252,-0.03364 4.80548,0.143546 7.18248,-0.168376 3.05192,-0.484026 6.13684,-1.096018 8.95856,-2.389155 2.04444,-1.383806 2.60271,-3.955055 3.28858,-6.168183 0.93032,-3.63035 1.1319,-7.517476 0.21142,-11.169708 -0.42545,-1.707653 -1.55122,-3.260391 -3.21094,-3.9375 -1.06996,-0.539477 -2.26926,-0.807162 -3.46679,-0.783204 z"
       transform="matrix(0.31194531,-0.07442522,0.07442522,0.31194531,103.94979,150.9245)" /><path
       id="path362"
       style="fill:#ab6e01;fill-opacity:1;stroke:#000000;stroke-width:4;stroke-linecap:round;stroke-linejoin:round;stroke-dasharray:none"
       d="m 120.05405,159.65203 c -1.35604,0.84932 -1.20477,2.67935 -1.04003,4.05804 0.16875,1.40216 0.95489,3.16239 2.57296,3.48163 1.29684,0.30506 2.93425,-0.56038 2.90288,-2.01752 0.24063,-2.02491 -0.56412,-4.18943 -2.09182,-5.5379 -0.70904,-0.44722 -1.63046,-0.3914 -2.34399,0.0157 z" /></g><g
     inkscape:groupmode="layer"
     id="layer7"
     inkscape:label="Top Nubs"
     transform="translate(-116.90456,-149.4941)" /><g
     inkscape:groupmode="layer"
     id="layer2"
     inkscape:label="Bottom"
     transform="translate(-116.90456,-149.4941)"><path
       inkscape:original-d="M 0,0"
       inkscape:path-effect="#path-effect5548"
       d="m 142.59654,182.52885 c -3.91652,0.11628 -7.80212,0.98965 -11.69271,1.05512 -4.99952,0.13743 -9.98835,-0.40018 -14.98854,-0.3582 -9.43666,-0.0859 -18.866098,0.43354 -28.280364,1.00149 -7.393339,-0.20087 -14.8064,-0.80579 -22.195,-0.21075 -4.108079,0.53253 -8.346832,0.50524 -12.392255,0.15915 -2.188717,-0.13864 -4.265542,-0.53637 -6.45895,-0.66634 -1.898095,0.13907 -4.001021,1.07276 -4.584579,3.03907 -0.836846,1.95867 -0.422111,4.13478 -0.625737,6.19641 -0.126486,4.62944 -0.343189,9.26042 -0.389215,13.88934 0.253017,2.06133 1.590738,4.25248 3.794461,4.58392 2.11129,0.50831 4.307314,0.34253 6.459736,0.41125 3.036276,-0.0381 6.046868,-0.49656 9.039436,-0.95013 3.532522,-0.0672 7.003872,-0.48175 10.516836,-0.62884 1.012415,-0.0423 2.295013,-0.0561 3.410156,-0.0137 5.643407,0.57856 11.313228,0.89021 16.987106,0.85127 7.752354,-0.0136 15.494339,-0.50927 23.239879,-0.72993 8.14135,0.47874 16.32426,1.11679 24.46833,0.33569 3.23349,0.48626 6.44726,-0.18452 9.64453,-0.27149 2.83878,-0.33303 4.77864,-2.8238 5.84673,-5.27828 1.91456,-4.41575 1.75449,-9.45632 0.67263,-14.06262 -0.6815,-2.62922 -1.81641,-5.32998 -3.97045,-7.08359 -2.03517,-1.4534 -4.66275,-1.15827 -7.02391,-1.28449 -0.49285,-0.004 -0.98543,0.003 -1.47812,0.0156 z"
       id="path5550"
       class="UnoptimicedTransforms"
       style="fill:#ffa402;fill-opacity:1;stroke-width:1.62769;stroke-dasharray:none"
       transform="matrix(0.31194531,-0.07442522,0.07442522,0.31194531,104.44709,152.4828)" /><path
       id="path5021"
       style="fill:none;fill-opacity:1;stroke:#000000;stroke-width:12.4727;stroke-linecap:round;stroke-linejoin:round;stroke-dasharray:none;stroke-opacity:1"
       class="UnoptimicedTransforms"
       d="m 142.0918,181.81445 c -3.91652,0.11628 -7.80212,0.98965 -11.69271,1.05512 -4.99952,0.13743 -9.98835,-0.40018 -14.98854,-0.3582 -9.43666,-0.0859 -18.866095,0.43354 -28.280361,1.00149 -7.393339,-0.20087 -14.8064,-0.80579 -22.195,-0.21075 -4.108079,0.53253 -8.346832,0.50524 -12.392255,0.15915 -2.188717,-0.13864 -4.265542,-0.53637 -6.45895,-0.66634 -1.898095,0.13907 -4.001021,1.07276 -4.584579,3.03907 -0.836846,1.95867 -0.422111,4.13478 -0.625737,6.19641 -0.126486,4.62944 -0.343189,9.26042 -0.389215,13.88934 0.253017,2.06133 1.590738,4.25248 3.794461,4.58392 2.11129,0.50831 4.307314,0.34253 6.459736,0.41125 3.036276,-0.0381 6.046868,-0.49656 9.039436,-0.95013 3.532522,-0.0672 7.003872,-0.48175 10.516836,-0.62884 1.012415,-0.0423 2.295013,-0.0561 3.410156,-0.0137 5.643407,0.57856 11.313228,0.89021 16.987106,0.85127 7.752354,-0.0136 15.494336,-0.50927 23.239876,-0.72993 8.14135,0.47874 16.32426,1.11679 24.46833,0.33569 3.23349,0.48626 6.44726,-0.18452 9.64453,-0.27149 2.83878,-0.33303 4.77864,-2.8238 5.84673,-5.27828 1.91456,-4.41575 1.75449,-9.45632 0.67263,-14.06262 -0.6815,-2.62922 -1.81641,-5.32998 -3.97045,-7.08359 -2.03517,-1.4534 -4.66275,-1.15827 -7.02391,-1.28449 -0.49285,-0.004 -0.98543,0.003 -1.47812,0.0156 z"
       transform="matrix(0.31194531,-0.07442522,0.07442522,0.31194531,104.65771,152.66809)" /><path
       id="path5019"
       style="fill:#a36901;fill-opacity:1;stroke:#000000;stroke-width:4;stroke-linecap:round;stroke-linejoin:round;stroke-dasharray:none;stroke-opacity:1"
       d="m 131.91707,207.2611 c -1.82152,0.92955 -2.19757,3.30671 -1.62808,5.1044 0.14407,1.4023 1.1458,2.71786 2.57156,2.98235 1.51163,0.53429 3.54776,-0.24091 3.79193,-1.96327 0.30895,-1.57354 0.0521,-3.25048 -0.5467,-4.72122 -0.79812,-1.40757 -2.69775,-2.18558 -4.18871,-1.40226 z" /></g><g
     inkscape:groupmode="layer"
     id="layer6"
     inkscape:label="Bottom Nubs"
     transform="translate(-116.90456,-149.4941)" /></svg>
