<?xml version="1.0" encoding="UTF-8" standalone="no"?>
<!-- Created with Inkscape (http://www.inkscape.org/) -->

<svg
   width="122.14732mm"
   height="15.545116mm"
   viewBox="0 0 122.14732 15.545116"
   version="1.1"
   id="svg5"
   inkscape:version="1.2.2 (732a01da63, 2022-12-09)"
   xml:space="preserve"
   sodipodi:docname="card.svg"
   xmlns:inkscape="http://www.inkscape.org/namespaces/inkscape"
   xmlns:sodipodi="http://sodipodi.sourceforge.net/DTD/sodipodi-0.dtd"
   xmlns="http://www.w3.org/2000/svg"
   xmlns:svg="http://www.w3.org/2000/svg"><sodipodi:namedview
     id="namedview7"
     pagecolor="#7c7c7c"
     bordercolor="#000000"
     borderopacity="0.25"
     inkscape:showpageshadow="2"
     inkscape:pageopacity="0"
     inkscape:pagecheckerboard="true"
     inkscape:deskcolor="#2c2c2c"
     inkscape:document-units="mm"
     showgrid="false"
     inkscape:lockguides="false"
     inkscape:zoom="0.74564394"
     inkscape:cx="394.96063"
     inkscape:cy="453.29947"
     inkscape:window-width="1920"
     inkscape:window-height="1017"
     inkscape:window-x="1272"
     inkscape:window-y="-8"
     inkscape:window-maximized="1"
     inkscape:current-layer="layer1" /><defs
     id="defs2" /><g
     inkscape:groupmode="layer"
     id="layer6"
     inkscape:label="Bottom Nubs"
     transform="translate(-36.196375,-188.42779)"><path
       style="fill:#ffffff;fill-opacity:1;stroke:#000000;stroke-width:3.08808;stroke-linecap:round;stroke-linejoin:round;stroke-dasharray:none;stroke-opacity:1"
       d="m 149.43948,190.05016 c 1.99654,-0.30696 3.23894,0.15388 4.83747,1.24474 0.94864,0.64738 1.55418,1.85652 1.93285,2.96399 1.41845,4.14852 0.24789,5.24588 -3.13436,6.63076 -1.12958,0.46251 -2.29963,1.38428 -3.55186,1.01804 0.76567,-1.21155 0.98082,-3.1578 1.06637,-4.64297 -0.20144,-2.62288 -0.36759,-5.59074 -1.15047,-7.21456 z"
       id="path5041"
       inkscape:export-filename="bottom nubs.svg"
       inkscape:export-xdpi="96"
       inkscape:export-ydpi="96"
       sodipodi:nodetypes="csssccc" /><path
       style="fill:#ffffff;fill-opacity:1;stroke:#000000;stroke-width:3;stroke-linecap:round;stroke-linejoin:round;stroke-dasharray:none;stroke-opacity:1"
       d="m 46.219283,197.26657 c 1.28e-4,1.33106 0.06363,3.47758 -0.564382,4.74591 -1.818406,0.84469 -4.071065,0.35756 -5.888496,-0.42996 -1.123229,-0.49178 -1.959003,-1.57456 -2.030556,-2.8163 -0.262069,-2.3768 0.861373,-4.86353 2.766731,-6.29394 1.270247,-0.98159 3.339932,-0.83278 4.798349,-0.2359 0.405979,1.31079 0.980138,3.68397 0.918354,5.03019 z"
       id="path5037"
       sodipodi:nodetypes="ccccccc" /></g></svg>
