<?xml version="1.0" encoding="UTF-8" standalone="no"?>
<!-- Created with Inkscape (http://www.inkscape.org/) -->

<svg
   width="122.65601mm"
   height="16.229364mm"
   viewBox="0 0 122.65601 16.229364"
   version="1.1"
   id="svg5"
   inkscape:version="1.2.2 (732a01da63, 2022-12-09)"
   xml:space="preserve"
   sodipodi:docname="card.svg"
   xmlns:inkscape="http://www.inkscape.org/namespaces/inkscape"
   xmlns:sodipodi="http://sodipodi.sourceforge.net/DTD/sodipodi-0.dtd"
   xmlns="http://www.w3.org/2000/svg"
   xmlns:svg="http://www.w3.org/2000/svg"><sodipodi:namedview
     id="namedview7"
     pagecolor="#7c7c7c"
     bordercolor="#000000"
     borderopacity="0.25"
     inkscape:showpageshadow="2"
     inkscape:pageopacity="0"
     inkscape:pagecheckerboard="true"
     inkscape:deskcolor="#2c2c2c"
     inkscape:document-units="mm"
     showgrid="false"
     inkscape:lockguides="false"
     inkscape:zoom="0.74564394"
     inkscape:cx="394.96063"
     inkscape:cy="453.29947"
     inkscape:window-width="1920"
     inkscape:window-height="1017"
     inkscape:window-x="1272"
     inkscape:window-y="-8"
     inkscape:window-maximized="1"
     inkscape:current-layer="layer1" /><defs
     id="defs2" /><g
     inkscape:groupmode="layer"
     id="layer7"
     inkscape:label="Top Nubs"
     transform="translate(-36.412948,-41.532372)"><path
       style="fill:#ffffff;stroke:#000000;stroke-width:3;stroke-linecap:round;stroke-linejoin:round;stroke-dasharray:none"
       d="m 151.82688,43.032325 c 3.10035,0.670263 5.40579,1.688183 5.69615,4.755569 0.19406,2.050095 -0.27222,3.98552 -0.70968,4.592985 -0.93349,1.296175 -4.37293,3.229018 -6.0156,2.34201 0.9603,-2.02301 1.10742,-3.563632 1.40886,-5.64299 0.17418,-3.421151 0.0307,-4.338655 -0.37973,-6.047574 z"
       id="path1747"
       inkscape:export-filename="Top Nubs.svg"
       inkscape:export-xdpi="96"
       inkscape:export-ydpi="96"
       sodipodi:nodetypes="cssccc" /><path
       style="fill:#ffffff;stroke:#000000;stroke-width:3;stroke-linecap:round;stroke-linejoin:round;stroke-dasharray:none"
       d="m 44.761571,44.536248 c -1.368783,-1.017509 -3.853218,-0.83189 -5.034651,0.413397 -1.116147,1.242506 -1.654894,2.919939 -1.810657,4.559829 -0.03662,1.378801 0.233925,2.778302 0.796358,4.038035 0.391077,0.753402 0.748224,1.347252 1.573068,1.966983 1.363377,0.803252 3.098,0.83942 4.680846,0.636831 0.710663,-1.819693 1.153346,-4.76485 1.060062,-6.473062 -0.02162,-1.362491 -0.07262,-3.731526 -1.265026,-5.142013 z"
       id="path1745"
       sodipodi:nodetypes="cccccccc" /></g></svg>
