<?xml version="1.0" encoding="UTF-8" standalone="no"?>
<!-- Created with Inkscape (http://www.inkscape.org/) -->

<svg
   width="113.66097mm"
   height="22.224197mm"
   viewBox="0 0 113.66097 22.224197"
   version="1.1"
   id="svg5"
   inkscape:version="1.2.2 (732a01da63, 2022-12-09)"
   xml:space="preserve"
   sodipodi:docname="card.svg"
   xmlns:inkscape="http://www.inkscape.org/namespaces/inkscape"
   xmlns:sodipodi="http://sodipodi.sourceforge.net/DTD/sodipodi-0.dtd"
   xmlns="http://www.w3.org/2000/svg"
   xmlns:svg="http://www.w3.org/2000/svg"><sodipodi:namedview
     id="namedview7"
     pagecolor="#7c7c7c"
     bordercolor="#000000"
     borderopacity="0.25"
     inkscape:showpageshadow="2"
     inkscape:pageopacity="0"
     inkscape:pagecheckerboard="true"
     inkscape:deskcolor="#2c2c2c"
     inkscape:document-units="mm"
     showgrid="false"
     inkscape:lockguides="false"
     inkscape:zoom="0.74564394"
     inkscape:cx="394.96063"
     inkscape:cy="453.29947"
     inkscape:window-width="1920"
     inkscape:window-height="1017"
     inkscape:window-x="1272"
     inkscape:window-y="-8"
     inkscape:window-maximized="1"
     inkscape:current-layer="layer1" /><defs
     id="defs2"><inkscape:path-effect
       effect="fill_between_many"
       method="originald"
       linkedpaths="#path5021,0,1"
       id="path-effect5548"
       is_visible="true"
       lpeversion="0"
       join="true"
       close="true"
       autoreverse="true" /></defs><g
     inkscape:groupmode="layer"
     id="layer2"
     inkscape:label="Bottom"
     transform="translate(-38.25286,-185.24569)"><path
       inkscape:original-d="M 0,0"
       inkscape:path-effect="#path-effect5548"
       d="m 45.961911,187.68917 c 6.783806,0.97216 13.707478,1.41802 20.500606,0.40557 7.059674,-0.3039 14.11235,0.17045 21.161959,0.38553 12.330151,-0.87313 24.696094,-1.38118 37.052224,-0.73543 5.13067,0.35663 10.23785,-0.11668 15.30506,-0.87795 3.6609,-0.19264 3.93166,-0.14929 7.56463,0.0596 3.10635,2.81109 4.4194,14.14961 0.12437,17.68788 -3.59569,-0.06 -5.29832,0.78089 -9.12666,0.18512 -8.86262,0.86071 -16.17473,0.15762 -25.07391,-0.34029 -13.18629,0.53414 -26.129932,1.47269 -39.344413,-0.1001 -5.121171,-0.18967 -10.211068,0.64259 -15.328741,0.67106 -4.468282,0.95018 -8.812282,1.14812 -13.405644,0.73861 z"
       id="path5550"
       class="UnoptimicedTransforms"
       style="fill:#ffa402;fill-opacity:1" /><path
       style="fill:#ab6e01;fill-opacity:1;stroke:none;stroke-width:3;stroke-linecap:round;stroke-linejoin:round;stroke-dasharray:none;stroke-opacity:1"
       d="m 48.602667,205.32948 c 0.269978,-1.30879 1.382596,-2.27116 1.755401,-3.52933 0.144103,-0.48633 0.146045,-1.46862 0.485537,-1.83526 0.226396,-0.2445 2.521532,-0.016 2.763825,-0.0202 2.325039,-0.0405 4.537532,-0.64233 6.834864,-0.76638 1.910379,-0.10315 3.774065,0.014 5.677046,0.0403 4.112207,0.0569 8.184422,-0.2623 12.287816,-0.36302 8.077575,-0.19826 16.097033,0.64693 24.164794,0.42352 4.44532,-0.12309 8.89507,-0.83842 13.33359,-0.98821 1.96905,-0.0665 3.9027,0.17305 5.86379,0.20167 4.25613,0.0621 8.51635,0.0202 12.77335,0.0202 2.71658,0 5.51458,0.55857 8.21678,0.22185 1.46379,-0.1824 2.86168,-0.74114 4.33248,-0.96805 0.76271,-0.11767 2.60029,-0.064 2.95057,-0.72604 l -2.25219,7.34657 -33.4879,0.26613 -32.245968,0.26612 -12.862904,-0.17741 z"
       id="path5733" /><path
       style="fill:none;fill-opacity:1;stroke:#000000;stroke-width:3;stroke-linecap:round;stroke-linejoin:round;stroke-dasharray:none;stroke-opacity:1"
       d="m 45.961911,187.68917 c 6.783806,0.97216 13.707478,1.41802 20.500606,0.40557 7.059674,-0.3039 14.11235,0.17045 21.161959,0.38553 12.330151,-0.87313 24.696094,-1.38118 37.052224,-0.73543 5.13067,0.35663 10.23785,-0.11668 15.30506,-0.87795 3.6609,-0.19264 3.93166,-0.14929 7.56463,0.0596 3.10635,2.81109 4.4194,14.14961 0.12437,17.68788 -3.59569,-0.06 -5.29832,0.78089 -9.12666,0.18512 -8.86262,0.86071 -16.17473,0.15762 -25.07391,-0.34029 -13.18629,0.53414 -26.129932,1.47269 -39.344413,-0.1001 -5.121171,-0.18967 -10.211068,0.64259 -15.328741,0.67106 -4.468282,0.95018 -8.812282,1.14812 -13.405644,0.73861"
       id="path5021"
       sodipodi:nodetypes="cccccccccccc"
       class="UnoptimicedTransforms" /><path
       style="fill:#a36901;fill-opacity:1;stroke:#000000;stroke-width:2.80755;stroke-linecap:round;stroke-linejoin:round;stroke-dasharray:none;stroke-opacity:1"
       d="m 45.439738,188.64976 c -5.508816,1.23262 -5.70132,6.07334 -5.70132,10.10656 0,1.25066 -0.257647,2.66987 0.376503,3.82675 0.657664,1.19977 2.285545,2.15774 3.603664,2.79647 0.802022,0.38865 2.127713,0.76809 3.065806,0.46609 2.529156,-0.81423 3.031693,-4.15104 3.280946,-6.08357 0.576258,-4.46787 1.759377,-9.71021 -4.625599,-11.1123 z"
       id="path5019" /></g></svg>
