<?xml version="1.0" encoding="UTF-8" standalone="no"?>
<!-- Created with Inkscape (http://www.inkscape.org/) -->

<svg
   width="78.831444mm"
   height="60.460781mm"
   viewBox="0 0 78.831444 60.460781"
   version="1.1"
   id="svg5"
   inkscape:version="1.2.2 (732a01da63, 2022-12-09)"
   xml:space="preserve"
   sodipodi:docname="card.svg"
   xmlns:inkscape="http://www.inkscape.org/namespaces/inkscape"
   xmlns:sodipodi="http://sodipodi.sourceforge.net/DTD/sodipodi-0.dtd"
   xmlns="http://www.w3.org/2000/svg"
   xmlns:svg="http://www.w3.org/2000/svg"><sodipodi:namedview
     id="namedview7"
     pagecolor="#7c7c7c"
     bordercolor="#000000"
     borderopacity="0.25"
     inkscape:showpageshadow="2"
     inkscape:pageopacity="0"
     inkscape:pagecheckerboard="true"
     inkscape:deskcolor="#2c2c2c"
     inkscape:document-units="mm"
     showgrid="false"
     inkscape:lockguides="false"
     inkscape:zoom="0.74564394"
     inkscape:cx="394.96063"
     inkscape:cy="453.29947"
     inkscape:window-width="1920"
     inkscape:window-height="1017"
     inkscape:window-x="1272"
     inkscape:window-y="-8"
     inkscape:window-maximized="1"
     inkscape:current-layer="layer1" /><defs
     id="defs2" /><g
     inkscape:groupmode="layer"
     id="layer4"
     inkscape:label="drawing"
     transform="translate(-57.478691,-104.29411)"><path
       style="fill:#fefefe;fill-opacity:0;stroke:#ff6361;stroke-width:1.67422;stroke-linecap:round;stroke-linejoin:round;stroke-dasharray:none;stroke-opacity:1"
       d="m 76.453395,135.6572 c 1.903659,0.11334 3.83828,0.27382 5.748042,0.16709 7.649305,-0.4273 15.145672,-0.95503 22.815293,-0.95503 4.7934,0 3.51664,-0.94554 4.01727,-2.27555"
       id="path8198"
       sodipodi:nodetypes="ccsc" /><path
       style="fill:#ff6361;fill-opacity:1;stroke:none;stroke-width:1.67422;stroke-linecap:round;stroke-linejoin:round;stroke-dasharray:none;stroke-opacity:1"
       d="m 87.307818,135.24611 c 1.368439,-6.50389 6.652506,-12.98387 12.800972,-15.53775 1.12654,-0.46794 2.34639,-0.95574 3.53726,-1.24153 0.15028,-0.036 1.4149,-0.0234 1.4149,-0.0239 0,-0.90438 -5.43733,3.7638 -6.013333,4.41696 -2.525217,2.86348 -2.89244,11.09341 -3.568733,11.82377"
       id="path8200"
       sodipodi:nodetypes="cscssc" /><path
       style="fill:#ff6361;fill-opacity:1;stroke:none;stroke-width:1.67422;stroke-linecap:round;stroke-linejoin:round;stroke-dasharray:none;stroke-opacity:1"
       d="m 88.347418,135.56974 c -8.95441,5.00148 -0.122772,9.49924 4.375118,9.40714 2.952488,-0.0605 8.121134,-5.57528 2.647985,-9.47552"
       id="path8202"
       sodipodi:nodetypes="csc" /><path
       style="fill:#ff6361;fill-opacity:1;stroke:none;stroke-width:1.67422;stroke-linecap:round;stroke-linejoin:round;stroke-dasharray:none;stroke-opacity:1"
       d="m 88.235401,142.51752 c -1.222985,1.39985 -3.859678,3.97497 -4.751709,5.60271 -1.891007,3.45064 -2.715204,7.07027 -5.040592,10.26649 -0.301122,0.41388 -3.836389,5.87897 -3.669903,5.96888 2.097978,1.13286 21.041309,-0.44759 24.628145,-1.00712 3.008508,-0.46931 13.570568,0.0905 13.684398,-0.0324 0.57836,-0.6246 -2.61405,-6.60984 -3.07264,-7.05428 -3.28116,-3.1801 -6.04927,-6.73163 -9.50637,-9.76509 -1.152719,-1.01149 -4.761801,-3.26616 -5.005683,-4.188"
       id="path8204"
       sodipodi:nodetypes="csscsscsc" /><path
       style="fill:#58508d;fill-opacity:1;stroke:none;stroke-width:1.67422;stroke-linecap:round;stroke-linejoin:round;stroke-dasharray:none;stroke-opacity:1"
       d="m 60.712609,129.9987 c -2.429831,0.6977 -3.090576,2.75771 -3.227746,5.10937 -0.257641,4.41708 7.626203,5.46906 9.417945,1.91004 2.05029,-4.07259 -1.840814,-10.85541 -6.190199,-7.01941 z"
       id="path8206" /><path
       style="fill:#58508d;fill-opacity:1;stroke:none;stroke-width:1.67422;stroke-linecap:round;stroke-linejoin:round;stroke-dasharray:none;stroke-opacity:1"
       d="m 72.695063,116.5329 c -3.811822,5.60616 -0.187797,8.63203 5.305882,5.39588 5.561613,-3.27616 3.731896,-7.95014 -2.781555,-7.95014"
       id="path8208"
       sodipodi:nodetypes="csc" /><path
       style="fill:#58508d;fill-opacity:1;stroke:none;stroke-width:1.67422;stroke-linecap:round;stroke-linejoin:round;stroke-dasharray:none;stroke-opacity:1"
       d="m 92.282616,108.1526 c -5.015656,6.98468 7.784994,8.93127 8.356764,0.2865 0.14633,-2.21236 -1.24201,-3.19792 -3.18353,-3.93946 -0.734914,-0.28069 -1.485861,-0.43047 -2.36554,0.62077 -1.498114,1.84029 -1.931245,1.81166 -2.807694,3.03219 z"
       id="path8210"
       sodipodi:nodetypes="ssscs" /><path
       style="fill:#58508d;fill-opacity:1;stroke:none;stroke-width:1.67422;stroke-linecap:round;stroke-linejoin:round;stroke-dasharray:none;stroke-opacity:1"
       d="m 116.64546,113.6201 c -2.44378,0.96554 -1.52726,0.22314 -3.13932,2.57854 -3.23171,4.72193 2.75383,6.92335 6.63236,4.94224 1.87238,-0.95639 4.77,-5.56577 1.85706,-7.09103 -1.5561,-0.8148 -3.67592,-0.56884 -5.3501,-0.42975 z"
       id="path8212" /><path
       style="fill:#58508d;fill-opacity:1;stroke:none;stroke-width:1.67422;stroke-linecap:round;stroke-linejoin:round;stroke-dasharray:none;stroke-opacity:1"
       d="m 132.21064,129.88941 c -2.04992,-0.89204 -4.32688,0.12593 -5.83773,1.68509 -5.5971,5.77597 2.37848,10.07185 7.6051,6.68514 3.6792,-2.38402 2.94256,-6.88243 -1.76737,-8.37023 z"
       id="path8214"
       sodipodi:nodetypes="ccsc" /></g></svg>
