<?xml version="1.0" encoding="UTF-8" standalone="no"?>
<!-- Created with Inkscape (http://www.inkscape.org/) -->

<svg
   width="115.66902mm"
   height="22.307047mm"
   viewBox="0 0 115.66902 22.307047"
   version="1.1"
   id="svg5"
   inkscape:version="1.2.2 (732a01da63, 2022-12-09)"
   xml:space="preserve"
   sodipodi:docname="card.svg"
   xmlns:inkscape="http://www.inkscape.org/namespaces/inkscape"
   xmlns:sodipodi="http://sodipodi.sourceforge.net/DTD/sodipodi-0.dtd"
   xmlns="http://www.w3.org/2000/svg"
   xmlns:svg="http://www.w3.org/2000/svg"><sodipodi:namedview
     id="namedview7"
     pagecolor="#7c7c7c"
     bordercolor="#000000"
     borderopacity="0.25"
     inkscape:showpageshadow="2"
     inkscape:pageopacity="0"
     inkscape:pagecheckerboard="true"
     inkscape:deskcolor="#2c2c2c"
     inkscape:document-units="mm"
     showgrid="false"
     inkscape:lockguides="false"
     inkscape:zoom="0.74564394"
     inkscape:cx="394.96063"
     inkscape:cy="453.29947"
     inkscape:window-width="1920"
     inkscape:window-height="1017"
     inkscape:window-x="1272"
     inkscape:window-y="-8"
     inkscape:window-maximized="1"
     inkscape:current-layer="layer1" /><defs
     id="defs2"><inkscape:path-effect
       effect="fill_between_many"
       method="originald"
       linkedpaths="#path364,0,1"
       id="path-effect4224"
       is_visible="true"
       lpeversion="0"
       join="true"
       close="true"
       autoreverse="true" /></defs><g
     inkscape:label="Top"
     inkscape:groupmode="layer"
     id="layer1"
     transform="translate(-38.095465,-39.269984)"><path
       inkscape:original-d="M 0,0"
       inkscape:path-effect="#path-effect4224"
       d="m 45.487724,41.266543 c 6.588901,-0.38591 13.182598,1.200399 19.754472,1.397548 4.243004,0.127286 8.519911,-0.617614 12.729485,-1.026768 4.836149,-0.470057 9.715021,-0.664213 14.578166,-0.570429 6.972188,0.134459 14.342413,0.22991 21.290303,0.646767 5.09179,0.305496 9.64848,0.970266 14.73256,0.836344 2.90841,-0.07661 5.76192,0.02188 8.66238,-0.313735 4.11692,-0.476366 5.12508,-1.251219 9.27104,-1.423431 0.45261,-0.01879 2.47435,-0.09362 2.87377,0.01421 0.35649,0.09625 1.69786,0.711553 1.88011,1.006772 1.58213,2.562961 1.04161,8.838301 0.0779,11.440216 -0.17336,0.468061 -0.50567,2.092685 -1.47893,3.408304 -3.81628,1.49141 -8.57379,2.096323 -8.9265,2.096323 -7.28855,0 -14.58791,-0.01413 -21.86724,-0.285215 -6.2649,-0.233304 -12.53747,-0.268362 -18.80373,-0.45634 C 95.076017,57.881551 89.935393,57.617116 84.732568,57.837461 77.54036,58.142062 70.481493,59.36244 63.340696,60.005086 59.342993,60.364864 51.774471,59.154857 47.783335,59.837316 Z"
       id="path4226"
       class="UnoptimicedTransforms"
       style="fill:#ffa601;fill-opacity:1" /><path
       style="fill:#ab6e01;fill-opacity:1;stroke:none;stroke-width:3;stroke-linecap:round;stroke-linejoin:round;stroke-dasharray:none"
       d="m 50.071891,58.123074 c 6.961181,1.417306 17.28743,0.160504 24.191217,-0.507813 15.529215,-1.087206 30.046112,-1.303807 45.847582,-0.470589 7.39349,0.06157 20.66771,0.757836 24.8438,-0.316197 5.61239,-1.725571 5.72362,-1.865335 5.7603,-6.7242 -6.11177,1.176317 -15.14538,3.113164 -21.04719,3.290966 -13.24572,1.183091 -23.0771,0.221136 -35.554378,0.732973 -8.061826,0.650217 -16.144662,-1.125077 -24.185436,0.214463 -6.255865,0.489124 -12.6303,-0.382497 -18.713864,-1.685605"
       id="path3483"
       sodipodi:nodetypes="ccccccccc"
       inkscape:export-filename="top roll.svg"
       inkscape:export-xdpi="96"
       inkscape:export-ydpi="96" /><path
       style="fill:none;fill-opacity:1;stroke:#000000;stroke-width:3;stroke-linecap:round;stroke-linejoin:round;stroke-dasharray:none"
       d="m 45.487724,41.266543 c 6.588901,-0.38591 13.182598,1.200399 19.754472,1.397548 4.243004,0.127286 8.519911,-0.617614 12.729485,-1.026768 4.836149,-0.470057 9.715021,-0.664213 14.578166,-0.570429 6.972188,0.134459 14.342413,0.22991 21.290303,0.646767 5.09179,0.305496 9.64848,0.970266 14.73256,0.836344 2.90841,-0.07661 5.76192,0.02188 8.66238,-0.313735 4.11692,-0.476366 5.12508,-1.251219 9.27104,-1.423431 0.45261,-0.01879 2.47435,-0.09362 2.87377,0.01421 0.35649,0.09625 1.69786,0.711553 1.88011,1.006772 1.58213,2.562961 1.04161,8.838301 0.0779,11.440216 -0.17336,0.468061 -0.50567,2.092685 -1.47893,3.408304 -3.81628,1.49141 -8.57379,2.096323 -8.9265,2.096323 -7.28855,0 -14.58791,-0.01413 -21.86724,-0.285215 -6.2649,-0.233304 -12.53747,-0.268362 -18.80373,-0.45634 C 95.076017,57.881551 89.935393,57.617116 84.732568,57.837461 77.54036,58.142062 70.481493,59.36244 63.340696,60.005086 59.342993,60.364864 51.774471,59.154857 47.783335,59.837316"
       id="path364"
       sodipodi:nodetypes="csssssssscscsssssc"
       class="UnoptimicedTransforms" /><path
       style="fill:#ab6e01;fill-opacity:1;stroke:#000000;stroke-width:3;stroke-linecap:round;stroke-linejoin:round;stroke-dasharray:none"
       d="m 42.652404,41.653473 c -1.18509,0.202081 -2.109283,3.800005 -2.326088,4.648773 -0.834453,3.266749 -1.259497,8.638818 1.041491,11.620781 0.593286,0.768869 1.644843,1.128601 2.535333,1.369026 2.295361,0.619723 3.766743,0.59333 4.806569,-1.825369 0.452697,-1.053002 0.912611,-2.191848 1.056389,-3.337001 0.154897,-1.23371 0,-2.607974 0,-3.850384 0,-2.667807 -1.016604,-6.810134 -2.940958,-8.739912 -2.067842,-0.918941 -3.730027,0.0386 -4.172736,0.114086 z"
       id="path362"
       sodipodi:nodetypes="csssssscc" /></g></svg>
