<?xml version="1.0" encoding="UTF-8" standalone="no"?>
<!-- Created with Inkscape (http://www.inkscape.org/) -->

<svg
   width="53.043018mm"
   height="68.029938mm"
   viewBox="0 0 53.043018 68.029938"
   version="1.1"
   id="svg5"
   inkscape:version="1.2.2 (732a01da63, 2022-12-09)"
   xml:space="preserve"
   sodipodi:docname="card_icon.svg"
   xmlns:inkscape="http://www.inkscape.org/namespaces/inkscape"
   xmlns:sodipodi="http://sodipodi.sourceforge.net/DTD/sodipodi-0.dtd"
   xmlns="http://www.w3.org/2000/svg"
   xmlns:svg="http://www.w3.org/2000/svg"><sodipodi:namedview
     id="namedview7"
     pagecolor="#7c7c7c"
     bordercolor="#000000"
     borderopacity="0.25"
     inkscape:showpageshadow="2"
     inkscape:pageopacity="0"
     inkscape:pagecheckerboard="true"
     inkscape:deskcolor="#2c2c2c"
     inkscape:document-units="mm"
     showgrid="false"
     inkscape:lockguides="false"
     inkscape:zoom="1.4912879"
     inkscape:cx="66.385572"
     inkscape:cy="126.73609"
     inkscape:window-width="960"
     inkscape:window-height="1017"
     inkscape:window-x="1280"
     inkscape:window-y="0"
     inkscape:window-maximized="0"
     inkscape:current-layer="layer4" /><defs
     id="defs2"><rect
       x="190.61171"
       y="291.1333"
       width="367.94696"
       height="100.5216"
       id="rect7117" /><inkscape:path-effect
       effect="fill_between_many"
       method="originald"
       linkedpaths="#path364,0,1"
       id="path-effect4224"
       is_visible="true"
       lpeversion="0"
       join="true"
       close="true"
       autoreverse="true" /><inkscape:path-effect
       effect="fill_between_many"
       method="originald"
       linkedpaths="#path5021,0,1"
       id="path-effect5548"
       is_visible="true"
       lpeversion="0"
       join="true"
       close="true"
       autoreverse="true" /></defs><g
     inkscape:groupmode="layer"
     id="layer3"
     inkscape:label="Card Face"
     transform="translate(-116.90456,-149.4941)"><path
       style="fill:#ffb835;fill-opacity:1;stroke:#000000;stroke-width:4;stroke-linecap:round;stroke-linejoin:round;stroke-dasharray:none;stroke-opacity:1"
       d="m 157.4918,163.67646 c 1.70829,7.9269 1.45972,17.93784 2.24177,25.80098 0.31813,3.20316 2.52805,13.73472 1.83124,16.59533 l -33.43004,4.01368 c 0.81077,0.12551 -0.49833,-9.4702 -0.63717,-10.88165 -0.71432,-7.26172 -1.84514,-14.46656 -2.28581,-21.76777 -0.17087,-2.83134 -0.25977,-7.77371 -0.51944,-10.60382 z"
       id="path5799"
       sodipodi:nodetypes="csccsscc" /><path
       style="fill:#ffb835;fill-opacity:1;stroke:#000000;stroke-width:2;stroke-linecap:round;stroke-linejoin:round"
       d="m 132.53875,188.80628 c 1.69379,1.08355 2.29479,-0.89325 3.62022,-1.13056 0.95972,-0.17181 1.43896,0.97513 2.40727,0.71842 0.85705,-0.22721 1.72266,-0.79483 2.62407,-0.864 0.76597,-0.0588 1.63299,0.44076 2.38879,0.26972 0.78065,-0.17671 1.42235,-0.74122 2.20348,-0.90722 0.54778,-0.1164 0.99668,0.53676 1.60289,0.36353 0.43337,-0.12384 0.84472,-0.58721 1.28777,-0.64404 0.55485,-0.0711 1.02302,0.31607 1.55056,0.35637 1.42059,0.10851 3.12489,0.20582 4.53714,-0.0406"
       id="path3850" /></g><g
     inkscape:groupmode="layer"
     id="layer5"
     inkscape:label="Text Box"
     inkscape:export-filename="textbox.svg"
     inkscape:export-xdpi="96"
     inkscape:export-ydpi="96"
     transform="translate(-116.90456,-149.4941)" /><g
     inkscape:groupmode="layer"
     id="layer4"
     inkscape:label="drawing"
     transform="translate(-116.90456,-149.4941)"><path
       style="fill:#58508d;fill-opacity:1;stroke:none;stroke-width:1.08371;stroke-linecap:round;stroke-linejoin:round;stroke-dasharray:none;stroke-opacity:1"
       d="m 139.50773,169.80298 c -2.06219,3.87775 0.44983,5.62552 3.74149,3.18702 3.33234,-2.46871 1.85648,-5.3974 -2.29942,-5.00165"
       id="path8208"
       sodipodi:nodetypes="csc" /><path
       style="fill:#58508d;fill-opacity:1;stroke:none;stroke-width:3.91067;stroke-linecap:round;stroke-linejoin:round;stroke-dasharray:none;stroke-opacity:1"
       d="m 140.17656,192.03377 c -3.13431,4.3896 6.62301,6.80262 9.05769,3.44406 0.25815,-0.35612 0.0772,-1.26453 0.12244,-1.66957 0.4517,-4.04655 -6.87135,-3.3722 -9.18013,-1.77449 z"
       id="path6461" /><path
       style="fill:#ffb835;fill-opacity:1;stroke:#000000;stroke-width:2;stroke-linecap:round;stroke-linejoin:round"
       d="m 154.15701,174.88322 c 0.0537,0.68852 0.63707,4.51108 0.33204,4.60297 -0.71694,0.21599 -1.90972,0.37428 -2.71171,0.50163 -2.16814,0.34423 -4.54604,0.54227 -6.72576,0.7254 -2.97114,0.24899 -5.94995,0.33462 -8.91609,0.6272 -1.47393,0.14548 -4.94215,1.09458 -6.28735,0.31123 -0.32456,-0.189 -0.6528,-4.05998 -0.36711,-4.50521 5.73565,-0.96479 11.57816,-1.1547 17.35369,-1.78546 2.27357,-0.20118 5.14399,-0.63077 7.32235,-0.47777 z"
       id="path2296"
       sodipodi:nodetypes="cssccsccc" /></g><g
     inkscape:label="Top"
     inkscape:groupmode="layer"
     id="layer1"
     transform="translate(-116.90456,-149.4941)"><path
       inkscape:original-d="M 0,0"
       inkscape:path-effect="#path-effect4224"
       d="m 147.91031,32.36686 c -2.53146,0.01444 -5.05872,0.249318 -7.52885,0.818833 -1.64949,0.351922 -3.39242,0.677171 -4.97506,0.780776 -3.39339,0.222891 -6.79953,0.192178 -10.19792,0.180239 -3.90774,-0.134343 -8.01969,-0.589037 -12.01458,-0.843562 -8.31782,-0.416638 -16.648206,-0.595924 -24.976117,-0.632258 -6.254993,0.02653 -12.477153,0.738351 -18.68272,1.450815 -4.122756,0.390789 -8.243518,-0.01704 -12.30895,-0.525914 -4.095014,-0.454582 -8.229317,-0.984911 -12.350804,-0.683797 -1.224716,0.344566 -2.678034,1.014184 -2.845859,2.445102 -0.448141,1.588491 0.171883,3.203867 0.245709,4.801043 0.63858,5.02876 1.211096,10.07445 1.890878,15.092651 0.439618,1.180245 1.209197,2.556643 2.625132,2.645369 1.386602,0.277103 2.778085,-0.187055 4.175781,-0.05078 4.84448,0.06288 9.701533,0.826442 14.535432,0.145489 8.393827,-0.922598 16.78904,-2.283018 25.261277,-1.994718 6.731516,0.141113 13.528871,0.420198 20.297601,0.499626 7.93471,0.205956 15.92182,0.517146 23.88574,0.487212 2.39252,-0.03364 4.80548,0.143546 7.18248,-0.168376 3.05192,-0.484026 6.13684,-1.096018 8.95856,-2.389155 2.04444,-1.383806 2.60271,-3.955055 3.28858,-6.168183 0.93032,-3.63035 1.1319,-7.517476 0.21142,-11.169708 -0.42545,-1.707653 -1.55122,-3.260391 -3.21094,-3.9375 -1.06996,-0.539477 -2.26926,-0.807162 -3.46679,-0.783204 z"
       id="path4226"
       class="UnoptimicedTransforms"
       style="fill:#ffa601;fill-opacity:1;stroke-width:1.00501;stroke-dasharray:none"
       transform="matrix(0.31916017,-0.03139707,0.03139707,0.31916017,108.55559,150.31557)" /><path
       id="path364"
       style="fill:none;fill-opacity:1;stroke:#000000;stroke-width:12.4727;stroke-linecap:round;stroke-linejoin:round;stroke-dasharray:none"
       class="UnoptimicedTransforms"
       d="m 148.29102,37.453125 c -2.53146,0.01444 -5.05872,0.249318 -7.52885,0.818833 -1.64949,0.351922 -3.39242,0.677171 -4.97506,0.780776 -3.39339,0.222891 -6.79953,0.192178 -10.19792,0.180239 -3.90774,-0.134343 -8.01969,-0.589037 -12.01458,-0.843562 -8.31782,-0.416638 -16.64821,-0.595924 -24.976121,-0.632258 -6.254993,0.02653 -12.477153,0.738351 -18.68272,1.450815 -4.122756,0.390789 -8.243518,-0.01704 -12.30895,-0.525914 -4.095014,-0.454582 -8.229317,-0.984911 -12.350804,-0.683797 -1.224716,0.344566 -2.678034,1.014184 -2.845859,2.445102 -0.448141,1.588491 0.171883,3.203867 0.245709,4.801043 0.63858,5.02876 1.211096,10.07445 1.890878,15.092651 0.439618,1.180245 1.209197,2.556643 2.625132,2.645369 1.386602,0.277103 2.778085,-0.187055 4.175781,-0.05078 4.84448,0.06288 9.701533,0.826442 14.535432,0.145489 8.393827,-0.922598 16.78904,-2.283018 25.261277,-1.994718 6.731516,0.141113 13.528875,0.420198 20.297605,0.499626 7.93471,0.205956 15.92182,0.517146 23.88574,0.487212 2.39252,-0.03364 4.80548,0.143546 7.18248,-0.168376 3.05192,-0.484026 6.13684,-1.096018 8.95856,-2.389155 2.04444,-1.383806 2.60271,-3.955055 3.28858,-6.168183 0.93032,-3.63035 1.1319,-7.517476 0.21142,-11.169708 -0.42545,-1.707653 -1.55122,-3.260391 -3.21094,-3.9375 -1.06996,-0.539477 -2.26926,-0.807162 -3.46679,-0.783204 z"
       transform="matrix(0.31916017,-0.03139707,0.03139707,0.31916017,108.27439,148.70419)" /><path
       id="path362"
       style="fill:#58508d;fill-opacity:1;stroke:#000000;stroke-width:2.5;stroke-linecap:round;stroke-linejoin:round;stroke-dasharray:none"
       d="m 123.12035,159.52988 c -1.65627,0.67541 -1.78932,2.51218 -1.83279,3.90226 -0.0429,1.41389 0.54538,3.26013 2.30162,3.77812 1.39946,0.46404 3.37293,-0.19246 3.57847,-1.64391 0.60337,-1.98172 0.0611,-4.23191 -1.4242,-5.76115 -0.71883,-0.5323 -1.75818,-0.59122 -2.6231,-0.27537 z" /></g><g
     inkscape:groupmode="layer"
     id="layer7"
     inkscape:label="Top Nubs"
     transform="translate(-116.90456,-149.4941)" /><g
     inkscape:groupmode="layer"
     id="layer2"
     inkscape:label="Bottom"
     transform="translate(-116.90456,-149.4941)"><path
       d="m 143.52599,169.00851 c -3.91643,0.10373 -7.80147,0.89877 -11.692,0.95613 -4.99941,0.12237 -9.98855,-0.37163 -14.9887,-0.33642 -9.43667,-0.0843 -18.865736,0.3841 -28.279606,0.89682 -7.393431,-0.18802 -14.806836,-0.74499 -22.195032,-0.20627 -4.107729,0.48368 -8.34648,0.45612 -12.3921,0.13759 -2.188794,-0.12796 -4.265858,-0.49241 -6.459337,-0.61246 -1.898,0.1258 -4.000334,0.97704 -4.582664,2.77209 -0.835621,1.78792 -0.419531,3.77516 -0.62187,5.65749 -0.123599,4.22701 -0.337414,8.45538 -0.380554,12.68197 0.254302,1.88234 1.593383,3.88389 3.797303,4.18789 2.111597,0.46545 4.307508,0.31545 6.459963,0.37954 3.036239,-0.0329 6.046532,-0.44963 9.038803,-0.86192 3.532465,-0.0591 7.003541,-0.43551 10.516397,-0.56763 1.012384,-0.038 2.294968,-0.0498 3.410132,-0.0104 5.643743,0.5318 11.313733,0.8199 16.987561,0.78788 7.752311,-0.008 15.493954,-0.45535 23.239314,-0.652 8.14162,0.4422 16.32489,1.0299 24.46843,0.32177 3.23378,0.44601 6.44712,-0.16447 9.64432,-0.24188 2.83856,-0.30232 4.77686,-2.57541 5.84341,-4.8159 1.9118,-4.03078 1.74859,-8.63338 0.66386,-12.84002 -0.68313,-2.40113 -1.81972,-4.86788 -3.97485,-6.47043 -2.03606,-1.32835 -4.66345,-1.06051 -7.02468,-1.17723 -0.49285,-0.004 -0.98542,0.002 -1.4781,0.0133 z"
       id="path5550"
       style="fill:#ffa402;fill-opacity:1;stroke-width:1.62769;stroke-dasharray:none"
       transform="matrix(0.31916017,-0.03139707,0.03139707,0.31916017,108.55559,150.31557)"
       inkscape:original-d="M 0,0"
       inkscape:path-effect="#path-effect5548"
       class="UnoptimicedTransforms" /><path
       id="path5021"
       style="fill:none;fill-opacity:1;stroke:#000000;stroke-width:13.0529;stroke-linecap:round;stroke-linejoin:round;stroke-dasharray:none;stroke-opacity:1"
       d="m 142.0918,181.81445 c -3.91652,0.11628 -7.80212,0.98965 -11.69271,1.05512 -4.99952,0.13743 -9.98835,-0.40018 -14.98854,-0.3582 -9.43666,-0.0859 -18.866095,0.43354 -28.280361,1.00149 -7.393339,-0.20087 -14.8064,-0.80579 -22.195,-0.21075 -4.108079,0.53253 -8.346832,0.50524 -12.392255,0.15915 -2.188717,-0.13864 -4.265542,-0.53637 -6.45895,-0.66634 -1.898095,0.13907 -4.001021,1.07276 -4.584579,3.03907 -0.836846,1.95867 -0.422111,4.13478 -0.625737,6.19641 -0.126486,4.62944 -0.343189,9.26042 -0.389215,13.88934 0.253017,2.06133 1.590738,4.25248 3.794461,4.58392 2.11129,0.50831 4.307314,0.34253 6.459736,0.41125 3.036276,-0.0381 6.046868,-0.49656 9.039436,-0.95013 3.532522,-0.0672 7.003872,-0.48175 10.516836,-0.62884 1.012415,-0.0423 2.295013,-0.0561 3.410156,-0.0137 5.643407,0.57856 11.313228,0.89021 16.987106,0.85127 7.752354,-0.0136 15.494336,-0.50927 23.239876,-0.72993 8.14135,0.47874 16.32426,1.11679 24.46833,0.33569 3.23349,0.48626 6.44726,-0.18452 9.64453,-0.27149 2.83878,-0.33303 4.77864,-2.8238 5.84673,-5.27828 1.91456,-4.41575 1.75449,-9.45632 0.67263,-14.06262 -0.6815,-2.62922 -1.81641,-5.32998 -3.97045,-7.08359 -2.03517,-1.4534 -4.66275,-1.15827 -7.02391,-1.28449 -0.49285,-0.004 -0.98543,0.003 -1.47812,0.0156 z"
       transform="matrix(0.31917832,-0.03119793,0.02886734,0.2914023,109.06862,151.20188)"
       class="UnoptimicedTransforms" /><path
       id="path5019"
       style="fill:#58508d;fill-opacity:1;stroke:#000000;stroke-width:2.5;stroke-linecap:round;stroke-linejoin:round;stroke-dasharray:none;stroke-opacity:1"
       d="m 128.05138,203.86773 c -1.82893,0.62117 -2.49367,2.72776 -2.19629,4.42414 -0.0493,1.28695 0.71648,2.59915 2.01767,3.01107 1.34619,0.66659 3.35592,0.21111 3.81104,-1.31862 0.49626,-1.38717 0.47597,-2.93642 0.10815,-4.34036 -0.56288,-1.37085 -2.24061,-2.30501 -3.74057,-1.77623 z" /></g><g
     inkscape:groupmode="layer"
     id="layer6"
     inkscape:label="Bottom Nubs"
     transform="translate(-116.90456,-149.4941)" /></svg>
