<?xml version="1.0" encoding="UTF-8" standalone="no"?>
<svg
   style="height: 512px; width: 512px;"
   viewBox="0 0 512 512"
   version="1.1"
   id="svg6"
   sodipodi:docname="general_pickup.svg"
   inkscape:version="1.2.2 (732a01da63, 2022-12-09)"
   xmlns:inkscape="http://www.inkscape.org/namespaces/inkscape"
   xmlns:sodipodi="http://sodipodi.sourceforge.net/DTD/sodipodi-0.dtd"
   xmlns="http://www.w3.org/2000/svg"
   xmlns:svg="http://www.w3.org/2000/svg">
  <defs
     id="defs10" />
  <sodipodi:namedview
     id="namedview8"
     pagecolor="#6e6e6e"
     bordercolor="#000000"
     borderopacity="0.25"
     inkscape:showpageshadow="2"
     inkscape:pageopacity="0"
     inkscape:pagecheckerboard="true"
     inkscape:deskcolor="#d1d1d1"
     showgrid="false"
     inkscape:zoom="2.3119077"
     inkscape:cx="262.77"
     inkscape:cy="179.07289"
     inkscape:window-width="1920"
     inkscape:window-height="1017"
     inkscape:window-x="1272"
     inkscape:window-y="-8"
     inkscape:window-maximized="1"
     inkscape:current-layer="svg6" />
  <g
     class=""
     transform="matrix(-0.75131307,0,0,0.78088741,360.634,104.04868)"
     id="g4">
    <path
       d="m 363.783,23.545 c -9.782,0.057 -16.583,3.047 -20.744,10.22 -17.51,30.18 -38.432,61.645 -48.552,97.245 2.836,0.83 5.635,1.787 8.373,2.853 7.353,2.863 14.38,6.482 20.542,10.858 27.534,-25.542 58.165,-45.21 87.45,-65.462 11.356,-7.854 12.273,-13.584 10.183,-20.83 -2.09,-7.246 -9.868,-16.365 -20.525,-23.176 -10.658,-6.81 -23.87,-11.33 -34.73,-11.68 -0.68,-0.022 -1.345,-0.03 -1.997,-0.027 z m -68.998,0.746 c -10.02,-0.182 -17.792,6.393 -23.924,20.24 -8.94,20.194 -10.212,53.436 -1.446,83.185 0.156,-0.008 0.31,-0.023 0.467,-0.03 1.99,-0.087 3.99,-0.072 6,0.03 9.436,-34.822 27.966,-64.72 44.013,-91.528 -10.31,-8.496 -18.874,-11.782 -25.108,-11.896 z M 197.5,82.5 187,97.97 c 14.82,10.04 29.056,19.725 39.813,31.374 3.916,4.24 7.37,8.722 10.31,13.607 3.77,-4.73 8.51,-8.378 13.69,-10.792 0.407,-0.188 0.82,-0.355 1.228,-0.53 -3.423,-5.44 -7.304,-10.418 -11.51,-14.972 C 227.765,102.83 212.29,92.52 197.5,82.5 Z m 223.77,12.27 c -29.255,20.228 -58.575,39.152 -84.348,62.78 0.438,0.576 0.848,1.168 1.258,1.76 20.68,-6.75 49.486,-15.333 73.916,-19.41 11.484,-1.916 15.66,-6.552 17.574,-13.228 1.914,-6.676 0.447,-16.71 -5.316,-26.983 -0.924,-1.647 -1.96,-3.29 -3.083,-4.92 z m -223.938,47.87 c -14.95,0.2 -29.732,4.3 -43.957,12.766 l 9.563,16.03 c 21.657,-12.89 42.626,-14.133 65.232,-4.563 0.52,-5.592 1.765,-10.66 3.728,-15.21 0.35,-0.806 0.73,-1.586 1.123,-2.354 -11.87,-4.52 -23.83,-6.827 -35.688,-6.67 z m 75.8,3.934 c -5.578,-0.083 -10.597,0.742 -14.427,2.526 -4.377,2.038 -7.466,4.914 -9.648,9.97 -0.884,2.047 -1.572,4.54 -1.985,7.494 0.456,-0.007 0.91,-0.03 1.365,-0.033 16.053,-0.084 32.587,2.77 49.313,9.19 7.714,2.96 15.062,7.453 22.047,13.184 3.217,-2.445 4.99,-4.72 5.773,-6.535 1.21,-2.798 1.095,-5.184 -0.634,-8.82 -3.46,-7.275 -15.207,-16.955 -28.856,-22.27 -6.824,-2.658 -13.98,-4.224 -20.523,-4.614 -0.818,-0.05 -1.627,-0.08 -2.424,-0.092 z m -24.757,38.457 c -22.982,0.075 -44.722,7.386 -65,19.782 -32.445,19.835 -60.565,53.124 -80.344,90.032 -19.777,36.908 -31.133,77.41 -31.186,110.53 -0.053,33.06 10.26,57.27 32.812,67.782 0.043,0.02 0.082,0.043 0.125,0.063 h 0.032 c 24.872,11.51 65.616,19.337 108.407,20.092 42.79,0.756 87.79,-5.457 121.874,-20.187 21.96,-9.49 34.545,-28.452 40.5,-54.156 5.954,-25.705 4.518,-57.657 -2.375,-89.314 -6.894,-31.657 -19.2,-63.06 -34.095,-87.875 -14.894,-24.814 -32.614,-42.664 -48.063,-48.593 -14.664,-5.627 -28.898,-8.2 -42.687,-8.156 z"
       fill="#ffffff"
       fill-opacity="1"
       id="path2" />
  </g>
  <path
     style="fill:none;stroke:none;stroke-width:45.3543;stroke-linecap:round;stroke-linejoin:round;stroke-opacity:1"
     d="m 410.91606,62.286223 c 5.71978,17.868572 13.59153,34.131196 23.35733,50.175017 3.45172,5.67067 7.93928,10.68028 11.24612,16.43664 6.58569,11.46397 21.24962,43.39076 25.08751,54.50044 1.92041,5.5591 2.3069,11.53449 3.46034,17.30173"
     id="path912" />
  <path
     style="fill:#ffffff;fill-opacity:1;stroke:none;stroke-width:45.3543;stroke-linecap:round;stroke-linejoin:round;stroke-opacity:1"
     d="m 182.53324,109.00089 c 55.25234,29.23777 87.8586,71.17312 107.70326,137.11619 20.63343,-69.92558 44.23279,-102.12687 96.45713,-137.98128 L 384.96346,156.58064 478.39279,83.913384 391.88416,9.5159508 389.28889,53.202815 C 331.64554,51.938531 249.24116,62.242982 182.53324,109.00089 Z"
     id="path1726"
     sodipodi:nodetypes="cccccccc" />
</svg>
