<?xml version="1.0" encoding="UTF-8" standalone="no"?>
<!-- Created with Inkscape (http://www.inkscape.org/) -->

<svg
   width="116.28922mm"
   height="45.319077mm"
   viewBox="0 0 116.28922 45.319077"
   version="1.1"
   id="svg5"
   inkscape:version="1.2.2 (732a01da63, 2022-12-09)"
   sodipodi:docname="Librarian pickup.svg"
   xmlns:inkscape="http://www.inkscape.org/namespaces/inkscape"
   xmlns:sodipodi="http://sodipodi.sourceforge.net/DTD/sodipodi-0.dtd"
   xmlns="http://www.w3.org/2000/svg"
   xmlns:svg="http://www.w3.org/2000/svg">
  <sodipodi:namedview
     id="namedview7"
     pagecolor="#7c7c7c"
     bordercolor="#000000"
     borderopacity="0.25"
     inkscape:showpageshadow="2"
     inkscape:pageopacity="0"
     inkscape:pagecheckerboard="true"
     inkscape:deskcolor="#2c2c2c"
     inkscape:document-units="mm"
     showgrid="false"
     inkscape:lockguides="false"
     inkscape:zoom="1.4912879"
     inkscape:cx="293.70586"
     inkscape:cy="200.49784"
     inkscape:window-width="1920"
     inkscape:window-height="1017"
     inkscape:window-x="1272"
     inkscape:window-y="-8"
     inkscape:window-maximized="1"
     inkscape:current-layer="layer1" />
  <defs
     id="defs2" />
  <g
     inkscape:label="Layer 1"
     inkscape:groupmode="layer"
     id="layer1"
     transform="translate(-81.958046,11.13598)">
    <path
       style="fill:#007fb3;fill-opacity:1;stroke:none;stroke-width:4;stroke-linecap:round;stroke-linejoin:round"
       d="m 124.91016,13.322529 c -2.45806,-0.632018 -4.85607,-0.05814 -7.17101,0.847042 -2.12987,0.832822 -4.23881,1.775751 -6.34932,2.662131 -21.84402,9.174124 18.55865,3.863998 16.06006,-1.532742 -0.45069,-0.973449 -1.71022,-1.296258 -2.53973,-1.976431 z"
       id="path43727" />
    <path
       style="fill:#007fb3;fill-opacity:1;stroke:none;stroke-width:4;stroke-linecap:round;stroke-linejoin:round"
       d="m 134.64037,8.41329 c -3.81078,-0.7033535 -5.87203,1.3579941 -7.65882,4.506377 -1.61935,2.85335 -1.64975,5.662758 -0.79229,8.741801 2.74703,9.86417 15.33532,14.196169 23.98003,8.798844 10.96806,-6.847913 10.313,-24.0502247 -3.82941,-25.184373 -2.44863,-0.1963674 -4.80691,0.6846959 -6.94576,1.8396286 -0.41655,0.224931 -1.13373,0.9348906 -1.6374,1.0980729 -0.84016,0.2722023 -2.24756,0.1996495 -3.11635,0.1996495 z"
       id="path43841" />
    <path
       style="fill:#007fb3;fill-opacity:1;stroke:none;stroke-width:4;stroke-linecap:round;stroke-linejoin:round"
       d="m 132.554,1.3542502 c -0.43135,0.1901425 -0.88407,0.3377794 -1.29407,0.5704275 -0.9343,0.5301547 -0.58745,2.2036954 -0.29051,2.9519622 1.22885,3.0965674 4.39284,4.228625 7.606,3.2371757 3.29851,-1.0177873 3.11231,-6.7513868 0.0264,-7.67224928 -2.36076,-0.70447225 -4.74102,1.41986818 -6.89294,0.58468808"
       id="path43845" />
    <path
       style="fill:#007fb3;fill-opacity:1;stroke:none;stroke-width:4;stroke-linecap:round;stroke-linejoin:round"
       d="m 134.90447,2.7090155 c -2.31566,0.3342235 -4.49791,1.2094959 -6.76089,1.7540645 -2.59836,0.6252776 -5.80463,1.055366 -8.4247,0.171128 -0.57692,-0.1947016 -0.80612,-1.7676553 -0.42256,-2.1818849 1.08149,-1.1679588 7.27184,-2.75259078 8.79444,-3.25143651 4.26957,-1.39882789 8.57783,-3.21876699 12.99358,-4.10707779 0.15049,-0.030273 10.79547,-2.3396355 7.73805,1.1123337 -3.57321,4.03432631 -10.23817,2.788071 -13.91792,6.502873 z"
       id="path43847" />
    <path
       style="fill:#007fb3;fill-opacity:1;stroke:none;stroke-width:4;stroke-linecap:round;stroke-linejoin:round"
       d="m 128.83023,0.07078846 c -1.54836,-4.63422256 2.62962,-9.50080506 6.89294,-10.98072846 0.27226,-0.09451 1.65985,-0.360081 1.9015,-0.142607 0.14017,0.12615 -0.17088,0.337034 -0.23769,0.513385 -0.51624,1.3628359 -1.14236,2.9522443 -1.24125,4.4208125 -0.0463,0.6882116 0.86501,4.9756186 0.44896,3.0660477"
       id="path43851" />
    <path
       style="fill:#007fb3;fill-opacity:1;stroke:none;stroke-width:4;stroke-linecap:round;stroke-linejoin:round"
       d="m 105.08789,18.039253 c -0.86951,-0.209249 -1.4754,0.37836 -1.98072,1.04103 -1.29629,1.699915 -0.28279,4.954867 2.35046,3.992993 2.31086,-0.844112 4.18191,-5.775578 0.55461,-5.775578 -0.857,0 -0.7953,0.731103 -1.98073,0.827119"
       id="path43853" />
    <path
       style="fill:#58508d;fill-opacity:1;stroke:none;stroke-width:4;stroke-linecap:round;stroke-linejoin:round"
       d="m 141.92945,9.5398843 c 2.4695,-3.7232926 5.7584,-7.1048161 10.1128,-8.5140135 8.19758,-3.0236167 17.08406,-2.01543985 25.60535,-1.51053668 4.44055,0.4663797 9.34562,0.5603676 13.06389,3.04363148 3.42075,2.2845663 6.26469,6.0210728 7.19075,10.0289624 0.92573,4.006462 -0.0953,8.55109 -2.06142,12.162608 -1.98902,3.65356 -5.37119,6.808747 -9.20225,8.429756 -3.6076,1.526458 -7.82048,0.915948 -11.73134,0.692309 -2.81678,-0.161075 -5.80696,-0.109291 -8.33751,-1.458577 -3.41213,-2.805749 -4.40233,-7.444822 -4.38215,-11.661285 -0.62337,-3.450625 -2.7593,-6.415751 -4.71499,-9.247824 -1.27496,-1.9408303 -3.41179,-3.8511428 -5.92397,-2.968654 -2.73614,0.5902748 -4.93807,2.769336 -7.76739,2.948274 -1.03979,-0.04743 -1.62043,-1.043167 -1.85177,-1.9446507 z"
       id="path43942"
       sodipodi:nodetypes="cssaaaaasccscc" />
    <path
       style="fill:#007fb3;fill-opacity:1;stroke:none;stroke-width:4;stroke-linecap:round;stroke-linejoin:round"
       d="m 152.46693,29.661712 c -2.72766,-0.293933 -6.33872,2.772384 -1.34689,3.565173 0.80289,0.127511 6.45247,-0.588994 4.6217,-2.410058 -0.59905,-0.595868 -2.45635,-0.767061 -3.27481,-1.155115 z"
       id="path43946" />
    <path
       style="fill:#007fb3;fill-opacity:1;stroke:none;stroke-width:4;stroke-linecap:round;stroke-linejoin:round"
       d="m 134.90447,30.360487 c -4.25337,-0.950259 -9.22612,2.994007 -1.6374,3.151611 0.93879,0.0195 2.13843,0.151908 3.0107,-0.299474 2.456,-1.270931 0.0432,-3.210383 -1.3733,-2.852137 -0.49807,0.125963 -0.77469,0.675005 -1.16203,1.012508"
       id="path43948" />
    <path
       style="fill:#58508d;fill-opacity:1;stroke:none;stroke-width:4;stroke-linecap:round;stroke-linejoin:round"
       d="m 90.680946,21.057132 c -3.102591,-1.008836 -6.564092,0.78255 -7.975735,3.736299 -4.415689,9.239462 12.004577,9.449613 16.215567,4.777331 2.379802,-2.640497 0.685112,-5.324635 -1.875089,-6.987737 -2.712093,-1.761771 -5.625023,-3.545486 -8.160605,-0.670252"
       id="path44096" />
    <path
       style="fill:#007fb3;fill-opacity:1;stroke-width:4;stroke-linecap:round;stroke-linejoin:round"
       d="m 145.1366,7.1861672 c -1.74333,2.3796831 1.59558,7.0896968 4.05236,4.3158778 1.36011,-1.5356245 0.38266,-4.4831493 -1.6807,-4.7696501 -0.92883,-0.1289685 -1.50179,0.2102159 -2.37166,0.4537723 z"
       id="path434" />
  </g>
</svg>
