<?xml version="1.0" encoding="UTF-8" standalone="no"?>
<!-- Created with Inkscape (http://www.inkscape.org/) -->

<svg
   width="250.42232mm"
   height="291.45135mm"
   viewBox="0 0 250.42232 291.45135"
   version="1.1"
   id="svg5"
   inkscape:version="1.2.2 (732a01da63, 2022-12-09)"
   sodipodi:docname="Archer.svg"
   xmlns:inkscape="http://www.inkscape.org/namespaces/inkscape"
   xmlns:sodipodi="http://sodipodi.sourceforge.net/DTD/sodipodi-0.dtd"
   xmlns="http://www.w3.org/2000/svg"
   xmlns:svg="http://www.w3.org/2000/svg">
  <sodipodi:namedview
     id="namedview7"
     pagecolor="#7c7c7c"
     bordercolor="#000000"
     borderopacity="0.25"
     inkscape:showpageshadow="2"
     inkscape:pageopacity="0"
     inkscape:pagecheckerboard="true"
     inkscape:deskcolor="#2c2c2c"
     inkscape:document-units="mm"
     showgrid="false"
     inkscape:lockguides="false"
     inkscape:zoom="0.37282197"
     inkscape:cx="222.62636"
     inkscape:cy="445.25273"
     inkscape:window-width="1533"
     inkscape:window-height="1017"
     inkscape:window-x="1272"
     inkscape:window-y="0"
     inkscape:window-maximized="0"
     inkscape:current-layer="layer1" />
  <defs
     id="defs2" />
  <g
     inkscape:label="Layer 1"
     inkscape:groupmode="layer"
     id="layer1"
     transform="translate(10.982949,17.183476)">
    <path
       style="fill:#2f1f00;fill-opacity:1;stroke:#000000;stroke-width:6.00001;stroke-linecap:round;stroke-linejoin:round;stroke-dasharray:none"
       d="m 52.811513,238.88622 c -0.910818,11.18882 -20.24553,14.14485 -17.927513,26.66165 2.080516,11.23434 38.489064,3.24144 42.129654,-1.53275 4.221749,-5.5363 0.388477,-14.08069 -0.373489,-20.04665 -0.496673,-3.8888 -1.677717,-8.61716 -6.050536,-9.43846 -7.242876,-1.36035 -14.271683,5.20824 -17.778116,4.35621 z"
       id="path7682" />
    <path
       style="fill:#ffc966;fill-opacity:1;stroke:#000000;stroke-width:7.8635;stroke-linecap:round;stroke-linejoin:round;stroke-dasharray:none"
       d="M 66.106424,137.65762 C 63.270445,129.22226 52.269947,94.854586 49.433813,86.427396 40.272126,59.20467 46.724256,44.663816 73.340372,38.701293 c 7.299307,-1.635186 15.47219,-10.567704 22.280495,-6.49475 10.757483,6.435479 22.035723,14.776099 25.980963,26.118335 3.45332,9.927976 4.68624,19.952843 4.68624,30.484772 0,2.021338 -16.34205,64.00713 -18.04307,69.78403"
       id="path4227"
       sodipodi:nodetypes="csssssc" />
    <path
       style="fill:#2f1f00;fill-opacity:1;stroke:#000000;stroke-width:6.00001;stroke-linecap:round;stroke-linejoin:round;stroke-dasharray:none"
       d="m 108.23741,233.7233 c 0.85822,4.41739 0.61482,8.92339 0.82167,13.39133 0.20178,4.35807 -0.28008,11.88421 3.43611,15.12574 4.50466,3.9293 45.25334,2.60244 47.43321,-5.76795 4.63663,-17.80395 -11.35503,-14.90936 -20.76603,-19.03827 -2.97931,-1.30712 -5.33549,-4.13834 -7.91799,-6.09063 -6.20363,-4.68976 -17.31161,-1.99671 -23.00697,2.37978 z"
       id="path7684" />
    <path
       id="path7206"
       style="fill:#003f5c;fill-opacity:1;stroke:#000000;stroke-width:6.00001;stroke-linecap:round;stroke-linejoin:round;stroke-dasharray:none"
       d="m 168.56852,104.36469 c -10.32711,-0.41444 -20.67773,0.0747 -31.00087,0.5783 -5.41986,0.26443 -15.74046,-0.52921 -16.22833,1.28222 -1.31814,4.89425 -2.98686,11.94996 -5.46681,16.81948 -2.73025,5.36101 -11.72366,13.09945 -14.35209,18.78851 l 31.30816,31.9133 c 0.71377,-10.17682 0.94757,-17.91364 0.12144,-28.08201 -0.6504,-8.00555 1.52356,-4.78138 3.29558,-6.39883 4.5578,-4.16026 10.92744,-8.12008 17.16157,-6.9435 14.69909,2.77415 37.42628,-0.91107 50.97054,-7.18768 3.65419,-1.6934 7.08443,-7.5648 5.071,-11.55123 -2.64872,-5.24429 -11.34707,-5.84135 -16.37419,-6.7877 -8.06321,-1.5179 -16.30385,-2.1017 -24.506,-2.43086 z"
       sodipodi:nodetypes="aassccsassssa" />
    <path
       style="fill:#003f5c;fill-opacity:1;stroke:#000000;stroke-width:6.00001;stroke-linecap:round;stroke-linejoin:round;stroke-dasharray:none"
       d="m 50.735632,119.33404 c 6.083336,-2.71427 2.842531,-6.03027 9.56078,-7.39066 18.246053,-3.69468 42.697528,23.75775 51.019278,35.62538 3.45156,4.92226 6.88429,10.01698 10.68181,14.68205 4.02718,4.94719 9.32669,9.76597 12.39986,15.40809 2.29505,4.21355 4.84019,22.72163 5.60235,28.15405 1.21,8.62453 3.08783,18.81028 -0.89638,27.02466 -2.68285,5.53134 -34.38832,4.85477 -41.307976,5.4856 -14.60808,1.33175 -29.43992,1.21102 -43.997104,2.78314 -1.22714,0.13252 -6.921064,1.1573 -7.992684,0 -1.499376,-1.61927 -0.448189,-18.36918 -0.448189,-21.0147 0,-17.56263 1.324749,-33.39407 2.856707,-50.76581 1.082067,-12.27015 3.654335,-22.50201 1.998662,-34.42237 -0.709501,-5.1082 0.322059,-10.47261 0.522886,-15.56943 z"
       id="path6918"
       sodipodi:nodetypes="cssssssssssssc" />
    <path
       style="fill:#58508d;fill-opacity:1;stroke:#000000;stroke-width:4;stroke-linecap:round;stroke-linejoin:round;stroke-dasharray:none;stroke-opacity:1"
       d="m 76.933138,135.97748 c -14.581202,9.15169 -10.148083,35.1289 9.986304,28.56978 2.661117,-0.86691 5.705224,-2.40283 7.35062,-4.7958 1.601836,-2.32961 2.818906,-5.3217 2.680446,-8.18576 -0.114717,-2.37312 -1.73234,-4.6687 -2.949482,-6.60799 -4.080408,-6.50142 -9.115323,-11.30481 -17.067888,-8.98023 z"
       id="path10644-4" />
    <path
       style="fill:#ffa600;fill-opacity:1;stroke:#000000;stroke-width:2;stroke-linecap:round;stroke-linejoin:round;stroke-dasharray:none;stroke-opacity:1"
       d="m 73.549544,154.79718 c 0.691436,-1.81184 1.149008,-3.70591 1.332479,-5.63725 0.242434,-1.96181 0.616947,-3.91525 1.196014,-5.80521 0.603767,-0.98489 1.19408,0.71124 1.399472,1.21977 0.530855,1.32643 0.84284,2.72941 1.30887,4.07448 1.075606,-1.11518 1.180613,-2.51254 1.849965,-3.9916 0.285334,-0.43775 0.741465,-1.12885 0.886,-1.43238 0.219835,1.66064 1.527142,3.54551 1.986449,5.15568 0.288563,0.29832 0.401705,-0.97589 0.550936,-1.30074 0.362035,-1.26445 0.529935,-2.63211 1.242446,-3.75954 0.639217,-0.27664 0.707462,1.1458 1.029306,1.59238 0.892945,2.39162 1.738272,4.80471 2.346926,7.28615 0.319582,1.05637 0.567861,2.14328 0.962041,3.17201 0.599844,0.89083 -1.125267,0.12784 -1.602814,0.28564 -4.503674,-0.24386 -9.111789,0.69698 -13.529789,-0.54253 -0.323404,-0.0931 -0.643291,-0.19844 -0.958277,-0.31694 z"
       id="path11691-4"
       sodipodi:nodetypes="ccccccccccccccccc" />
    <path
       style="fill:#003f5c;fill-opacity:1;stroke:#000000;stroke-width:7.99999;stroke-linecap:round;stroke-linejoin:round;stroke-dasharray:none"
       d="m 21.660405,121.37086 c -9.941192,-1.55268 -19.0847279,7.82439 -25.3226129,14.56104 -5.7855475,6.24815 -3.7287317,11.53507 3.80959598,14.19803 9.45183502,3.33893 31.10807792,-1.3816 39.66462392,-7.17968 20.520464,-13.90509 -1.143429,-28.3824 -18.151607,-21.57939 z"
       id="path4221" />
    <path
       style="fill:#ffc966;fill-opacity:1;stroke:#000000;stroke-width:7.99999;stroke-linecap:round;stroke-linejoin:round;stroke-dasharray:none"
       d="m 51.166103,115.03821 c -6.731662,-1.41541 -10.861572,3.84881 -11.727582,10.08383 -1.24809,8.98589 4.784227,25.23688 16.732345,18.43324 9.104942,-5.18465 9.456954,-15.26767 5.004766,-23.35415 -0.743268,-1.34999 -1.295639,-3.85041 -2.61443,-4.7999 -3.760269,-2.70729 -6.240833,-0.26461 -10.233623,-0.60503"
       id="path4223" />
    <path
       style="fill:#003f5c;fill-opacity:1;stroke:#000000;stroke-width:7.12737;stroke-linecap:round;stroke-linejoin:round;stroke-dasharray:none"
       d="m 33.319023,33.947645 c 2.419583,9.657134 0.669142,19.776871 2.129604,29.503163 0.961358,6.402389 6.134089,21.397814 14.441374,20.052086 C 62.923254,81.391592 69.86575,68.94888 77.641399,59.821307 81.753395,54.99437 90.183129,47.060807 96.408117,44.259678 97.432054,43.798919 108.0245,41.366741 114.20283,39.927285 108.94021,32.073843 98.354835,18.728616 87.173514,12.354816 74.86507,5.33851 66.167766,-0.25018287 45.896995,2.2164726 36.705722,3.3349155 25.3676,8.4174066 18.944199,15.189239 c -2.474145,2.608353 -3.926457,6.307877 -3.926457,9.882302 0,7.498574 10.854671,9.22062 16.437878,8.40894 2.977438,-0.432856 6.90933,-2.151325 9.050815,-3.018595"
       id="path4231"
       sodipodi:nodetypes="csssscassssc" />
    <path
       style="fill:#000000;fill-opacity:0;stroke:#000000;stroke-width:6;stroke-linecap:round;stroke-linejoin:round;stroke-dasharray:none"
       d="m 85.924606,62.073757 c 3.14571,0.213837 14.974984,3.288898 16.479664,2.025018"
       id="path6850" />
    <path
       style="fill:#000000;fill-opacity:0;stroke:#000000;stroke-width:6;stroke-linecap:round;stroke-linejoin:round;stroke-dasharray:none"
       d="m 94.111618,66.180834 c -5.029975,7.818088 4.295379,5.323097 1.267667,0.827119"
       id="path6852" />
    <path
       style="fill:#000000;fill-opacity:0;stroke:#000000;stroke-width:6.00001;stroke-linecap:round;stroke-linejoin:round;stroke-dasharray:none"
       d="m 108.58414,62.159321 c 2.31112,-3.062245 5.07472,-8.277757 6.65525,-10.838122"
       id="path6906" />
    <path
       style="fill:#000000;fill-opacity:0;stroke:#000000;stroke-width:6.00001;stroke-linecap:round;stroke-linejoin:round;stroke-dasharray:none"
       d="m 112.8097,60.961423 c -1.94731,4.830691 4.28915,7.182207 2.00714,1.568677 -0.57758,-1.420791 -0.43405,-1.690023 -2.00714,-1.568677 z"
       id="path6908" />
    <path
       style="fill:#000000;fill-opacity:0;stroke:#000000;stroke-width:6.00001;stroke-linecap:round;stroke-linejoin:round;stroke-dasharray:none"
       d="m 106.78828,70.430519 c 2.31056,4.982572 9.03912,9.836618 5.17631,15.572671 -0.65271,0.969229 -1.53952,2.330037 -2.74661,2.681009 -2.91417,0.847318 -6.88783,-0.911489 -8.29265,-0.456342"
       id="path6912" />
    <path
       style="fill:#000000;fill-opacity:0;stroke:#000000;stroke-width:6.00001;stroke-linecap:round;stroke-linejoin:round;stroke-dasharray:none"
       d="M 89.305049,103.60088 C 94.09572,99.715612 105.08805,97.370105 110.9082,99.465277"
       id="path6914" />
    <path
       style="fill:#624200;fill-opacity:1;stroke:#000000;stroke-width:6.00001;stroke-linecap:round;stroke-linejoin:round;stroke-dasharray:none"
       d="m 192.98464,226.73925 c 2.28871,0.92689 4.65697,-5.44657 5.67705,-7.09902 7.89531,-12.7899 13.65098,-26.62356 20.01905,-40.2143 6.68963,-14.27702 7.26283,-32.49755 7.99268,-47.99903 1.38848,-29.49018 0.7209,-60.577446 -11.0553,-88.132657 -4.17176,-9.761532 -10.60545,-17.605671 -15.98536,-26.621306 -6.44715,-10.8041062 -11.79327,-23.711982 -22.70819,-30.856514 -5.35937,7.1851488 1.25153,18.2170684 4.93007,25.169236 8.45496,15.97923 20.5062,30.468012 26.36839,47.878016 2.43443,7.229972 2.27972,15.215693 3.4361,22.708781 4.48387,29.054294 2.62918,56.736374 -4.85536,85.026844 -2.2201,8.39163 -5.5876,16.09429 -8.59027,24.20119 -1.66027,4.48253 -2.14455,9.42609 -3.95899,13.83501 -1.7529,4.25938 -5.37452,7.04557 -6.72282,11.77791 -1.11851,3.92582 -0.0758,11.69414 5.45295,10.32584 z"
       id="path7216" />
    <path
       style="fill:#ffc966;fill-opacity:1;stroke:#000000;stroke-width:6.00001;stroke-linecap:round;stroke-linejoin:round;stroke-dasharray:none"
       d="m 209.2373,108.5922 c -7.56952,0.25916 -9.24542,10.40921 -5.33476,15.65823 3.37101,4.52468 9.69055,4.52897 14.78944,4.36377 9.12711,-0.29571 21.94263,-8.66488 16.42685,-19.33749 -5.65276,-10.937669 -18.8502,-7.67057 -25.88153,-0.68451 z"
       id="path7214" />
    <path
       style="fill:none;fill-opacity:1;stroke:#000000;stroke-width:6.35502;stroke-linecap:round;stroke-linejoin:round;stroke-dasharray:none"
       d="m 173.54432,-6.0073528 c -12.20085,8.8276117 -19.94413,21.5693168 -31.39093,31.0489438 -5.03263,4.167773 -10.96037,7.467496 -16.03118,11.638321 -21.46837,17.658022 -42.515391,36.443674 -61.606796,56.137781 -6.951842,7.171305 -24.451,25.285907 -22.661896,36.445257 2.744592,17.1191 38.309923,31.84003 53.465288,38.338 13.820254,5.92553 27.386324,12.97312 40.623564,19.8536 11.69094,6.07676 23.31729,12.51859 34.24463,19.61198 4.54919,2.95305 8.27469,7.32217 13.42928,9.38313"
       id="path7690" />
  </g>
</svg>
