<?xml version="1.0" encoding="UTF-8" standalone="no"?>
<!-- Created with Inkscape (http://www.inkscape.org/) -->

<svg
   width="426.91959mm"
   height="269.16309mm"
   viewBox="0 0 426.91959 269.16309"
   version="1.1"
   id="svg5"
   inkscape:version="1.2.2 (732a01da63, 2022-12-09)"
   xml:space="preserve"
   sodipodi:docname="Horse.svg"
   xmlns:inkscape="http://www.inkscape.org/namespaces/inkscape"
   xmlns:sodipodi="http://sodipodi.sourceforge.net/DTD/sodipodi-0.dtd"
   xmlns="http://www.w3.org/2000/svg"
   xmlns:svg="http://www.w3.org/2000/svg"><sodipodi:namedview
     id="namedview7"
     pagecolor="#7c7c7c"
     bordercolor="#000000"
     borderopacity="0.25"
     inkscape:showpageshadow="2"
     inkscape:pageopacity="0"
     inkscape:pagecheckerboard="true"
     inkscape:deskcolor="#2c2c2c"
     inkscape:document-units="mm"
     showgrid="false"
     inkscape:lockguides="false"
     inkscape:zoom="0.37282198"
     inkscape:cx="775.16889"
     inkscape:cy="595.45845"
     inkscape:window-width="1920"
     inkscape:window-height="1017"
     inkscape:window-x="1272"
     inkscape:window-y="-8"
     inkscape:window-maximized="1"
     inkscape:current-layer="layer1" /><defs
     id="defs2"><inkscape:path-effect
       effect="fill_between_many"
       method="originald"
       linkedpaths="#path1080,0,1|#path1076,0,1|#path1086,0,1|#path1078,0,1"
       id="path-effect2206"
       is_visible="true"
       lpeversion="0"
       join="true"
       close="true"
       autoreverse="true" /></defs><g
     inkscape:label="Layer 1"
     inkscape:groupmode="layer"
     id="layer1"
     transform="translate(133.92761,44.691248)"><path
       style="fill:#ffa600;fill-opacity:1;stroke:#000000;stroke-width:7.99999;stroke-linejoin:round;stroke-dasharray:none"
       d="m 212.22581,-18.060209 c -9.13704,1.016482 -20.21223,-5.473833 -30.1344,-3.84321 -7.8012,1.282059 -19.23425,12.9521657 -27.11537,16.4568074 -7.59084,3.3755589 -15.2489,4.0691137 -23.15637,6.00996147 -9.2111,2.26081813 -18.3743,6.46420643 -26.14429,11.85858213 -2.07548,1.440921 -8.017551,4.356142 -8.963754,6.655326 -1.296204,3.149652 10.211494,3.660721 8.440874,4.880573 -1.51202,1.041685 -3.37433,2.404748 -5.154162,3.065483 -1.991135,0.739179 -18.127781,1.943515 -15.387783,5.888955 4.394634,6.328026 18.538565,13.546579 24.656085,12.684842 16.3676,-2.305606 47.04466,-13.885783 61.7982,-20.358642 11.15143,-4.892498 17.57982,-17.0016134 27.16133,-24.39277196 4.98539,-3.84572064 10.43561,-7.45804614 14.5661,-12.26193504 0.16082,-0.187031 3.55879,-4.330302 3.13732,-4.55789 -1.48336,-0.800983 -1.3915,-1.440115 -3.70378,-2.086081 z"
       id="path1920"
       sodipodi:nodetypes="csssssssssssssc" /><path
       style="fill:#2b1e00;fill-opacity:1;stroke:none;stroke-width:3;stroke-linecap:round;stroke-linejoin:round;stroke-dasharray:none;stroke-opacity:1"
       d="m 225.25363,34.737444 c 0.72777,-0.0011 1.44995,0.102833 2.16625,0.221843 3.30856,0.549709 6.72005,1.270513 10.08422,1.331066 1.37561,0.02476 3.12616,-1.093743 4.40718,-0.665533 4.03665,1.34934 7.05432,5.33501 10.42037,7.74438 2.62099,1.876065 5.59427,3.135371 8.14208,5.122585 0.50748,0.395817 5.32258,3.057493 4.51923,4.033531 -1.52708,1.855321 -5.16134,-0.484371 -6.38668,-1.210059 -2.6605,-1.575639 -5.66176,-2.367158 -8.47822,-3.569676 -3.81122,-1.627235 -7.21862,-4.046032 -11.01795,-5.68728 -2.99431,-1.293487 -6.18921,-1.938425 -8.73966,-4.094033 -1.64513,-1.390435 -2.72083,-4.2956 -5.11682,-3.226824 z"
       id="path5766" /><path
       inkscape:original-d="M 0,0"
       inkscape:path-effect="#path-effect2206"
       d="M 212.22581,-18.060209 C 185.42044,14.564343 146.51062,40.008466 103.14008,40.371838 71.002953,41.883296 39.837805,23.37594 7.6046026,32.175084 -14.476356,45.034879 -37.935045,24.758153 -61.610688,40.293028 c -26.29097,14.316201 -72.779322,62.125052 -68.317072,74.748852 4.68052,12.4398 36.442405,-14.37598 45.080998,-28.28695 8.638593,-13.910965 32.136425,-40.045899 57.983846,-32.685692 -18.859871,21.633715 2.851719,44.189141 -11.195763,67.341822 -11.676623,20.15467 -33.399734,29.78725 -42.638579,54.62043 -9.045,11.17429 -36.830942,31.31444 -12.180263,38.00067 13.280575,-19.81724 36.83392,-28.24941 47.82215,-50.36483 17.01041,-15.55333 41.976434,-16.34667 54.9378817,-37.41119 2.2335103,-2.31219 4.1325273,-7.05428 8.0733923,-6.60688 L 7.7895138,130.054 c 6.2437412,-2.62227 2.0665947,25.87486 7.2890832,30.57491 4.432487,3.98908 11.296309,4.30102 15.845832,7.98598 10.165043,8.23336 18.560825,16.46726 32.3255,19.96497 3.34264,0.84939 9.498828,-0.80883 10.246971,-4.84864 0.928939,-5.01607 -5.418769,-5.81183 -7.711638,-9.52613 -4.953955,-8.02509 -20.494492,-20.8229 -22.184166,-27.89391 -0.748033,-3.1304 2.386007,-7.62675 3.380443,-10.60995 1.222968,-3.66875 2.081678,-7.41905 1.795862,-11.316 9.107822,2.17585 18.52398,2.17684 27.783027,3.8434 10.613974,1.91044 19.893728,5.45264 30.212722,8.38529 11.77765,3.3472 31.48038,2.22537 31.48038,18.76706 0,4.80126 -6.31592,11.45349 -10.77516,13.86139 -10.42628,5.62997 -27.42214,-1.935 -39.297664,4.05003 -3.556407,1.79236 -5.307821,4.98368 -8.239833,7.35852 -6.80348,5.5106 -16.050191,8.55548 -21.444694,15.62971 -2.438748,3.19812 2.380389,11.88153 6.65525,10.43882 4.244953,-1.43261 7.888969,-6.61214 13.521777,-8.2712 6.29109,-1.85294 12.21281,-4.85787 18.592444,-6.61695 16.1355,-4.44911 34.87019,-3.96171 49.01644,-14.14661 8.91698,-6.41997 15.59744,-12.37113 16.69094,-23.78682 0.13407,-1.39964 6.31835,-12.30167 13.34573,-17.69867 l -4.27738,7.25991 c 25.45134,-0.0249 55.92051,42.30648 75.0202,59.49552 6.22114,5.5988 11.40231,16.56824 20.59959,17.45508 10.12685,0.97648 23.72829,-11.68921 15.63455,-19.33749 -1.74981,-1.65351 -4.1755,-1.68425 -6.12705,-2.73805 -1.87355,-1.01168 -6.9644,-4.14653 -13.42634,-10.7829 -5.53725,-6.83426 -10.73435,-13.27387 -16.88176,-19.52229 -4.79459,-4.87337 -10.98302,-8.50644 -16.13476,-13.06864 -8.81162,-7.80327 -15.51758,-18.30502 -21.36362,-28.47673 -8.59246,-14.9503 -12.97279,-41.312751 -7.171,-57.760166 1.72859,-4.900382 5.3936,-9.121045 7.02161,-13.956017 2.49346,-7.405311 3.0717,-11.790189 13.57877,-17.407268 -9.3639,-5.617078 -12.0819,-14.229215 -12.0819,-14.229215 2.02118,9.708713 19.05531,16.480744 30.46119,22.639681 7.5589,4.08164 40.80777,18.984991 46.79804,6.046531 3.67882,-7.945935 -3.70091,-20.039608 -9.29624,-25.32698 -2.93786,-2.776178 -6.5887,-3.336098 -9.25658,-6.457397 C 256.62645,5.0694991 258.17142,-7.9536264 229.37894,-22.396249 l -0.25091,-2.509089 c 0,1.407055 -1.40705,4.221164 0,4.221163 1.40706,-1e-6 0.5779,-2.938264 0,-4.221163 -0.44246,-0.982207 -10.65552,-15.922487 -10.98644,-15.743798 -6.05605,3.270137 -11.18487,18.612597 -5.91578,27.356195 z"
       id="path2208"
       class="UnoptimicedTransforms"
       style="fill:#624200;fill-opacity:1" /><path
       style="fill:none;stroke:#000000;stroke-width:7.99999;stroke-linejoin:round;stroke-dasharray:none"
       d="m 229.12803,-24.905338 c 0,1.407055 -1.40705,4.221164 0,4.221163 1.40706,-1e-6 0.5779,-2.938264 0,-4.221163 -0.44246,-0.982207 -10.65552,-15.922487 -10.98644,-15.743798 -6.05605,3.270137 -11.18487,18.612597 -5.91578,27.356195"
       id="path1078"
       class="UnoptimicedTransforms"
       sodipodi:nodetypes="csssc" /><path
       style="fill:#ffa600;fill-opacity:1;stroke:none;stroke-width:6.00001;stroke-linecap:round;stroke-linejoin:round;stroke-dasharray:none"
       d="m -128.45161,113.19355 c 3.82562,-13.934887 14.23981,-24.523677 21.38985,-36.683328 5.95402,-6.577411 13.280557,-11.779496 19.099013,-18.531108 7.098183,-7.361337 14.985526,-14.271753 24.183238,-18.830678 7.823726,-2.746102 16.354884,-2.245207 24.395813,-4.189163 6.783192,-0.878607 14.888032,-2.998912 20.747183,1.73339 3.379039,4.828192 0.643285,13.550659 -6.088057,12.976148 -8.820239,1.670944 -17.823278,2.309415 -26.654921,3.714103 -8.83552,3.449551 -14.265403,11.901636 -20.397967,18.685055 -4.328809,6.575046 -11.511772,10.74204 -14.950929,17.9201 -4.641877,8.513659 -13.329163,13.624091 -20.840453,19.312181 -6.34923,2.15732 -13.73231,7.42345 -20.20556,5.82877 l -0.37618,-0.97749 z"
       id="path3529"
       sodipodi:nodetypes="csssssssssssssc" /><path
       id="path3519"
       style="fill:#2b1e00;fill-opacity:1;stroke:none;stroke-width:6.00001;stroke-linecap:round;stroke-linejoin:round;stroke-dasharray:none"
       d="m 62.358935,118.36685 c -22.215483,-5.02618 -42.41882,-14.63276 -51.052926,-11.29552 -20.5984815,7.96169 -48.91152,30.09287 -52.52822,50.71772 10.750691,-1.44147 20.762484,-9.55521 30.857515,-15.10493 8.850764,-2.8718 13.6821129,-7.40866 19.7496466,-11.66074 4.1268174,10.76412 0.9222344,25.51201 11.0090594,32.88284 10.859651,7.61328 20.79853,18.49553 34.214093,21.14989 11.271174,2.31826 21.827962,-5.9797 8.85221,-13.28987 -7.474838,-8.4221 -16.786309,-16.3558 -19.979245,-27.53098 -1.358294,-8.69215 5.368428,-22.11248 15.874001,-17.12166 17.03046,3.14981 34.467385,4.30908 51.052411,9.58483 9.16453,1.19503 23.06277,1.29055 27.46334,8.67172 -1.10589,-9.03619 2.20628,-28.07937 -7.35157,-27.35537 -33.946458,2.5714 -38.899384,6.97226 -68.160315,0.35207 z m 75.675535,28.25521 c 0.44991,4.98488 1.40129,4.84423 0,0 z"
       sodipodi:nodetypes="ssccccccccccsscc" /><path
       style="fill:#2b1e00;fill-opacity:1;stroke:none;stroke-width:6.00001;stroke-linecap:round;stroke-linejoin:round;stroke-dasharray:none"
       d="m 173.80395,142.80124 c 10.02537,-0.14177 17.78677,7.56326 25.32261,13.06864 5.47803,4.00202 9.21039,9.5578 14.7902,13.51233 2.91513,2.06602 6.1825,4.35729 8.88906,6.69566 2.79538,2.41511 10.93783,14.99094 15.76127,12.9073 4.75203,-2.0528 -4.68711,-14.21698 -6.19993,-15.93245 -4.62292,-5.24218 -11.7285,-11.57702 -17.10584,-16.17446 -5.4881,-4.69214 -17.0317,-11.05325 -19.86966,-17.94922 -0.87707,-2.13119 -1.67531,-15.21503 -4.33248,-15.93244 -4.44505,-1.20012 -15.61069,15.36455 -17.25523,19.80464 z"
       id="path3517" /><path
       style="fill:#2b1e00;fill-opacity:1;stroke:none;stroke-width:6.00001;stroke-linecap:round;stroke-linejoin:round;stroke-dasharray:none"
       d="m 86.580643,190.19355 c 5.405936,-6.27954 14.049807,-7.80529 21.862297,-8.68863 5.48677,-0.82029 11.08742,-0.57748 16.51332,-1.86484 4.74677,-1.07087 9.53131,-2.24671 14.01852,-4.13491 7.20015,-3.89232 11.14717,-11.4825 17.27359,-16.64023 1.07838,-1.4429 5.45332,-5.38916 5.32354,-1.5283 -1.66607,6.88131 -6.68971,12.54385 -12.424,16.47515 -2.54778,1.84217 -5.60741,2.80561 -7.9264,4.96594 -6.56039,4.92262 -14.64305,7.6891 -22.83444,7.91427 -9.55094,1.17012 -18.40238,6.45419 -28.199282,5.78636 -1.457143,-0.25385 -2.610975,-1.25649 -3.607145,-2.28481 z"
       id="path3521" /><path
       style="fill:#2b1e00;fill-opacity:1;stroke:none;stroke-width:6.00001;stroke-linecap:round;stroke-linejoin:round;stroke-dasharray:none"
       d="m 187.97808,73.97343 c -1.29841,11.981547 13.0226,10.756367 11.69891,-0.873123 1.24002,-12.20595 8.17424,-22.011063 16.47789,-30.404128 6.42414,-9.889311 -5.85236,-17.518277 -7.49994,-26.932132 -1.68088,-4.572367 -6.54762,-12.0744162 -5.67788,-2.546586 1.52109,20.994153 -8.91204,43.624226 -14.99898,60.755969 z"
       id="path3527"
       sodipodi:nodetypes="cccccc" /><path
       style="fill:#58508d;fill-opacity:1;stroke:none;stroke-width:3;stroke-linecap:round;stroke-linejoin:round;stroke-dasharray:none;stroke-opacity:1"
       d="m 74.990914,185.43202 c 9.464731,11.57009 6.51832,9.56152 -2.429695,15.60119 -2.789198,1.88264 -6.800032,5.05694 -10.40543,4.27821 -5.003215,-1.08065 -2.769351,-9.33212 -0.211278,-11.26594 2.521897,-1.90648 5.108625,-3.65125 7.606001,-5.56167 1.942798,-1.48618 3.097099,-2.29259 5.440402,-3.05179 z"
       id="path4244" /><path
       style="fill:#58508d;fill-opacity:1;stroke:none;stroke-width:3;stroke-linecap:round;stroke-linejoin:round;stroke-dasharray:none;stroke-opacity:1"
       d="m -91.720978,212.9885 c -3.23717,0.64285 -4.573956,-0.47577 -7.130624,-2.05354 -5.688618,-3.51055 -2.101588,-9.78949 0.805348,-12.75444 1.640181,-1.67292 6.605773,-10.97273 9.824416,-9.98787 1.987129,0.60804 5.704793,3.71608 7.117567,5.20167 4.139809,4.35316 -2.397307,7.36749 -4.700928,11.23742 -1.427539,2.39817 -2.892616,7.89968 -5.915779,8.35676 z"
       id="path5068"
       sodipodi:nodetypes="csssssc" /><path
       style="fill:#2b1e00;fill-opacity:1;stroke:none;stroke-width:3;stroke-linecap:round;stroke-linejoin:round;stroke-dasharray:none;stroke-opacity:1"
       d="m 209.34297,19.79321 c 0.0612,-0.671028 -2.1577,-5.727044 -1.45661,-6.231806 0.6311,-0.454378 2.32795,1.433286 2.61443,1.673916 2.20105,1.848816 2.90428,3.995885 4.59392,6.211638 0.92464,1.212553 2.16576,2.061009 3.13731,3.226825 2.46322,2.955747 6.35882,5.984519 10.19628,6.857004 2.42793,0.552011 5.19222,-0.443495 7.58184,0.201676 2.35809,0.636659 5.7354,8.204674 7.28305,10.103996 1.84018,2.258306 4.41766,3.87509 6.98426,5.203256 0.91993,0.476043 1.84044,0.964456 2.76383,1.431901 0.27491,0.139171 1.12857,0.395901 0.82168,0.423521 -5.19895,0.467886 -15.37923,-5.855941 -19.86966,-8.167899 -2.96093,-1.524474 -5.77095,-3.237198 -8.70232,-4.820071 -4.46301,-2.409931 -6.09744,-2.250601 -9.82278,-6.050296 -1.38865,-1.416364 -3.33625,-3.315861 -4.10839,-5.122585 -0.93992,-2.199328 -0.28696,-3.072873 -2.01684,-4.941076 z"
       id="path6259" /><path
       style="fill:none;stroke:#000000;stroke-width:7.99999;stroke-linejoin:round;stroke-dasharray:none"
       d="M 212.22581,-18.060209 C 185.42044,14.564343 146.51062,40.008466 103.14008,40.371838 71.002953,41.883296 39.837805,23.37594 7.6046026,32.175084 -14.476356,45.034879 -37.935045,24.758153 -61.610688,40.293028 c -26.29097,14.316201 -72.779322,62.125052 -68.317072,74.748852 4.68052,12.4398 36.442405,-14.37598 45.080998,-28.28695 8.638593,-13.910965 32.136425,-40.045899 57.983846,-32.685692 -18.859871,21.633715 2.851719,44.189141 -11.195763,67.341822 -11.676623,20.15467 -33.399734,29.78725 -42.638579,54.62043 -9.045,11.17429 -36.830942,31.31444 -12.180263,38.00067 13.280575,-19.81724 36.83392,-28.24941 47.82215,-50.36483 17.01041,-15.55333 41.976434,-16.34667 54.9378817,-37.41119 2.2335103,-2.31219 4.1325273,-7.05428 8.0733923,-6.60688"
       id="path1080"
       sodipodi:nodetypes="csssczssccccc"
       class="UnoptimicedTransforms" /><path
       style="fill:#58508d;fill-opacity:1;stroke:none;stroke-width:3;stroke-linecap:round;stroke-linejoin:round;stroke-dasharray:none;stroke-opacity:1"
       d="m 56.768206,186.97218 c -2.556704,-0.901 -4.278313,-2.96543 -4.489651,-5.70428 -0.192488,-2.49452 7.570274,-13.02042 10.194152,-10.89516 2.173269,1.76028 3.453169,4.50528 5.546042,6.38878 1.359144,1.22319 6.079678,3.23499 5.915776,5.44759 -0.237294,3.20334 -7.888716,5.22779 -10.563889,5.84688 -4.24652,0.98273 -3.001441,0.7761 -6.60243,-1.08381 z"
       id="path4246" /><path
       style="fill:#58508d;fill-opacity:1;stroke:none;stroke-width:3;stroke-linecap:round;stroke-linejoin:round;stroke-dasharray:none;stroke-opacity:1"
       d="m 250.0154,204.02581 c 4.40744,-3.34135 9.49823,-6.06381 13.63238,-9.76114 0.72822,-0.65127 1.59442,-2.55156 2.46503,-2.90414 0.31448,-0.12736 1.16588,0.74732 1.34458,0.92771 2.90592,2.93361 16.09101,8.05075 16.91907,11.03171 0.22628,0.8145 0.43225,1.78852 0.18675,2.62179 -1.10921,3.76485 -12.23108,13.73148 -16.02272,14.68205 -1.26124,0.3162 -2.5867,0.13402 -3.80958,-0.26217 -5.3591,-1.73628 -7.88346,-8.19008 -11.16735,-12.26194 -1.1845,-1.46873 -2.70727,-2.46401 -3.54816,-4.07387 z"
       id="path5066" /><path
       style="fill:none;stroke:#000000;stroke-width:7.99999;stroke-linecap:round;stroke-linejoin:round;stroke-dasharray:none"
       d="m 7.7895138,130.054 c 6.2437412,-2.62227 2.0665947,25.87486 7.2890832,30.57491 4.432487,3.98908 11.296309,4.30102 15.845832,7.98598 10.165043,8.23336 18.560825,16.46726 32.3255,19.96497 3.34264,0.84939 9.498828,-0.80883 10.246971,-4.84864 0.928939,-5.01607 -5.418769,-5.81183 -7.711638,-9.52613 -4.953955,-8.02509 -20.494492,-20.8229 -22.184166,-27.89391 -0.748033,-3.1304 2.386007,-7.62675 3.380443,-10.60995 1.222968,-3.66875 2.081678,-7.41905 1.795862,-11.316 9.107822,2.17585 18.52398,2.17684 27.783027,3.8434 10.613974,1.91044 19.893728,5.45264 30.212722,8.38529 11.77765,3.3472 31.48038,2.22537 31.48038,18.76706 0,4.80126 -6.31592,11.45349 -10.77516,13.86139 -10.42628,5.62997 -27.42214,-1.935 -39.297664,4.05003 -3.556407,1.79236 -5.307821,4.98368 -8.239833,7.35852 -6.80348,5.5106 -16.050191,8.55548 -21.444694,15.62971 -2.438748,3.19812 2.380389,11.88153 6.65525,10.43882 4.244953,-1.43261 7.888969,-6.61214 13.521777,-8.2712 6.29109,-1.85294 12.21281,-4.85787 18.592444,-6.61695 16.1355,-4.44911 34.87019,-3.96171 49.01644,-14.14661 8.91698,-6.41997 15.59744,-12.37113 16.69094,-23.78682 0.13407,-1.39964 6.31835,-12.30167 13.34573,-17.69867 l -4.27738,7.25991 c 25.45134,-0.0249 55.92051,42.30648 75.0202,59.49552 6.22114,5.5988 11.40231,16.56824 20.59959,17.45508 10.12685,0.97648 23.72829,-11.68921 15.63455,-19.33749 -1.74981,-1.65351 -4.1755,-1.68425 -6.12705,-2.73805 -1.87355,-1.01168 -6.9644,-4.14653 -13.42634,-10.7829 -5.53725,-6.83426 -10.73435,-13.27387 -16.88176,-19.52229 -4.79459,-4.87337 -10.98302,-8.50644 -16.13476,-13.06864 -8.81162,-7.80327 -15.51758,-18.30502 -21.36362,-28.47673 -8.59246,-14.9503 -12.97279,-41.312751 -7.171,-57.760166 1.72859,-4.900382 5.3936,-9.121045 7.02161,-13.956017 2.49346,-7.405311 3.0717,-11.790189 13.57877,-17.407268 -9.3639,-5.617078 -12.0819,-14.229215 -12.0819,-14.229215 2.02118,9.708713 19.05531,16.480744 30.46119,22.639681 7.5589,4.08164 40.80777,18.984991 46.79804,6.046531 3.67882,-7.945935 -3.70091,-20.039608 -9.29624,-25.32698 -2.93786,-2.776178 -6.5887,-3.336098 -9.25658,-6.457397 C 256.62645,5.0694991 258.17142,-7.9536264 229.37894,-22.396249"
       id="path1086"
       sodipodi:nodetypes="cssssssscssssssssssssccsssccsssssccssssc"
       class="UnoptimicedTransforms" /><g
       id="path2194"
       transform="matrix(-0.40762065,-0.76710124,0.77117913,-0.59740563,324.99757,180.58132)"
       style="stroke-width:1.09429"><path
         style="color:#000000;fill:#ffc966;stroke-width:8.75436;stroke-linecap:round;stroke-linejoin:round;-inkscape-stroke:none"
         d="m 232.85478,1.4031087 c -0.37349,0.2016765 -0.74698,0.4033531 -1.12047,0.6050296 0,0.020168 0.007,0.041591 0,0.060503 -0.18116,0.4891162 -0.93969,2.1706679 -0.0374,2.2789451 1.72666,0.20719 1.07276,-1.8554243 2.22962,-1.8554243"
         id="path2198" /><path
         style="color:#000000;fill:#000000;stroke-width:1.09429;stroke-linecap:round;stroke-linejoin:round;-inkscape-stroke:none"
         d="m 234,-2.4296875 a 3.999995,3.999995 0 0 0 -3.04492,0.3125 l -1.1211,0.6054688 a 4.000395,4.000395 0 0 0 -2.09961,3.5195312 c 0,0.9457245 -0.38763,0.3892925 0.24805,-1.328125 0.0224,-0.0605135 -0.36586,0.7488735 -0.59375,1.8828125 -0.11394,0.5669695 -0.308,1.2882054 0.0703,2.578125 0.37832,1.2899196 2.25426,2.9968343 3.76172,3.1777344 1.1815,0.1417729 2.85415,-0.1973391 3.93164,-1.0839844 0.83751,-0.6891636 1.17095,-1.3381872 1.38282,-1.8222656 A 3.999995,3.999995 0 0 0 237.92578,2.4921875 3.999995,3.999995 0 0 0 235.74219,-1.0136719 3.999995,3.999995 0 0 0 234,-2.4296875 Z m 1.81641,8.1386719 c -0.60056,0.4086575 -1.31475,0.7832031 -1.89063,0.7832031 a 3.999995,3.999995 0 0 0 1.89063,-0.7832031 z"
         id="path2200" /></g><path
       style="fill:#ffc966;fill-opacity:1;stroke:#000000;stroke-width:7.99999;stroke-linecap:round;stroke-linejoin:round;stroke-dasharray:none"
       d="m 270.91935,34.492709 c 1.02573,0.807755 3.17764,1.092518 3.72581,2.100414"
       id="path2202" /><path
       style="fill:#ffc966;fill-opacity:1;stroke:#000000;stroke-width:6;stroke-linecap:round;stroke-linejoin:round;stroke-dasharray:none"
       d="m 225.91333,-10.891916 c 1.11137,1.0748378 2.18809,2.0497549 3.48609,2.9091798 2.35955,1.5623013 5.11308,3.2867393 6.89293,5.504625 0.34636,0.4315982 2.98915,2.51219847 2.82584,1.95371408 -0.13896,-0.47525291 -0.67947,0.73175072 -0.92754,1.16028167"
       id="path2204" /><path
       style="fill:#624200;fill-opacity:1;stroke:#624200;stroke-width:3;stroke-linecap:round;stroke-linejoin:round;stroke-dasharray:none;stroke-opacity:1"
       d="m 188.80015,-7.3352006 c -7.36575,0.3779333 -14.24707,3.3805326 -21.58772,3.7108487"
       id="path3669" /><path
       style="fill:#9d7a39;fill-opacity:0.980392;stroke:#624200;stroke-width:3;stroke-linecap:round;stroke-linejoin:round;stroke-dasharray:none;stroke-opacity:1"
       d="m 137.40794,13.437485 c 8.69695,-0.783034 17.77305,2.666077 26.29369,1.250395"
       id="path4154" /><path
       style="fill:#9d7a39;fill-opacity:0.980392;stroke:#624200;stroke-width:3;stroke-linecap:round;stroke-linejoin:round;stroke-dasharray:none;stroke-opacity:1"
       d="m 154.81257,3.8376809 c 5.78901,2.3521138 11.94115,1.5601987 18.00221,2.3394482"
       id="path4156" /><path
       style="fill:#9d7a39;fill-opacity:0.980392;stroke:#624200;stroke-width:3;stroke-linecap:round;stroke-linejoin:round;stroke-dasharray:none;stroke-opacity:1"
       d="m 142.41271,24.166678 c -7.73237,0.0098 -15.47974,-0.363017 -23.23107,-0.363017"
       id="path4160" /><path
       style="fill:none;fill-opacity:0.980392;stroke:#624200;stroke-width:3;stroke-linecap:round;stroke-linejoin:round;stroke-dasharray:none;stroke-opacity:1"
       d="m -123.01923,111.36098 c 4.57961,-4.68721 9.85536,-9.12987 13.07215,-14.964401 1.83714,-3.332152 2.77127,-7.053686 5.52765,-9.801482 4.616182,-4.601797 11.424173,-6.415106 16.881742,-9.841815"
       id="path4170" /><path
       style="fill:none;fill-opacity:0.980392;stroke:#624200;stroke-width:3;stroke-linecap:round;stroke-linejoin:round;stroke-dasharray:none;stroke-opacity:1"
       d="m -105.91339,101.39816 c 0.33311,-7.013002 4.32929,-7.884172 9.785435,-11.132549"
       id="path4235" /><path
       style="fill:none;fill-opacity:0.980392;stroke:#624200;stroke-width:3;stroke-linecap:round;stroke-linejoin:round;stroke-dasharray:none;stroke-opacity:1"
       d="m -91.197889,71.671031 c 7.72542,-3.822562 12.626575,-12.295124 21.288922,-14.077024"
       id="path4237" /><path
       style="fill:none;fill-opacity:0.980392;stroke:#624200;stroke-width:3;stroke-linecap:round;stroke-linejoin:round;stroke-dasharray:none;stroke-opacity:1"
       d="m -68.863196,52.794106 c 8.057041,-3.475652 15.009376,-6.823845 23.828653,-7.583038"
       id="path4239" /><path
       style="fill:none;fill-opacity:0.980392;stroke:#624200;stroke-width:3;stroke-linecap:round;stroke-linejoin:round;stroke-dasharray:none;stroke-opacity:1"
       d="m -24.641997,45.533749 c -5.426441,-4.151485 -12.41909,-3.626131 -18.525096,-5.646944"
       id="path4241" /><path
       style="fill:#58508d;fill-opacity:1;stroke:#000000;stroke-width:4;stroke-linecap:round;stroke-linejoin:round;stroke-dasharray:none;stroke-opacity:1"
       d="m 146.87406,62.688627 c -13.26532,13.183857 1.55155,36.401877 22.14791,23.950907 2.72218,-1.64562 5.63206,-4.04331 6.61891,-6.81876 0.96074,-2.70198 1.23247,-5.911834 0,-8.580276 -1.0212,-2.21104 -3.73429,-3.882774 -5.85519,-5.341366 -7.11026,-4.889901 -14.67681,-7.876402 -22.91163,-3.210505 z"
       id="path10644" /><path
       style="fill:#ffa600;fill-opacity:1;stroke:#000000;stroke-width:2;stroke-linecap:round;stroke-linejoin:round;stroke-dasharray:none;stroke-opacity:1"
       d="m 150.76591,81.908704 c 0.11239,-1.92959 -0.0739,-3.86452 -0.58795,-5.74976 -0.458,-1.932381 -0.76162,-3.897772 -0.8072,-5.86648 0.32208,-1.11954 1.63403,0.30317 2.0599,0.720913 1.10525,1.091151 1.98857,2.32262 3.02657,3.451517 0.81352,-1.38916 0.4098,-2.74457 0.62168,-4.352273 0.16259,-0.502865 0.42577,-1.298519 0.47746,-1.630675 0.87442,1.503965 3.07816,2.883083 4.20787,4.265029 0.44229,0.192963 0.0941,-1.048386 0.14314,-1.40218 -0.0596,-1.309266 -0.38012,-2.656058 0.013,-3.944257 0.62824,-0.460041 1.23975,0.865405 1.77574,1.188405 1.91928,1.987305 3.79208,4.009695 5.4195,6.170161 0.76206,0.90099 1.45391,1.85298 2.29102,2.70467 1.02091,0.65739 -1.2406,0.46985 -1.72827,0.76727 -5.24858,1.16526 -10.17253,3.48443 -15.69633,3.68057 -0.40523,0.0121 -0.81104,0.0116 -1.21616,-0.003 z"
       id="path11691"
       sodipodi:nodetypes="ccccccccccccccccc" /></g></svg>
