<?xml version="1.0" encoding="UTF-8" standalone="no"?>
<!-- Created with Inkscape (http://www.inkscape.org/) -->

<svg
   width="195.11334mm"
   height="235.17839mm"
   viewBox="0 0 195.11334 235.17839"
   version="1.1"
   id="svg5"
   inkscape:version="1.2.2 (732a01da63, 2022-12-09)"
   sodipodi:docname="Jester.svg"
   xmlns:inkscape="http://www.inkscape.org/namespaces/inkscape"
   xmlns:sodipodi="http://sodipodi.sourceforge.net/DTD/sodipodi-0.dtd"
   xmlns="http://www.w3.org/2000/svg"
   xmlns:svg="http://www.w3.org/2000/svg">
  <sodipodi:namedview
     id="namedview7"
     pagecolor="#7c7c7c"
     bordercolor="#000000"
     borderopacity="0.25"
     inkscape:showpageshadow="2"
     inkscape:pageopacity="0"
     inkscape:pagecheckerboard="true"
     inkscape:deskcolor="#2c2c2c"
     inkscape:document-units="mm"
     showgrid="false"
     inkscape:lockguides="false"
     inkscape:zoom="0.52724989"
     inkscape:cx="394.49985"
     inkscape:cy="588.90482"
     inkscape:window-width="1350"
     inkscape:window-height="1040"
     inkscape:window-x="1323"
     inkscape:window-y="14"
     inkscape:window-maximized="0"
     inkscape:current-layer="layer1" />
  <defs
     id="defs2">
    <inkscape:path-effect
       effect="fill_between_many"
       method="originald"
       linkedpaths="#path7956,0,1|#path803,0,1"
       id="path-effect7958"
       is_visible="true"
       lpeversion="0"
       join="true"
       close="true"
       autoreverse="true" />
    <inkscape:path-effect
       effect="fill_between_many"
       method="originald"
       linkedpaths="#path9011,0,1|#path7956,0,1|#path6437,0,1"
       id="path-effect9013"
       is_visible="true"
       lpeversion="0"
       join="true"
       close="true"
       autoreverse="true" />
    <inkscape:path-effect
       effect="fill_between_many"
       method="originald"
       linkedpaths="#path799,0,1"
       id="path-effect9224"
       is_visible="true"
       lpeversion="0"
       join="true"
       close="true"
       autoreverse="true" />
  </defs>
  <g
     inkscape:label="Layer 1"
     inkscape:groupmode="layer"
     id="layer1"
     transform="translate(-8.076751,-12.943856)">
    <path
       style="fill:#ffa600;fill-opacity:1;stroke:#000000;stroke-width:8;stroke-linecap:round;stroke-linejoin:round;stroke-dasharray:none"
       d="m 101.23716,159.52403 c -23.07212,4.45663 -42.897225,-23.93417 -30.141149,-34.21028 3.014425,4.72803 22.314515,28.66242 37.312149,20.98114 3.41274,-1.74789 -4.73135,10.83837 -7.171,13.22914 z"
       id="path805"
       sodipodi:nodetypes="ccsc" />
    <path
       inkscape:original-d="M 0,0"
       inkscape:path-effect="#path-effect7958"
       d="m 72.394764,118.82223 c -3.970947,3.12226 -5.944618,8.02897 -9.73923,11.34621 -4.626073,5.41446 -8.373936,11.82746 -9.936046,18.82818 -1.238818,5.34193 0.228383,11.10499 3.484985,15.44674 6.894902,6.7137 16.940958,7.72177 25.494358,11.24631 8.271618,3.52562 15.326472,9.25142 22.936209,13.94254 0.79907,0.5393 1.59632,1.08305 2.35913,1.67314 l 1.90695,-1.05584 c 14.06995,-9.64097 29.36364,-14.63312 41.69256,-6.25774 12.38252,8.41179 10.23711,24.40459 27.26476,32.83294 1.97541,0.97779 4.03264,2.56616 6.27463,2.94448 5.29028,0.8927 14.15521,-7.16212 10.53241,-12.78629 -2.36413,-3.67017 -8.33147,-5.12808 -11.80228,-7.66371 -2.61308,-1.90901 -4.26126,-5.00534 -6.42402,-7.34103 -4.60854,-3.47569 -7.10272,-9.38479 -10.23362,-14.2787 -3.56528,-5.57287 -6.49991,-12.52349 -12.39987,-16.13412 -8.70651,-5.32818 -27.1433,4.65549 -35.78033,7.62337 -11.8701,4.07884 -28.549987,3.37608 -39.067036,-3.83185 -12.163571,-8.3364 -15.27164,-17.1105 -6.199932,-29.96914 1.638356,-2.32228 3.16365,-5.98989 5.751744,-7.26036 z"
       id="path7960"
       class="UnoptimicedTransforms"
       style="fill:#58508d;fill-opacity:1" />
    <path
       style="fill:#a9e0ff;fill-opacity:1;stroke:#000000;stroke-width:8;stroke-linecap:round;stroke-linejoin:round;stroke-dasharray:none"
       d="m 82.955552,85.876904 c 0.920875,8.866008 -0.932293,15.306476 -9.038455,19.683636 -0.989443,0.53427 -4.620863,1.65986 -5.303557,2.58146 -3.430024,4.63035 6.049352,13.1392 8.664966,16.43663 3.721828,-1.89015 8.292418,-2.8033 11.876977,-2.8033 12.847917,0 10.759728,8.65598 19.645567,14.76273 4.01205,2.75726 9.49027,2.77393 14.19261,2.90414 14.99448,0.41521 32.64954,-4.51241 42.72724,-16.25513 4.89509,-5.70384 6.29853,-12.51038 7.32041,-19.68363 2.47771,-17.392859 -0.68928,-38.028718 -19.72027,-44.731865"
       id="path765"
       sodipodi:nodetypes="csscsssssc" />
    <path
       style="fill:#ffa600;fill-opacity:1;stroke:#000000;stroke-width:8;stroke-linecap:round;stroke-linejoin:round;stroke-dasharray:none"
       d="m 111.34078,44.533211 c -0.41933,0.452863 -8.70199,-4.94892 -9.48664,-5.485604 -7.844021,-5.365096 -16.00498,-10.039212 -25.920198,-9.357791 -12.644051,0.868955 -31.109869,7.431669 -36.969749,19.365697 -4.944254,10.069294 -5.721941,18.630949 -7.317772,27.6993 7.617685,-6.115227 13.986595,-8.936623 21.585087,-12.178804 5.77832,-2.465537 12.40647,-8.213396 18.044345,-5.441715 7.233724,3.556228 9.338749,18.08061 8.610379,22.59697 12.612968,5.42363 40.250518,-1.299597 52.576178,-7.62241 5.47855,-14.674263 -0.74122,-23.674958 -21.12163,-29.575643 z"
       id="path2225"
       sodipodi:nodetypes="ccsscaaccc" />
    <path
       style="fill:#58508d;fill-opacity:1;stroke:#000000;stroke-width:8;stroke-linecap:round;stroke-linejoin:round;stroke-dasharray:none"
       d="m 132.46241,74.108855 c 6.38894,-3.277399 1.98253,-0.651332 7.91732,-4.657161 4.05939,-2.739977 9.76561,-7.887659 10.99916,-13.284995 -5.7371,-6.730496 -1.06336,-17.284867 9.03846,-14.739308 5.20067,1.310518 17.70054,5.700242 25.60327,7.14372 -8.35497,-20.848474 -14.06731,-31.627255 -36.06099,-31.627255 -7.35622,0 -16.32061,1.989228 -22.40939,6.37298 -5.04675,3.633516 -11.07541,8.724065 -13.66973,14.561048 -0.84461,1.900307 -1.15901,5.164209 -2.53973,6.655327 15.23885,7.358423 19.06756,16.813344 21.12163,29.575644 z"
       id="path657"
       sodipodi:nodetypes="cscscssscc" />
    <path
       style="fill:#58508d;fill-opacity:1;stroke:#000000;stroke-width:8;stroke-linecap:round;stroke-linejoin:round;stroke-dasharray:none"
       d="m 33.057306,69.299092 c -11.629913,-1.396114 -14.702897,14.593027 -1.942148,16.17446 3.589547,0.444849 6.815304,-1.541412 9.187852,-4.073866 1.729793,-1.846382 3.808235,-7.014414 2.838522,-9.599806 C 41.30009,66.890325 29.686858,63.711584 27.977846,69.863787"
       id="path757" />
    <path
       style="fill:#ffa600;fill-opacity:1;stroke:#000000;stroke-width:8;stroke-linecap:round;stroke-linejoin:round;stroke-dasharray:none"
       d="m 185.29177,40.741689 c -3.3772,0.827628 -6.73974,5.586162 -7.3204,9.035111 -1.63535,9.713582 16.9935,6.105139 20.16845,0.887378 2.78182,-4.571677 -1.54004,-17.082161 -8.36617,-13.794676 -1.6512,0.795218 -3.1681,2.689836 -4.48188,3.872187 z"
       id="path759" />
    <path
       style="fill:#fdfeff;fill-opacity:1;stroke:#000000;stroke-width:6;stroke-linecap:round;stroke-linejoin:round;stroke-dasharray:none"
       d="m 117.42787,116.84081 c 8.33648,9.78506 21.71573,4.61325 30.62608,-2.87114 2.03699,-1.71101 4.0199,-3.53463 5.82644,-5.48561 0.64286,-0.69426 2.70001,-2.58733 1.86745,-2.13777 -8.34605,4.50669 -18.16008,6.77773 -27.63825,5.96963 -4.35358,-0.37119 -10.79456,-7.35448 -14.40752,-9.63056 -0.91544,4.64762 1.53073,12.15039 3.7258,14.15545 z"
       id="path773"
       sodipodi:nodetypes="csscscc" />
    <path
       style="fill:none;stroke:#000000;stroke-width:6;stroke-linecap:round;stroke-linejoin:round;stroke-dasharray:none"
       d="m 105.11795,105.77123 c -1.29501,-4.52373 -0.13187,-12.528555 5.71923,-11.160074"
       id="path775" />
    <path
       style="fill:#003f5c;stroke:#000000;stroke-width:6;stroke-linecap:round;stroke-linejoin:round;stroke-dasharray:none"
       d="m 116.90489,82.951811 c 3.20648,0.522256 11.59107,4.924732 13.89382,2.904141"
       id="path779" />
    <path
       style="fill:#003f5c;stroke:#000000;stroke-width:6;stroke-linecap:round;stroke-linejoin:round;stroke-dasharray:none"
       d="m 144.54314,69.681494 c -0.57036,4.673364 -4.40376,12.021288 -5.60235,14.682052"
       id="path781" />
    <path
       style="fill:#003f5c;stroke:#000000;stroke-width:6;stroke-linecap:round;stroke-linejoin:round;stroke-dasharray:none"
       d="m 144.02026,79.724985 c -0.19015,2.210638 0.59883,1.976432 2.24093,1.976432"
       id="path785" />
    <path
       style="fill:#003f5c;stroke:#000000;stroke-width:6;stroke-linecap:round;stroke-linejoin:round;stroke-dasharray:none"
       d="m 123.32892,90.333173 c 0.47309,-0.49747 0.94617,-0.994939 1.41926,-1.492406 0.14939,-0.147897 0.29879,-0.295794 0.44819,-0.443691"
       id="path791" />
    <path
       inkscape:original-d="M 0,0"
       inkscape:path-effect="#path-effect9013"
       d="M 45.993134,131.23988 C 50.653259,124.79576 61.715051,113.99317 64.225807,110 c 1.661321,1.66132 5.282874,8.61414 6.387094,10.82258 l 1.781863,-2.00035 c -3.970947,3.12226 -5.944618,8.02897 -9.73923,11.34621 -4.626073,5.41446 -8.373936,11.82746 -9.936046,18.82818 -1.238818,5.34193 0.228383,11.10499 3.484985,15.44674 6.894902,6.7137 16.940958,7.72177 25.494358,11.24631 8.271618,3.52562 15.326472,9.25142 22.936209,13.94254 0.79907,0.5393 1.59632,1.08305 2.35913,1.67314 l 1.90695,-1.05584 c -14.069953,9.64096 -26.916174,23.93075 -34.350164,34.15063 0.776801,4.61401 14.103057,5.2542 12.101257,11.01915 -0.852713,2.45572 -3.173056,3.19352 -5.15416,4.47722 -4.610844,2.98771 -15.474133,6.23754 -20.766035,2.50079 -2.106723,-1.48761 -3.16889,-3.55956 -4.780671,-5.44527 -1.316281,-1.53999 -3.109696,-3.74644 -3.510804,-5.76795 -3.406365,-17.1674 19.411659,-23.49208 27.712947,-35.97909 2.19265,-3.29825 2.329739,-9.26951 -1.643356,-11.4149 -3.174952,-1.71441 -7.060509,-2.23742 -10.457714,-3.3075 -3.428881,-1.08005 -7.013379,-1.94238 -10.532414,-2.70246 -4.125524,-0.89108 -8.262763,-2.97319 -12.17577,-4.55789 -6.322508,-2.56052 -13.199651,-9.58031 -14.71578,-16.8926 -2.069732,-9.98232 0.498741,-20.22826 9.264392,-29.14696 z"
       id="path9015"
       class="UnoptimicedTransforms"
       style="fill:#ffa600;fill-opacity:1" />
    <path
       style="fill:none;stroke:#000000;stroke-width:8;stroke-linecap:round;stroke-linejoin:round;stroke-dasharray:none"
       d="m 39.892848,127.18268 c -8.765651,8.9187 -11.334124,19.16464 -9.264392,29.14696 1.516129,7.31229 8.393272,14.33208 14.71578,16.8926 3.913007,1.5847 8.050246,3.66681 12.17577,4.55789 3.519035,0.76008 7.103533,1.62241 10.532414,2.70246 3.397205,1.07008 7.282762,1.59309 10.457714,3.3075 3.973095,2.14539 3.836006,8.11665 1.643356,11.4149 -8.301288,12.48701 -31.119312,18.81169 -27.712947,35.97909 0.401108,2.02151 2.194523,4.22796 3.510804,5.76795 1.611781,1.88571 2.673948,3.95766 4.780671,5.44527 5.291902,3.73675 16.155191,0.48692 20.766035,-2.50079 1.981104,-1.2837 4.301447,-2.0215 5.15416,-4.47722 2.0018,-5.76495 -11.324456,-6.40514 -12.101257,-11.01915 7.43399,-10.21988 20.280211,-24.50967 34.350164,-34.15063"
       id="path6437"
       class="UnoptimicedTransforms"
       sodipodi:nodetypes="casssssssssscc" />
    <path
       inkscape:original-d="M 0,0"
       inkscape:path-effect="#path-effect9224"
       d="m 25.089007,111.1369 c -10.263141,-0.5061 -17.4898142,1.11461 -25.21942022,4.78408 -7.09532998,3.36836 -13.38976678,8.82956 -18.03723778,15.16127 -4.814232,6.55891 -9.085657,14.4023 -9.38241,22.53298 -0.397259,10.88445 -0.240481,28.36527 10.32774,30.99998 3.210804,0.80047 6.152247,-3.70156 7.191797,-6.84311 -0.728137,-4.23355 -6.017756,-20.9923 -2.122095,-30.35873 2.9172268,-7.01396 7.2665448,-13.72759 17.2423058,-14.90152 z"
       id="path9226"
       class="UnoptimicedTransforms"
       style="fill:#58508d;fill-opacity:1"
       transform="translate(39.741935,-3.016129)" />
    <path
       style="fill:none;fill-opacity:1;stroke:#000000;stroke-width:8;stroke-linecap:round;stroke-linejoin:round;stroke-dasharray:none"
       d="m 65.718039,109.89496 c -10.263141,-0.5061 -17.489814,1.11461 -25.21942,4.78408 -7.09533,3.36836 -13.389767,8.82956 -18.037238,15.16127 -4.814232,6.55891 -9.085657,14.4023 -9.38241,22.53298 -0.397259,10.88445 -0.240481,28.36527 10.32774,30.99998 3.210804,0.80047 6.152247,-3.70156 7.191797,-6.84311 -0.728137,-4.23355 -6.017756,-20.9923 -2.122095,-30.35873 2.917227,-7.01396 7.266545,-13.72759 17.242306,-14.90152"
       id="path799"
       sodipodi:nodetypes="caaaacac"
       class="UnoptimicedTransforms"
       transform="translate(-0.88709722,-1.7741926)" />
    <path
       style="fill:none;stroke:#000000;stroke-width:8;stroke-linecap:round;stroke-linejoin:round;stroke-dasharray:none"
       d="m 108.90112,190.24951 c 14.06995,-9.64097 29.36364,-14.63312 41.69256,-6.25774 12.38252,8.41179 10.23711,24.40459 27.26476,32.83294 1.97541,0.97779 4.03264,2.56616 6.27463,2.94448 5.29028,0.8927 14.15521,-7.16212 10.53241,-12.78629 -2.36413,-3.67017 -8.33147,-5.12808 -11.80228,-7.66371 -2.61308,-1.90901 -4.26126,-5.00534 -6.42402,-7.34103 -4.60854,-3.47569 -7.10272,-9.38479 -10.23362,-14.2787 -3.56528,-5.57287 -6.49991,-12.52349 -12.39987,-16.13412 -8.70651,-5.32818 -27.1433,4.65549 -35.78033,7.62337 -11.8701,4.07884 -28.549987,3.37608 -39.067036,-3.83185 -12.163571,-8.3364 -15.27164,-17.1105 -6.199932,-29.96914 1.638356,-2.32228 3.16365,-5.98989 5.751744,-7.26036"
       id="path803"
       sodipodi:nodetypes="cssssscsssssc"
       class="UnoptimicedTransforms" />
    <path
       style="fill:#a9e0ff;fill-opacity:1;stroke:#000000;stroke-width:8;stroke-linecap:round;stroke-linejoin:round;stroke-dasharray:none"
       d="m 18.568888,188.17934 c -6.636567,-0.0709 3.663685,24.01644 15.440778,8.28155 1.467935,-1.96126 3.543418,-4.56369 3.658191,-7.12285 0.09668,-2.15577 -0.49834,-5.37812 -1.1557,-7.54425 -0.70147,-2.31147 -2.588741,-4.71497 -4.365704,-6.32061 -5.845294,-5.28172 -20.123254,3.72583 -15.84165,9.80162"
       id="path801" />
    <path
       style="fill:#a9e0ff;fill-opacity:1;stroke:#000000;stroke-width:8;stroke-linecap:round;stroke-linejoin:round;stroke-dasharray:none"
       d="m 111.60134,145.67322 c -15.352084,-6.37164 -17.105618,15.50896 -1.12047,17.66687 2.3114,0.31203 4.13699,-0.59636 5.82644,-2.13777 6.97665,-6.36535 0.57904,-11.31044 -4.70597,-15.5291 z"
       id="path807" />
    <path
       style="fill:#fdfeff;fill-opacity:1;stroke:#000000;stroke-width:4;stroke-linecap:round;stroke-linejoin:round;stroke-dasharray:none"
       d="m 123.44337,114.17557 c -0.43945,0.34134 -1.19374,3.72853 -1.76953,4.03942"
       id="path4468"
       sodipodi:nodetypes="cc" />
    <path
       style="fill:#fdfeff;fill-opacity:1;stroke:#000000;stroke-width:6;stroke-linecap:round;stroke-linejoin:round;stroke-dasharray:none"
       d="m 135.54562,113.48413 -1.74976,6.10797"
       id="path4470"
       sodipodi:nodetypes="cc" />
    <path
       style="fill:none;fill-opacity:1;stroke:#000000;stroke-width:4;stroke-linecap:round;stroke-linejoin:round;stroke-dasharray:none"
       d="m 72.394764,118.82223 c -3.970947,3.12226 -5.944618,8.02897 -9.73923,11.34621 -4.626073,5.41446 -8.373936,11.82746 -9.936046,18.82818 -1.238818,5.34193 0.228383,11.10499 3.484985,15.44674 6.894902,6.7137 16.940958,7.72177 25.494358,11.24631 8.271618,3.52562 15.326472,9.25142 22.936209,13.94254 0.79907,0.5393 1.59632,1.08305 2.35913,1.67314"
       id="path7956"
       sodipodi:nodetypes="csssaaac"
       class="UnoptimicedTransforms" />
    <path
       style="fill:none;fill-opacity:1;stroke:#000000;stroke-width:4;stroke-linecap:round;stroke-linejoin:round;stroke-dasharray:none"
       d="M 45.993134,131.23988 C 50.653259,124.79576 61.715051,113.99317 64.225807,110 c 1.661321,1.66132 5.282874,8.61414 6.387094,10.82258"
       id="path9011"
       class="UnoptimicedTransforms"
       sodipodi:nodetypes="ccc" />
  </g>
</svg>
