<?xml version="1.0" encoding="UTF-8" standalone="no"?>
<!-- Created with Inkscape (http://www.inkscape.org/) -->

<svg
   width="329.51123mm"
   height="283.77667mm"
   viewBox="0 0 329.51123 283.77667"
   version="1.1"
   id="svg5"
   inkscape:version="1.2.2 (732a01da63, 2022-12-09)"
   sodipodi:docname="knights.svg"
   xmlns:inkscape="http://www.inkscape.org/namespaces/inkscape"
   xmlns:sodipodi="http://sodipodi.sourceforge.net/DTD/sodipodi-0.dtd"
   xmlns="http://www.w3.org/2000/svg"
   xmlns:svg="http://www.w3.org/2000/svg">
  <sodipodi:namedview
     id="namedview7"
     pagecolor="#7c7c7c"
     bordercolor="#000000"
     borderopacity="0.25"
     inkscape:showpageshadow="2"
     inkscape:pageopacity="0"
     inkscape:pagecheckerboard="true"
     inkscape:deskcolor="#2c2c2c"
     inkscape:document-units="mm"
     showgrid="false"
     inkscape:lockguides="false"
     inkscape:zoom="0.52724989"
     inkscape:cx="677.0983"
     inkscape:cy="438.12243"
     inkscape:window-width="1920"
     inkscape:window-height="1017"
     inkscape:window-x="1272"
     inkscape:window-y="-8"
     inkscape:window-maximized="1"
     inkscape:current-layer="layer1" />
  <defs
     id="defs2" />
  <g
     inkscape:label="Layer 1"
     inkscape:groupmode="layer"
     id="layer1"
     transform="translate(10.969023,3.189566)">
    <path
       style="fill:#75718d;fill-opacity:1;stroke:#000000;stroke-width:8;stroke-linecap:round;stroke-linejoin:round;stroke-dasharray:none"
       d="m 151.86342,151.09214 c -1.52639,10.22712 -4.07529,39.08734 7.94071,44.64236 3.53432,1.63392 7.7033,1.77905 11.21306,0.0971 11.16436,-5.35004 8.78591,-22.53841 5.58116,-31.95562 -1.3743,-4.03837 -3.83893,-10.24548 -6.98985,-13.21941 -3.61913,-3.41581 -17.07096,-7.16343 -17.74508,0.43553 z"
       id="path1020" />
    <path
       style="fill:#2d2847;fill-opacity:1;stroke:#000000;stroke-width:7.99999;stroke-linecap:round;stroke-linejoin:round;stroke-dasharray:none"
       d="m 118.08476,243.53415 c 1.58273,4.05911 1.1775,8.21457 1.3447,12.4219 0.1541,3.87796 -1.58844,12.16412 1.35193,15.37016 2.93871,3.20423 10.86551,1.74408 14.57125,1.7938 10.12263,0.13584 28.94656,2.50619 31.52502,-11.68303 1.95068,-10.73462 -14.48697,-9.24379 -20.27646,-13.73972 -2.88263,-2.23856 -2.60852,-7.80567 -6.76003,-8.6855 -6.90212,-1.46277 -15.83939,0.76823 -21.75641,4.52239 z"
       id="path1825" />
    <path
       style="fill:#2d2847;fill-opacity:1;stroke:#000000;stroke-width:7.99999;stroke-linecap:round;stroke-linejoin:round;stroke-dasharray:none"
       d="m 71.923998,245.46496 c -4.201041,7.2567 -12.01371,7.40729 -17.606514,11.50696 -2.588057,1.89711 -8.09362,9.09697 -6.059302,12.42789 1.732324,2.83644 7.37697,5.80619 10.526844,6.56558 5.093324,1.22787 28.094305,0.75745 31.754991,-2.50517 3.415706,-3.04426 4.10962,-9.43294 4.623487,-13.66829 0.40989,-3.37838 2.350149,-11.19368 0.606158,-14.10454 -2.337393,-3.90131 -19.445091,3.64666 -23.845664,-0.22243 z"
       id="path1823" />
    <path
       style="fill:#75718d;fill-opacity:1;stroke:#000000;stroke-width:7.99999;stroke-linecap:round;stroke-linejoin:round;stroke-dasharray:none"
       d="m 153.57824,152.74984 c -0.71412,23.03738 -8.04028,41.05592 -9.16188,64.06857 -0.65792,5.2808 0.42238,14.82149 -2.36725,21.70035 -3.88394,5.90883 -61.925628,11.96381 -69.185436,8.21973 -3.54966,-5.37957 -4.824169,-13.48736 -3.187986,-19.55154 1.143657,-20.68526 -3.660799,-41.08646 -5.712355,-61.57868"
       id="path1817"
       sodipodi:nodetypes="cccccc" />
    <path
       style="fill:#75718d;fill-opacity:1;stroke:#000000;stroke-width:8;stroke-linecap:round;stroke-linejoin:round;stroke-dasharray:none"
       d="m 46.257548,163.68109 c -3.747754,5.71809 -6.733561,14.0017 -7.072433,21.02079 -0.156354,3.2386 -3.157349,18.68501 -1.715998,21.60244 4.601889,9.31467 21.527652,6.57324 26.647123,-0.49034 4.386901,-6.05282 2.545572,-15.55006 2.876009,-22.39447 0.131461,-2.72296 2.658853,-17.59946 -0.116061,-17.73342"
       id="path1012" />
    <path
       style="fill:#ffa600;stroke:#000000;stroke-width:7.99999;stroke-linecap:round;stroke-linejoin:round;stroke-dasharray:none"
       d="M 99.004688,17.580427 C 80.919494,0.95049478 55.74291,-4.6264731 33.791121,6.7593793 28.819755,9.3379032 22.975495,12.756076 19.881396,17.596792 13.422065,27.702412 14.945567,39.107176 10.485348,49.570145 6.7021253,58.44499 -0.91080516,57.63209 -3.8496461,70.765276 c -1.5732483,7.030581 6.0443947,8.613135 6.2677829,14.234491 0.2322114,5.843377 -8.2656038,9.76696 -8.7866953,16.253683 -0.7519964,9.36109 6.25635257,13.88812 6.20833569,21.66196 -0.0531321,8.602 -7.95560869,14.28637 -6.67075119,23.54388 2.0825144,15.00469 17.663703,19.82715 29.024008,10.68916 5.434419,-4.37134 9.640011,-12.41468 12.054569,-18.88229 2.829692,-7.57958 1.660801,-15.38456 2.987579,-23.15634 2.276683,-13.33601 1.646092,-27.278291 4.644677,-40.440738 1.664374,-7.305867 14.337979,-27.931904 22.110876,-30.435531"
       id="path754"
       sodipodi:nodetypes="cssssssssssssc" />
    <path
       style="fill:#58508d;fill-opacity:1;stroke:#000000;stroke-width:8;stroke-linecap:round;stroke-linejoin:round;stroke-dasharray:none"
       d="m 73.393658,138.04923 c -23.181106,4.98774 -34.526228,25.11975 -32.39029,28.71469 10.755868,16.92501 45.927315,31.46576 71.387842,28.54394 24.03452,-2.75817 49.50219,-18.87827 59.53357,-41.51075 2.04525,-2.00547 -1.22403,-6.94233 -2.28143,-8.50966 -6.52107,-9.66587 -17.13605,-9.15209 -27.46495,-10.45237"
       id="path1010"
       sodipodi:nodetypes="ccacsc" />
    <path
       style="fill:#75718d;fill-opacity:1;stroke:#000000;stroke-width:8;stroke-linecap:round;stroke-linejoin:round;stroke-dasharray:none"
       d="m 55.396623,50.284632 c 0.2371,9.84291 0.617529,19.738707 0.141101,29.60703 -0.56462,11.695067 0.382576,23.432248 0.173073,35.140958 -0.06642,3.71231 -2.66039,15.40692 0.149826,18.58308 4.711038,5.32451 18.435512,3.46619 24.665841,3.37148 15.73076,-0.23914 31.659136,-0.11694 47.340926,-1.59115 2.76352,-0.2598 10.86012,1.03783 12.46129,-0.9733 5.66745,-7.11854 2.59207,-19.92027 2.10182,-28.04499 -0.4574,-7.580254 0.79198,-15.230697 0.87707,-22.814032 0.0564,-5.030691 -0.41728,-9.945209 -0.17371,-14.990218 0.56919,-11.789738 0.0876,-23.504002 0.35699,-35.276887 0.0493,-2.153614 1.59713,-8.452458 0.19754,-10.287948 -5.98827,-7.853297 -36.35022,-2.861584 -45.386871,-1.706623 -11.986246,1.531948 -23.538772,3.586041 -35.299211,6.210738 -2.248392,0.501795 -6.440834,0.37091 -8.59319,1.402336 -0.54608,0.261685 -0.05132,1.212262 -0.01291,1.81658 0.413029,6.492641 0.160062,13.1503 1.000423,19.552946 z"
       id="path192" />
    <path
       style="fill:#ffa600;stroke:#000000;stroke-width:12;stroke-linecap:round;stroke-linejoin:round;stroke-dasharray:none"
       d="m 90.946957,65.205957 c 3.626154,-0.935472 7.353351,-1.051936 11.059243,-1.364043 9.44225,-0.795218 18.77914,-2.306397 28.19894,-3.201796 1.63871,-0.155768 14.45659,-0.311072 9.68902,-0.864845"
       id="path748" />
    <path
       style="fill:#ffa600;stroke:#000000;stroke-width:12;stroke-linecap:round;stroke-linejoin:round;stroke-dasharray:none"
       d="m 115.65155,63.127692 c 0.39063,3.071569 0.94544,6.112242 1.05069,9.217505 0.20001,5.900702 0.10002,11.814974 -0.0332,17.726225 -0.0412,1.828149 -0.20976,11.274968 -1.38548,10.109458"
       id="path752" />
    <path
       style="fill:#2d2847;fill-opacity:1;stroke:#000000;stroke-width:8;stroke-linecap:round;stroke-linejoin:round;stroke-dasharray:none"
       d="m 45.219642,208.41495 c -6.303578,-2.02747 -12.043578,3.15718 -14.264029,8.88196 -1.498935,3.86455 0.140457,7.06643 2.735628,9.94496 15.261018,16.92737 51.435216,-7.43754 35.406585,-16.17997 -2.802626,-1.52863 -5.779093,-2.71216 -8.882057,-3.45749 -2.852229,-0.68511 -5.777659,-0.88592 -8.702266,-0.98549 -3.626477,-0.12342 -5.911419,1.72958 -9.385982,2.33324"
       id="path1014" />
    <path
       style="fill:#2d2847;fill-opacity:1;stroke:#000000;stroke-width:8;stroke-linecap:round;stroke-linejoin:round;stroke-dasharray:none"
       d="m 167.66927,190.82414 c -22.14715,3.14973 -8.50135,31.42452 8.60646,27.75431 12.46922,-2.67507 18.0979,-19.38894 5.90769,-26.32672 -2.907,-1.65443 -9.47379,-4.14666 -12.81241,-2.59729 -3.35395,1.55648 0.17627,1.5026 -4.51946,0.67022"
       id="path1022" />
    <path
       style="fill:#ffa600;fill-opacity:1;stroke:#000000;stroke-width:7.99999;stroke-linecap:round;stroke-linejoin:round;stroke-dasharray:none"
       d="m 184.09815,179.32887 c -5.37514,0.35018 -6.61481,8.9979 -7.50709,14.31002 -0.92661,5.51655 -0.55914,11.91746 2.51283,16.59227 2.48438,3.78061 7.30509,8.85748 11.51041,7.19003 6.72345,-2.6659 6.80473,-13.86435 5.52484,-20.98289 -1.23408,-6.86384 -5.08183,-17.5628 -12.04099,-17.10943 z"
       id="path2308"
       sodipodi:nodetypes="aaaaaa" />
    <path
       style="fill:#75718d;fill-opacity:1;stroke:#000000;stroke-width:7.99999;stroke-linecap:round;stroke-linejoin:round;stroke-dasharray:none"
       d="m 190.99049,205.13568 c 17.5967,-3.17848 33.63148,-11.56172 50.81806,-16.21263 14.12022,-4.12755 28.18832,-8.45268 41.95044,-13.66185 7.05726,-2.10777 14.14744,-4.58776 19.95934,-9.26883 3.09374,-2.59535 8.58718,-4.36959 10.82447,-6.4579 -4.62807,-0.15065 -9.26314,1.09598 -13.90097,1.46386 -17.14989,2.40145 -34.28169,5.4142 -50.82172,10.63419 -20.50902,5.76471 -41.55259,10.612 -60.48617,20.71639 z"
       id="path2312"
       sodipodi:nodetypes="csssssccc" />
    <path
       style="fill:#ffa600;fill-opacity:1;stroke:#000000;stroke-width:2.94215;stroke-linecap:round;stroke-linejoin:round;stroke-dasharray:none"
       d="m 85.946952,152.54138 c 1.073862,2.02463 0.693788,4.50052 0.847056,6.72706 0.01502,6.17242 -0.443849,12.33261 -0.769213,18.49235 4.085371,1.34785 8.448849,0.10876 12.51334,-0.71748 5.011955,-1.11946 10.014565,-2.90567 15.231285,-2.45444 4.92559,0.0656 10.01304,0.71206 14.808,-0.71139 2.42327,-0.46882 2.82765,-3.07394 2.67019,-5.1178 -0.12862,-6.04207 -2.03657,-11.90596 -2.01589,-17.95373 0.38341,-2.03443 -1.60296,-4.32533 -3.16132,-2.02472 -2.80378,2.93158 -4.34454,6.80075 -6.99369,9.83165 -2.33552,0.37957 -3.38086,-2.40679 -4.30812,-4.07707 -1.25934,-2.29762 -1.94444,-5.15684 -4.20765,-6.71729 -2.30722,-0.64233 -3.06455,2.54012 -4.2006,3.98075 -2.00321,3.30646 -3.58697,6.94499 -6.14844,9.86671 -1.863466,-0.81639 -3.148318,-2.58835 -4.729306,-3.84453 -2.541378,-2.14611 -5.135589,-4.7158 -8.554544,-5.30513 l -0.49962,-0.0196 z"
       id="path364" />
  </g>
</svg>
