<?xml version="1.0" encoding="UTF-8" standalone="no"?>
<!-- Created with Inkscape (http://www.inkscape.org/) -->

<svg
   width="220.235mm"
   height="233.29413mm"
   viewBox="0 0 220.235 233.29413"
   version="1.1"
   id="svg5"
   inkscape:version="1.2.2 (732a01da63, 2022-12-09)"
   sodipodi:docname="Peasent 2.svg"
   xmlns:inkscape="http://www.inkscape.org/namespaces/inkscape"
   xmlns:sodipodi="http://sodipodi.sourceforge.net/DTD/sodipodi-0.dtd"
   xmlns="http://www.w3.org/2000/svg"
   xmlns:svg="http://www.w3.org/2000/svg">
  <sodipodi:namedview
     id="namedview7"
     pagecolor="#7c7c7c"
     bordercolor="#000000"
     borderopacity="0.25"
     inkscape:showpageshadow="2"
     inkscape:pageopacity="0"
     inkscape:pagecheckerboard="true"
     inkscape:deskcolor="#2c2c2c"
     inkscape:document-units="mm"
     showgrid="false"
     inkscape:lockguides="false"
     inkscape:zoom="0.52724989"
     inkscape:cx="356.56717"
     inkscape:cy="307.25469"
     inkscape:window-width="1920"
     inkscape:window-height="1017"
     inkscape:window-x="1272"
     inkscape:window-y="-8"
     inkscape:window-maximized="1"
     inkscape:current-layer="layer1" />
  <defs
     id="defs2" />
  <g
     inkscape:label="Layer 1"
     inkscape:groupmode="layer"
     id="layer1"
     transform="translate(41.662574,47.371586)">
    <path
       style="fill:#ffc966;fill-opacity:1;stroke:#000000;stroke-width:6;stroke-linecap:round;stroke-linejoin:round;stroke-dasharray:none;stroke-opacity:1"
       d="M 71.510365,28.150977 C 71.100327,23.035736 72.96758,15.944118 78.081319,11.126233 87.756274,2.0110207 103.34209,-5.5876212 120.02382,-7.8923616 c 10.11551,-1.3975546 24.14284,0.3849691 30.46626,3.8095011 4.77576,2.5863739 6.10943,6.5219469 7.94279,10.3766461 1.92949,4.0568294 3.43675,8.8200024 3.26288,12.9629244 -0.25512,6.079155 -2.56414,15.401411 -3.99411,21.414536 -1.71412,7.208007 -1.99563,12.734286 -9.73171,18.735827 C 107.60389,92.069276 127.61734,84.193582 90.72668,77.152066 85.562556,76.373241 79.626187,66.039757 75.819498,60.521508 74.527424,49.781207 72.323059,38.289399 71.510365,28.150977 Z"
       id="path2766"
       sodipodi:nodetypes="saasssscccs" />
    <path
       style="fill:#2b1e00;fill-opacity:1;stroke:#000000;stroke-width:7.99999;stroke-linecap:round;stroke-linejoin:round;stroke-dasharray:none;stroke-opacity:1"
       d="m 75.037845,158.69167 c -5.321091,4.5187 -28.061847,14.6569 -17.911073,21.35256 3.196337,2.10836 8.216917,1.82973 12.420742,1.73469 5.232603,-0.11828 30.016964,0.0195 33.784706,-2.38102 2.83748,-1.80785 1.13697,-9.13204 0.23733,-11.27578 -1.23331,-2.93883 -1.26444,-6.28256 -3.2402,-9.05197 -3.981385,-5.58068 -19.142201,-1.87751 -25.291505,-0.37848 z"
       id="path2754"
       sodipodi:nodetypes="csssssc" />
    <path
       style="fill:#2b1e00;fill-opacity:1;stroke:#000000;stroke-width:7.99999;stroke-linecap:round;stroke-linejoin:round;stroke-dasharray:none;stroke-opacity:1"
       d="m 125.17084,157.05159 c -1.18723,7.96593 -5.16841,16.38916 0.82714,22.25311 2.99036,2.92472 19.89839,0.25491 24.05256,0.53477 5.79767,0.39069 11.57974,1.14628 16.83101,-0.69388 6.2606,-2.19387 10.58299,-12.45023 5.33951,-15.81886 -4.70025,-3.01964 -10.60013,-2.78527 -16.56099,-3.87942 -6.21948,-1.14161 -10.81524,-4.40236 -17.46104,-4.40236 -6.76384,0 -7.74551,0.38686 -13.02819,2.00664 z"
       id="path2758"
       sodipodi:nodetypes="cssssssc" />
    <path
       style="fill:#2b1e00;fill-opacity:1;stroke:#000000;stroke-width:7.99999;stroke-linecap:round;stroke-linejoin:round;stroke-dasharray:none;stroke-opacity:1"
       d="m 6.3043082,34.010235 c 0.239963,7.808842 1.7251294,15.557833 2.5718524,23.34382 1.2014444,11.047783 0.6513012,22.183996 2.6445374,33.209103 2.216742,12.261382 6.243077,24.202112 6.54337,36.538122 0.763233,12.17308 6.059126,46.33174 6.286763,51.05668 0,0 16.848944,0.60004 16.677365,-1.91004 -0.171576,-2.51007 -6.276159,-51.7145 -6.419399,-54.50143 -0.143239,-2.78694 -6.351851,-25.856744 -7.234966,-29.787867 -0.883117,-3.93113 -6.797875,-60.327446 -6.797875,-60.327446 3.869364,-1.829765 8.019718,-3.131048 12.375919,-4.189596 4.057465,-0.985957 10.872512,-3.430536 13.001692,-5.851989 4.661968,-5.301917 2.678642,-12.4638503 1.859519,-17.8629978 -0.695138,-4.58190413 1.874434,-19.9534472 -5.737908,-22.0412972 -6.633117,-1.819276 -8.538541,0.205714 -10.502461,3.985116 -2.537576,4.072789 -1.127177,9.8876546 0.367769,13.62183697 1.367659,3.45591083 2.135755,10.39285073 1.003725,13.93676503 -0.483122,1.51245 -8.489306,3.873493 -10.363692,3.287937 -3.406361,-2.698441 -6.873266,-11.385164 -6.867306,-13.9063004 0.154773,-4.46945 0.4095,-21.8144576 -8.8968615,-23.0664086 -5.8033068,-0.359125 -7.65984285,1.876174 -8.6898661,4.923634 -2.7125502,8.0471763 2.9829737,19.5444798 4.4446357,27.034106 0.1466694,0.751548 1.6090374,7.595076 0.9026314,8.120244 -0.9491933,0.705665 -9.1783569,2.610736 -11.0703752,2.572623 -2.5675993,-0.05172 -6.9342763,-3.633347 -7.8463933,-5.167326 -4.18912,-7.6791983 -3.881082,-14.4292497 -8.757887,-21.7223512 -1.53145,-1.7765895 -4.421695,-5.0523871 -7.406654,-4.1231012 -10.864492,3.6383092 -4.343311,16.8176991 -1.517509,22.2053404 4.612837,6.372915 5.983261,14.79296 12.786761,18.253048 7.299147,3.384642 18.1921185,0.65295 26.0614181,-0.400183"
       id="path2441"
       sodipodi:nodetypes="cssccssscssssccsccccssscccccc" />
    <path
       style="fill:#624200;fill-opacity:1;stroke:#000000;stroke-width:7.99999;stroke-linecap:round;stroke-linejoin:round;stroke-dasharray:none;stroke-opacity:1"
       d="m 153.39033,112.50268 c -7.99683,-9.66953 -10.43752,-21.170183 -10.43752,-32.003549 0,-2.561844 -0.43891,-5.340248 0.38186,-7.850343 1.48213,-4.532695 5.47544,-8.739656 7.85996,-14.786305 3.32876,1.575805 8.14417,4.106473 10.85121,7.426608 10.82802,13.280343 12.32484,19.734447 9.86473,34.389861 -0.21384,1.273838 0.0312,11.022718 -2.03659,10.660418"
       id="path2635"
       sodipodi:nodetypes="csscssc" />
    <path
       style="fill:#ffc966;fill-opacity:1;stroke:#000000;stroke-width:7.99999;stroke-linecap:round;stroke-linejoin:round;stroke-dasharray:none;stroke-opacity:1"
       d="m 170.12854,111.62248 c 2.02959,2.56868 4.59795,6.07748 3.23118,12.09424 -1.08069,4.75733 -11.44493,13.44879 -20.09668,7.1051 -1.94659,-1.42731 -3.27613,-3.31425 -3.81859,-5.35982 -1.96552,-7.41174 4.96262,-14.23022 14.00155,-15.51947 3.29695,-0.47026 4.54059,-0.45687 6.68254,1.67995 z"
       id="path2633"
       sodipodi:nodetypes="cssssc" />
    <path
       style="fill:#624200;fill-opacity:1;stroke:#000000;stroke-width:8.32646;stroke-linecap:round;stroke-linejoin:round;stroke-dasharray:none;stroke-opacity:1"
       d="m 122.84445,79.738369 c 8.04553,-9.789197 18.84412,-20.097675 30.30305,-22.492535 0,4.899365 -0.65179,8.577614 -0.34759,13.502501 0.29858,4.833954 1.19627,9.880262 0.50694,14.69954 -0.41008,2.866936 -1.3964,5.83496 -2.13324,8.681769 -0.21073,0.814192 -2.09738,5.865855 -0.58179,4.471704"
       id="path2627"
       sodipodi:nodetypes="ccsssc" />
    <path
       style="fill:#624200;fill-opacity:1;stroke:#000000;stroke-width:7.99999;stroke-linecap:round;stroke-linejoin:round;stroke-dasharray:none;stroke-opacity:1"
       d="m 78.552949,63.647863 c -6.628019,1.120189 -14.543508,3.809216 -21.945762,5.904513 -10.79429,3.055436 -21.444634,2.292918 -32.401936,2.292918 -3.198036,0 1.537075,13.452317 1.800107,15.388122 0.426892,3.141758 -0.447954,8.157345 0.810048,11.006072 0.394067,0.89236 8.589284,-0.28453 9.54057,-0.40764 6.463545,-0.836368 40.480962,-11.001865 44.642667,-16.050513"
       id="path2433"
       sodipodi:nodetypes="csssscc" />
    <path
       style="fill:#ffc966;fill-opacity:1;stroke:#000000;stroke-width:7.99999;stroke-linecap:round;stroke-linejoin:round;stroke-dasharray:none;stroke-opacity:1"
       d="m 8.5469055,70.204045 c -5.231639,0.140519 -8.62021184,4.451039 -10.4406243,8.18307 -2.6936641,5.522284 -3.4144476,12.034999 1.1700704,16.8876 C 13.859017,110.71011 49.979756,87.003107 24.477859,71.768456 19.118452,68.566786 12.912419,67.917604 6.4767822,67.917604"
       id="path2435" />
    <path
       style="fill:#624200;fill-opacity:1;stroke:#000000;stroke-width:7.99999;stroke-linecap:round;stroke-linejoin:round;stroke-dasharray:none;stroke-opacity:1"
       d="m 164.65688,151.07965 c 2.81561,-2.86131 -10.47018,-37.86844 -10.47018,-41.16916 0,-2.99666 0.75028,-6.50058 -0.4455,-9.4338 -1.82554,-4.477981 -15.99402,-8.362733 -20.52583,-11.822414 -5.4771,-4.181337 -7.5306,-8.753799 -15.46535,-13.559692 -7.93475,-4.805893 -14.24582,-7.779641 -25.431258,-10.092709 -3.699569,-0.81879 -15.032638,-3.398822 -17.08254,-1.615903 -0.9846,11.396952 -0.709786,22.624417 -0.922709,33.938 -0.16245,8.631728 0.860521,17.295428 -0.270703,25.896548 -1.404976,10.68254 -12.394515,27.76976 -8.067777,31.73518 9.136118,8.37317 86.863787,1.88372 98.681847,-3.87605 z"
       id="path2623"
       sodipodi:nodetypes="cssszccaasc" />
    <path
       style="fill:none;fill-opacity:1;stroke:#000000;stroke-width:6;stroke-linecap:round;stroke-linejoin:round;stroke-dasharray:none;stroke-opacity:1"
       d="m 137.21024,26.758053 c 2.03991,1.091647 3.69119,2.387918 5.49032,3.627096 1.90214,1.310121 4.08595,2.308414 5.58033,3.879416 5.73028,6.024057 -8.74611,10.937078 -14.94089,8.04269"
       id="path4723" />
    <path
       style="fill:#9be4ff;fill-opacity:1;stroke:#000000;stroke-width:6;stroke-linecap:round;stroke-linejoin:round;stroke-dasharray:none;stroke-opacity:1"
       d="m 113.9326,51.883402 c 1.01573,-2.678895 19.89979,-2.503791 15.08715,-2.503791"
       id="path4785"
       sodipodi:nodetypes="cc" />
    <path
       style="fill:#9be4ff;fill-opacity:1;stroke:#000000;stroke-width:6;stroke-linecap:round;stroke-linejoin:round;stroke-dasharray:none;stroke-opacity:1"
       d="m 108.42545,15.454522 c 6.07424,0.449493 12.14398,2.100418 17.82106,3.185536"
       id="path4787" />
    <path
       style="fill:#9be4ff;fill-opacity:1;stroke:#000000;stroke-width:6;stroke-linecap:round;stroke-linejoin:round;stroke-dasharray:none;stroke-opacity:1"
       d="m 140.11854,17.907806 c 4.31445,-3.211665 14.31309,-7.020488 17.19102,-9.1150476"
       id="path4789" />
    <path
       style="fill:#9be4ff;fill-opacity:1;stroke:#000000;stroke-width:6.00001;stroke-linecap:round;stroke-linejoin:round;stroke-dasharray:none;stroke-opacity:1"
       d="m 117.77723,19.583874 c -0.0918,0.693014 -0.81455,1.345002 -1.22187,2.017499"
       id="path4793" />
    <path
       style="fill:#9be4ff;fill-opacity:1;stroke:#000000;stroke-width:6;stroke-linecap:round;stroke-linejoin:round;stroke-dasharray:none;stroke-opacity:1"
       d="m 147.83509,17.17599 c 0.41712,2.009814 -0.52278,1.624214 1.62009,1.892397"
       id="path4795" />
    <path
       style="fill:#2f1f00;fill-opacity:1;stroke:#000000;stroke-width:8;stroke-linecap:round;stroke-linejoin:round;stroke-dasharray:none;stroke-opacity:1"
       d="m 68.688246,39.280597 c 0.926235,2.617894 3.29067,5.013468 7.830467,5.172553 12.638634,0.442887 10.935137,-16.10024 13.860829,-21.226391 2.006895,-3.516315 4.938268,-6.707476 8.370498,-9.714309 11.86802,-10.3970686 55.27008,-7.911356 58.86351,-16.3061584 1.87058,-4.3699461 -7.54168,-11.0785596 -10.95806,-14.8945706 -11.24563,-12.561059 -18.80193,-14.569991 -30.61233,-20.01044 -5.46655,-2.518157 -13.58741,-4.703368 -18.147661,-5.624712 -1.014541,-0.204975 -20.778885,17.485742 -25.55091,27.830815 -6.32298,13.7073211 -2.936301,26.227165 -2.936301,42.882649 0,3.872617 0.787526,8.126519 -0.720042,11.890564 z"
       id="path4801"
       sodipodi:nodetypes="csssssasasc" />
    <path
       style="fill:#58508d;fill-opacity:1;stroke:#000000;stroke-width:4;stroke-linecap:round;stroke-linejoin:round;stroke-dasharray:none;stroke-opacity:1"
       d="m 90.171017,82.144144 c -13.265318,13.183861 1.551545,36.401876 22.147913,23.950906 2.72218,-1.64562 5.63206,-4.04331 6.61891,-6.818763 0.96074,-2.701973 1.23247,-5.91183 0,-8.580272 -1.0212,-2.21104 -3.73429,-3.882774 -5.85519,-5.341366 -7.11026,-4.889901 -14.67682,-7.876402 -22.911633,-3.210505 z"
       id="path10644" />
    <path
       style="fill:#ffa600;fill-opacity:1;stroke:#000000;stroke-width:2;stroke-linecap:round;stroke-linejoin:round;stroke-dasharray:none;stroke-opacity:1"
       d="m 93.353188,101.00938 c 0.112384,-1.929583 -0.07386,-3.864521 -0.58795,-5.749762 -0.458001,-1.932377 -0.761616,-3.897768 -0.807197,-5.866476 0.322075,-1.11954 1.634027,0.30317 2.059899,0.720913 1.105244,1.091151 1.988563,2.32262 3.026567,3.451515 0.813517,-1.389158 0.409803,-2.744568 0.621679,-4.352271 0.162594,-0.502865 0.42577,-1.298519 0.477462,-1.630675 0.874416,1.503965 3.078162,2.883083 4.207872,4.265029 0.44229,0.192963 0.0941,-1.048386 0.14314,-1.40218 -0.0596,-1.309266 -0.38012,-2.656058 0.013,-3.944257 0.62824,-0.460041 1.23975,0.865405 1.77574,1.188405 1.91928,1.987305 3.79208,4.009695 5.4195,6.170161 0.76206,0.900986 1.45391,1.852984 2.29102,2.704671 1.02091,0.657388 -1.2406,0.469853 -1.72827,0.767273 -5.24858,1.165255 -10.17253,3.484424 -15.696335,3.680564 -0.405224,0.0121 -0.811037,0.0116 -1.216162,-0.003 z"
       id="path11691"
       sodipodi:nodetypes="ccccccccccccccccc" />
  </g>
</svg>
