<?xml version="1.0" encoding="UTF-8" standalone="no"?>
<!-- Created with Inkscape (http://www.inkscape.org/) -->

<svg
   width="184.24774mm"
   height="295.07666mm"
   viewBox="0 0 184.24774 295.07666"
   version="1.1"
   id="svg5"
   inkscape:version="1.2.2 (732a01da63, 2022-12-09)"
   sodipodi:docname="Peasent 2.svg"
   xmlns:inkscape="http://www.inkscape.org/namespaces/inkscape"
   xmlns:sodipodi="http://sodipodi.sourceforge.net/DTD/sodipodi-0.dtd"
   xmlns="http://www.w3.org/2000/svg"
   xmlns:svg="http://www.w3.org/2000/svg">
  <sodipodi:namedview
     id="namedview7"
     pagecolor="#7c7c7c"
     bordercolor="#000000"
     borderopacity="0.25"
     inkscape:showpageshadow="2"
     inkscape:pageopacity="0"
     inkscape:pagecheckerboard="true"
     inkscape:deskcolor="#2c2c2c"
     inkscape:document-units="mm"
     showgrid="false"
     inkscape:lockguides="false"
     inkscape:zoom="0.52724989"
     inkscape:cx="784.25811"
     inkscape:cy="525.36759"
     inkscape:window-width="1920"
     inkscape:window-height="1017"
     inkscape:window-x="1272"
     inkscape:window-y="-8"
     inkscape:window-maximized="1"
     inkscape:current-layer="layer1" />
  <defs
     id="defs2" />
  <g
     inkscape:label="Layer 1"
     inkscape:groupmode="layer"
     id="layer1"
     transform="translate(23.607447,27.423732)">
    <path
       style="fill:#ffc966;fill-opacity:1;stroke:#000000;stroke-width:6;stroke-linecap:round;stroke-linejoin:round;stroke-dasharray:none;stroke-opacity:1"
       d="m 71.000725,67.05628 c -0.340302,-6.541696 1.209384,-15.610911 5.453418,-21.772329 8.029515,-11.657116 20.964614,-21.374744 34.809247,-24.322193 8.39515,-1.787282 20.03682,0.492323 25.2848,4.871833 3.96354,3.30762 5.07039,8.340682 6.59194,13.270317 1.60134,5.188133 2.85226,11.279582 2.70796,16.577815 -0.21173,7.774411 -2.12805,19.696309 -3.31482,27.386276 -1.4226,9.218059 -1.65623,16.285418 -8.07662,23.960571 -33.5009,41.77051 -16.89118,31.69857 -47.507769,22.69343 -4.285851,-0.99601 -9.212609,-14.21113 -12.371886,-21.26822 -1.072328,-13.735382 -2.901792,-28.43184 -3.57627,-41.3975 z"
       id="path2766"
       sodipodi:nodetypes="saasssscccs" />
    <path
       style="fill:#2b1e00;fill-opacity:1;stroke:#000000;stroke-width:7.99999;stroke-linecap:round;stroke-linejoin:round;stroke-dasharray:none;stroke-opacity:1"
       d="m 73.928279,234.00005 c -4.416121,5.77881 -23.289308,18.74418 -14.864898,27.30701 2.652729,2.69631 6.819448,2.33998 10.30832,2.21844 4.342683,-0.15129 24.287205,-3.50468 27.414156,-6.57466 2.354908,-2.312 1.568318,-8.14898 0.821677,-10.89053 -1.023556,-3.75836 -1.049388,-8.03454 -2.689127,-11.57624 -3.304265,-7.13693 -15.886649,-2.40108 -20.990128,-0.48402 z"
       id="path2754"
       sodipodi:nodetypes="csssssc" />
    <path
       style="fill:#2b1e00;fill-opacity:1;stroke:#000000;stroke-width:7.99999;stroke-linecap:round;stroke-linejoin:round;stroke-dasharray:none;stroke-opacity:1"
       d="m 115.53505,231.90261 c -0.98532,10.18734 -1.58233,22.88477 10.68181,25.24991 3.44459,0.66428 6.93536,0.005 10.38302,0.36301 4.81165,0.49966 9.61035,1.46594 13.96852,-0.88737 5.19585,-2.80565 8.36665,-12.39248 4.01494,-16.7005 -3.90087,-3.86171 -8.79735,-3.56199 -13.74443,-4.96125 -5.16172,-1.45997 -8.97587,-5.63002 -14.4914,-5.63002 -5.6135,0 -6.42822,0.49475 -10.81246,2.56622 z"
       id="path2758"
       sodipodi:nodetypes="cssssssc" />
    <path
       style="fill:#2b1e00;fill-opacity:1;stroke:#000000;stroke-width:7.99999;stroke-linecap:round;stroke-linejoin:round;stroke-dasharray:none;stroke-opacity:1"
       d="m 16.884402,74.549473 c 0.199152,9.986445 1.431733,19.89635 2.134452,29.853567 0.997112,14.12861 0.540533,28.37031 2.194775,42.46992 1.839736,15.68064 5.181304,30.9512 5.430525,46.72727 0.633429,15.56773 5.028638,59.252 5.21756,65.29455 0,0 13.983408,0.76737 13.84101,-2.44268 -0.142396,-3.21004 -5.208759,-66.1358 -5.327638,-69.69991 -0.118878,-3.5641 -5.271578,-33.06725 -6.0045,-38.09462 -0.732923,-5.02738 -5.641746,-77.150588 -5.641746,-77.150588 3.211293,-2.34002 7.094958,-3.327452 10.710291,-4.681191 3.367403,-1.260904 9.0234,-1.68026 10.790466,-4.77697 3.869097,-6.78043 2.22308,-15.939565 1.543267,-22.844341 -0.576915,-5.85963 1.555645,-21.457349 -4.76205,-24.127425 -5.505009,-2.326606 -7.086373,0.26308 -8.716285,5.096421 -2.106005,5.208543 -0.935476,8.584571 0.305222,13.360082 1.135058,4.419639 1.772522,13.291041 0.833019,17.823224 -0.400956,1.934219 -7.484682,1.570011 -9.040287,0.821163 C 27.565449,48.727007 24.688168,37.617872 24.693114,34.393681 24.821565,28.677863 25.03297,6.4959605 17.309361,4.8948866 c -4.816326,-0.459273 -6.357117,2.3993698 -7.211962,6.2966564 -2.251221,10.291243 2.475653,24.994728 3.688727,34.572941 0.121725,0.961126 1.335385,9.713068 0.749119,10.384686 -0.787762,0.90245 -7.6173742,3.338776 -9.1876129,3.290034 -2.1309222,-0.06615 -5.75494877,-4.646555 -6.51194,-6.608306 -3.4766674,-9.820649 -3.2210185,-18.453046 -7.2684146,-27.779929 -1.2709932,-2.272016 -3.6696885,-6.461315 -6.1469885,-5.272885 -9.016745,4.652902 -3.604635,21.507547 -1.259423,28.397607 3.828322,8.150089 4.965675,18.918181 10.6120889,23.343162 6.05776543,4.328496 15.0981461,0.835035 21.6290971,-0.511779"
       id="path2441"
       sodipodi:nodetypes="cssccssscssssccsccccssscccccc" />
    <path
       style="fill:#624200;fill-opacity:1;stroke:#000000;stroke-width:7.99999;stroke-linecap:round;stroke-linejoin:round;stroke-dasharray:none;stroke-opacity:1"
       d="m 138.95519,174.93061 c -6.63679,-12.366 -8.66239,-27.07377 -8.66239,-40.92817 0,-3.27625 -0.36426,-6.82945 0.31692,-10.03952 1.23006,-5.7967 4.54422,-11.17683 6.5232,-18.90967 2.76263,2.01524 6.75907,5.25162 9.00572,9.49762 8.98647,16.98375 10.22873,25.23767 8.18701,43.97995 -0.17747,1.62906 0.0259,14.09656 -1.69022,13.63322"
       id="path2635"
       sodipodi:nodetypes="csscssc" />
    <path
       style="fill:#ffc966;fill-opacity:1;stroke:#000000;stroke-width:7.99999;stroke-linecap:round;stroke-linejoin:round;stroke-dasharray:none;stroke-opacity:1"
       d="m 152.8467,173.39046 c 1.68441,2.74744 2.2554,5.40266 1.84869,8.64197 -0.81037,6.45426 -8.66551,18.67856 -15.84584,11.89342 -1.61553,-1.52663 -2.71895,-3.54487 -3.16916,-5.7328 -1.63124,-7.92751 4.11862,-15.22047 11.62028,-16.59944 2.73623,-0.50298 3.76836,-0.48865 5.54603,1.79685 z"
       id="path2633" />
    <path
       style="fill:#624200;fill-opacity:1;stroke:#000000;stroke-width:8.32645;stroke-linecap:round;stroke-linejoin:round;stroke-dasharray:none;stroke-opacity:1"
       d="m 113.60431,133.02953 c 6.67721,-12.51905 15.63926,-25.70219 25.14935,-28.76489 0,6.26562 -0.54094,10.9696 -0.28848,17.26786 0.2478,6.18197 0.99282,12.63551 0.42073,18.79871 -0.34034,3.66642 -1.15891,7.46212 -1.77044,11.1028 -0.17489,1.04124 -1.74067,7.50163 -0.48284,5.7187"
       id="path2627"
       sodipodi:nodetypes="ccsssc" />
    <path
       style="fill:#624200;fill-opacity:1;stroke:#000000;stroke-width:7.99999;stroke-linecap:round;stroke-linejoin:round;stroke-dasharray:none;stroke-opacity:1"
       d="m 75.814845,114.04025 c -5.648023,2.85298 -11.186591,5.96474 -17.329928,7.62338 -8.958482,2.41869 -17.797499,1.81508 -26.89127,1.81508 -2.654139,0 1.275662,10.64888 1.493959,12.18127 0.35429,2.48702 -0.371769,6.45737 0.672282,8.71243 0.327047,0.70639 7.128486,-0.22524 7.917985,-0.32269 5.364276,-0.66207 33.596278,-8.7091 37.050193,-12.70562"
       id="path2433" />
    <path
       style="fill:#ffc966;fill-opacity:1;stroke:#000000;stroke-width:7.99999;stroke-linecap:round;stroke-linejoin:round;stroke-dasharray:none;stroke-opacity:1"
       d="m 18.745596,120.21155 c -4.341883,0.1413 -7.154154,4.4757 -8.664965,8.22841 -2.2355469,5.55288 -2.8337452,12.10168 0.971074,16.98117 12.10256,15.52092 42.080168,-8.31744 20.915433,-23.6365 -4.447921,-3.21941 -9.598481,-3.87219 -14.939595,-3.87219"
       id="path2435" />
    <path
       style="fill:#624200;fill-opacity:1;stroke:#000000;stroke-width:7.99999;stroke-linecap:round;stroke-linejoin:round;stroke-dasharray:none;stroke-opacity:1"
       d="m 148.30561,224.26531 c 2.33676,-3.65923 -8.68949,-48.42857 -8.68949,-52.64975 0,-3.83232 0.62268,-8.31335 -0.36973,-12.06454 -1.51507,-5.72673 -13.27389,-10.6948 -17.03496,-15.11926 -4.5456,-5.34736 -8.82799,-11.57095 -12.83513,-17.341 -9.00833,-6.3774 -11.822997,-9.9491 -21.106106,-12.9072 -3.070376,-1.04712 -12.476005,-4.34663 -14.177276,-2.06652 -0.817147,14.57515 -0.589071,28.93355 -0.765782,43.40208 -0.134822,11.03881 0.71417,22.1185 -0.224664,33.11815 -1.166029,13.66152 -10.286553,35.51375 -6.695673,40.58497 7.582319,10.70815 72.090681,2.40904 81.898811,-4.95693 z"
       id="path2623"
       sodipodi:nodetypes="cssscccaasc" />
    <path
       style="fill:none;fill-opacity:1;stroke:#000000;stroke-width:6;stroke-linecap:round;stroke-linejoin:round;stroke-dasharray:none;stroke-opacity:1"
       d="m 126.56806,60.782625 c 1.69298,1.396066 3.06342,3.053821 4.55657,4.638561 1.57864,1.675466 3.39104,2.952147 4.63127,4.961245 4.75572,7.703949 -7.25864,13.987033 -12.39986,10.285505"
       id="path4723" />
    <path
       style="fill:#9be4ff;fill-opacity:1;stroke:#000000;stroke-width:6;stroke-linecap:round;stroke-linejoin:round;stroke-dasharray:none;stroke-opacity:1"
       d="m 107.2493,94.599136 c 0.84298,-3.425942 16.51539,-3.202008 12.52124,-3.202008"
       id="path4785"
       sodipodi:nodetypes="cc" />
    <path
       style="fill:#9be4ff;fill-opacity:1;stroke:#000000;stroke-width:6;stroke-linecap:round;stroke-linejoin:round;stroke-dasharray:none;stroke-opacity:1"
       d="m 101.63758,50.819244 c 5.04118,0.574839 10.07863,2.686148 14.7902,4.073866"
       id="path4787" />
    <path
       style="fill:#9be4ff;fill-opacity:1;stroke:#000000;stroke-width:6;stroke-linecap:round;stroke-linejoin:round;stroke-dasharray:none;stroke-opacity:1"
       d="m 127.94056,53.956658 c 3.58068,-4.107281 11.87883,-8.978247 14.26731,-11.656904"
       id="path4789" />
    <path
       style="fill:#9be4ff;fill-opacity:1;stroke:#000000;stroke-width:6;stroke-linecap:round;stroke-linejoin:round;stroke-dasharray:none;stroke-opacity:1"
       d="m 110.2839,55.458365 c -0.0449,0.803603 -0.39839,1.559634 -0.59759,2.339448"
       id="path4793" />
    <path
       style="fill:#9be4ff;fill-opacity:1;stroke:#000000;stroke-width:6;stroke-linecap:round;stroke-linejoin:round;stroke-dasharray:none;stroke-opacity:1"
       d="m 134.08444,51.416375 c 0.34618,2.570279 -0.43387,2.077148 1.34456,2.420117"
       id="path4795" />
    <path
       style="fill:#2f1f00;fill-opacity:1;stroke:#000000;stroke-width:6.00001;stroke-linecap:round;stroke-linejoin:round;stroke-dasharray:none;stroke-opacity:1"
       d="m 68.65857,81.289549 c 0.768708,3.347929 2.731019,6.411542 6.498723,6.614991 10.489154,0.566391 9.075375,-20.590015 11.503488,-27.145665 1.665578,-4.496887 4.098406,-8.577948 6.94691,-12.423277 C 103.45729,35.039163 139.47787,38.21805 142.46016,27.482241 144.0126,21.893675 136.20111,13.314272 133.36576,8.4341139 124.0327,-7.6297696 117.76151,-10.198922 107.95973,-17.156514 c -4.53684,-3.220381 -11.276569,-6.014968 -15.061247,-7.19324 -0.841996,-0.262136 -17.244975,22.3618823 -21.205412,35.591822 -5.247617,17.529797 -2.436918,33.540972 -2.436918,54.841068 0,4.95255 0.65359,10.392711 -0.597583,15.206413 z"
       id="path4801"
       sodipodi:nodetypes="csssssasasc" />
    <path
       style="fill:#58508d;fill-opacity:1;stroke:#000000;stroke-width:4;stroke-linecap:round;stroke-linejoin:round;stroke-dasharray:none;stroke-opacity:1"
       d="m 88.261914,133.83131 c -11.009257,13.23484 1.287671,36.54264 18.381166,24.04352 2.25921,-1.65198 4.6742,-4.05894 5.49322,-6.84513 0.79734,-2.71242 1.02286,-5.93469 0,-8.61345 -0.84752,-2.21959 -3.09919,-3.89779 -4.85939,-5.36202 -5.901,-4.90881 -12.180695,-7.90686 -19.014996,-3.22292 z"
       id="path10644" />
    <path
       style="fill:#ffa600;fill-opacity:1;stroke:#000000;stroke-width:2;stroke-linecap:round;stroke-linejoin:round;stroke-dasharray:none;stroke-opacity:1"
       d="m 90.902887,152.7695 c 0.09327,-1.93705 -0.0613,-3.87947 -0.487956,-5.772 -0.380108,-1.93985 -0.632087,-3.91284 -0.669916,-5.88916 0.267299,-1.12387 1.356125,0.30434 1.709568,0.7237 0.917273,1.09537 1.650364,2.3316 2.511832,3.46486 0.675161,-1.39453 0.340107,-2.75518 0.515949,-4.3691 0.134941,-0.50481 0.353358,-1.30354 0.396259,-1.63698 0.725702,1.50978 2.554654,2.89423 3.492229,4.28152 0.367071,0.19371 0.07807,-1.05244 0.1188,-1.4076 -0.04943,-1.31433 -0.315473,-2.66633 0.01081,-3.95951 0.521391,-0.46182 1.0289,0.86875 1.473736,1.193 1.592862,1.99499 3.147152,4.0252 4.497792,6.19402 0.63245,0.90447 1.20664,1.86015 1.90138,2.71513 0.84728,0.65993 -1.02961,0.47167 -1.43434,0.77024 -4.35594,1.16976 -8.442463,3.4979 -13.026821,3.69479 -0.336306,0.0122 -0.673102,0.0116 -1.009326,-0.003 z"
       id="path11691"
       sodipodi:nodetypes="ccccccccccccccccc" />
  </g>
</svg>
