<?xml version="1.0" encoding="UTF-8" standalone="no"?>
<!-- Created with Inkscape (http://www.inkscape.org/) -->

<svg
   width="112.45782mm"
   height="35.565254mm"
   viewBox="0 0 112.45782 35.565254"
   version="1.1"
   id="svg5"
   xml:space="preserve"
   xmlns="http://www.w3.org/2000/svg"
   xmlns:svg="http://www.w3.org/2000/svg"><defs
     id="defs2" /><g
     id="layer2"
     transform="translate(-5.9971544,-150.26733)"><path
       style="fill:#ff6361;fill-opacity:1;stroke:#000000;stroke-width:4.99999;stroke-linecap:round;stroke-linejoin:round;stroke-dasharray:none"
       d="m 62.561236,153.78856 c 5.074496,-1.41592 11.255756,0.70585 16.199422,1.69014 2.628298,0.52331 5.480786,0.66326 8.156717,1.00321 4.52649,0.57506 9.160513,0.59693 13.710695,0.69505 2.77826,0.0599 16.00959,-1.65432 15.30941,4.4667 -0.3914,3.42166 -8.6464,6.22805 -11.24691,7.06063 -5.754215,1.8423 -11.499194,3.66293 -17.326336,5.27493 -2.959052,0.81857 -6.040544,1.02814 -9.00847,1.74564 -1.93622,0.46808 -4.278195,1.01945 -5.943086,2.18261 -2.388152,1.66846 -10.167292,5.73499 -15.367548,5.08315"
       id="path11396" /><path
       style="fill:#562120;fill-opacity:1;stroke:#000000;stroke-width:4.99999;stroke-linecap:round;stroke-linejoin:round;stroke-dasharray:none"
       d="m 52.1161,168.86832 c -0.125955,5.10101 -0.69969,11.7069 5.292508,14.40329 0.737002,0.33163 4.339929,-2.32292 4.785442,-2.9377 5.483429,-7.56684 0.512441,-18.19042 0.05742,-26.5534"
       id="path9783" /><path
       style="fill:#fefdfd;fill-opacity:1;stroke:#000000;stroke-width:4.99999;stroke-linecap:round;stroke-linejoin:round;stroke-dasharray:none"
       d="m 49.357631,154.84465 c -2.009785,0.63521 -2.281889,3.04788 -2.736789,4.90486 -1.654259,6.75292 7.346968,11.98183 12.490155,7.31575 1.072733,-0.97322 2.400651,-2.41309 3.184997,-3.63996 1.755848,-2.74648 1.436749,-8.2462 -1.8175,-9.79577 -2.776336,-1.32199 -8.39647,0.0935 -11.120863,1.21512 z"
       id="path9781" /><path
       style="fill:#58508d;fill-opacity:1;stroke:#000000;stroke-width:4;stroke-linecap:round;stroke-linejoin:round;stroke-dasharray:none"
       d="m 52.762898,152.74996 c -10.494904,-0.88326 -21.036497,-0.3269 -31.538791,-0.081 -3.83851,0.0899 -7.489994,-0.0712 -11.126398,1.47174 -0.4148767,0.17604 -2.3919695,2.69785 -2.0619048,3.00804 5.2052318,4.8917 13.1908038,1.76894 19.7248848,2.56495 2.944104,0.35865 5.963275,0.043 8.936819,0.10709 4.921473,0.10613 12.796842,1.27339 17.391896,-0.96577 1.185517,-0.5777 1.379072,-1.11102 1.478061,-2.39301 0.275285,-3.56521 -1.085923,-3.03268 -2.804566,-3.71205 z"
       id="path9793" /></g></svg>
