<?xml version="1.0" encoding="UTF-8" standalone="no"?>
<!-- Created with Inkscape (http://www.inkscape.org/) -->

<svg
   width="210mm"
   height="297mm"
   viewBox="0 0 210 297"
   version="1.1"
   id="svg5"
   inkscape:version="1.2.2 (732a01da63, 2022-12-09)"
   sodipodi:docname="Active_Warlock.svg"
   xmlns:inkscape="http://www.inkscape.org/namespaces/inkscape"
   xmlns:sodipodi="http://sodipodi.sourceforge.net/DTD/sodipodi-0.dtd"
   xmlns="http://www.w3.org/2000/svg"
   xmlns:svg="http://www.w3.org/2000/svg">
  <sodipodi:namedview
     id="namedview7"
     pagecolor="#7c7c7c"
     bordercolor="#000000"
     borderopacity="0.25"
     inkscape:showpageshadow="2"
     inkscape:pageopacity="0"
     inkscape:pagecheckerboard="true"
     inkscape:deskcolor="#2c2c2c"
     inkscape:document-units="mm"
     showgrid="false"
     inkscape:lockguides="false"
     inkscape:zoom="1.0544998"
     inkscape:cx="404.93133"
     inkscape:cy="487.90906"
     inkscape:window-width="958"
     inkscape:window-height="1008"
     inkscape:window-x="2233"
     inkscape:window-y="0"
     inkscape:window-maximized="0"
     inkscape:current-layer="layer1" />
  <defs
     id="defs2" />
  <g
     inkscape:label="Layer 1"
     inkscape:groupmode="layer"
     id="layer1">
    <path
       style="fill:#ffffff;fill-opacity:1;stroke:#000000;stroke-width:0;stroke-linecap:round;stroke-linejoin:round;stroke-dasharray:none;stroke-opacity:1"
       d="m 87.623469,103.04893 c -0.02097,-0.10365 -0.07701,-0.20625 -0.06289,-0.31106 0.08651,-0.64189 0.449883,-1.27909 0.691737,-1.86638 0.245297,-0.59565 0.500536,-1.189409 0.691734,-1.804149 0.08224,-0.26444 0.118468,-0.54094 0.188654,-0.80876 0.328558,-1.25374 0.163008,-0.47817 0.503083,-1.67974 0.261694,-0.92462 0.43211,-1.87491 0.691733,-2.79955 0.05322,-0.18956 0.143108,-0.36841 0.188654,-0.559916 0.03871,-0.162745 0.03173,-0.333372 0.06288,-0.497698 0.0802,-0.423176 0.209604,-0.829445 0.314424,-1.244249 0.03091,-0.122378 0.02787,-0.251984 0.06288,-0.373273 0.53603,-1.414115 -0.05621,0.245417 0.25154,-0.870972 0.37508,-1.360574 -0.144898,0.884454 0.251542,-0.684337 0.150543,-0.595731 0.24355,-1.22054 0.440194,-1.80416 0.02963,-0.08799 0.09285,-0.162014 0.12577,-0.248849 0.09746,-0.257099 0.163458,-0.547338 0.25154,-0.80876 0.08865,-0.263106 0.100009,-0.545655 0.188654,-0.808762 0.03571,-0.105939 0.103639,-0.201554 0.12577,-0.311061 0.0411,-0.203347 -0.02085,-0.415776 0,-0.622122 0.02127,-0.210433 0.114528,-0.410934 0.125771,-0.622123 0.02093,-0.393469 -0.03963,-0.789982 0,-1.182037 0.08344,-0.82547 0.06288,0.1994 0.06288,-0.622121 0,-0.409598 -0.03432,-0.836526 0,-1.24425 0.02656,-0.315199 0.119603,-0.625792 0.188654,-0.933187 0.09543,-0.424856 0.207688,-1.189284 0.565969,-1.493094 0.07117,-0.06035 0.172043,-0.07528 0.251539,-0.124425 0.08888,-0.05495 0.15211,-0.153849 0.251539,-0.186641 0.160325,-0.05286 0.33578,-0.03857 0.503079,-0.0622 1.73938,-0.245824 -0.130718,-0.04219 1.697894,-0.124425 0.168827,-0.0076 0.335387,-0.04148 0.503079,-0.06222 0.545001,-0.02075 1.090134,-0.03825 1.635012,-0.06221 1.743996,-0.07668 3.476486,-0.06396 5.219456,0.06221 0.3994,0.02891 0.79558,0.09324 1.19481,0.124425 0.39759,0.03105 0.79831,0.01982 1.19482,0.06221 0.3803,0.04068 0.75349,0.131578 1.13193,0.18664 0.90108,0.131088 1.75857,0.269918 2.64117,0.497698 0.23126,0.05968 0.4684,0.102461 0.69174,0.186637 0.63556,0.239531 1.23437,0.605256 1.82366,0.933184 0.54426,0.302871 0.90752,0.521189 1.38346,0.933188 0.68596,0.593795 1.57189,1.173797 2.01233,1.990794 0.60764,1.127143 0.76981,2.904746 0.94327,4.106016 0.0898,0.621321 0.20635,1.240337 0.25154,1.866371 0.095,1.314584 -0.0703,2.631407 -0.31441,3.919379 -0.22689,1.19706 -0.40939,2.43726 -0.75463,3.60832 -0.31525,1.06929 -0.99934,2.15484 -1.50924,3.11061 -0.30987,0.580839 -0.59462,1.148179 -1.06904,1.617529 -0.67369,0.66646 -0.42216,0.36137 -1.19482,0.87096 -0.54886,0.362 -1.03941,0.76301 -1.63501,1.05762 -0.72763,0.35993 -1.50626,0.5844 -2.26386,0.87097 -0.95227,0.3602 -1.88555,0.92054 -2.89272,1.11982 -0.26798,0.053 -0.54499,0.0415 -0.8175,0.0621 -1.30116,0.099 -2.59722,0.11094 -3.89887,0.18664 -0.961932,0.056 -1.928015,0.15733 -2.892709,0.12441 -1.312578,-0.0447 -2.594271,-0.33223 -3.898865,-0.43549 -0.524041,-0.0415 -1.047432,-0.092 -1.572126,-0.12441 -0.383449,-0.0237 -0.761922,0.0293 -1.131932,-0.0623 -0.210748,-0.0522 -0.431003,-0.22951 -0.628847,-0.31105 -0.0753,-0.031 -0.466336,-0.1524 -0.62885,-0.24885 -0.17084,-0.10141 -0.277395,-0.27665 -0.440198,-0.37328 -0.05684,-0.0338 -0.13181,-0.0285 -0.188654,-0.0623 -0.09831,-0.0584 -0.213828,-0.1825 -0.314425,-0.24886 -0.144469,-0.0952 0.02697,-0.0355 -0.12577,-0.18663 -0.02742,-0.0271 -0.271902,-0.23482 -0.314425,-0.24885 -0.03977,-0.0126 -0.08509,0.01 -0.12577,0 -0.219794,-0.0544 -0.429909,-0.27487 -0.62885,-0.37327 z"
       id="path12478" />
    <path
       style="fill:#ff6361;fill-opacity:1;stroke:#000000;stroke-width:1.89762;stroke-linecap:round;stroke-linejoin:round;stroke-dasharray:none;stroke-opacity:1"
       d="m 97.382198,119.05391 c -5.39587,10.02478 -18.279132,27.68217 -19.373402,36.96611 -1.094271,9.28394 -22.038594,18.63448 -26.524312,31.04435 -3.203389,8.86228 -8.470007,16.08834 0.826955,27.94562 5.152697,6.57171 46.477927,1.90992 59.545721,4.29565 11.17239,2.03969 19.57656,0.95621 29.64431,1.5181 20.13547,1.12379 62.21146,8.093 61.05743,-7.02527 -1.15403,-15.11827 -19.54975,-9.0753 -26.54138,-14.83028 -6.99164,-5.75497 -11.65106,-19.38731 -21.72949,-27.7757 -10.07843,-8.38841 -18.59829,-16.80482 -24.07714,-26.62935 -5.47885,-9.82453 -0.13676,-20.56552 -9.31659,-27.3251 -9.17982,-6.75958 -18.11623,-8.2089 -23.512102,1.81589 z"
       id="path11712"
       sodipodi:nodetypes="zzassszzzzzzz" />
    <path
       style="fill:#58508d;fill-opacity:1;stroke:#000000;stroke-width:2;stroke-linecap:round;stroke-linejoin:round;stroke-dasharray:none;stroke-opacity:1"
       d="m 91.180741,102.03847 c -3.520009,2.88373 -1.262145,24.23221 -1.703119,33.37275 2.766805,26.551 9.342868,15.98027 18.285718,29.55778 4.97451,7.77744 5.34755,20.08243 12.14502,28.88241 6.49971,7.96717 20.61829,3.43024 30.02112,9.18351 9.40283,5.75327 20.05187,18.6858 29.27111,19.10558 9.21924,0.41978 23.87314,-0.35262 23.87314,-0.35262 0,0 -16.27007,-4.04662 -24.14821,-8.70403 -7.87814,-4.65741 -13.64248,-13.98836 -21.36622,-20.66113 -7.72374,-6.67277 -18.09973,-0.86355 -24.7196,-7.82094 -6.61987,-6.95739 -2.53015,-20.77668 -7.4501,-29.73064 -3.19783,-5.81982 -10.77669,-8.49374 -13.71492,-14.44885 -2.15697,-4.37168 -3.39863,-9.20531 -2.29178,-14.44385 1.10685,-5.23854 7.69949,-10.81605 8.84981,-18.09171 1.15032,-7.27566 3.58282,-13.527363 -0.57538,-20.476027 -4.1582,-6.948664 -6.073,1.545525 -5.91417,9.187232 0.15883,7.641705 -17.04241,2.556807 -20.562419,5.440535 z"
       id="path11722"
       sodipodi:nodetypes="zccczzczzzaazzzzz"
       inkscape:label="Cloak" />
    <path
       id="path11732"
       style="fill:#ff6361;fill-opacity:1;stroke:#000000;stroke-width:2;stroke-linecap:round;stroke-linejoin:round;stroke-dasharray:none;stroke-opacity:1"
       d="m 90.87703,77.450615 c 4.038127,-3.043005 3.180287,-11.007998 6.329417,-15.684209 3.572243,-5.304497 8.006383,-10.606101 13.786743,-13.342166 5.46398,-2.586308 10.96724,-1.67335 18.01535,-2.084067 -4.18023,5.611073 -7.85667,7.44995 -9.59584,12.370195 -1.28277,3.629032 -0.14314,7.696831 -0.22827,11.544962 -0.0703,3.177436 -1.22128,6.548029 -0.23327,9.531787 m -0.058,-5.178083 c 3.17306,0.170588 6.34573,1.101367 9.5413,0.990018 5.23222,-0.182317 10.71274,-4.886802 15.4716,-2.704457 2.81625,1.291491 5.77768,5.055909 4.76124,7.982691 -1.94571,5.602579 -10.78863,5.280772 -16.62367,6.342365 -10.2065,1.856912 -20.74797,-0.206393 -31.12181,-0.141551 -8.794023,0.05497 -17.629542,1.338145 -26.378754,0.449783 -5.329108,-0.541098 -13.810418,1.520198 -15.684211,-3.497878 -1.289454,-3.453199 3.398029,-7.020987 6.573923,-8.892077 4.29243,-2.528901 9.849251,-1.592753 14.818644,-1.946915 4.207927,-0.299893 8.321812,0.06076 12.654935,-0.147589"
       inkscape:label="Hat"
       sodipodi:nodetypes="caacaaccaaaaaaaaac" />
    <path
       style="fill:#ffffff;fill-opacity:1;stroke:#000000;stroke-width:2.25627;stroke-linecap:round;stroke-linejoin:round;stroke-dasharray:none;stroke-opacity:1"
       d="m 95.686662,89.955966 c -1.579237,1.508618 -3.322289,2.967802 -5.224775,4.108865 -1.678586,1.00678 -3.895522,1.09749 -5.380997,2.36699 -1.642953,1.40407 -4.50839,3.5516 -3.483035,5.444819 1.549429,2.86089 6.572925,0.52158 9.83969,0.22219 2.506363,-0.22969 4.158911,-1.13959 7.389204,-1.53949"
       id="path11718"
       sodipodi:nodetypes="caaaac" />
    <path
       style="fill:#bf0300;fill-opacity:1;stroke:#000000;stroke-width:2;stroke-linecap:round;stroke-linejoin:round"
       d="m 72.151958,213.00103 c -2.823206,-0.0825 -6.026293,0.0369 -8.297758,1.71549 -1.45011,1.07163 -3.040416,2.99342 -2.601996,4.74242 0.671652,2.67944 4.291263,3.74847 6.941928,4.52597 4.414164,1.29478 9.392024,1.21716 13.800075,-0.0983 2.220018,-0.6625 5.68456,-1.45598 5.840592,-3.76748 0.14632,-2.16763 -3.030554,-3.22413 -4.952557,-4.237 -3.276345,-1.72659 -7.028416,-2.77291 -10.730284,-2.88112 z"
       id="path462"
       sodipodi:nodetypes="aaaaaaaa" />
    <path
       style="fill:#bf0300;fill-opacity:1;stroke:#000000;stroke-width:2;stroke-linecap:round;stroke-linejoin:round"
       d="m 119.98335,215.49417 c -2.31746,0.3579 -5.28298,0.94073 -6.34918,3.02926 -0.81304,1.59263 -0.33295,4.05035 0.96884,5.27626 2.18741,2.05991 5.94378,1.01574 8.94744,1.09324 3.33506,0.0861 6.98219,0.75577 9.98401,-0.69994 1.68806,-0.81862 4.10335,-2.31592 3.78561,-4.1649 -0.34091,-1.98381 -3.407,-2.23135 -5.32041,-2.85633 -3.8444,-1.25571 -8.01941,-2.29487 -12.01631,-1.67759 z"
       id="path464"
       sodipodi:nodetypes="aaaaaaaa" />
    <path
       style="color:#000000;fill:#000000;stroke-width:1.59688;stroke-linecap:round;stroke-linejoin:round;-inkscape-stroke:none"
       d="m 100.50959,88.220649 c -0.608253,0.336194 -1.415885,1.05745 -1.180789,1.706322 0.337877,0.93257 1.948029,1.608207 2.885369,0.827411 0.81748,-0.543129 1.3153,-1.935904 0.736,-2.650969 -0.50936,-0.628756 -1.72954,-0.275769 -2.44058,0.117236 z"
       id="path2612"
       sodipodi:nodetypes="aaaaa" />
    <path
       style="color:#000000;fill:#000000;stroke-width:1.61563;stroke-linecap:round;stroke-linejoin:round;-inkscape-stroke:none"
       d="m 91.841504,87.553567 c -0.642984,-0.285865 -1.722368,-0.499585 -2.113198,0.08079 -0.561715,0.834141 -0.144859,2.53549 1.061658,2.817502 0.939101,0.329113 2.382826,-0.111255 2.620322,-1.008128 0.208831,-0.788623 -0.817143,-1.556004 -1.568782,-1.890175 z"
       id="path2612-6"
       sodipodi:nodetypes="aaaaa" />
    <path
       style="fill:#bf0300;fill-opacity:1;stroke:#000000;stroke-width:2.82034;stroke-linecap:round;stroke-linejoin:round"
       d="m 96.930445,105.59964 c 0.893415,-0.10955 1.882183,-0.37328 2.766942,-0.37328"
       id="path2865" />
  </g>
  <g
     inkscape:groupmode="layer"
     id="layer2"
     inkscape:label="Arm">
    <path
       style="fill:#ff6361;fill-opacity:1;stroke:#000000;stroke-width:1.89556;stroke-linecap:round;stroke-linejoin:round;stroke-dasharray:none;stroke-opacity:1"
       d="m 59.977097,128.27381 c -10.44268,-2.13561 -21.514443,0.0308 -32.220444,-0.13981 -3.278652,-0.0523 -6.51529,-0.52144 -9.825652,-0.23131 -2.441238,0.21396 -7.504409,0.2393 -10.6101068,0.18555 -2.039921,-0.0353 0.663143,4.49832 2.7243168,4.94484 2.061175,0.44652 4.475858,0.31392 5.796366,0.33496 2.321225,0.0369 7.358309,-0.18922 9.719651,-0.47851 5.810951,-0.71187 11.545842,-0.57338 17.355296,-1.21787 3.022422,-0.33531 5.895867,0.75341 8.896247,0.49045 2.2884,-0.20057 4.163414,0.007 6.432825,0.0112 1.145318,0.002 3.057066,-0.58899 3.898167,-0.47756 1.274857,0.16891 -1.404032,-2.31808 -2.166666,-3.42193 z"
       id="path11692"
       sodipodi:nodetypes="cssssssssssc" />
    <path
       style="fill:#ffffff;fill-opacity:1;stroke:#000000;stroke-width:2;stroke-linecap:round;stroke-linejoin:round;stroke-dasharray:none;stroke-opacity:1"
       d="m 67.813829,126.62879 c -2.661092,0.15565 -5.284388,-0.11918 -7.932923,0 -2.153772,0.0969 -4.581041,0.15826 -6.588363,1.00838 -0.436055,0.18468 -1.265653,0.39767 -1.568656,0.80671 -1.663055,2.24503 0.03454,8.51802 2.375394,9.92248 3.281873,1.96905 8.410853,-0.11189 10.801326,-2.62179 1.276194,-1.33995 3.585504,-1.67556 3.585504,-3.91253 z"
       id="path11684"
       sodipodi:nodetypes="cssssscc" />
    <path
       style="fill:#ff6361;fill-opacity:1;stroke:#000000;stroke-width:1.73729;stroke-linecap:round;stroke-linejoin:round;stroke-dasharray:none;stroke-opacity:1"
       d="m 116.59346,122.92619 c -8.30457,-1.17847 -16.610704,1.01691 -24.900139,1.58524 -4.595676,0.31509 -9.225529,0.63988 -13.82595,0.36583 -4.831909,-0.28784 -14.29292,-2.84112 -13.624605,7.6824 0.241245,3.79872 0.605786,7.5598 0.771838,11.3813 0.119598,2.75245 -0.339146,5.54804 -0.100675,8.29211 0.07142,0.8218 -0.07432,4.51188 0.805395,4.51188 2.817786,0 4.913714,-3.86555 6.84586,-6.05649 1.747979,-1.98211 3.553637,-3.91936 5.738442,-4.959 1.382802,-0.65801 3.032084,-0.72882 4.463231,-1.21943 3.681233,-1.26196 7.355743,-2.53215 11.107744,-3.37374 2.201283,-0.49377 4.4353,-0.74718 6.644509,-1.17879 2.79494,-0.54602 5.55872,-1.4022 8.35598,-1.91043 1.31809,-0.23948 2.62995,-0.46167 3.95986,-0.56906 2.40447,-0.19417 4.75843,0.0838 6.84585,-1.66656 1.0162,-0.85213 1.6254,-1.96107 2.2484,-3.3331 1.37836,-3.03554 0.67259,-5.63625 -1.24165,-7.72302 -0.99919,-1.08926 -2.92541,-1.25527 -4.09409,-1.82914 z"
       id="path11682" />
  </g>
</svg>
