<?xml version="1.0" encoding="UTF-8" standalone="no"?>
<!-- Created with Inkscape (http://www.inkscape.org/) -->

<svg
   width="210mm"
   height="297mm"
   viewBox="0 0 210 297"
   version="1.1"
   id="svg5"
   inkscape:version="1.2.2 (732a01da63, 2022-12-09)"
   sodipodi:docname="Librarian.svg"
   xmlns:inkscape="http://www.inkscape.org/namespaces/inkscape"
   xmlns:sodipodi="http://sodipodi.sourceforge.net/DTD/sodipodi-0.dtd"
   xmlns="http://www.w3.org/2000/svg"
   xmlns:svg="http://www.w3.org/2000/svg">
  <sodipodi:namedview
     id="namedview7"
     pagecolor="#7c7c7c"
     bordercolor="#000000"
     borderopacity="0.25"
     inkscape:showpageshadow="2"
     inkscape:pageopacity="0"
     inkscape:pagecheckerboard="true"
     inkscape:deskcolor="#2c2c2c"
     inkscape:document-units="mm"
     showgrid="false"
     inkscape:lockguides="false"
     inkscape:zoom="2.9825758"
     inkscape:cx="339.80696"
     inkscape:cy="259.50724"
     inkscape:window-width="1409"
     inkscape:window-height="1017"
     inkscape:window-x="1280"
     inkscape:window-y="0"
     inkscape:window-maximized="0"
     inkscape:current-layer="layer1" />
  <defs
     id="defs2">
    <inkscape:path-effect
       effect="fill_between_many"
       method="originald"
       linkedpaths="#path20006,0,1|"
       id="path-effect20750" />
    <inkscape:path-effect
       effect="fill_between_many"
       method="originald"
       linkedpaths="#path20006,0,1|"
       id="path-effect20754" />
    <inkscape:path-effect
       effect="fill_between_many"
       method="originald"
       linkedpaths="#path20762,0,1|#path20760,0,1|#path20006,0,1|"
       id="path-effect20764"
       join="true"
       close="true"
       autoreverse="true" />
  </defs>
  <g
     inkscape:label="Layer 1"
     inkscape:groupmode="layer"
     id="layer1">
    <path
       style="fill:#0074ab;fill-opacity:1;stroke:#000000;stroke-width:2;stroke-linecap:round;stroke-linejoin:round;stroke-dasharray:none"
       d="m 12.438583,141.13389 c 2.062651,-7.8867 5.29613,-15.43159 10.077949,-22.07554 2.566513,-3.56596 5.064627,-7.36127 8.398292,-10.26769 6.626603,-5.77735 17.604414,-12.777621 26.87453,-11.494117 0.875538,0.121224 1.768814,0.513024 2.598717,0.7986 2.568754,0.883917 3.796442,1.866341 3.929766,4.706027 0.165214,3.51888 -2.404896,6.98283 -4.722056,9.44057 -1.252916,1.32894 -2.718086,2.44801 -3.866385,3.87891 -1.996197,2.48747 -3.638021,5.2558 -5.641115,7.72929 -1.230688,1.5197 -2.692731,2.79686 -3.99315,4.24969 -6.339586,7.08256 -10.541918,12.37213 -19.870674,15.60119 -1.423689,0.49279 -2.881192,0.99566 -4.405142,1.05529 -1.213673,0.0475 -2.252465,-0.42416 -3.4227,-0.57043 -0.744915,-0.0931 -1.555972,-0.0876 -2.2818,-0.31373 -0.829935,-0.25855 -1.611754,-0.8363 -2.186724,-1.48312 -0.160794,-0.18088 -0.140542,-0.49045 -0.348609,-0.62747 -0.362486,-0.2387 -0.7606,-0.41831 -1.140899,-0.62747 z"
       id="path26722"
       inkscape:label="Right arm" />
    <path
       style="fill:#0074ab;fill-opacity:1;stroke:#000000;stroke-width:2;stroke-linecap:round;stroke-linejoin:round"
       d="m 88.798962,85.693267 c -7.803976,-0.192824 -15.854914,1.238015 -23.073458,4.306233 -9.031996,4.550023 -16.607628,11.83808 -22.508363,19.97268 -6.857969,11.41035 -7.589589,25.49533 -6.10821,38.43439 1.119111,11.37457 5.067397,23.01528 14.174511,30.49532 13.318958,12.26384 31.732399,16.91377 49.437318,17.35047 14.38117,1.33386 29.07163,-1.13898 42.54974,-6.20753 7.53497,-2.9496 15.26532,-6.11058 20.77671,-12.31062 8.41606,-8.63166 18.39559,-18.0219 18.88098,-30.94645 0.32188,-11.98233 0.48399,-25.09437 -6.03976,-35.668 -3.5802,-5.99746 -11.95005,-11.674496 -17.64277,-15.046074 -10.03285,-6.577738 -19.50669,-9.233468 -31.77931,-9.247708 -9.95254,-0.167008 -19.96635,-0.531017 -29.815126,1.196459 -3.135966,0.331701 -5.94649,-1.466982 -8.852262,-2.32917 z"
       id="path19928"
       sodipodi:nodetypes="ssssssssssssss"
       inkscape:label="Body" />
    <path
       style="fill:#ffffff;fill-opacity:1;stroke:#000000;stroke-width:2;stroke-linecap:round;stroke-linejoin:round"
       d="m 90.129031,81.612903 c -2.495008,-2.23358 -3.930015,-5.581699 -4.836235,-8.805471 -1.342514,-4.775834 -1.830871,-10.04122 -0.681615,-14.867207 0.678244,-2.8481 1.890988,-6.007128 4.313692,-7.650964 2.620449,-1.778008 6.258691,-1.007129 9.41382,-1.277741 2.010337,-0.172425 4.035217,-0.342148 6.049187,-0.219157 3.83519,0.234212 7.75303,0.556458 11.38307,1.815979 3.22012,1.117289 6.88156,2.261821 8.92535,4.98953 2.65615,3.544978 3.1901,8.530036 2.96512,12.953989 -0.2039,4.0094 -1.08029,8.514598 -3.8644,11.406934 -2.55505,2.654373 -6.70568,3.257494 -10.32565,3.942927 -5.6998,1.079244 -11.70702,1.267376 -17.402436,0.165254 -2.103279,-0.407006 -4.343758,-1.025173 -5.939903,-2.454073 z"
       id="path20036"
       inkscape:label="face"
       sodipodi:nodetypes="aaaaaaaaaaaaa" />
    <path
       style="fill:#58508d;stroke:#000000;stroke-width:2;stroke-linecap:round;stroke-linejoin:round;fill-opacity:1"
       d="m 83.062158,99.366939 c -0.658431,1.222161 -1.626542,2.525761 -1.927206,3.912521 -0.90673,4.18212 -0.620599,8.27474 0,12.46362 0.913873,6.1684 3.227736,12.53889 10.66687,11.37455 2.402999,-0.3761 4.417787,-1.53847 6.498725,-2.66213 3.726083,-2.012 7.535533,-4.59438 10.173863,-7.98639 1.74313,-2.24108 3.00263,-4.71891 4.61633,-7.01834 1.62368,-2.31366 3.34853,-4.60485 5.06453,-6.85701 3.64027,-4.77766 8.63992,-8.188361 11.6977,-13.47199 2.37641,-4.106283 2.47983,-7.54076 2.82358,-12.181266 0.12999,-1.754783 1.07031,-5.813094 -0.44819,-7.179685 -0.28145,-0.253299 -0.0456,-1.614109 -0.40336,-1.936094 -0.31694,-0.285229 -0.16923,-2.492629 -0.2241,-2.904144 -0.24884,-1.866233 -0.56442,-4.044682 -1.74793,-5.566272 -0.69289,-0.890825 -2.40358,-1.008382 -3.40623,-1.008382 -5.73196,0 -6.79097,3.614168 -7.88811,8.551084 -0.30126,1.355656 -0.51799,4.237069 -1.74793,5.122585 -2.76321,1.989439 -8.07218,1.551395 -11.24951,1.250394 -2.78126,-0.263477 -11.898281,0.516739 -14.342012,1.855425 -1.380564,0.75628 -2.418522,2.075042 -3.540684,3.146155 -4.199585,4.008538 -3.175992,6.471526 -2.1513,11.69724 0.690982,3.675414 -0.353014,5.45041 -2.465036,9.398129 z"
       id="path19986"
       sodipodi:nodetypes="cssssssssssssssssssscc"
       inkscape:label="Beard" />
    <path
       style="fill:#ffffff;stroke:#000000;stroke-width:2;stroke-linecap:round;stroke-linejoin:round;fill-opacity:1"
       d="m 102.55641,65.134259 c -1.57149,-1.648592 -5.458667,-1.803471 -7.035552,-0.08556 -0.584793,0.637091 -0.866743,1.70915 -1.125056,2.50988 -0.979477,3.036263 -0.983559,6.692307 2.804713,7.558164 1.881936,0.430141 3.930055,-0.607046 5.561885,-1.426067 0.46846,-0.235119 0.87806,-0.251613 0.7606,-0.727297"
       id="path19988"
       inkscape:label="nose" />
    <path
       style="color:#000000;fill:#000000;stroke-linecap:round;stroke-linejoin:round;-inkscape-stroke:none"
       d="m 90.826172,60.253906 c -0.765433,-0.0029 -1.676838,0.121787 -2.190393,0.689375 -0.483916,0.534831 -0.574107,1.409671 -0.440559,2.118461 0.136836,0.72624 0.507478,1.629276 1.210371,1.85751 0.856112,0.277986 1.903718,-0.310719 2.522108,-0.964782 0.443837,-0.46944 0.642947,-1.202284 0.589948,-1.846144 -0.04817,-0.585163 -0.356063,-1.187179 -0.803309,-1.567582 -0.236985,-0.201566 -0.577056,-0.285676 -0.888166,-0.286838 z"
       id="path19992"
       sodipodi:nodetypes="aaaaaaaaaa" />
    <path
       style="color:#000000;fill:#000000;stroke-linecap:round;stroke-linejoin:round;-inkscape-stroke:none"
       d="m 109.02751,64.083142 c 0.69011,0.331122 1.56683,0.609644 2.27428,0.317375 0.66662,-0.2754 1.12353,-1.026873 1.30709,-1.724377 0.18808,-0.714694 0.24086,-1.689405 -0.29606,-2.197204 -0.65396,-0.6185 -1.85284,-0.536364 -2.69209,-0.210942 -0.60236,0.233527 -1.09671,0.810003 -1.32516,1.4143 -0.20759,0.549214 -0.18788,1.225104 0.0528,1.760627 0.12755,0.283772 0.39861,0.505687 0.67912,0.640251 z"
       id="path19992-3"
       sodipodi:nodetypes="aaaaaaaaaa" />
    <path
       style="fill:#ffffff;fill-opacity:1;stroke:#000000;stroke-width:2;stroke-linecap:round;stroke-linejoin:round"
       d="m 96.725363,80.792652 c 1.278644,-0.276235 2.589604,-0.250909 3.889087,-0.250909"
       id="path20774"
       inkscape:label="Mouth" />
    <g
       id="g20772"
       inkscape:label="hat">
      <path
         d="m 134.38355,38.07745 c 8.99419,1.036704 24.58152,1.707386 33.54773,2.916777 5.76005,0.28492 12.47286,2.175313 14.75244,8.095443 1.35969,5.445407 -5.90657,7.18292 -9.98719,7.573024 -7.49649,1.587189 -21.58044,0.805927 -29.16364,0.860479 -7.59699,-0.304581 -15.1942,-0.152223 -22.78283,-0.674297 -9.23592,0.421491 -18.45145,-0.757244 -27.674681,-0.536029 C 81.018115,57.004508 68.914383,57.72966 56.841343,57.16081 50.444309,56.930712 42.93798,55.419645 39.426219,49.474162 c -1.822997,-5.091951 4.836233,-7.136183 8.54372,-8.279782 9.072656,-2.635423 18.593132,-2.865646 27.924718,-3.935329 4.138225,-0.299329 8.284484,-0.467546 12.427205,-0.689798 l -2.095096,3.271757 c 3.50288,-5.177157 5.315175,-11.434389 5.996143,-17.640174 0.247339,-2.254042 1.367303,-4.317261 2.621899,-6.231806 0.564814,-0.861922 1.370989,-1.504742 2.016845,-2.299113 5.274927,-6.4878988 11.195777,-7.652883 19.316897,-7.8452179 2.15675,-0.051079 4.38903,-0.2699512 6.54354,-0.040335 1.43759,0.1532112 2.8625,0.4310946 4.3026,0.584862 0.8716,0.093065 1.82705,0.1085548 2.68913,0.3025148 2.65941,0.5983435 6.98409,2.0651189 9.09821,3.8318541 1.48008,1.236877 2.5585,2.740269 3.60791,4.336047 1.28727,1.957447 2.43894,4.077131 3.04768,6.352811 0.23323,0.871892 0.38085,1.732192 0.42578,2.621795 0.0257,0.508447 0.11205,0.88207 0.11205,0.847042 0,-0.04681 -1.78908,-1.010023 -2.42022,-1.331065 -0.86972,-0.442406 -1.62684,-0.991084 -2.46503,-1.452072 -1.86115,-1.02359 -3.85756,-1.847732 -5.9609,-2.198274 -1.07409,-0.179009 -2.5785,-0.296387 -3.65273,-0.02017 -0.66047,0.16983 -1.41384,0.564695 -2.10648,0.564695 -0.0888,0 0.28412,0.02043 0.2465,0.100838 -0.0508,0.108651 -0.16433,0.174786 -0.2465,0.262179 l -2.21853,-3.388164 c 2.47177,4.430969 1.92298,9.794886 3.63032,14.500546 0.79402,2.188427 2.09116,4.179101 3.27177,6.171303 0.38451,0.648824 1.37153,2.827567 1.88239,3.287326 0.25538,0.229833 0.62111,1.250394 0.9636,1.250394 0.0686,0 -0.13368,-0.04908 -0.20168,-0.04033 z"
         id="path20766"
         style="fill:#0074ab;fill-opacity:1"
         inkscape:original-d="M 0,0"
         inkscape:path-effect="#path-effect20764"
         class="UnoptimicedTransforms"
         inkscape:label="Hat Fill" />
      <path
         style="fill:none;stroke:#000000;stroke-width:2;stroke-linecap:round;stroke-linejoin:round;fill-opacity:1"
         d="m 134.38355,38.07745 c 8.99419,1.036704 24.58152,1.707386 33.54773,2.916777 5.76005,0.28492 12.47286,2.175313 14.75244,8.095443 1.35969,5.445407 -5.90657,7.18292 -9.98719,7.573024 -7.49649,1.587189 -21.58044,0.805927 -29.16364,0.860479 -7.59699,-0.304581 -15.1942,-0.152223 -22.78283,-0.674297 -9.23592,0.421491 -18.45145,-0.757244 -27.674681,-0.536029 C 81.018115,57.004508 68.914383,57.72966 56.841343,57.16081 50.444309,56.930712 42.93798,55.419645 39.426219,49.474162 c -1.822997,-5.091951 4.836233,-7.136183 8.54372,-8.279782 9.072656,-2.635423 18.593132,-2.865646 27.924718,-3.935329 4.138225,-0.299329 8.284484,-0.467546 12.427205,-0.689798"
         id="path20762"
         class="UnoptimicedTransforms" />
      <path
         style="fill:none;stroke:#000000;stroke-width:2;stroke-linecap:round;stroke-linejoin:round;fill-opacity:1"
         d="m 86.226766,39.84101 c 3.50288,-5.177157 5.315175,-11.434389 5.996143,-17.640174 0.247339,-2.254042 1.367303,-4.317261 2.621899,-6.231806 0.564814,-0.861922 1.370989,-1.504742 2.016845,-2.299113 5.274927,-6.4878988 11.195777,-7.652883 19.316897,-7.8452179 2.15675,-0.051079 4.38903,-0.2699512 6.54354,-0.040335 1.43759,0.1532112 2.8625,0.4310946 4.3026,0.584862 0.8716,0.093065 1.82705,0.1085548 2.68913,0.3025148 2.65941,0.5983435 6.98409,2.0651189 9.09821,3.8318541 1.48008,1.236877 2.5585,2.740269 3.60791,4.336047 1.28727,1.957447 2.43894,4.077131 3.04768,6.352811 0.23323,0.871892 0.38085,1.732192 0.42578,2.621795 0.0257,0.508447 0.11205,0.88207 0.11205,0.847042 0,-0.04681 -1.78908,-1.010023 -2.42022,-1.331065 -0.86972,-0.442406 -1.62684,-0.991084 -2.46503,-1.452072 -1.86115,-1.02359 -3.85756,-1.847732 -5.9609,-2.198274 -1.07409,-0.179009 -2.5785,-0.296387 -3.65273,-0.02017 -0.66047,0.16983 -1.41384,0.564695 -2.10648,0.564695 -0.0888,0 0.28412,0.02043 0.2465,0.100838 -0.0508,0.108651 -0.16433,0.174786 -0.2465,0.262179"
         id="path20760"
         class="UnoptimicedTransforms" />
      <path
         style="fill:none;stroke:#000000;stroke-width:2;stroke-linecap:round;stroke-linejoin:round;fill-opacity:1"
         d="m 127.18156,17.199257 c 2.47177,4.430969 1.92298,9.794886 3.63032,14.500546 0.79402,2.188427 2.09116,4.179101 3.27177,6.171303 0.38451,0.648824 1.37153,2.827567 1.88239,3.287326 0.25538,0.229833 0.62111,1.250394 0.9636,1.250394 0.0686,0 -0.13368,-0.04908 -0.20168,-0.04033"
         id="path20006"
         class="UnoptimicedTransforms" />
    </g>
    <g
       id="g25638"
       inkscape:label="Pouch"
       transform="translate(13.549078,-2.0072709)">
      <path
         style="fill:#58508d;fill-opacity:1;stroke:#000000;stroke-width:2;stroke-linecap:round;stroke-linejoin:round;stroke-dasharray:none"
         d="m 21.076958,123.41291 c -0.804388,-0.22327 -6.0392,0.0164 -8.8408,0.98791 -2.8505813,0.98853 -5.8666557,2.3732 -7.6864214,4.77974 -3.77979473,4.99858 -5.7635676,11.82439 -5.20300262,18.06606 0.6135074,6.83116 3.52781462,14.47925 9.12636372,18.44124 4.9676033,3.51548 12.4558023,4.4076 18.1247393,2.19428 6.696673,-2.61459 14.017843,-11.82404 13.990193,-16.41366"
         id="path24890"
         sodipodi:nodetypes="caaaaac"
         inkscape:label="Butt" />
      <path
         style="fill:#2e2b4a;fill-opacity:1;stroke:#000000;stroke-width:2;stroke-linecap:round;stroke-linejoin:round;stroke-dasharray:none"
         d="m 38.186231,153.70444 c 0.672239,1.068 -1.962372,1.59423 -2.674966,2.61848 -0.497158,0.71459 -0.896765,1.53068 -1.064011,2.38499 -0.648029,3.31017 2.014225,7.20785 2.019177,9.18209 -0.522076,0.57975 -3.886947,1.05456 -3.886947,1.05456 0,0 -1.800735,-3.55927 -2.066988,-5.71914 -0.155985,-1.26538 -0.444348,-4.60104 -0.444348,-4.60104 0,0 -0.514807,2.99753 -1.041147,4.51664 -0.688215,1.98632 -1.13356,3.53762 -1.613326,5.5843 -0.568351,2.42459 -0.926681,4.67483 -0.926681,4.67483 l -4.053465,1.95779 c 0,0 0.67066,-5.94652 1.272375,-8.93264 0.601716,-2.98612 2.140572,-6.61263 2.344183,-8.95713 -0.05376,-0.28664 -1.502828,-1.91426 -2.752791,-2.69958 -3.219255,-2.02255 -3.982515,-3.92923 -5.389706,-6.38066 -1.818444,-3.16787 -2.706177,-6.93438 -2.835848,-10.58477 -0.112073,-3.15501 0.306595,-6.51547 1.795708,-9.29921 0.810831,-1.51576 1.909089,-2.66286 3.66928,-3.6237 l 16.100367,1.53104 z"
         id="path24904"
         sodipodi:nodetypes="ccccssccccczcccaaccc"
         inkscape:label="Tie" />
      <path
         style="fill:#1b182a;fill-opacity:1;stroke:#000000;stroke-width:2;stroke-linecap:round;stroke-linejoin:round;stroke-dasharray:none"
         d="m 29.71774,158.52419 c -0.58021,-0.15045 -1.188093,-0.0937 -1.774192,-0.17742 -0.299861,-0.0428 -0.07688,-0.0828 -0.266129,-0.17742 -0.401867,-0.20093 -0.841989,-0.33228 -1.241935,-0.53226 -0.162913,-0.0814 -0.299078,-0.24648 -0.443549,-0.35483 -0.105792,-0.0794 -0.281485,-0.0674 -0.354838,-0.17742 -0.0485,-0.0727 -0.267937,-1.19487 -0.17742,-1.33065 0.03111,-0.0467 1.416182,-0.99679 1.596773,-1.06451 0.427143,-0.16018 0.890712,-0.13343 1.330645,-0.17742 0.446143,-0.0446 0.895488,-0.1049 1.330645,-0.17742 0.659567,-0.10993 1.46367,0 2.129034,0 0.39243,0 2.27149,-0.12367 2.57258,0.17742 0.04676,0.0468 0.05469,0.12072 0.08871,0.17742 0.477515,0.79585 0.418883,1.12617 0.08871,1.95161 -0.02957,0.11828 -0.05914,0.23656 -0.08871,0.35484 -0.02957,0.0296 -0.07001,0.0513 -0.08871,0.0887 -0.02646,0.0529 0.04182,0.1356 0,0.17742 -0.0382,0.0382 -0.530259,0.29004 -0.620966,0.35483 -0.221843,0.15846 -0.394134,0.38104 -0.620969,0.53226 -0.155607,0.10374 -0.348875,0.14075 -0.532257,0.17742 -0.690949,0.13819 -1.421183,0.0887 -2.129034,0.0887 -0.267766,0 -0.53966,0.1577 -0.798388,0.0887 -0.904962,-0.50276 -0.503033,-0.36971 -1.153223,-0.53226"
         id="path25768"
         inkscape:label="knot" />
      <path
         style="fill:#1b182a;fill-opacity:1;stroke:#000000;stroke-width:2;stroke-linecap:round;stroke-linejoin:round;stroke-dasharray:none"
         d="m 31.669355,154.88709 c -0.300138,0.7697 -1.202857,0.92892 -1.685484,1.50807 -0.152619,0.18314 -0.226848,0.41984 -0.35484,0.62097 -0.123989,0.19484 -0.328965,0.33174 -0.443548,0.53225 -0.868061,1.51911 0.346808,-0.34279 -0.354838,0.70968"
         id="path25770" />
      <path
         style="fill:#58508d;fill-opacity:1;stroke:#000000;stroke-width:2;stroke-linecap:round;stroke-linejoin:round;stroke-dasharray:none"
         d="m 19.276922,129.13194 c -1.362662,-5.95222 0.939665,-6.30096 2.138466,-7.29211 2.195116,-1.81489 4.628247,-0.85171 6.428591,-1.72929 1.800344,-0.87758 3.40163,-4.17495 4.98334,-3.95354 1.073321,0.15025 4.541477,4.13668 5.498538,4.66673 1.293062,0.71612 4.499601,-0.55383 5.440314,0.55195 1.080217,1.26975 0.0695,4.0897 0.610223,5.67125 0.763315,2.23261 2.445182,3.12335 2.417829,5.41292 -0.03091,2.58686 -2.49077,5.34916 -2.915848,8.23339 -0.425078,2.88423 1.184632,5.89039 0.06707,8.2553 -2.185716,4.62527 -2.415458,2.23708 -7.086656,4.3569 -2.518109,1.14274 -6.427789,2.06455 -7.233874,1.8144 -1.748541,-0.54263 -3.010606,-2.72069 -4.341714,-3.98911 -1.076298,-1.02561 -4.940612,-1.01663 -5.53062,-2.3441 -0.508739,-1.14461 -0.555653,-5.07255 -0.995292,-6.23491 -1.086632,-2.87295 -3.29213,-5.91855 -3.633945,-6.2262 -0.242981,-0.21867 -0.158763,-9.12825 4.153576,-7.19358 z"
         id="path24896"
         sodipodi:nodetypes="csssssssssssssssc"
         inkscape:label="Frill" />
      <path
         style="fill:#1b182a;fill-opacity:1;stroke:#000000;stroke-width:2;stroke-linecap:round;stroke-linejoin:round;stroke-dasharray:none"
         d="m 29.580263,123.92662 c 3.43943,0.61104 4.505222,1.93256 6.289498,4.46478 1.784276,2.53222 2.993065,6.0584 3.12741,9.77023 0.134345,3.71183 -1.545283,9.1246 -4.550456,10.53207 -3.005173,1.40747 -3.655733,1.94788 -6.745633,0.34632 -3.0899,-1.60156 -7.042295,-7.09834 -7.180443,-10.49217 -0.138148,-3.39383 -0.494304,-4.10633 0.861337,-7.79227 1.355641,-3.68593 4.758857,-7.44 8.198287,-6.82896 z"
         id="path24906"
         sodipodi:nodetypes="zzzzzzzz"
         inkscape:label="Hole" />
    </g>
    <path
       style="fill:#ffffff;fill-opacity:1;stroke:#000000;stroke-width:2;stroke-linecap:round;stroke-linejoin:round;stroke-dasharray:none"
       d="m 12.344506,136.97833 c 0.585952,-0.70311 -1.328572,0.40649 -1.679659,0.54191 -1.4313636,0.55207 -2.9807844,1.74299 -3.7396148,3.10882 -0.5455815,0.98201 -1.2301765,1.9005 -1.7747349,2.88067 -1.3302,2.39427 -1.2218861,5.80116 -0.3486068,8.27119 0.5566774,1.57455 1.8021262,2.10758 2.9473246,2.90918 3.0223249,2.11555 4.5982629,3.08905 8.3665989,1.65425 1.070623,-0.40765 2.24086,-0.73548 3.074092,-1.56868 1.826373,-1.8263 0.88213,-5.30795 0.380301,-7.41556 -0.380538,-1.59819 -0.701416,-3.06714 -1.711352,-4.44933 -2.785535,-1.03314 -4.785323,-3.08935 -5.514349,-5.93245 z"
       id="path25878"
       inkscape:label="right hand" />
  </g>
  <g
     inkscape:groupmode="layer"
     id="layer3"
     inkscape:label="Feet">
    <path
       style="fill:#003f5c;stroke:#000000;stroke-width:2;stroke-linecap:round;stroke-linejoin:round;fill-opacity:1"
       d="m 37.257362,185.96685 c -1.352086,-2.16463 -5.096827,-6.38821 -2.823583,-9.15611 1.866628,-2.27281 4.665001,-2.25067 7.395099,-2.42012 2.163533,-0.13428 3.959395,0.4111 6.005719,1.00838 6.606117,1.9282 11.56785,5.88306 15.865848,11.13255 1.128511,1.37834 4.320119,4.60796 3.764777,6.857 -0.980141,3.96942 -6.993181,4.04858 -10.129043,3.87219 -3.87731,-0.21809 -7.548462,-2.21088 -10.935782,-3.95286 -3.258982,-1.67598 -7.099017,-4.39776 -9.143035,-7.34103 z"
       id="path19948" />
    <path
       style="fill:#003f5c;stroke:#000000;stroke-width:2;stroke-linecap:round;stroke-linejoin:round;fill-opacity:1"
       d="m 149.84215,194.23559 c -2.64492,2.90313 -7.31814,9.48368 -2.42022,12.50395 4.39472,2.70997 12.61876,-2.66654 15.68658,-5.80829 2.92787,-2.99842 6.27754,-5.78268 8.38111,-9.47879 1.33885,-2.35247 2.21046,-4.92188 3.09249,-7.46204 0.46279,-1.33277 0.9902,-2.60745 1.03084,-4.03353 0.10522,-3.69326 -5.24397,-3.94475 -7.75365,-3.26716 -4.32864,1.16869 -7.47376,5.00474 -10.4876,8.06706 -0.63941,0.6497 -1.05653,1.48741 -1.70311,2.13778 -2.21149,2.22441 -4.81433,4.32814 -5.82644,7.34102 z"
       id="path19958" />
  </g>
  <g
     inkscape:groupmode="layer"
     id="layer4"
     inkscape:label="Arn"
     transform="rotate(12.778475,180.38304,184.18074)">
    <path
       style="fill:#0074ab;fill-opacity:1;stroke:#000000;stroke-width:2;stroke-linecap:round;stroke-linejoin:round;stroke-dasharray:none"
       d="m 121.64836,123.9567 c -0.47336,3.81326 0.62279,7.71276 1.69761,11.40191 1.6901,5.80099 3.97629,11.56343 7.37795,16.55709 2.90252,4.26092 5.87496,9.6493 10.84212,11.03036 3.94329,1.09639 8.74461,-0.44067 11.89195,-3.05713 4.16923,-3.46599 5.71886,-9.44782 6.85907,-14.74834 0.84372,-3.92222 1.16052,-8.23938 -0.13903,-12.03501 -2.78458,-8.133 -7.68039,-17.14557 -15.57023,-20.55879 -5.86083,-2.53545 -13.93153,-1.79158 -19.04971,2.02707 -2.7157,2.02617 -3.49233,6.02037 -3.90973,9.38284 z"
       id="path24475"
       sodipodi:nodetypes="aaaaaaaaaa" />
    <path
       style="fill:#ffffff;fill-opacity:1;stroke:#000000;stroke-width:2;stroke-linecap:round;stroke-linejoin:round;stroke-dasharray:none"
       d="m 137.85692,159.63358 c -0.058,0.55535 -0.16279,1.10779 -0.17415,1.66605 -0.0202,0.99335 0.51628,2.23178 0.69154,3.18117 0.57385,3.109 1.09091,6.12639 2.34533,9.05788 0.56192,1.31316 1.0193,2.70417 1.85427,3.86304 0.93026,1.29112 1.70573,2.33239 2.92234,3.30427 1.91862,1.53269 4.16899,2.29548 6.59083,2.57109 5.24375,0.59678 9.43612,-1.37595 12.22303,-5.97064 2.10433,-3.46938 1.16443,-8.85658 -0.0737,-12.49999 -0.82732,-2.43457 -3.4842,-6.88801 -5.51431,-8.46632 -2.31454,-1.79946 -7.34777,-3.23131 -10.39373,-3.24101 -0.96782,-0.003 -1.89831,0.22752 -2.84686,0.37274 -0.78703,0.12004 -1.4659,0.12809 -2.2329,0.40312 -1.3842,0.49632 -2.63849,1.72786 -3.62938,2.75943 -1.43821,1.49725 -1.75163,2.52147 -1.79576,4.48967"
       id="path24539" />
  </g>
</svg>
