<?xml version="1.0" encoding="UTF-8" standalone="no"?>
<!-- Created with Inkscape (http://www.inkscape.org/) -->

<svg
   width="210mm"
   height="297mm"
   viewBox="0 0 210 297"
   version="1.1"
   id="svg5"
   inkscape:version="1.2.2 (732a01da63, 2022-12-09)"
   xml:space="preserve"
   sodipodi:docname="Warlock.svg"
   xmlns:inkscape="http://www.inkscape.org/namespaces/inkscape"
   xmlns:sodipodi="http://sodipodi.sourceforge.net/DTD/sodipodi-0.dtd"
   xmlns="http://www.w3.org/2000/svg"
   xmlns:svg="http://www.w3.org/2000/svg"><sodipodi:namedview
     id="namedview7"
     pagecolor="#7c7c7c"
     bordercolor="#000000"
     borderopacity="0.25"
     inkscape:showpageshadow="2"
     inkscape:pageopacity="0"
     inkscape:pagecheckerboard="true"
     inkscape:deskcolor="#2c2c2c"
     inkscape:document-units="mm"
     showgrid="false"
     inkscape:lockguides="false"
     inkscape:zoom="1.4912879"
     inkscape:cx="223.63221"
     inkscape:cy="455.98171"
     inkscape:window-width="1920"
     inkscape:window-height="1017"
     inkscape:window-x="1272"
     inkscape:window-y="-8"
     inkscape:window-maximized="1"
     inkscape:current-layer="layer1" /><defs
     id="defs2" /><g
     inkscape:label="Body"
     inkscape:groupmode="layer"
     id="layer1"><path
       id="path9408"
       style="fill:#ff6361;stroke:#000000;stroke-width:7;stroke-linecap:round;stroke-linejoin:round;stroke-dasharray:none;fill-opacity:1"
       d="m 85.974258,77.814728 c -3.431915,0.133254 -11.706679,0.998808 -16.485261,1.266946 -6.628371,0.371934 -11.136673,-0.52194 -17.604994,0.972871 -6.049694,1.398069 -16.782073,2.341415 -16.550928,8.546248 0.397357,10.666609 19.044075,10.232419 29.466935,12.534117 6.825554,1.5073 13.983138,0.23608 20.958928,0.68161 8.608818,0.54983 17.204742,1.27951 25.762252,2.45619 8.75631,1.66691 17.6811,0.82141 26.51363,1.58594 6.39608,0.72409 12.75964,-0.31147 19.1487,-0.39997 6.48054,-0.0519 14.60368,0.41478 18.79007,-5.580022 3.09149,-3.877853 3.97164,-12.978575 -2.68873,-13.391947 -5.90443,0.923776 -11.77146,2.054093 -17.79478,2.167826 -6.06815,0.325402 -17.82889,-1.725873 -23.65393,-3.490199 m 0.17742,3.725806 c -1.61051,-6.431332 -1.51736,-9.222964 -0.62796,-14.140701 0.24173,-7.647566 6.21565,-13.09296 9.80043,-19.331637 4.04832,-6.567415 9.86013,-12.119539 17.02015,-15.122074 -4.62808,-2.684038 -10.11558,-4.196447 -15.50189,-4.129981 -0.35909,0.0044 -0.718,0.01552 -1.07591,0.03411 -7.83089,1.266178 -15.67236,3.051199 -23.10815,5.853389 -6.95929,3.385419 -12.75177,8.761097 -18.25263,14.103532 -5.876768,6.555649 -12.063681,18.989759 -14.293351,27.690208"
       sodipodi:nodetypes="csssaacccccccccccscccc"
       inkscape:label="Hat" /><path
       style="fill:#ffffff;fill-opacity:1;stroke:#000000;stroke-width:4.99999;stroke-linecap:round;stroke-linejoin:round;stroke-dasharray:none"
       d="m 125.70415,109.6009 c -0.52775,1.01238 -0.51385,2.0647 -0.69722,3.13735 -0.56264,3.29131 -1.30159,6.4205 -1.42612,9.78283 -0.062,1.67514 1.07295,5.95875 -0.57045,7.21591 -3.23916,2.47786 -8.69854,2.16089 -12.45483,1.39755 -0.89182,-0.18124 -2.13031,-0.7986 -3.0424,-0.7986 -0.052,0 -1.94765,-3.21392 -2.37687,-3.79334 -0.15973,-0.21563 -0.55618,0.2701 -0.79229,0.1426 -0.81239,-0.43867 -2.47729,-0.36935 -3.35932,-0.45634 -3.367038,-0.33208 -6.819049,-0.33114 -10.109642,-1.1979 -2.166819,-0.57074 -4.486109,-2.44014 -6.148184,-3.93595 -0.275529,-0.24796 -0.340148,-0.64349 -0.697217,-0.82711 -2.920529,-1.50193 -6.772809,-0.5643 -9.856107,-1.02677 -1.628598,-0.24429 -3.85335,-2.14984 -3.688829,-2.44591 2.925381,-5.26548 5.850059,-3.85017 10.439154,-7.25136 2.566866,-1.90243 3.627173,-5.43195 5.609426,-7.21591 1.561621,-1.4054 4.713123,-1.49722 6.686941,-1.79684 6.359491,-0.965384 12.163898,-1.253542 18.539628,-0.37078 3.9421,0.54581 10.05841,2.02387 12.67666,5.36202 0.79966,1.01952 0.92151,2.94239 1.26767,4.07855 z"
       id="path9801"
       sodipodi:nodetypes="cscsssssssscscsscssc"
       inkscape:label="Face" /><path
       style="fill:#ff6361;stroke:#000000;stroke-width:7;stroke-linecap:round;stroke-linejoin:round;stroke-dasharray:none;fill-opacity:1"
       d="m 122.02791,132.04722 c 2.63549,7.9855 8.46246,14.4346 13.26241,21.27552 6.05794,8.63381 12.33694,17.18492 19.55556,24.8747 7.44527,7.93122 16.14061,14.59007 24.33094,21.74932 8.27139,7.2301 24.16037,10.46384 25.05353,21.41338 0.49384,6.05408 -6.29153,11.26409 -11.75039,13.92805 -8.40533,4.10185 -18.69297,0.68823 -28.03812,1.06631 -12.45932,0.50407 -24.91122,1.19871 -37.37419,1.60277 -11.94021,0.38711 -23.89005,1.15649 -35.830819,0.78701 -8.358554,-0.25864 -17.284348,1.12554 -24.999571,-2.10055 -6.707593,-2.80475 -15.179386,-7.05161 -16.565239,-14.18869 -2.169425,-11.17243 10.608065,-20.14052 15.734612,-30.30163 5.257212,-10.4201 10.448888,-20.87595 15.405465,-31.44236 3.547724,-7.56302 3.991856,-17.34028 10.256649,-22.8664 6.083279,-5.36601 15.161573,-7.0804 23.273263,-7.11046 1.86833,-0.007 9.99355,1.37223 5.37241,1.59795"
       id="path9803"
       sodipodi:nodetypes="caaaaaaaaaaaaaac"
       inkscape:label="Body" /><path
       style="fill:#58508d;fill-opacity:1;stroke:#000000;stroke-width:5;stroke-linecap:round;stroke-linejoin:round;stroke-dasharray:none"
       d="m 107.22791,106.29242 c -3.8008,9.35147 -14.10493,12.27279 -23.416284,14.3376 -3.632616,6.01829 0.386853,16.71723 -3.834426,23.31921 -2.513271,7.7835 0.156256,15.88613 -0.115696,23.85424 0.139586,7.60009 4.231239,14.02039 7.775424,20.42228 3.562116,7.99386 10.549298,17.57098 17.708032,22.3768 10.36818,8.30072 16.46339,17.68548 29.16947,23.0378 10.3553,5.09537 20.82579,12.08075 32.8521,11.46211 10.44557,-0.0131 21.19361,1.36213 31.40783,-1.29705 3.86681,-1.86026 -7.06024,-3.51213 -9.00839,-4.55161 -8.78912,-1.30857 -17.20553,-4.05978 -25.45054,-7.32594 -15.50506,-5.37195 -31.99102,-11.78058 -41.90007,-25.63545 -4.91234,-4.99331 -9.50181,-10.41869 -11.87484,-17.13061 -5.55322,-10.52094 -14.245757,-21.12028 -12.217971,-33.81258 3.018651,-7.67387 11.499871,-15.7072 18.455741,-21.38418 8.62098,-7.24085 7.96957,-14.33104 9.08848,-22.13329 5.04243,-6.89107 -15.23926,-12.350029 -18.38581,-5.9215 -0.85778,1.31802 1.06688,-2.26068 1.14138,-2.41288"
       id="path9779"
       inkscape:label="Beard"
       sodipodi:nodetypes="cccccccccccccccccc" /><path
       style="fill:#58508d;fill-opacity:1;stroke:#000000;stroke-width:4.99999;stroke-linecap:round;stroke-linejoin:round;stroke-dasharray:none"
       d="m 72.780553,237.74054 c -3.22127,-2.17809 -15.620044,3.06595 -15.085234,6.53139 1.308806,8.48072 17.244232,4.24255 22.279242,2.25319 1.84613,-0.72942 7.6913,-2.3917 8.493365,-4.6775 0.3374,-0.96156 -2.995443,-2.28353 -3.359316,-2.3958 -3.61532,-1.11554 -7.158006,-0.31203 -10.806859,-0.48486 -0.126682,-0.006 -0.651449,-0.0307 -0.697214,-0.0856 -0.300318,-0.36036 -0.549323,-0.76057 -0.823984,-1.14085 z"
       id="path10598"
       inkscape:label="Left foot" /><path
       style="fill:#58508d;fill-opacity:1;stroke:#000000;stroke-width:4.99999;stroke-linecap:round;stroke-linejoin:round;stroke-dasharray:none"
       d="m 128.52619,237.74054 c -1.80761,-0.0885 -3.28311,0.0604 -4.88052,0.82712 -4.95589,2.37873 -3.96179,7.93616 1.36275,8.95571 3.51817,0.67366 17.4648,-1.6825 19.7439,-4.90568 0.46715,-0.66065 0.14291,-1.58145 -0.22184,-2.16762 -2.15783,-3.46781 -6.1002,-2.70953 -9.60257,-2.70953 -2.26235,0 -4.16451,0.28094 -6.40172,0 z"
       id="path10600"
       inkscape:label="Right foot" /><path
       style="fill:none;fill-opacity:1;stroke:#000000;stroke-width:2;stroke-linecap:round;stroke-linejoin:round;stroke-dasharray:none;stroke-opacity:1"
       d="m 86.786015,126.14944 c 0.858668,-0.54282 2.180466,-0.11261 2.93148,-0.68451"
       id="path10608"
       inkscape:label="Mouth" /><path
       id="path10662"
       style="stroke-width:2.11323;stroke-linecap:round;stroke-linejoin:round"
       d="m 93.506953,108.45535 a 2.5090885,2.1954524 0 0 1 -2.509089,2.19545 2.5090885,2.1954524 0 0 1 -2.509089,-2.19545 2.5090885,2.1954524 0 0 1 2.509089,-2.19545 2.5090885,2.1954524 0 0 1 2.509089,2.19545 z"
       inkscape:label="Eye" /></g><g
     inkscape:groupmode="layer"
     id="layer2"
     inkscape:label="Arm"><path
       style="fill:#ff6361;fill-opacity:1;stroke:#000000;stroke-width:4.99999;stroke-linecap:round;stroke-linejoin:round;stroke-dasharray:none"
       d="m 62.561236,153.78856 c 5.074496,-1.41592 11.255756,0.70585 16.199422,1.69014 2.628298,0.52331 5.480786,0.66326 8.156717,1.00321 4.52649,0.57506 9.160513,0.59693 13.710695,0.69505 2.77826,0.0599 16.00959,-1.65432 15.30941,4.4667 -0.3914,3.42166 -8.6464,6.22805 -11.24691,7.06063 -5.754215,1.8423 -11.499194,3.66293 -17.326336,5.27493 -2.959052,0.81857 -6.040544,1.02814 -9.00847,1.74564 -1.93622,0.46808 -4.278195,1.01945 -5.943086,2.18261 -2.388152,1.66846 -10.167292,5.73499 -15.367548,5.08315"
       id="path11396"
       inkscape:label="Arm" /><path
       style="fill:#562120;stroke:#000000;stroke-width:4.99999;stroke-linecap:round;stroke-linejoin:round;stroke-dasharray:none;fill-opacity:1"
       d="m 52.1161,168.86832 c -0.125955,5.10101 -0.69969,11.7069 5.292508,14.40329 0.737002,0.33163 4.339929,-2.32292 4.785442,-2.9377 5.483429,-7.56684 0.512441,-18.19042 0.05742,-26.5534"
       id="path9783"
       inkscape:label="Sleeve hole" /><path
       style="fill:#fefdfd;fill-opacity:1;stroke:#000000;stroke-width:4.99999;stroke-linecap:round;stroke-linejoin:round;stroke-dasharray:none"
       d="m 49.357631,154.84465 c -2.009785,0.63521 -2.281889,3.04788 -2.736789,4.90486 -1.654259,6.75292 7.346968,11.98183 12.490155,7.31575 1.072733,-0.97322 2.400651,-2.41309 3.184997,-3.63996 1.755848,-2.74648 1.436749,-8.2462 -1.8175,-9.79577 -2.776336,-1.32199 -8.39647,0.0935 -11.120863,1.21512 z"
       id="path9781"
       inkscape:label="Hand" /><path
       style="fill:#58508d;fill-opacity:1;stroke:#000000;stroke-width:4;stroke-linecap:round;stroke-linejoin:round;stroke-dasharray:none"
       d="m 52.762898,152.74996 c -10.494904,-0.88326 -21.036497,-0.3269 -31.538791,-0.081 -3.83851,0.0899 -7.489994,-0.0712 -11.126398,1.47174 -0.4148767,0.17604 -2.3919695,2.69785 -2.0619048,3.00804 5.2052318,4.8917 13.1908038,1.76894 19.7248848,2.56495 2.944104,0.35865 5.963275,0.043 8.936819,0.10709 4.921473,0.10613 12.796842,1.27339 17.391896,-0.96577 1.185517,-0.5777 1.379072,-1.11102 1.478061,-2.39301 0.275285,-3.56521 -1.085923,-3.03268 -2.804566,-3.71205 z"
       id="path9793"
       inkscape:label="Wand" /></g></svg>
