<?xml version="1.0" encoding="UTF-8" standalone="no"?>
<!-- Created with Inkscape (http://www.inkscape.org/) -->

<svg
   width="210mm"
   height="297mm"
   viewBox="0 0 210 297"
   version="1.1"
   id="svg5"
   inkscape:version="1.2.2 (732a01da63, 2022-12-09)"
   sodipodi:docname="Enchanter.svg"
   xmlns:inkscape="http://www.inkscape.org/namespaces/inkscape"
   xmlns:sodipodi="http://sodipodi.sourceforge.net/DTD/sodipodi-0.dtd"
   xmlns="http://www.w3.org/2000/svg"
   xmlns:svg="http://www.w3.org/2000/svg">
  <sodipodi:namedview
     id="namedview7"
     pagecolor="#7c7c7c"
     bordercolor="#000000"
     borderopacity="0.25"
     inkscape:showpageshadow="2"
     inkscape:pageopacity="0"
     inkscape:pagecheckerboard="true"
     inkscape:deskcolor="#2c2c2c"
     inkscape:document-units="mm"
     showgrid="false"
     inkscape:lockguides="false"
     inkscape:zoom="0.37282198"
     inkscape:cx="115.33655"
     inkscape:cy="626.30428"
     inkscape:window-width="1246"
     inkscape:window-height="1008"
     inkscape:window-x="1280"
     inkscape:window-y="0"
     inkscape:window-maximized="0"
     inkscape:current-layer="layer6" />
  <defs
     id="defs2">
    <inkscape:path-effect
       effect="fill_between_many"
       method="originald"
       linkedpaths="#path32443,0,1|#path32423,0,1|"
       id="path-effect39152"
       join="true"
       close="true"
       autoreverse="true" />
  </defs>
  <path
     d="M 0,0"
     id="path39154"
     style="fill:#ff0000;fill-opacity:1"
     inkscape:original-d="M 0,0"
     inkscape:path-effect="#path-effect39152"
     class="UnoptimicedTransforms" />
  <g
     inkscape:label="Layer 1"
     inkscape:groupmode="layer"
     id="layer1">
    <path
       style="fill:#ffa600;fill-opacity:1;stroke:#000000;stroke-width:2;stroke-linecap:round;stroke-linejoin:round"
       d="m 87.473751,96.837611 c -3.020841,11.047339 -2.442724,22.678389 -4.18099,33.954049 -2.965041,26.51324 -1.938563,53.2287 -4.219552,79.93431 -0.382493,23.41737 -9.83135,46.06423 -14.284575,68.87284 -1.102738,5.16247 -0.09826,6.712 5.671711,8.1065 11.225975,0.52504 22.354649,-3.96916 33.111875,-2.34693 7.477,0.0318 26.53123,3.95053 28.34953,0.88343 1.8621,-2.17126 -2.67994,-15.09962 -3.00381,-22.48853 -1.74351,-12.55535 -4.42587,-24.98715 -5.02175,-37.68979 -0.53499,-14.75373 0.73829,-28.93438 -1.35284,-44.26625 1.32748,-17.71076 -1.01982,-35.44497 -2.81959,-53.04501 -1.33482,-8.59738 -2.71179,-17.16418 -3.27041,-25.85512 0.25341,-3.296262 -3.10444,-6.432699 -1.55199,-9.286323"
       id="path32385"
       sodipodi:nodetypes="ccccccccccccc"
       inkscape:label="Robe" />
    <g
       id="g39160"
       inkscape:label="Hat"
       style="fill:#ffa600;fill-opacity:1;stroke-width:1.77781;stroke-dasharray:none"
       transform="matrix(1.1249772,0,0,1.1249772,-17.887031,6.1926154)">
      <path
         style="fill:#ffa600;fill-opacity:1;stroke:#000000;stroke-width:1.77781;stroke-linecap:round;stroke-linejoin:round;stroke-dasharray:none"
         d="M 98.721281,43.473007 C 99.512941,29.5506 116.21899,11.439171 128.25686,5.3158023 c 0.30826,-0.156802 13.93864,-5.66449104 13.93864,-3.388167 0,1.322583 -7.30957,5.301462 -8.78448,7.139351 -4.88159,6.0829707 -15.66569,30.0271747 -14.70056,35.8177557"
         id="path32393" />
      <path
         style="fill:#ac6f00;fill-opacity:1;stroke:#000000;stroke-width:1.77781;stroke-linecap:round;stroke-linejoin:round;stroke-dasharray:none"
         d="M 102.29908,89.386189 C 87.019261,82.340367 65.490266,85.473986 64.651304,61.312811 64.509358,57.22495 64.890059,52.351609 67.519705,49.01054 78.561575,34.981425 129.4888,33.79131 141.02251,45.098017 c 4.52397,4.434927 6.54354,10.000996 6.54354,16.17446 0,2.925559 0.97665,5.634175 0.0448,8.551085 -3.50203,10.962455 -27.00359,20.474662 -38.36488,20.853357 -3.51257,0.117081 -7.76741,-1.555239 -9.949766,-2.258777"
         id="path32391" />
    </g>
    <path
       style="fill:#ffffff;fill-opacity:1;stroke:#000000;stroke-width:2;stroke-linecap:round;stroke-linejoin:round;stroke-dasharray:none"
       d="m 115.56966,76.458229 c 0.20854,0.750691 -1.33654,-1.702911 -1.60437,-2.053499 -1.29181,-1.691036 -3.93722,-3.42812 -5.9896,-3.850308 -2.80622,-0.577259 -5.56128,-0.632527 -8.413962,-0.770059 -5.032217,-0.242618 -11.026877,-0.249297 -11.800946,6.288834 0.170033,1.548923 -0.363002,3.077832 -0.221184,4.637838 0.08004,0.880499 0.252209,1.9898 0.564534,2.822668 0.293866,0.783644 0.8352,1.47449 1.129068,2.258134 0.904307,2.411488 2.004155,4.493207 4.375134,5.786468 1.718394,0.937305 5.151194,1.473738 7.056666,1.693601 2.23221,0.257561 5.40182,0.604484 7.48008,-0.564534 1.43911,-0.809509 1.22339,-0.941125 2.11699,-1.834734 0.60344,-0.603432 1.23796,-1.237958 1.83474,-1.834733 0.16633,-0.166328 0.42012,-0.237727 0.56453,-0.423401 0.78234,-1.005858 1.97215,-3.353746 2.117,-4.657401 0.0821,-0.738665 0.0185,-1.522001 0.14114,-2.258134 0.14075,-0.844539 0.44174,-1.680863 0.56453,-2.5404 0.0824,-0.576296 -0.10979,-0.329311 0,-0.987934 0.0426,-0.255911 0.46389,-1.042209 0.4234,-1.129068 -0.0949,-0.203643 -0.22516,-0.388892 -0.33775,-0.583338 z"
       id="path32397"
       inkscape:label="Face" />
    <path
       style="fill:#ffffff;fill-opacity:1;stroke:#000000;stroke-width:2;stroke-linecap:round;stroke-linejoin:round;stroke-dasharray:none"
       d="m 97.315628,82.041173 c 0.94583,-2.521211 1.89222,-5.103787 3.244372,-7.443928 0.82556,-1.428817 1.63811,-2.81228 2.67392,-4.106992 0.91049,-1.13806 1.82601,-2.304751 2.85219,-3.336934 1.8064,-1.816946 3.08307,-3.191146 5.45482,-3.36902 0.26301,-0.01973 2.31741,0.08999 2.31741,0.288772 0,0.531645 -1.95802,2.344237 -2.38871,2.791475 -1.55489,1.61463 -2.87155,4.056022 -3.7435,6.096319 -1.07543,2.5164 -1.63992,4.196955 -2.46408,6.792951 -0.26992,0.850231 -0.16068,1.570125 0.0951,2.49374"
       id="path32399"
       inkscape:label="Nose"
       sodipodi:nodetypes="cssssssssc" />
    <path
       style="fill:#58508d;fill-opacity:1;stroke:#000000;stroke-width:2;stroke-linecap:round;stroke-linejoin:round;stroke-dasharray:none"
       d="m 116.1691,78.049287 c 0,0 -4.72774,3.038349 -5.91165,4.1844 -4.93693,4.739261 -15.364504,5.35081 -19.715782,-0.673803 -1.225325,-1.696537 -2.343932,-3.461916 -3.672197,-5.101655 -2.243962,3.90635 0.05036,8.253207 -0.285217,12.481412 -0.169048,2.129917 -1.021399,4.687118 -0.499134,6.80221 0.462158,1.87167 1.695266,3.644501 2.53132,5.358349 1.124222,2.30456 2.15714,4.66185 2.994802,7.09098 2.682994,7.78037 -0.140519,16.74181 3.38698,24.22484 1.218426,2.58471 3.138436,5.33691 5.169598,7.34768 1.99716,1.97711 4.5157,2.93391 6.84526,4.33159 5.43498,3.26086 11.11336,7.19183 17.50533,8.34234 7.43981,1.33911 15.41077,0.27774 22.3184,3.94656 6.37604,3.38648 8.84769,7.47219 13.334,12.70601 2.19664,2.56264 4.81509,4.79189 7.13049,7.25141 1.13465,1.20529 2.09797,2.63077 3.31566,3.75405 2.01407,1.85791 10.24863,5.65927 12.94183,6.03215 2.73618,0.37885 7.11889,-0.21376 9.51919,0.86633 0.14619,0.0658 -0.3283,-0.0422 -0.46348,-0.12835 -0.53927,-0.34376 -1.07671,-0.77391 -1.5687,-1.18718 -1.47505,-1.23898 -2.75764,-2.70261 -4.27829,-3.88239 -4.09639,-3.17811 -9.38091,-7.94896 -11.58704,-12.80227 -5.90125,-12.98226 -9.47653,-20.70699 -24.10102,-25.21951 -12.02809,-3.71138 -27.5828,-1.89472 -36.72198,-11.6151 -3.1207,-3.31916 -2.64926,-6.35628 -2.78088,-10.62043 -0.25806,-8.36093 1.61138,-16.39041 2.95915,-24.577795 0.38139,-2.316867 1.33304,-4.522932 1.67566,-6.866382 0.39958,-2.733021 0.54721,-5.585911 0.42561,-7.604802 -0.12159,-2.018891 -0.46791,-4.440644 -0.46791,-4.440644 z"
       id="path32409"
       inkscape:label="Beard"
       sodipodi:nodetypes="ccscssssssssssssssssssssssszc" />
    <path
       style="color:#000000;fill:#000000;stroke-width:2;stroke-linecap:round;stroke-linejoin:round;stroke-dasharray:none"
       d="m 94.085554,73.517666 c -0.430872,-0.325281 -1.186527,0.0516 -1.557651,0.443677 -0.246715,0.260646 -0.312692,0.699152 -0.237681,1.05012 0.06002,0.2808 0.26076,0.559433 0.516988,0.689038 0.465612,0.235515 1.101025,0.253008 1.565289,0.01485 0.406746,-0.208652 0.809509,-0.664741 0.789419,-1.121443 -0.0203,-0.45996 -0.48517,-0.838132 -0.891158,-1.055269 -0.05479,-0.02931 -0.143819,0.02537 -0.185206,-0.02097 -2e-6,-10e-7 10e-7,-2e-6 0,-3e-6 z"
       id="path32415"
       sodipodi:nodetypes="aaaaaaaaa" />
    <path
       style="color:#000000;fill:#000000;stroke-width:2;stroke-linecap:round;stroke-linejoin:round;stroke-dasharray:none"
       d="m 109.87479,74.651433 c -0.42662,0.0029 -0.78796,0.424803 -1.00561,0.79173 -0.26132,0.440533 -0.51452,1.073469 -0.25533,1.515257 0.27694,0.472052 1.01163,0.668249 1.54639,0.55176 0.25922,-0.05646 0.43665,-0.325917 0.57043,-0.555007 0.23851,-0.408423 0.51525,-0.924462 0.36205,-1.37193 -0.16556,-0.483611 -0.70678,-0.935357 -1.21793,-0.93181 z"
       id="path32417"
       sodipodi:nodetypes="aaaaaaa" />
    <path
       style="fill:none;stroke:#000000;stroke-width:2;stroke-linecap:round;stroke-linejoin:round;stroke-dasharray:none"
       d="m 98.265728,89.461305 c 0.81787,0.194341 1.62823,-0.141134 2.399272,-0.141134"
       id="path32419"
       inkscape:label="mouth" />
  </g>
  <g
     inkscape:groupmode="layer"
     id="layer6"
     inkscape:label="right arm">
    <path
       style="fill:#ffa600;fill-opacity:1;stroke:#000000;stroke-width:2;stroke-linecap:round;stroke-linejoin:round"
       d="M 85.676263,99.46373 C 85.487258,98.006521 85.200757,96.520819 84.788896,95.099959 83.775118,91.602562 82.311565,88.265349 81.112664,84.832263 79.241581,79.474374 77.47627,74.084566 75.249706,68.860297 73.912637,65.723084 72.211242,62.75215 70.812871,59.647891 c -0.67528,-1.499065 -1.004199,-3.152089 -1.616273,-4.677505 -1.039524,-2.59071 -2.27181,-5.084008 -3.359317,-7.643728 -0.834099,-1.963258 -2.534049,-5.66586 -4.848825,-6.360265 -0.581536,-0.174454 -1.879735,0.460152 -2.376874,0.713034 -4.289703,2.182065 -4.075454,10.978853 -4.595291,15.002242 -0.563129,4.358447 -2.414175,10.856552 -0.126767,14.97372 1.706385,3.071371 3.897656,-0.292438 5.070665,-0.02852 0.139523,0.03139 1.399318,2.191049 1.521201,2.538402 1.0816,3.08244 1.044718,6.24369 2.440257,9.383529 1.685375,3.791945 3.973409,5.85284 6.274951,9.126839 3.172645,4.513168 5.869202,8.305341 10.014566,12.036021 1.559494,1.40349 5.051727,5.22072 7.130624,5.0768 6.429288,-0.44508 0.874078,-7.93579 -0.665525,-10.32473 z"
       id="path32425" />
    <path
       style="fill:#7e5200;fill-opacity:1;stroke:#000000;stroke-width:2;stroke-linecap:round;stroke-linejoin:round"
       d="m 63.035291,41.413228 c 0.550321,1.411716 -0.337561,3.011529 -0.513884,4.516422 -0.405765,3.463142 -0.585408,6.962779 -1.251997,10.385301 -0.568074,2.916711 -1.377237,5.790209 -2.332556,8.603974 -0.835947,2.462171 -0.556224,6.235481 -2.964778,7.215257 -1.006686,0.40951 -2.329459,-0.433192 -2.992448,-1.294331 -1.508821,-1.959767 -1.097463,-4.863675 -1.106368,-7.336962 -0.01118,-3.104186 0.935196,-6.13829 1.322243,-9.218273 0.463222,-3.686166 0.132388,-7.60595 1.196435,-11.08107 0.75982,-2.481534 3.205376,-4.492425 5.583171,-4.442502 1.34955,0.02834 2.569913,1.394518 3.060182,2.652184 z"
       id="path32445"
       sodipodi:nodetypes="aaaaaaaasaa" />
    <path
       style="fill:#ffffff;fill-opacity:1;stroke:#000000;stroke-width:2;stroke-linecap:round;stroke-linejoin:round"
       d="m 62.077772,45.003562 c -0.41403,-2.234981 -1.541505,-4.285099 -2.503641,-6.331743 -0.735944,-1.565489 -1.353269,-3.154869 -1.996575,-4.76307 -0.488309,-1.220721 -0.865526,-2.452504 -1.426125,-3.650735 -0.441071,-0.94275 -0.851331,-2.407216 -1.67966,-3.10883 -1.40199,-1.187522 -4.242787,0.48534 -4.468524,2.110582 -0.210071,1.512466 1.597106,6.023218 2.173861,7.580394 0.180747,0.488001 0.765576,3.052986 0.595909,3.511062 -1.660935,4.484349 -4.191944,4.274359 -2.820151,9.212616 0.190746,0.686657 2.395517,4.52373 4.3851,4.524827 2.489017,0.0014 6.069923,-3.871226 7.010898,-5.776623 0.567703,-1.149554 0.380433,-2.054024 0.728908,-3.30848 z"
       id="path32427"
       inkscape:label="Hand"
       sodipodi:nodetypes="csssssscsssc" />
  </g>
  <g
     inkscape:groupmode="layer"
     id="layer5"
     inkscape:label="Left Arm">
    <path
       style="fill:#ffa600;fill-opacity:1;stroke:#000000;stroke-width:2;stroke-linecap:round;stroke-linejoin:round"
       d="m 119.64188,80.46014 c 4.17443,-11.154037 9.12756,-22.068234 15.37046,-32.229152 3.24961,-5.289061 7.22082,-10.158944 10.80685,-15.230414 2.09818,-2.967307 6.68581,-10.381438 10.29979,-11.465591 0.0261,-0.0078 -0.19009,0.348695 -0.12676,0.456342 0.15884,0.270021 0.35228,0.518345 0.53876,0.770077 0.93132,1.257238 1.68912,2.595031 2.56702,3.878906 0.86916,1.27109 1.74574,2.572578 2.40857,3.964472 1.28582,2.700118 4.72527,14.547707 3.64454,17.141346 -0.14666,0.351975 -0.85165,0.468481 -1.1409,0.541906 -3.11545,0.790813 -4.64274,-1.122532 -6.94047,-0.827122 -0.91171,0.117216 -1.80514,0.961358 -2.44026,1.568678 -3.85737,3.688463 -4.42702,8.87872 -6.02142,13.661736 -1.19708,3.591113 -4.95111,10.19737 -7.44754,13.005747 -4.47572,5.034984 -11.02154,10.469801 -16.54305,14.232165 -1.82141,1.241115 -3.77995,3.340111 -5.83127,4.078555 -0.51553,0.185586 -1.52506,-2.47196 -1.64796,-3.080309 -0.42225,-2.090049 0.0279,-5.854379 0.88736,-7.843377 0.38732,-0.896318 1.15914,-1.768231 1.61628,-2.623965 z"
       id="path32423"
       class="UnoptimicedTransforms"
       transform="translate(-4.9677419,16.32258)" />
    <path
       style="fill:#7e5200;fill-opacity:1;stroke:#000000;stroke-width:2;stroke-linecap:round;stroke-linejoin:round"
       d="m 156.83693,42.623143 c -2.49194,-4.090096 -4.37635,-8.668587 -5.23628,-13.380189 -0.2355,-1.290302 0.0516,-2.62282 0.0471,-3.934568 0.43375,-1.570824 2.00309,-2.569224 3.55285,-2.798721 1.46075,-0.339176 2.58729,1.056757 3.42288,2.043993 0.99968,1.557214 1.22239,3.455881 2.16566,5.049438 0.67783,1.555788 1.78569,2.910946 2.2118,4.561157 1.20242,2.43275 1.68033,5.131351 2.494,7.70468 0.31888,1.853005 1.80954,4.295306 0.54746,5.748736 -1.01216,1.165624 -3.20561,0.815596 -4.62639,0.211833 -2.12709,-0.90391 -3.37657,-3.232647 -4.57908,-5.206359 z"
       id="path32443"
       sodipodi:nodetypes="aaaaaaaaaaa"
       class="UnoptimicedTransforms"
       inkscape:label="path32443"
       transform="translate(-4.9677419,16.32258)" />
    <path
       style="fill:#ffffff;fill-opacity:1;stroke:#000000;stroke-width:2;stroke-linecap:round;stroke-linejoin:round"
       d="m 147.86819,49.671422 c 1.01216,-0.248431 6.03986,-3.650924 7.89692,-4.293724 3.46454,-1.199216 5.89034,-1.446832 8.64113,-4.33505 1.41241,-1.48298 4.78062,-3.735297 4.19399,-5.84708 -0.17563,-0.632254 -0.64296,-1.043194 -0.95075,-1.597196 -0.40344,-0.726167 -1.26317,-1.80883 -2.02827,-2.196146 -0.80852,-0.409296 -1.92855,-0.05406 -2.44025,-0.798599 -0.50865,-0.7401 -2.0269,-2.162535 -3.20046,-0.171286 -1.44711,2.45541 1.46729,3.687042 1.39009,3.930126 -0.1595,0.502409 -6.2631,4.866286 -6.36608,4.883136 -1.39032,0.227504 -2.17072,-0.97002 -1.45782,-2.253188 0.46932,-0.844749 1.1409,-1.454627 1.1409,-1.397547 0,0.08556 -0.0156,-0.172563 0,-0.256693 0.14172,-0.765286 0.0136,-1.849638 -0.15846,-2.623966 -0.0662,-0.297924 -1.13127,-1.994515 -1.42612,-1.967975 -5.57698,0.501908 -4.30251,6.823105 -2.97902,10.353259 -2.20028,1.999274 -0.30969,-0.146957 -3.35363,3.325052"
       id="path32439"
       sodipodi:nodetypes="cssssssscssscsccc"
       inkscape:label="Hand" />
  </g>
</svg>
