<?xml version="1.0" encoding="UTF-8" standalone="no"?>
<!-- Created with Inkscape (http://www.inkscape.org/) -->

<svg
   width="129.95964mm"
   height="129.95964mm"
   viewBox="0 0 129.95964 129.95964"
   version="1.1"
   id="svg5"
   inkscape:version="1.2.2 (732a01da63, 2022-12-09)"
   sodipodi:docname="Check.svg"
   xmlns:inkscape="http://www.inkscape.org/namespaces/inkscape"
   xmlns:sodipodi="http://sodipodi.sourceforge.net/DTD/sodipodi-0.dtd"
   xmlns="http://www.w3.org/2000/svg"
   xmlns:svg="http://www.w3.org/2000/svg">
  <sodipodi:namedview
     id="namedview7"
     pagecolor="#757575"
     bordercolor="#000000"
     borderopacity="0.25"
     inkscape:showpageshadow="2"
     inkscape:pageopacity="1"
     inkscape:pagecheckerboard="true"
     inkscape:deskcolor="#d1d1d1"
     inkscape:document-units="mm"
     showgrid="false"
     inkscape:zoom="1.4912879"
     inkscape:cx="346.34493"
     inkscape:cy="225.30861"
     inkscape:window-width="1920"
     inkscape:window-height="1017"
     inkscape:window-x="1272"
     inkscape:window-y="-8"
     inkscape:window-maximized="1"
     inkscape:current-layer="layer1" />
  <defs
     id="defs2" />
  <g
     inkscape:label="Layer 1"
     inkscape:groupmode="layer"
     id="layer1"
     transform="translate(37.701378,39.29818)">
    <path
       id="path788"
       style="fill:#ffffff;fill-opacity:1;stroke-width:0"
       d="M 27.278436,-39.29818 A 64.979923,64.979923 0 0 0 -37.701378,25.681639 64.979923,64.979923 0 0 0 27.278436,90.661453 64.979923,64.979923 0 0 0 92.258255,25.681639 64.979923,64.979923 0 0 0 27.278436,-39.29818 Z m 33.43072,24.745351 a 8.0598806,8.0598806 0 0 1 4.780021,1.411218 8.0598806,8.0598806 0 0 1 2.082527,11.2064581 L 23.409831,62.412553 a 8.0606865,8.0606865 0 0 1 -12.676476,0.796265 l -23.130776,-26.07572 a 8.0598806,8.0598806 0 0 1 0.67621,-11.38286 8.0598806,8.0598806 0 0 1 11.38040885,0.676209 L 15.947027,44.789458 54.275367,-11.056629 a 8.0598806,8.0598806 0 0 1 5.174476,-3.361449 8.0598806,8.0598806 0 0 1 1.259313,-0.134743 z" />
  </g>
</svg>
