<?xml version="1.0" encoding="UTF-8" standalone="no"?>
<svg
   viewBox="0 0 602.96521 602.96521"
   version="1.1"
   id="svg6"
   sodipodi:docname="padlock.svg"
   inkscape:version="1.2.2 (732a01da63, 2022-12-09)"
   width="602.96521"
   height="602.96521"
   xmlns:inkscape="http://www.inkscape.org/namespaces/inkscape"
   xmlns:sodipodi="http://sodipodi.sourceforge.net/DTD/sodipodi-0.dtd"
   xmlns="http://www.w3.org/2000/svg"
   xmlns:svg="http://www.w3.org/2000/svg">
  <defs
     id="defs10" />
  <sodipodi:namedview
     id="namedview8"
     pagecolor="#767676"
     bordercolor="#000000"
     borderopacity="0.25"
     inkscape:showpageshadow="2"
     inkscape:pageopacity="0"
     inkscape:pagecheckerboard="true"
     inkscape:deskcolor="#d1d1d1"
     showgrid="false"
     showborder="true"
     shape-rendering="auto"
     inkscape:zoom="1.1559539"
     inkscape:cx="249.57744"
     inkscape:cy="343.43931"
     inkscape:window-width="1920"
     inkscape:window-height="1017"
     inkscape:window-x="1272"
     inkscape:window-y="-8"
     inkscape:window-maximized="1"
     inkscape:current-layer="svg6" />
  <circle
     style="fill:#ffffff;stroke:#ff0000;stroke-width:0;stroke-linecap:round;stroke-linejoin:round;stroke-dasharray:none"
     id="path291"
     cx="301.4826"
     cy="301.4826"
     r="301.4826" />
  <path
     d="m 301.48161,73.655106 c -81.048,0 -146.624,65.484004 -146.624,146.405994 v 72.281 h 49.594 v -69.094 c 0,-53.658 43.47,-97.18699 97.03,-97.18699 53.563,0 97.032,44.74399 97.032,97.18599 v 69.095 h 49.594 v -72.28 c 0,-78.85599 -65.717,-146.406994 -146.625,-146.406994 z"
     fill="#fff"
     fill-opacity="1"
     style="fill:#000000;fill-opacity:1"
     data-darkreader-inline-fill=""
     id="path1119"
     sodipodi:nodetypes="ssccsssccsss" />
  <rect
     style="fill:#000000;fill-opacity:1;stroke:#ff0000;stroke-width:0;stroke-linecap:round;stroke-linejoin:round;stroke-dasharray:none"
     id="rect1062"
     width="294.12939"
     height="223.19231"
     x="154.41791"
     y="281.37552"
     ry="15.571556" />
  <path
     d="m 301.20061,307.08067 c 22.34,0 40.875,17.94 40.875,40.28 0,16.756 -10.6,31.23 -25.125,37.376 l 32.72,98.126 h -96.376 l 32.125,-98.125 c -14.526,-6.145 -24.532,-20.62 -24.532,-37.374 0,-22.338 17.972,-40.28 40.312,-40.28 z"
     style="fill:#ffffff;fill-opacity:1"
     id="path1072" />
</svg>
