<?xml version="1.0" encoding="UTF-8" standalone="no"?>
<!-- Created with Inkscape (http://www.inkscape.org/) -->

<svg
   width="142.78905mm"
   height="285.02139mm"
   viewBox="0 0 142.78905 285.02139"
   version="1.1"
   id="svg5"
   inkscape:version="1.2.2 (732a01da63, 2022-12-09)"
   sodipodi:docname="Enchanter.svg"
   xmlns:inkscape="http://www.inkscape.org/namespaces/inkscape"
   xmlns:sodipodi="http://sodipodi.sourceforge.net/DTD/sodipodi-0.dtd"
   xmlns="http://www.w3.org/2000/svg"
   xmlns:svg="http://www.w3.org/2000/svg">
  <sodipodi:namedview
     id="namedview7"
     pagecolor="#7c7c7c"
     bordercolor="#000000"
     borderopacity="0.25"
     inkscape:showpageshadow="2"
     inkscape:pageopacity="0"
     inkscape:pagecheckerboard="true"
     inkscape:deskcolor="#2c2c2c"
     inkscape:document-units="mm"
     showgrid="false"
     inkscape:lockguides="false"
     inkscape:zoom="1.0544998"
     inkscape:cx="510.1945"
     inkscape:cy="294.4524"
     inkscape:window-width="1246"
     inkscape:window-height="1008"
     inkscape:window-x="2027"
     inkscape:window-y="49"
     inkscape:window-maximized="0"
     inkscape:current-layer="layer1" />
  <defs
     id="defs2" />
  <g
     inkscape:label="Layer 1"
     inkscape:groupmode="layer"
     id="layer1"
     transform="translate(-52.310896,-5.2305656)">
    <path
       style="fill:#ffa600;fill-opacity:1;stroke:#000000;stroke-width:5;stroke-linecap:round;stroke-linejoin:round;stroke-dasharray:none"
       d="m 87.473751,96.837611 c -3.020841,11.047339 -2.442724,22.678389 -4.18099,33.954049 -2.965041,26.51324 -1.938563,53.2287 -4.219552,79.93431 -0.382493,23.41737 -9.83135,46.06423 -14.284575,68.87284 -1.102738,5.16247 -0.09826,6.712 5.671711,8.1065 11.225975,0.52504 22.354649,-3.96916 33.111875,-2.34693 7.477,0.0318 26.53123,3.95053 28.34953,0.88343 1.8621,-2.17126 -2.67994,-15.09962 -3.00381,-22.48853 -1.74351,-12.55535 -4.42587,-24.98715 -5.02175,-37.68979 -0.53499,-14.75373 0.73829,-28.93438 -1.35284,-44.26625 1.32748,-17.71076 -1.01982,-35.44497 -2.81959,-53.04501 -1.33482,-8.59738 -2.71179,-17.16418 -3.27041,-25.85512 0.25341,-3.296262 -3.10444,-6.432699 -1.55199,-9.286323"
       id="path32385"
       sodipodi:nodetypes="ccccccccccccc"
       inkscape:label="Robe" />
    <g
       id="g39160"
       inkscape:label="Hat"
       style="fill:#ffa600;fill-opacity:1;stroke-width:4.44453;stroke-dasharray:none"
       transform="matrix(1.1249772,0,0,1.1249772,-17.887031,6.1926154)">
      <path
         style="fill:#ffa600;fill-opacity:1;stroke:#000000;stroke-width:4.44453;stroke-linecap:round;stroke-linejoin:round;stroke-dasharray:none"
         d="M 98.721281,43.473007 C 99.512941,29.5506 116.21899,11.439171 128.25686,5.3158023 c 0.30826,-0.156802 13.93864,-5.66449104 13.93864,-3.388167 0,1.322583 -7.30957,5.301462 -8.78448,7.139351 -4.88159,6.0829707 -15.66569,30.0271747 -14.70056,35.8177557"
         id="path32393" />
      <path
         style="fill:#ac6f00;fill-opacity:1;stroke:#000000;stroke-width:4.44453;stroke-linecap:round;stroke-linejoin:round;stroke-dasharray:none"
         d="M 102.29908,89.386189 C 87.019261,82.340367 65.490266,85.473986 64.651304,61.312811 64.509358,57.22495 64.890059,52.351609 67.519705,49.01054 78.561575,34.981425 129.4888,33.79131 141.02251,45.098017 c 4.52397,4.434927 6.54354,10.000996 6.54354,16.17446 0,2.925559 0.97665,5.634175 0.0448,8.551085 -3.50203,10.962455 -27.00359,20.474662 -38.36488,20.853357 -3.51257,0.117081 -7.76741,-1.555239 -9.949766,-2.258777"
         id="path32391" />
    </g>
    <path
       style="fill:#ffffff;fill-opacity:1;stroke:#000000;stroke-width:4;stroke-linecap:round;stroke-linejoin:round;stroke-dasharray:none"
       d="m 115.56966,76.458229 c 0.20854,0.750691 -1.33654,-1.702911 -1.60437,-2.053499 -1.29181,-1.691036 -3.93722,-3.42812 -5.9896,-3.850308 -2.80622,-0.577259 -5.56128,-0.632527 -8.413962,-0.770059 -5.032217,-0.242618 -11.026877,-0.249297 -11.800946,6.288834 0.170033,1.548923 -0.363002,3.077832 -0.221184,4.637838 0.08004,0.880499 0.252209,1.9898 0.564534,2.822668 0.293866,0.783644 0.8352,1.47449 1.129068,2.258134 0.904307,2.411488 2.004155,4.493207 4.375134,5.786468 1.718394,0.937305 5.151194,1.473738 7.056666,1.693601 2.23221,0.257561 5.40182,0.604484 7.48008,-0.564534 1.43911,-0.809509 1.22339,-0.941125 2.11699,-1.834734 0.60344,-0.603432 1.23796,-1.237958 1.83474,-1.834733 0.16633,-0.166328 0.42012,-0.237727 0.56453,-0.423401 0.78234,-1.005858 1.97215,-3.353746 2.117,-4.657401 0.0821,-0.738665 0.0185,-1.522001 0.14114,-2.258134 0.14075,-0.844539 0.44174,-1.680863 0.56453,-2.5404 0.0824,-0.576296 -0.10979,-0.329311 0,-0.987934 0.0426,-0.255911 0.46389,-1.042209 0.4234,-1.129068 -0.0949,-0.203643 -0.22516,-0.388892 -0.33775,-0.583338 z"
       id="path32397"
       inkscape:label="Face" />
    <path
       style="fill:#ffffff;fill-opacity:1;stroke:#000000;stroke-width:3;stroke-linecap:round;stroke-linejoin:round;stroke-dasharray:none"
       d="m 97.315628,82.041173 c 0.94583,-2.521211 1.89222,-5.103787 3.244372,-7.443928 0.82556,-1.428817 1.63811,-2.81228 2.67392,-4.106992 0.91049,-1.13806 1.82601,-2.304751 2.85219,-3.336934 1.8064,-1.816946 3.08307,-3.191146 5.45482,-3.36902 0.26301,-0.01973 2.31741,0.08999 2.31741,0.288772 0,0.531645 -1.95802,2.344237 -2.38871,2.791475 -1.55489,1.61463 -2.87155,4.056022 -3.7435,6.096319 -1.07543,2.5164 -1.63992,4.196955 -2.46408,6.792951 -0.26992,0.850231 -0.16068,1.570125 0.0951,2.49374"
       id="path32399"
       inkscape:label="Nose"
       sodipodi:nodetypes="cssssssssc" />
    <path
       style="fill:#58508d;fill-opacity:1;stroke:#000000;stroke-width:4;stroke-linecap:round;stroke-linejoin:round;stroke-dasharray:none"
       d="m 116.34652,81.420255 c 0,0 -4.90516,0.377058 -6.08907,1.523109 -4.93693,4.739261 -15.364504,4.641133 -19.715782,-1.38348 -1.225325,-1.696537 -2.166513,0.44131 -3.494778,-1.198429 -2.243962,3.90635 -1.191575,5.769336 -1.527152,9.997541 -0.169048,2.129917 0.04312,3.267763 0.565382,5.382855 0.462158,1.87167 1.695266,3.644501 2.53132,5.358349 1.124222,2.30456 2.15714,4.66185 2.994802,7.09098 2.682994,7.78037 -0.140519,16.74181 3.38698,24.22484 1.218426,2.58471 3.138436,5.33691 5.169598,7.34768 1.99716,1.97711 4.5157,2.93391 6.84526,4.33159 5.43498,3.26086 11.11336,7.19183 17.50533,8.34234 7.43981,1.33911 15.41077,0.27774 22.3184,3.94656 6.37604,3.38648 8.84769,7.47219 13.334,12.70601 2.19664,2.56264 4.81509,4.79189 7.13049,7.25141 1.13465,1.20529 2.09797,2.63077 3.31566,3.75405 2.01407,1.85791 10.24863,5.65927 12.94183,6.03215 2.73618,0.37885 7.11889,-0.21376 9.51919,0.86633 0.14619,0.0658 -0.3283,-0.0422 -0.46348,-0.12835 -0.53927,-0.34376 -1.07671,-0.77391 -1.5687,-1.18718 -1.47505,-1.23898 -2.75764,-2.70261 -4.27829,-3.88239 -4.09639,-3.17811 -9.38091,-7.94896 -11.58704,-12.80227 -5.90125,-12.98226 -9.47653,-20.70699 -24.10102,-25.21951 -12.02809,-3.71138 -27.5828,-1.89472 -36.72198,-11.6151 -3.1207,-3.31916 -2.64926,-6.35628 -2.78088,-10.62043 -0.25806,-8.36093 0.9017,-14.08396 2.24947,-22.271343 1.71254,-5.307303 3.42036,-13.12153 2.52046,-17.847312 z"
       id="path32409"
       inkscape:label="Beard"
       sodipodi:nodetypes="ccscssssssssssssssssssssscc" />
    <path
       style="color:#000000;fill:#000000;stroke-width:2.79488;stroke-linecap:round;stroke-linejoin:round;stroke-dasharray:none"
       d="m 94.633285,73.10875 c -0.602118,-0.45456 -1.6581,0.07211 -2.176723,0.620012 -0.344769,0.364237 -0.436968,0.977022 -0.332145,1.467479 0.08387,0.392401 0.364396,0.781774 0.722459,0.962889 0.650665,0.329118 1.538616,0.353563 2.187397,0.02075 0.568403,-0.291579 1.13124,-0.928936 1.103165,-1.567149 -0.02837,-0.642766 -0.677996,-1.171238 -1.245339,-1.474674 -0.07657,-0.04096 -0.200979,0.03545 -0.258814,-0.0293 -3e-6,-10e-7 10e-7,-2e-6 0,-4e-6 z"
       id="path32415"
       sodipodi:nodetypes="aaaaaaaaa" />
    <path
       style="color:#000000;fill:#000000;stroke-width:2.92037;stroke-linecap:round;stroke-linejoin:round;stroke-dasharray:none"
       d="m 110.23888,74.474023 c -0.62294,0.0042 -1.15057,0.62029 -1.46838,1.156071 -0.38157,0.643259 -0.75129,1.567461 -0.37282,2.212552 0.40438,0.689282 1.47716,0.975766 2.25801,0.805671 0.37851,-0.08244 0.63759,-0.475899 0.83293,-0.810412 0.34827,-0.596372 0.75236,-1.349884 0.52866,-2.003269 -0.24175,-0.70616 -1.03203,-1.365792 -1.7784,-1.360613 z"
       id="path32417"
       sodipodi:nodetypes="aaaaaaa" />
    <path
       style="fill:none;stroke:#000000;stroke-width:4.07368;stroke-linecap:round;stroke-linejoin:round;stroke-dasharray:none"
       d="m 98.918707,91.937561 c 1.279883,0.128805 2.548003,-0.09354 3.754603,-0.09354"
       id="path32419"
       inkscape:label="mouth" />
  </g>
</svg>
