<?xml version="1.0" encoding="UTF-8" standalone="no"?>
<!-- Created with Inkscape (http://www.inkscape.org/) -->

<svg
   width="26.017214mm"
   height="95.875648mm"
   viewBox="0 0 26.017214 95.875648"
   version="1.1"
   id="svg5"
   inkscape:version="1.2.2 (732a01da63, 2022-12-09)"
   sodipodi:docname="Enchanter.svg"
   xmlns:inkscape="http://www.inkscape.org/namespaces/inkscape"
   xmlns:sodipodi="http://sodipodi.sourceforge.net/DTD/sodipodi-0.dtd"
   xmlns="http://www.w3.org/2000/svg"
   xmlns:svg="http://www.w3.org/2000/svg">
  <sodipodi:namedview
     id="namedview7"
     pagecolor="#7c7c7c"
     bordercolor="#000000"
     borderopacity="0.25"
     inkscape:showpageshadow="2"
     inkscape:pageopacity="0"
     inkscape:pagecheckerboard="true"
     inkscape:deskcolor="#2c2c2c"
     inkscape:document-units="mm"
     showgrid="false"
     inkscape:lockguides="false"
     inkscape:zoom="1.4912879"
     inkscape:cx="423.1242"
     inkscape:cy="263.19532"
     inkscape:window-width="1246"
     inkscape:window-height="1008"
     inkscape:window-x="2375"
     inkscape:window-y="35"
     inkscape:window-maximized="0"
     inkscape:current-layer="layer5" />
  <defs
     id="defs2" />
  <g
     inkscape:groupmode="layer"
     id="layer6"
     inkscape:label="right arm"
     transform="rotate(22.504966,94.108068,-70.060566)">
    <path
       style="fill:#ffa600;fill-opacity:1;stroke:#000000;stroke-width:5;stroke-linecap:round;stroke-linejoin:round;stroke-dasharray:none"
       d="M 85.676263,99.46373 C 85.487258,98.006521 85.200757,96.520819 84.788896,95.099959 83.775118,91.602562 82.311565,88.265349 81.112664,84.832263 79.241581,79.474374 77.47627,74.084566 75.249706,68.860297 73.912637,65.723084 72.211242,62.75215 70.812871,59.647891 c -0.67528,-1.499065 -1.004199,-3.152089 -1.616273,-4.677505 -1.039524,-2.59071 -2.27181,-5.084008 -3.359317,-7.643728 -0.834099,-1.963258 -2.534049,-5.66586 -4.848825,-6.360265 -0.581536,-0.174454 -1.879735,0.460152 -2.376874,0.713034 -4.289703,2.182065 -4.075454,10.978853 -4.595291,15.002242 -0.563129,4.358447 -2.414175,10.856552 -0.126767,14.97372 1.706385,3.071371 3.897656,-0.292438 5.070665,-0.02852 0.139523,0.03139 1.399318,2.191049 1.521201,2.538402 1.0816,3.08244 1.044718,6.24369 2.440257,9.383529 1.685375,3.791945 3.973409,5.85284 6.274951,9.126839 3.172645,4.513168 5.869202,8.305341 10.014566,12.036021 1.559494,1.40349 5.051727,5.22072 7.130624,5.0768 6.429288,-0.44508 0.874078,-7.93579 -0.665525,-10.32473 z"
       id="path32425" />
    <path
       style="fill:#7e5200;fill-opacity:1;stroke:#000000;stroke-width:4;stroke-linecap:round;stroke-linejoin:round;stroke-dasharray:none"
       d="m 63.035291,41.413228 c 0.550321,1.411716 -0.337561,3.011529 -0.513884,4.516422 -0.405765,3.463142 -0.585408,6.962779 -1.251997,10.385301 -0.568074,2.916711 -1.377237,5.790209 -2.332556,8.603974 -0.835947,2.462171 -0.556224,6.235481 -2.964778,7.215257 -1.006686,0.40951 -2.329459,-0.433192 -2.992448,-1.294331 -1.508821,-1.959767 -1.097463,-4.863675 -1.106368,-7.336962 -0.01118,-3.104186 0.935196,-6.13829 1.322243,-9.218273 0.463222,-3.686166 0.132388,-7.60595 1.196435,-11.08107 0.75982,-2.481534 3.205376,-4.492425 5.583171,-4.442502 1.34955,0.02834 2.569913,1.394518 3.060182,2.652184 z"
       id="path32445"
       sodipodi:nodetypes="aaaaaaaasaa" />
    <path
       style="fill:#ffffff;fill-opacity:1;stroke:#000000;stroke-width:4;stroke-linecap:round;stroke-linejoin:round;stroke-dasharray:none"
       d="m 62.077772,45.003562 c -0.41403,-2.234981 -1.541505,-4.285099 -2.503641,-6.331743 -0.735944,-1.565489 -1.353269,-3.154869 -1.996575,-4.76307 -0.488309,-1.220721 -0.865526,-2.452504 -1.426125,-3.650735 -0.441071,-0.94275 -0.851331,-2.407216 -1.67966,-3.10883 -1.40199,-1.187522 -7.253693,-0.769204 -7.47943,0.856038 -0.210071,1.512466 2.174111,7.17186 2.801133,8.709484 0.55711,1.366182 2.333756,5.248438 1.223181,5.204696 -2.978206,3.543441 -6.415665,5.143097 -5.078331,10.090798 0.880745,3.258472 7.72733,6.593727 9.716913,6.594824 2.489017,0.0014 5.379924,-6.317587 6.320899,-8.222984 0.567703,-1.149554 -0.246839,-4.124022 0.101636,-5.378478 z"
       id="path32427"
       inkscape:label="Hand"
       sodipodi:nodetypes="csssssscsssc" />
  </g>
</svg>
