<?xml version="1.0" encoding="UTF-8" standalone="no"?>
<!-- Created with Inkscape (http://www.inkscape.org/) -->

<svg
   width="35.338127mm"
   height="36.155075mm"
   viewBox="0 0 35.338127 36.155075"
   version="1.1"
   id="svg5"
   inkscape:version="1.2.2 (732a01da63, 2022-12-09)"
   sodipodi:docname="Librarian.svg"
   xmlns:inkscape="http://www.inkscape.org/namespaces/inkscape"
   xmlns:sodipodi="http://sodipodi.sourceforge.net/DTD/sodipodi-0.dtd"
   xmlns="http://www.w3.org/2000/svg"
   xmlns:svg="http://www.w3.org/2000/svg">
  <sodipodi:namedview
     id="namedview7"
     pagecolor="#7c7c7c"
     bordercolor="#000000"
     borderopacity="0.25"
     inkscape:showpageshadow="2"
     inkscape:pageopacity="0"
     inkscape:pagecheckerboard="true"
     inkscape:deskcolor="#2c2c2c"
     inkscape:document-units="mm"
     showgrid="false"
     inkscape:lockguides="false"
     inkscape:zoom="0.43195925"
     inkscape:cx="211.82554"
     inkscape:cy="703.77009"
     inkscape:window-width="1280"
     inkscape:window-height="1017"
     inkscape:window-x="1280"
     inkscape:window-y="0"
     inkscape:window-maximized="0"
     inkscape:current-layer="layer1" />
  <defs
     id="defs2" />
  <g
     inkscape:groupmode="layer"
     id="layer3"
     inkscape:label="Right Foot"
     transform="translate(-145.40543,-257.0236)">
    <path
       style="fill:#003f5c;fill-opacity:1;stroke:#000000;stroke-width:5;stroke-linecap:round;stroke-linejoin:round;stroke-dasharray:none"
       d="m 152.47163,277.38958 c -2.64492,2.90313 -7.31814,9.48368 -2.42022,12.50395 4.39472,2.70997 12.61876,-2.66654 15.68658,-5.80829 2.92787,-2.99842 6.27754,-5.78268 8.38111,-9.47879 1.33885,-2.35247 2.21046,-4.92188 3.09249,-7.46204 0.46279,-1.33277 0.9902,-2.60745 1.03084,-4.03353 0.10522,-3.69326 -5.24397,-3.94475 -7.75365,-3.26716 -4.32864,1.16869 -7.47376,5.00474 -10.4876,8.06706 -0.63941,0.6497 -1.05653,1.48741 -1.70311,2.13778 -2.21149,2.22441 -4.81433,4.32814 -5.82644,7.34102 z"
       id="path19958" />
  </g>
</svg>
