<?xml version="1.0" encoding="UTF-8" standalone="no"?>
<!-- Created with Inkscape (http://www.inkscape.org/) -->

<svg
   width="159.77542mm"
   height="195.92851mm"
   viewBox="0 0 159.77542 195.92851"
   version="1.1"
   id="svg5"
   inkscape:version="1.2.2 (732a01da63, 2022-12-09)"
   sodipodi:docname="Librarian.svg"
   xmlns:inkscape="http://www.inkscape.org/namespaces/inkscape"
   xmlns:sodipodi="http://sodipodi.sourceforge.net/DTD/sodipodi-0.dtd"
   xmlns="http://www.w3.org/2000/svg"
   xmlns:svg="http://www.w3.org/2000/svg">
  <sodipodi:namedview
     id="namedview7"
     pagecolor="#7c7c7c"
     bordercolor="#000000"
     borderopacity="0.25"
     inkscape:showpageshadow="2"
     inkscape:pageopacity="0"
     inkscape:pagecheckerboard="true"
     inkscape:deskcolor="#2c2c2c"
     inkscape:document-units="mm"
     showgrid="false"
     inkscape:lockguides="false"
     inkscape:zoom="0.43195925"
     inkscape:cx="211.82554"
     inkscape:cy="703.77009"
     inkscape:window-width="1280"
     inkscape:window-height="1017"
     inkscape:window-x="1280"
     inkscape:window-y="0"
     inkscape:window-maximized="0"
     inkscape:current-layer="layer1" />
  <defs
     id="defs2">
    <inkscape:path-effect
       effect="fill_between_many"
       method="originald"
       linkedpaths="#path20762,0,1|#path20760,0,1|#path20006,0,1"
       id="path-effect20764"
       join="true"
       close="true"
       autoreverse="true"
       is_visible="true"
       lpeversion="0" />
  </defs>
  <g
     inkscape:label="Body"
     inkscape:groupmode="layer"
     id="layer1"
     transform="translate(-36.653211,-88.92889)">
    <path
       style="fill:#0074ab;fill-opacity:1;stroke:#000000;stroke-width:5;stroke-linecap:round;stroke-linejoin:round;stroke-dasharray:none"
       d="m 91.861558,171.44596 c -15.319652,0.72073 -33.327467,4.09642 -43.199681,15.83314 -10.222603,12.15328 -10.517054,31.12908 -8.49035,46.88016 1.430546,11.11787 5.871069,22.96496 14.174511,30.49532 12.936827,11.73236 32.053764,15.67069 49.437322,17.35047 14.26693,1.37862 29.03632,-1.4291 42.54974,-6.20753 7.58949,-2.68369 15.04783,-6.65531 20.77671,-12.31062 8.59961,-8.48918 16.45737,-19.10814 18.88098,-30.94645 2.51192,-12.26969 1.03777,-26.43506 -5.39009,-37.18391 -3.89247,-6.50911 -11.49666,-10.16309 -18.29244,-13.53017 -9.88563,-4.89799 -20.82819,-7.91017 -31.77931,-9.2477 -9.87301,-1.20586 -19.92734,2.2744 -29.81513,1.19646 -3.033214,-0.33067 -5.804448,-2.47256 -8.852262,-2.32917 z"
       id="path19928"
       sodipodi:nodetypes="aaaaaaaaaaaaa"
       inkscape:label="Body" />
    <path
       style="fill:#ffffff;fill-opacity:1;stroke:#000000;stroke-width:5;stroke-linecap:round;stroke-linejoin:round;stroke-dasharray:none"
       d="m 93.191627,167.36559 c -2.495008,-2.23358 -3.930015,-5.5817 -4.836235,-8.80547 -1.342514,-4.77583 -1.830871,-10.04122 -0.681615,-14.86721 0.678244,-2.8481 1.890988,-6.00713 4.313692,-7.65096 2.620449,-1.77801 6.258691,-1.00713 9.413821,-1.27774 2.01034,-0.17243 4.03522,-0.34215 6.04919,-0.21916 3.83519,0.23421 7.75303,0.55646 11.38307,1.81598 3.22012,1.11729 6.88156,2.26182 8.92535,4.98953 2.65615,3.54498 3.1901,8.53004 2.96512,12.95399 -0.2039,4.0094 -1.08029,8.5146 -3.8644,11.40693 -2.55505,2.65438 -6.70568,3.2575 -10.32565,3.94293 -5.6998,1.07924 -11.70702,1.26738 -17.40244,0.16525 -2.103279,-0.407 -4.343758,-1.02517 -5.939903,-2.45407 z"
       id="path20036"
       inkscape:label="face"
       sodipodi:nodetypes="aaaaaaaaaaaaa" />
    <path
       style="fill:#58508d;fill-opacity:1;stroke:#000000;stroke-width:5;stroke-linecap:round;stroke-linejoin:round;stroke-dasharray:none"
       d="m 86.124754,185.11963 c -0.658431,1.22216 -1.626542,2.52576 -1.927206,3.91252 -0.90673,4.18212 -0.620599,8.27474 0,12.46362 0.913873,6.1684 3.227736,12.53889 10.66687,11.37455 2.402999,-0.3761 4.417787,-1.53847 6.498722,-2.66213 3.72609,-2.012 7.53554,-4.59438 10.17387,-7.98639 1.74313,-2.24108 3.00263,-4.71891 4.61633,-7.01834 1.62368,-2.31366 3.34853,-4.60485 5.06453,-6.85701 3.64027,-4.77766 8.63992,-8.18836 11.6977,-13.47199 2.37641,-4.10628 2.47983,-7.54076 2.82358,-12.18127 0.12999,-1.75478 1.07031,-5.81309 -0.44819,-7.17968 -0.28145,-0.2533 -0.0456,-1.61411 -0.40336,-1.9361 -0.31694,-0.28523 -0.16923,-2.49263 -0.2241,-2.90414 -0.24884,-1.86623 -0.56442,-4.04468 -1.74793,-5.56627 -0.69289,-0.89083 -2.40358,-1.00839 -3.40623,-1.00839 -5.73196,0 -6.79097,3.61417 -7.88811,8.55109 -0.30126,1.35566 -0.51799,4.23707 -1.74793,5.12258 -2.76321,1.98944 -8.16089,2.34979 -11.33822,2.04879 -2.78126,-0.26348 -11.809575,-0.28165 -14.253306,1.05703 -1.380564,0.75628 -2.418522,2.07505 -3.540684,3.14616 -4.199585,4.00854 -3.175992,6.47152 -2.1513,11.69724 0.690982,3.67541 -0.353014,5.45041 -2.465036,9.39813 z"
       id="path19986"
       sodipodi:nodetypes="cssssssssssssssssssscc"
       inkscape:label="Beard" />
    <path
       style="fill:#ffffff;fill-opacity:1;stroke:#000000;stroke-width:3;stroke-linecap:round;stroke-linejoin:round;stroke-dasharray:none"
       d="m 105.61901,150.88695 c -1.57149,-1.6486 -5.45867,-1.80347 -7.035556,-0.0856 -0.584793,0.63709 -0.866743,1.70915 -1.125056,2.50988 -0.979477,3.03626 -0.983559,6.6923 2.804712,7.55816 1.88194,0.43014 3.93006,-0.60704 5.56189,-1.42607 0.46846,-0.23511 2.56354,-1.93709 2.44608,-2.41278"
       id="path19988"
       inkscape:label="nose"
       sodipodi:nodetypes="cssssc" />
    <path
       style="color:#000000;fill:#000000;stroke-width:1.194;stroke-linecap:round;stroke-linejoin:round;-inkscape-stroke:none"
       d="m 94.410013,146.08317 c -0.913926,-0.004 -2.002142,0.14541 -2.615326,0.82311 -0.577795,0.63859 -0.685483,1.68315 -0.526027,2.52944 0.163382,0.86713 0.605928,1.94535 1.445181,2.21786 1.022197,0.33192 2.273037,-0.37099 3.011394,-1.15194 0.529941,-0.56051 0.767678,-1.43553 0.704397,-2.2043 -0.05751,-0.69868 -0.425139,-1.41749 -0.95915,-1.87169 -0.28296,-0.24067 -0.689004,-0.34109 -1.060469,-0.34248 z"
       id="path19992"
       sodipodi:nodetypes="aaaaaaaaaa" />
    <path
       style="color:#000000;fill:#000000;stroke-width:1.15294;stroke-linecap:round;stroke-linejoin:round;-inkscape-stroke:none"
       d="m 109.36722,151.07009 c 0.79566,0.38176 1.80646,0.70288 2.62211,0.36591 0.76857,-0.31751 1.29536,-1.18392 1.50699,-1.9881 0.21684,-0.82399 0.2777,-1.94778 -0.34134,-2.53324 -0.75398,-0.71309 -2.1362,-0.61839 -3.10381,-0.2432 -0.69448,0.26924 -1.26444,0.93388 -1.52783,1.6306 -0.23934,0.63321 -0.21661,1.41247 0.0609,2.0299 0.14706,0.32717 0.45958,0.58302 0.78298,0.73817 z"
       id="path19992-3"
       sodipodi:nodetypes="aaaaaaaaaa" />
    <path
       style="fill:#ffffff;fill-opacity:1;stroke:#000000;stroke-width:4;stroke-linecap:round;stroke-linejoin:round;stroke-dasharray:none"
       d="m 100.09422,167.77038 c 1.27864,-0.27624 2.5896,-0.25091 3.88909,-0.25091"
       id="path20774"
       inkscape:label="Mouth" />
    <g
       id="g20772"
       inkscape:label="hat"
       style="stroke-width:5;stroke-dasharray:none"
       transform="translate(3.062596,85.752687)">
      <path
         d="m 134.38355,38.07745 c 8.99419,1.036704 24.58152,1.707386 33.54773,2.916777 5.76005,0.28492 12.47286,2.175313 14.75244,8.095443 1.35969,5.445407 -5.90657,7.18292 -9.98719,7.573024 -7.49649,1.587189 -21.58044,0.805927 -29.16364,0.860479 -7.59699,-0.304581 -15.1942,-0.152223 -22.78283,-0.674297 -9.23592,0.421491 -18.45145,-0.757244 -27.674681,-0.536029 C 81.018115,57.004508 68.914383,57.72966 56.841343,57.16081 50.444309,56.930712 42.93798,55.419645 39.426219,49.474162 c -1.822997,-5.091951 4.836233,-7.136183 8.54372,-8.279782 9.072656,-2.635423 18.593132,-2.865646 27.924718,-3.935329 4.138225,-0.299329 8.284484,-0.467546 12.427205,-0.689798 l -2.095096,3.271757 c 3.50288,-5.177157 5.315175,-11.434389 5.996143,-17.640174 0.247339,-2.254042 1.367303,-4.317261 2.621899,-6.231806 0.564814,-0.861922 1.370989,-1.504742 2.016845,-2.299113 5.274927,-6.4878988 11.195777,-7.652883 19.316897,-7.8452179 2.15675,-0.051079 4.38903,-0.2699512 6.54354,-0.040335 1.43759,0.1532112 2.8625,0.4310946 4.3026,0.584862 0.8716,0.093065 1.82705,0.1085548 2.68913,0.3025148 2.65941,0.5983435 6.98409,2.0651189 9.09821,3.8318541 1.48008,1.236877 2.5585,2.740269 3.60791,4.336047 1.28727,1.957447 2.43894,4.077131 3.04768,6.352811 0.38729,1.219771 0.30999,2.346629 0.53783,3.468837 -1.6535,-0.859056 -3.41915,-1.968622 -4.88525,-2.783137 -1.86115,-1.02359 -3.85756,-1.847732 -5.9609,-2.198274 -1.07409,-0.179009 -2.5785,-0.296387 -3.65273,-0.02017 -0.66047,0.16983 -1.41384,0.564695 -2.10648,0.564695 -0.0888,0 0.28412,0.02043 0.2465,0.100838 -0.0508,0.108651 -0.16433,0.174786 -0.2465,0.262179 l -2.21853,-3.388164 c 2.47177,4.430969 1.92298,9.794886 3.63032,14.500546 0.79402,2.188427 2.09116,4.179101 3.27177,6.171303 0.38451,0.648824 1.37153,2.827567 1.88239,3.287326 0.25538,0.229833 0.62111,1.250394 0.9636,1.250394 0.0686,0 -0.13368,-0.04908 -0.20168,-0.04033 z"
         id="path20766"
         style="fill:#0074ab;fill-opacity:1;stroke-width:5;stroke-dasharray:none"
         inkscape:original-d="M 0,0"
         inkscape:path-effect="#path-effect20764"
         class="UnoptimicedTransforms"
         inkscape:label="Hat Fill" />
      <path
         style="fill:none;fill-opacity:1;stroke:#000000;stroke-width:5;stroke-linecap:round;stroke-linejoin:round;stroke-dasharray:none"
         d="m 134.38355,38.07745 c 8.99419,1.036704 24.58152,1.707386 33.54773,2.916777 5.76005,0.28492 12.47286,2.175313 14.75244,8.095443 1.35969,5.445407 -5.90657,7.18292 -9.98719,7.573024 -7.49649,1.587189 -21.58044,0.805927 -29.16364,0.860479 -7.59699,-0.304581 -15.1942,-0.152223 -22.78283,-0.674297 -9.23592,0.421491 -18.45145,-0.757244 -27.674681,-0.536029 C 81.018115,57.004508 68.914383,57.72966 56.841343,57.16081 50.444309,56.930712 42.93798,55.419645 39.426219,49.474162 c -1.822997,-5.091951 4.836233,-7.136183 8.54372,-8.279782 9.072656,-2.635423 18.593132,-2.865646 27.924718,-3.935329 4.138225,-0.299329 8.284484,-0.467546 12.427205,-0.689798"
         id="path20762"
         class="UnoptimicedTransforms" />
      <path
         style="fill:none;fill-opacity:1;stroke:#000000;stroke-width:5;stroke-linecap:round;stroke-linejoin:round;stroke-dasharray:none"
         d="m 86.226766,39.84101 c 3.50288,-5.177157 5.315175,-11.434389 5.996143,-17.640174 0.247339,-2.254042 1.367303,-4.317261 2.621899,-6.231806 0.564814,-0.861922 1.370989,-1.504742 2.016845,-2.299113 5.274927,-6.4878988 11.195777,-7.652883 19.316897,-7.8452179 2.15675,-0.051079 4.38903,-0.2699512 6.54354,-0.040335 1.43759,0.1532112 2.8625,0.4310946 4.3026,0.584862 0.8716,0.093065 1.82705,0.1085548 2.68913,0.3025148 2.65941,0.5983435 6.98409,2.0651189 9.09821,3.8318541 1.48008,1.236877 2.5585,2.740269 3.60791,4.336047 1.28727,1.957447 2.43894,4.077131 3.04768,6.352811 0.38729,1.219771 0.30999,2.346629 0.53783,3.468837 -1.6535,-0.859056 -3.41915,-1.968622 -4.88525,-2.783137 -1.86115,-1.02359 -3.85756,-1.847732 -5.9609,-2.198274 -1.07409,-0.179009 -2.5785,-0.296387 -3.65273,-0.02017 -0.66047,0.16983 -1.41384,0.564695 -2.10648,0.564695 -0.0888,0 0.28412,0.02043 0.2465,0.100838 -0.0508,0.108651 -0.16433,0.174786 -0.2465,0.262179"
         id="path20760"
         class="UnoptimicedTransforms"
         sodipodi:nodetypes="cssssssssscccssscc" />
      <path
         style="fill:none;fill-opacity:1;stroke:#000000;stroke-width:5;stroke-linecap:round;stroke-linejoin:round;stroke-dasharray:none"
         d="m 127.18156,17.199257 c 2.47177,4.430969 1.92298,9.794886 3.63032,14.500546 0.79402,2.188427 2.09116,4.179101 3.27177,6.171303 0.38451,0.648824 1.37153,2.827567 1.88239,3.287326 0.25538,0.229833 0.62111,1.250394 0.9636,1.250394 0.0686,0 -0.13368,-0.04908 -0.20168,-0.04033"
         id="path20006"
         class="UnoptimicedTransforms" />
    </g>
    <path
       style="fill:#58508d;fill-opacity:1;stroke:#000000;stroke-width:5.24218;stroke-linecap:round;stroke-linejoin:round;stroke-dasharray:none"
       d="m 21.133032,122.30811 c -0.84335,-0.23409 -6.33172,0.0172 -9.26902,1.03576 -2.9886547,1.03641 -6.1508181,2.48815 -8.0587274,5.01125 -3.96287596,5.2407 -6.0427364,12.39713 -5.4550195,18.94112 0.6432237,7.16204 3.6986907,15.18058 9.5684156,19.33448 5.2082183,3.68576 13.0591213,4.62109 19.0026443,2.30056 7.021038,-2.74123 14.696822,-12.39676 14.667833,-17.20868"
       id="path24890"
       sodipodi:nodetypes="caaaaac"
       inkscape:label="Pouch Butt"
       transform="matrix(-1.1583552,0.4187639,0.4187639,1.1583552,111.30379,45.551257)" />
    <path
       style="fill:#0074ab;fill-opacity:1;stroke:#000000;stroke-width:4;stroke-linecap:round;stroke-linejoin:round"
       d="m 162.09601,185.83382 c 10.11299,-1.76829 21.23305,6.152 27.15023,14.54166 5.42699,7.69467 6.1045,18.7103 4.20632,27.93294 -1.57551,7.65487 -5.70755,15.82498 -12.36326,19.92142 -5.91979,3.64349 -15.86979,6.76186 -20.77271,1.83436 -3.0334,-3.04861 0.36892,-8.62634 1.19917,-12.84608 0.96272,-4.89302 3.89453,-9.34681 4.35625,-14.31222 0.50686,-5.45072 -0.20814,-11.08671 -1.80318,-16.32341 -1.59068,-5.22237 -8.26671,-9.10099 -7.58184,-14.51711 0.3506,-2.77263 2.85608,-5.7502 5.60902,-6.23156 z"
       id="path381"
       sodipodi:nodetypes="aaaaaaaaaa"
       inkscape:label="Right Arm" />
    <path
       style="fill:#ffffff;fill-opacity:1;stroke:#000000;stroke-width:4.51833;stroke-linecap:round;stroke-linejoin:round"
       d="m 161.1619,238.35389 c -3.30184,-0.87964 -6.89171,0.5463 -9.94088,2.40611 -4.66382,2.84468 -12.98565,6.32154 -11.86864,12.83317 1.55297,9.05306 13.87132,9.58548 20.78605,7.1389 4.59047,-1.62421 10.12654,-7.01022 10.01341,-13.16469 -0.0464,-2.52552 -2.77042,-3.57753 -4.30288,-5.14345 -1.4766,-1.50886 -2.84401,-3.57903 -4.68706,-4.07004 z"
       id="path984"
       sodipodi:nodetypes="aaaaaaa"
       inkscape:label="Right Hand" />
    <path
       style="fill:#2e2b4a;fill-opacity:1;stroke:#000000;stroke-width:2.8;stroke-linecap:round;stroke-linejoin:round;stroke-dasharray:none"
       d="m 139.13853,199.28922 c 5.76404,0.22773 11.52179,3.56623 14.60769,8.2249 2.84826,4.29991 2.38775,10.26027 1.73087,15.37596 -0.51354,3.99944 -2.35831,7.78092 -4.34629,11.28908 -1.69248,2.98671 -6.34357,8.11316 -6.34357,8.11316 -0.66184,3.58362 1.19214,11.21776 4.19456,15.36257 l -5.9429,1.14857 c -1.80186,-2.76953 -4.31492,-9.9293 -4.63402,-13.09185 l -0.71825,0.0373 c -2.92623,6.411 -3.72065,13.03518 -4.67036,19.64383 l -5.66258,0.0105 c 0.80991,-7.7524 2.11929,-15.35495 4.95847,-22.49857 0,0 -5.27671,-3.01883 -5.62889,-4.12965"
       id="path1688"
       sodipodi:nodetypes="caaaccccccccc"
       inkscape:label="Tie" />
    <path
       style="fill:#1b182a;fill-opacity:1;stroke:#000000;stroke-width:3.85676;stroke-linecap:round;stroke-linejoin:round;stroke-dasharray:none"
       d="m 145.78684,241.09104 c 0.37613,-1.0847 -1.06839,-2.17353 -2.1619,-2.68654 -1.5498,-0.72709 -3.57079,-0.46583 -5.31959,-0.12567 -1.73391,0.33737 -4.55907,0.51976 -4.82771,2.08955 -0.3121,1.82379 2.58431,3.22143 4.59491,3.49725 2.68806,0.36877 6.89328,-0.40707 7.71429,-2.77459 z"
       id="path25768"
       inkscape:label="knot"
       sodipodi:nodetypes="aaaaaa" />
    <path
       style="fill:#58508d;fill-opacity:1;stroke:#000000;stroke-width:3.13118;stroke-linecap:round;stroke-linejoin:round;stroke-dasharray:none"
       d="m 18.091511,129.86469 c -1.50632,-5.86573 1.038728,-6.2094 2.363912,-7.18616 2.426535,-1.78852 5.116177,-0.83933 7.10632,-1.70416 1.990145,-0.86483 3.760246,-4.11428 5.508706,-3.89607 1.186476,0.14805 5.020261,4.07657 6.078219,4.5989 1.429382,0.70572 4.973969,-0.54579 6.013855,0.54393 1.194099,1.2513 0.07682,4.03027 0.674557,5.58884 0.843786,2.20016 2.702964,3.07796 2.672727,5.33426 -0.03417,2.54927 -2.753358,5.27143 -3.223251,8.11376 -0.469891,2.84231 1.309523,5.80479 0.07415,8.13532 -2.416144,4.55806 -2.670108,2.20457 -7.833764,4.29358 -2.783577,1.12615 -5.835883,0.97823 -6.726949,0.73171 -1.932879,-0.53475 -4.597548,-1.62481 -6.068987,-2.8748 -1.189767,-1.01072 -5.461474,-1.00187 -6.113684,-2.31005 -0.562373,-1.12797 -0.61423,-4.99884 -1.100219,-6.1443 -1.201189,-2.83121 -3.639201,-5.83255 -4.017052,-6.13573 -0.268597,-0.21549 -0.175501,-8.99559 4.591467,-7.08903 z"
       id="path24896"
       sodipodi:nodetypes="cssssssssssssssscc"
       inkscape:label="Frill"
       transform="matrix(-1.1583552,0.4187639,0.4187639,1.1583552,111.30379,45.551257)" />
    <path
       style="fill:#0e0d16;fill-opacity:1;stroke:#000000;stroke-width:3.13138;stroke-linecap:round;stroke-linejoin:round;stroke-dasharray:none"
       d="m 31.246188,124.56016 c 3.80203,0.60216 4.980181,1.90448 6.952564,4.39989 1.972382,2.49542 3.308607,5.97037 3.457116,9.62826 0.148508,3.6579 -1.708194,8.99201 -5.030186,10.37903 -3.321989,1.38702 -4.041136,1.91956 -7.456787,0.34128 -3.41565,-1.57828 -7.784724,-6.9952 -7.937436,-10.3397 -0.152713,-3.34451 -0.546415,-4.04666 0.952144,-7.67903 1.498556,-3.63238 5.260555,-7.3319 9.062585,-6.72973 z"
       id="path24906"
       sodipodi:nodetypes="zzzzzzzz"
       inkscape:label="Hole"
       transform="matrix(-1.1583552,0.4187639,0.4187639,1.1583552,111.30379,45.551257)" />
  </g>
</svg>
