<?xml version="1.0" encoding="UTF-8" standalone="no"?>
<!-- Created with Inkscape (http://www.inkscape.org/) -->

<svg
   width="210mm"
   height="297mm"
   viewBox="0 0 210 297"
   version="1.1"
   id="svg5"
   inkscape:version="1.2.2 (732a01da63, 2022-12-09)"
   sodipodi:docname="Librarian.svg"
   xmlns:inkscape="http://www.inkscape.org/namespaces/inkscape"
   xmlns:sodipodi="http://sodipodi.sourceforge.net/DTD/sodipodi-0.dtd"
   xmlns="http://www.w3.org/2000/svg"
   xmlns:svg="http://www.w3.org/2000/svg">
  <sodipodi:namedview
     id="namedview7"
     pagecolor="#7c7c7c"
     bordercolor="#000000"
     borderopacity="0.25"
     inkscape:showpageshadow="2"
     inkscape:pageopacity="0"
     inkscape:pagecheckerboard="true"
     inkscape:deskcolor="#2c2c2c"
     inkscape:document-units="mm"
     showgrid="false"
     inkscape:lockguides="false"
     inkscape:zoom="0.61088263"
     inkscape:cx="346.22035"
     inkscape:cy="550.02382"
     inkscape:window-width="1280"
     inkscape:window-height="1017"
     inkscape:window-x="1280"
     inkscape:window-y="0"
     inkscape:window-maximized="0"
     inkscape:current-layer="layer3" />
  <defs
     id="defs2">
    <inkscape:path-effect
       effect="fill_between_many"
       method="originald"
       linkedpaths="#path20006,0,1|"
       id="path-effect20750" />
    <inkscape:path-effect
       effect="fill_between_many"
       method="originald"
       linkedpaths="#path20006,0,1|"
       id="path-effect20754" />
    <inkscape:path-effect
       effect="fill_between_many"
       method="originald"
       linkedpaths="#path20762,0,1|#path20760,0,1|#path20006,0,1|"
       id="path-effect20764"
       join="true"
       close="true"
       autoreverse="true" />
  </defs>
  <g
     inkscape:label="Body"
     inkscape:groupmode="layer"
     id="layer1">
    <path
       style="fill:#0074ab;fill-opacity:1;stroke:#000000;stroke-width:5;stroke-linecap:round;stroke-linejoin:round;stroke-dasharray:none"
       d="m 15.501179,226.88658 c 2.062651,-7.8867 5.29613,-15.43159 10.077949,-22.07554 2.566513,-3.56596 5.064627,-7.36127 8.398292,-10.26769 6.626603,-5.77735 17.604414,-12.77762 26.87453,-11.49412 0.875538,0.12123 1.768814,0.51303 2.598717,0.7986 2.568754,0.88392 3.796442,1.86634 3.929766,4.70603 0.165214,3.51888 -2.404896,6.98283 -4.722056,9.44057 -1.252916,1.32894 -2.718086,2.44801 -3.866385,3.87891 -1.996197,2.48747 -3.638021,5.2558 -5.641115,7.72929 -1.230688,1.5197 -2.692731,2.79686 -3.99315,4.24969 -6.339586,7.08256 -10.541918,12.37213 -19.870674,15.60119 -1.423689,0.49279 -2.881192,0.99566 -4.405142,1.05529 -1.213673,0.0475 -2.252465,-0.42416 -3.4227,-0.57043 -0.744915,-0.0931 -1.555972,-0.0876 -2.2818,-0.31373 -0.829935,-0.25855 -1.611754,-0.8363 -2.186724,-1.48312 -0.160794,-0.18088 -0.140542,-0.49045 -0.348609,-0.62747 -0.362486,-0.2387 -0.7606,-0.41831 -1.140899,-0.62747 z"
       id="path26722"
       inkscape:label="Right arm" />
    <path
       style="fill:#0074ab;fill-opacity:1;stroke:#000000;stroke-width:5;stroke-linecap:round;stroke-linejoin:round;stroke-dasharray:none"
       d="m 91.861558,171.44596 c -7.803976,-0.19283 -15.854914,1.23801 -23.073458,4.30623 -9.031996,4.55002 -16.607628,11.83808 -22.508363,19.97268 -6.857969,11.41035 -7.589589,25.49533 -6.10821,38.43439 1.119111,11.37457 5.067397,23.01528 14.174511,30.49532 13.318958,12.26384 31.732399,16.91377 49.437322,17.35047 14.38117,1.33386 29.07163,-1.13898 42.54974,-6.20753 7.53497,-2.9496 15.26532,-6.11058 20.77671,-12.31062 8.41606,-8.63166 18.39559,-18.0219 18.88098,-30.94645 0.32188,-11.98233 0.48399,-25.09437 -6.03976,-35.668 -3.5802,-5.99746 -11.95005,-11.6745 -17.64277,-15.04608 -10.03285,-6.57773 -19.50669,-9.23346 -31.77931,-9.2477 -9.95254,-0.16701 -19.96635,-0.53102 -29.81513,1.19646 -3.135966,0.3317 -5.94649,-1.46699 -8.852262,-2.32917 z"
       id="path19928"
       sodipodi:nodetypes="ssssssssssssss"
       inkscape:label="Body" />
    <path
       style="fill:#ffffff;fill-opacity:1;stroke:#000000;stroke-width:5;stroke-linecap:round;stroke-linejoin:round;stroke-dasharray:none"
       d="m 93.191627,167.36559 c -2.495008,-2.23358 -3.930015,-5.5817 -4.836235,-8.80547 -1.342514,-4.77583 -1.830871,-10.04122 -0.681615,-14.86721 0.678244,-2.8481 1.890988,-6.00713 4.313692,-7.65096 2.620449,-1.77801 6.258691,-1.00713 9.413821,-1.27774 2.01034,-0.17243 4.03522,-0.34215 6.04919,-0.21916 3.83519,0.23421 7.75303,0.55646 11.38307,1.81598 3.22012,1.11729 6.88156,2.26182 8.92535,4.98953 2.65615,3.54498 3.1901,8.53004 2.96512,12.95399 -0.2039,4.0094 -1.08029,8.5146 -3.8644,11.40693 -2.55505,2.65438 -6.70568,3.2575 -10.32565,3.94293 -5.6998,1.07924 -11.70702,1.26738 -17.40244,0.16525 -2.103279,-0.407 -4.343758,-1.02517 -5.939903,-2.45407 z"
       id="path20036"
       inkscape:label="face"
       sodipodi:nodetypes="aaaaaaaaaaaaa" />
    <path
       style="fill:#58508d;fill-opacity:1;stroke:#000000;stroke-width:5;stroke-linecap:round;stroke-linejoin:round;stroke-dasharray:none"
       d="m 86.124754,185.11963 c -0.658431,1.22216 -1.626542,2.52576 -1.927206,3.91252 -0.90673,4.18212 -0.620599,8.27474 0,12.46362 0.913873,6.1684 3.227736,12.53889 10.66687,11.37455 2.402999,-0.3761 4.417787,-1.53847 6.498722,-2.66213 3.72609,-2.012 7.53554,-4.59438 10.17387,-7.98639 1.74313,-2.24108 3.00263,-4.71891 4.61633,-7.01834 1.62368,-2.31366 3.34853,-4.60485 5.06453,-6.85701 3.64027,-4.77766 8.63992,-8.18836 11.6977,-13.47199 2.37641,-4.10628 2.47983,-7.54076 2.82358,-12.18127 0.12999,-1.75478 1.07031,-5.81309 -0.44819,-7.17968 -0.28145,-0.2533 -0.0456,-1.61411 -0.40336,-1.9361 -0.31694,-0.28523 -0.16923,-2.49263 -0.2241,-2.90414 -0.24884,-1.86623 -0.56442,-4.04468 -1.74793,-5.56627 -0.69289,-0.89083 -2.40358,-1.00839 -3.40623,-1.00839 -5.73196,0 -6.79097,3.61417 -7.88811,8.55109 -0.30126,1.35566 -0.51799,4.23707 -1.74793,5.12258 -2.76321,1.98944 -8.16089,2.34979 -11.33822,2.04879 -2.78126,-0.26348 -11.809575,-0.28165 -14.253306,1.05703 -1.380564,0.75628 -2.418522,2.07505 -3.540684,3.14616 -4.199585,4.00854 -3.175992,6.47152 -2.1513,11.69724 0.690982,3.67541 -0.353014,5.45041 -2.465036,9.39813 z"
       id="path19986"
       sodipodi:nodetypes="cssssssssssssssssssscc"
       inkscape:label="Beard" />
    <path
       style="fill:#ffffff;fill-opacity:1;stroke:#000000;stroke-width:3;stroke-linecap:round;stroke-linejoin:round;stroke-dasharray:none"
       d="m 105.61901,150.88695 c -1.57149,-1.6486 -5.45867,-1.80347 -7.035556,-0.0856 -0.584793,0.63709 -0.866743,1.70915 -1.125056,2.50988 -0.979477,3.03626 -0.983559,6.6923 2.804712,7.55816 1.88194,0.43014 3.93006,-0.60704 5.56189,-1.42607 0.46846,-0.23511 2.56354,-1.93709 2.44608,-2.41278"
       id="path19988"
       inkscape:label="nose"
       sodipodi:nodetypes="cssssc" />
    <path
       style="color:#000000;fill:#000000;stroke-width:1.194;stroke-linecap:round;stroke-linejoin:round;-inkscape-stroke:none"
       d="m 94.410013,146.08317 c -0.913926,-0.004 -2.002142,0.14541 -2.615326,0.82311 -0.577795,0.63859 -0.685483,1.68315 -0.526027,2.52944 0.163382,0.86713 0.605928,1.94535 1.445181,2.21786 1.022197,0.33192 2.273037,-0.37099 3.011394,-1.15194 0.529941,-0.56051 0.767678,-1.43553 0.704397,-2.2043 -0.05751,-0.69868 -0.425139,-1.41749 -0.95915,-1.87169 -0.28296,-0.24067 -0.689004,-0.34109 -1.060469,-0.34248 z"
       id="path19992"
       sodipodi:nodetypes="aaaaaaaaaa" />
    <path
       style="color:#000000;fill:#000000;stroke-width:1.15294;stroke-linecap:round;stroke-linejoin:round;-inkscape-stroke:none"
       d="m 109.36722,151.07009 c 0.79566,0.38176 1.80646,0.70288 2.62211,0.36591 0.76857,-0.31751 1.29536,-1.18392 1.50699,-1.9881 0.21684,-0.82399 0.2777,-1.94778 -0.34134,-2.53324 -0.75398,-0.71309 -2.1362,-0.61839 -3.10381,-0.2432 -0.69448,0.26924 -1.26444,0.93388 -1.52783,1.6306 -0.23934,0.63321 -0.21661,1.41247 0.0609,2.0299 0.14706,0.32717 0.45958,0.58302 0.78298,0.73817 z"
       id="path19992-3"
       sodipodi:nodetypes="aaaaaaaaaa" />
    <path
       style="fill:#ffffff;fill-opacity:1;stroke:#000000;stroke-width:4;stroke-linecap:round;stroke-linejoin:round;stroke-dasharray:none"
       d="m 100.09422,167.77038 c 1.27864,-0.27624 2.5896,-0.25091 3.88909,-0.25091"
       id="path20774"
       inkscape:label="Mouth" />
    <g
       id="g20772"
       inkscape:label="hat"
       style="stroke-width:5;stroke-dasharray:none"
       transform="translate(3.062596,85.752687)">
      <path
         d="m 134.38355,38.07745 c 8.99419,1.036704 24.58152,1.707386 33.54773,2.916777 5.76005,0.28492 12.47286,2.175313 14.75244,8.095443 1.35969,5.445407 -5.90657,7.18292 -9.98719,7.573024 -7.49649,1.587189 -21.58044,0.805927 -29.16364,0.860479 -7.59699,-0.304581 -15.1942,-0.152223 -22.78283,-0.674297 -9.23592,0.421491 -18.45145,-0.757244 -27.674681,-0.536029 C 81.018115,57.004508 68.914383,57.72966 56.841343,57.16081 50.444309,56.930712 42.93798,55.419645 39.426219,49.474162 c -1.822997,-5.091951 4.836233,-7.136183 8.54372,-8.279782 9.072656,-2.635423 18.593132,-2.865646 27.924718,-3.935329 4.138225,-0.299329 8.284484,-0.467546 12.427205,-0.689798 l -2.095096,3.271757 c 3.50288,-5.177157 5.315175,-11.434389 5.996143,-17.640174 0.247339,-2.254042 1.367303,-4.317261 2.621899,-6.231806 0.564814,-0.861922 1.370989,-1.504742 2.016845,-2.299113 5.274927,-6.4878988 11.195777,-7.652883 19.316897,-7.8452179 2.15675,-0.051079 4.38903,-0.2699512 6.54354,-0.040335 1.43759,0.1532112 2.8625,0.4310946 4.3026,0.584862 0.8716,0.093065 1.82705,0.1085548 2.68913,0.3025148 2.65941,0.5983435 6.98409,2.0651189 9.09821,3.8318541 1.48008,1.236877 2.5585,2.740269 3.60791,4.336047 1.28727,1.957447 2.43894,4.077131 3.04768,6.352811 0.38729,1.219771 0.30999,2.346629 0.53783,3.468837 -1.6535,-0.859056 -3.41915,-1.968622 -4.88525,-2.783137 -1.86115,-1.02359 -3.85756,-1.847732 -5.9609,-2.198274 -1.07409,-0.179009 -2.5785,-0.296387 -3.65273,-0.02017 -0.66047,0.16983 -1.41384,0.564695 -2.10648,0.564695 -0.0888,0 0.28412,0.02043 0.2465,0.100838 -0.0508,0.108651 -0.16433,0.174786 -0.2465,0.262179 l -2.21853,-3.388164 c 2.47177,4.430969 1.92298,9.794886 3.63032,14.500546 0.79402,2.188427 2.09116,4.179101 3.27177,6.171303 0.38451,0.648824 1.37153,2.827567 1.88239,3.287326 0.25538,0.229833 0.62111,1.250394 0.9636,1.250394 0.0686,0 -0.13368,-0.04908 -0.20168,-0.04033 z"
         id="path20766"
         style="fill:#0074ab;fill-opacity:1;stroke-width:5;stroke-dasharray:none"
         inkscape:original-d="M 0,0"
         inkscape:path-effect="#path-effect20764"
         class="UnoptimicedTransforms"
         inkscape:label="Hat Fill" />
      <path
         style="fill:none;fill-opacity:1;stroke:#000000;stroke-width:5;stroke-linecap:round;stroke-linejoin:round;stroke-dasharray:none"
         d="m 134.38355,38.07745 c 8.99419,1.036704 24.58152,1.707386 33.54773,2.916777 5.76005,0.28492 12.47286,2.175313 14.75244,8.095443 1.35969,5.445407 -5.90657,7.18292 -9.98719,7.573024 -7.49649,1.587189 -21.58044,0.805927 -29.16364,0.860479 -7.59699,-0.304581 -15.1942,-0.152223 -22.78283,-0.674297 -9.23592,0.421491 -18.45145,-0.757244 -27.674681,-0.536029 C 81.018115,57.004508 68.914383,57.72966 56.841343,57.16081 50.444309,56.930712 42.93798,55.419645 39.426219,49.474162 c -1.822997,-5.091951 4.836233,-7.136183 8.54372,-8.279782 9.072656,-2.635423 18.593132,-2.865646 27.924718,-3.935329 4.138225,-0.299329 8.284484,-0.467546 12.427205,-0.689798"
         id="path20762"
         class="UnoptimicedTransforms" />
      <path
         style="fill:none;fill-opacity:1;stroke:#000000;stroke-width:5;stroke-linecap:round;stroke-linejoin:round;stroke-dasharray:none"
         d="m 86.226766,39.84101 c 3.50288,-5.177157 5.315175,-11.434389 5.996143,-17.640174 0.247339,-2.254042 1.367303,-4.317261 2.621899,-6.231806 0.564814,-0.861922 1.370989,-1.504742 2.016845,-2.299113 5.274927,-6.4878988 11.195777,-7.652883 19.316897,-7.8452179 2.15675,-0.051079 4.38903,-0.2699512 6.54354,-0.040335 1.43759,0.1532112 2.8625,0.4310946 4.3026,0.584862 0.8716,0.093065 1.82705,0.1085548 2.68913,0.3025148 2.65941,0.5983435 6.98409,2.0651189 9.09821,3.8318541 1.48008,1.236877 2.5585,2.740269 3.60791,4.336047 1.28727,1.957447 2.43894,4.077131 3.04768,6.352811 0.38729,1.219771 0.30999,2.346629 0.53783,3.468837 -1.6535,-0.859056 -3.41915,-1.968622 -4.88525,-2.783137 -1.86115,-1.02359 -3.85756,-1.847732 -5.9609,-2.198274 -1.07409,-0.179009 -2.5785,-0.296387 -3.65273,-0.02017 -0.66047,0.16983 -1.41384,0.564695 -2.10648,0.564695 -0.0888,0 0.28412,0.02043 0.2465,0.100838 -0.0508,0.108651 -0.16433,0.174786 -0.2465,0.262179"
         id="path20760"
         class="UnoptimicedTransforms"
         sodipodi:nodetypes="cssssssssscccssscc" />
      <path
         style="fill:none;fill-opacity:1;stroke:#000000;stroke-width:5;stroke-linecap:round;stroke-linejoin:round;stroke-dasharray:none"
         d="m 127.18156,17.199257 c 2.47177,4.430969 1.92298,9.794886 3.63032,14.500546 0.79402,2.188427 2.09116,4.179101 3.27177,6.171303 0.38451,0.648824 1.37153,2.827567 1.88239,3.287326 0.25538,0.229833 0.62111,1.250394 0.9636,1.250394 0.0686,0 -0.13368,-0.04908 -0.20168,-0.04033"
         id="path20006"
         class="UnoptimicedTransforms" />
    </g>
    <g
       id="g25638"
       inkscape:label="Pouch"
       transform="matrix(1.2317264,0,0,1.2317264,17.364685,42.878638)"
       style="stroke-width:5;stroke-dasharray:none">
      <path
         style="fill:#58508d;fill-opacity:1;stroke:#000000;stroke-width:5.24218;stroke-linecap:round;stroke-linejoin:round;stroke-dasharray:none"
         d="m 21.133032,122.30811 c -0.84335,-0.23409 -6.33172,0.0172 -9.26902,1.03576 -2.9886547,1.03641 -6.1508181,2.48815 -8.0587274,5.01125 -3.96287596,5.2407 -6.0427364,12.39713 -5.4550195,18.94112 0.6432237,7.16204 3.6986907,15.18058 9.5684156,19.33448 5.2082183,3.68576 13.0591213,4.62109 19.0026443,2.30056 7.021038,-2.74123 14.696822,-12.39676 14.667833,-17.20868"
         id="path24890"
         sodipodi:nodetypes="caaaaac"
         inkscape:label="Butt" />
      <path
         style="fill:#2e2b4a;fill-opacity:1;stroke:#000000;stroke-width:2.08745;stroke-linecap:round;stroke-linejoin:round;stroke-dasharray:none"
         d="m 38.994322,154.0801 c -0.08811,1.81362 -3.628457,1.86455 -3.824665,4.0028 -1.406129,3.30238 1.1299,6.4431 1.889717,9.59023 -0.401471,1.07975 -3.510961,1.63934 -4.448529,1.08789 -1.351161,-2.38761 -2.304668,-4.96656 -2.370652,-7.66036 -0.130617,-0.77504 -0.151182,-3.26695 -0.430541,-1.15851 -0.794551,3.75421 -2.575906,7.28021 -3.239558,11.06781 -0.274733,1.29644 -0.180511,2.80825 -1.931463,3.0924 -1.019244,0.43886 -2.038487,0.87771 -3.057731,1.31659 0.616072,-4.63606 1.177848,-9.32374 2.967083,-13.74309 0.316134,-1.63379 1.973601,-3.78255 0.0051,-5.0326 -1.911492,-1.73718 -5.526506,-2.95226 -7.398603,-5.20017 -2.78943,-3.34934 -4.841531,-7.48535 -5.130551,-11.64896 -0.309086,-4.45266 0.129338,-9.86016 3.721953,-12.96573 1.270235,-1.09804 3.633598,-1.46517 5.180397,-1.03139 5.451858,0.4622 10.903718,0.92438 16.355577,1.38655 l 1.712449,26.89654 z"
         id="path24904"
         sodipodi:nodetypes="ccccsscccccaaacaac"
         inkscape:label="Tie" />
      <path
         style="fill:#1b182a;fill-opacity:1;stroke:#000000;stroke-width:3.13118;stroke-linecap:round;stroke-linejoin:round;stroke-dasharray:none"
         d="m 25.365629,157.5509 c -0.446086,-0.8184 0.565287,-1.88327 1.372467,-2.44013 1.143985,-0.78924 2.797301,-0.84993 4.243188,-0.81109 1.433585,0.0386 3.720352,-0.19265 4.145133,1.02857 0.493511,1.41883 -1.639307,2.9249 -3.212571,3.4143 -2.103378,0.65431 -5.574563,0.59463 -6.548217,-1.19165 z"
         id="path25768"
         inkscape:label="knot"
         sodipodi:nodetypes="aaaaaa" />
      <path
         style="fill:#58508d;fill-opacity:1;stroke:#000000;stroke-width:3.13118;stroke-linecap:round;stroke-linejoin:round;stroke-dasharray:none"
         d="m 18.091511,129.86469 c -1.50632,-5.86573 1.038728,-6.2094 2.363912,-7.18616 2.426535,-1.78852 5.116177,-0.83933 7.10632,-1.70416 1.990145,-0.86483 3.760246,-4.11428 5.508706,-3.89607 1.186476,0.14805 5.020261,4.07657 6.078219,4.5989 1.429382,0.70572 4.973969,-0.54579 6.013855,0.54393 1.194099,1.2513 0.07682,4.03027 0.674557,5.58884 0.843786,2.20016 2.702964,3.07796 2.672727,5.33426 -0.03417,2.54927 -2.753358,5.27143 -3.223251,8.11376 -0.469891,2.84231 1.309523,5.80479 0.07415,8.13532 -2.416144,4.55806 -2.670108,2.20457 -7.833764,4.29358 -2.783577,1.12615 -5.835883,0.97823 -6.726949,0.73171 -1.932879,-0.53475 -4.597548,-1.62481 -6.068987,-2.8748 -1.189767,-1.01072 -5.461474,-1.00187 -6.113684,-2.31005 -0.562373,-1.12797 -0.61423,-4.99884 -1.100219,-6.1443 -1.201189,-2.83121 -3.639201,-5.83255 -4.017052,-6.13573 -0.268597,-0.21549 -0.175501,-8.99559 4.591467,-7.08903 z"
         id="path24896"
         sodipodi:nodetypes="cssssssssssssssscc"
         inkscape:label="Frill" />
      <path
         style="fill:#0e0d16;fill-opacity:1;stroke:#000000;stroke-width:3.13138;stroke-linecap:round;stroke-linejoin:round;stroke-dasharray:none"
         d="m 31.246188,124.56016 c 3.80203,0.60216 4.980181,1.90448 6.952564,4.39989 1.972382,2.49542 3.308607,5.97037 3.457116,9.62826 0.148508,3.6579 -1.708194,8.99201 -5.030186,10.37903 -3.321989,1.38702 -4.041136,1.91956 -7.456787,0.34128 -3.41565,-1.57828 -7.784724,-6.9952 -7.937436,-10.3397 -0.152713,-3.34451 -0.546415,-4.04666 0.952144,-7.67903 1.498556,-3.63238 5.260555,-7.3319 9.062585,-6.72973 z"
         id="path24906"
         sodipodi:nodetypes="zzzzzzzz"
         inkscape:label="Hole" />
    </g>
    <path
       style="fill:#ffffff;fill-opacity:1;stroke:#000000;stroke-width:5;stroke-linecap:round;stroke-linejoin:round;stroke-dasharray:none"
       d="m 15.407102,222.73102 c 0.585952,-0.70311 -1.328572,0.40649 -1.679659,0.54191 -1.431364,0.55207 -2.980785,1.74299 -3.7396148,3.10882 -0.5455815,0.98201 -1.2301765,1.9005 -1.7747349,2.88067 -1.3302,2.39427 -1.2218861,5.80116 -0.3486068,8.27119 0.5566774,1.57455 1.8021262,2.10758 2.9473245,2.90918 3.022325,2.11555 4.598263,3.08905 8.366599,1.65425 1.070623,-0.40765 2.24086,-0.73548 3.074092,-1.56868 1.826373,-1.8263 0.88213,-5.30795 0.380301,-7.41556 -0.380538,-1.59819 -0.701416,-3.06714 -1.711352,-4.44933 -2.785535,-1.03314 -4.785323,-3.08935 -5.514349,-5.93245 z"
       id="path25878"
       inkscape:label="right hand" />
  </g>
  <g
     inkscape:groupmode="layer"
     id="layer3"
     inkscape:label="Right Foot">
    <path
       style="fill:#003f5c;fill-opacity:1;stroke:#000000;stroke-width:5;stroke-linecap:round;stroke-linejoin:round;stroke-dasharray:none"
       d="m 152.47163,277.38958 c -2.64492,2.90313 -7.31814,9.48368 -2.42022,12.50395 4.39472,2.70997 12.61876,-2.66654 15.68658,-5.80829 2.92787,-2.99842 6.27754,-5.78268 8.38111,-9.47879 1.33885,-2.35247 2.21046,-4.92188 3.09249,-7.46204 0.46279,-1.33277 0.9902,-2.60745 1.03084,-4.03353 0.10522,-3.69326 -5.24397,-3.94475 -7.75365,-3.26716 -4.32864,1.16869 -7.47376,5.00474 -10.4876,8.06706 -0.63941,0.6497 -1.05653,1.48741 -1.70311,2.13778 -2.21149,2.22441 -4.81433,4.32814 -5.82644,7.34102 z"
       id="path19958" />
  </g>
  <g
     inkscape:groupmode="layer"
     id="layer2"
     inkscape:label="Left Foot">
    <path
       style="fill:#003f5c;fill-opacity:1;stroke:#000000;stroke-width:5;stroke-linecap:round;stroke-linejoin:round;stroke-dasharray:none"
       d="m 40.319958,271.71954 c -1.352086,-2.16463 -5.096827,-6.38821 -2.823583,-9.15611 1.866628,-2.27281 4.665001,-2.25067 7.395099,-2.42012 2.163533,-0.13428 3.959395,0.4111 6.005719,1.00838 6.606117,1.9282 11.56785,5.88306 15.865848,11.13255 1.128511,1.37834 4.320119,4.60796 3.764777,6.857 -0.980141,3.96942 -6.993181,4.04858 -10.129043,3.87219 -3.87731,-0.21809 -7.548462,-2.21088 -10.935782,-3.95286 -3.258982,-1.67598 -7.099017,-4.39776 -9.143035,-7.34103 z"
       id="path19948" />
  </g>
  <g
     inkscape:groupmode="layer"
     id="layer4"
     inkscape:label="Arm"
     transform="rotate(12.778475,180.38304,184.18074)">
    <path
       style="fill:#0074ab;fill-opacity:1;stroke:#000000;stroke-width:5;stroke-linecap:round;stroke-linejoin:round;stroke-dasharray:none"
       d="m 143.60207,206.90812 c -0.47336,3.81326 0.62279,7.71276 1.69761,11.40191 1.6901,5.80099 3.97629,11.56343 7.37795,16.55709 2.90252,4.26092 5.87496,9.6493 10.84212,11.03036 3.94329,1.09639 8.74461,-0.44067 11.89195,-3.05713 4.16923,-3.46599 5.71886,-9.44782 6.85907,-14.74834 0.84372,-3.92222 1.16052,-8.23938 -0.13903,-12.03501 -2.78458,-8.133 -7.68039,-17.14557 -15.57023,-20.55879 -5.86083,-2.53545 -13.93153,-1.79158 -19.04971,2.02707 -2.7157,2.02617 -3.49233,6.02037 -3.90973,9.38284 z"
       id="path24475"
       sodipodi:nodetypes="aaaaaaaaaa" />
    <path
       style="fill:#ffffff;fill-opacity:1;stroke:#000000;stroke-width:5;stroke-linecap:round;stroke-linejoin:round;stroke-dasharray:none"
       d="m 159.81063,242.585 c -0.058,0.55535 -0.16279,1.10779 -0.17415,1.66605 -0.0202,0.99335 0.51628,2.23178 0.69154,3.18117 0.57385,3.109 1.09091,6.12639 2.34533,9.05788 0.56192,1.31316 1.0193,2.70417 1.85427,3.86304 0.93026,1.29112 1.70573,2.33239 2.92234,3.30427 1.91862,1.53269 4.16899,2.29548 6.59083,2.57109 5.24375,0.59678 9.43612,-1.37595 12.22303,-5.97064 2.10433,-3.46938 1.16443,-8.85658 -0.0737,-12.49999 -0.82732,-2.43457 -3.4842,-6.88801 -5.51431,-8.46632 -2.31454,-1.79946 -7.34777,-3.23131 -10.39373,-3.24101 -0.96782,-0.003 -1.89831,0.22752 -2.84686,0.37274 -0.78703,0.12004 -1.4659,0.12809 -2.2329,0.40312 -1.3842,0.49632 -2.63849,1.72786 -3.62938,2.75943 -1.43821,1.49725 -1.75163,2.52147 -1.79576,4.48967"
       id="path24539" />
  </g>
</svg>
