<?xml version="1.0" encoding="UTF-8" standalone="no"?>
<!-- Created with Inkscape (http://www.inkscape.org/) -->

<svg
   width="83.905838mm"
   height="46.816044mm"
   viewBox="0 0 83.905838 46.816044"
   version="1.1"
   id="svg5"
   inkscape:version="1.2.2 (732a01da63, 2022-12-09)"
   sodipodi:docname="papers.svg"
   xmlns:inkscape="http://www.inkscape.org/namespaces/inkscape"
   xmlns:sodipodi="http://sodipodi.sourceforge.net/DTD/sodipodi-0.dtd"
   xmlns="http://www.w3.org/2000/svg"
   xmlns:svg="http://www.w3.org/2000/svg">
  <sodipodi:namedview
     id="namedview7"
     pagecolor="#7c7c7c"
     bordercolor="#000000"
     borderopacity="0.25"
     inkscape:showpageshadow="2"
     inkscape:pageopacity="0"
     inkscape:pagecheckerboard="true"
     inkscape:deskcolor="#2c2c2c"
     inkscape:document-units="mm"
     showgrid="false"
     inkscape:lockguides="false"
     inkscape:zoom="0.90509668"
     inkscape:cx="68.500969"
     inkscape:cy="20.992233"
     inkscape:window-width="1406"
     inkscape:window-height="1017"
     inkscape:window-x="1280"
     inkscape:window-y="0"
     inkscape:window-maximized="0"
     inkscape:current-layer="layer1" />
  <defs
     id="defs2">
    <filter
       id="selectable_hidder_filter"
       width="1"
       height="1"
       x="0"
       y="0"
       style="color-interpolation-filters:sRGB"
       inkscape:label="LPE boolean visibility">
      <feComposite
         id="boolops_hidder_primitive"
         result="composite1"
         operator="arithmetic"
         in2="SourceGraphic"
         in="BackgroundImage"
         k1="0"
         k2="0"
         k3="0"
         k4="0" />
    </filter>
    <inkscape:path-effect
       effect="bool_op"
       operand-path=""
       id="path-effect4878"
       is_visible="true"
       lpeversion="1"
       operation="union"
       swap-operands="false"
       filltype-this="from-curve"
       filter=""
       filltype-operand="from-curve" />
  </defs>
  <g
     inkscape:label="Layer 1"
     inkscape:groupmode="layer"
     id="layer1"
     transform="translate(-114.68561,-88.740874)">
    <path
       id="path5245"
       style="fill:none;fill-opacity:1;stroke:#000000;stroke-width:8;stroke-linecap:round;stroke-linejoin:round;stroke-dasharray:none"
       d="m 159.00551,92.763547 c -3.47441,1.392636 -5.77195,4.607442 -9.20691,6.140532 -5.68417,3.105301 -11.70715,5.560541 -17.81627,7.684881 -3.1893,0.79263 -6.72407,0.34684 -9.6526,2.04177 -0.82393,0.86138 -0.0859,2.09404 -0.69336,3.04297 -0.47077,1.0144 -1.49044,1.62894 -2.09378,2.52587 -0.25418,1.02073 -0.27367,2.12562 -0.84762,3.04054 -0.0729,1.00468 0.66487,1.96756 0.26685,2.98258 -0.15644,0.66501 0.19369,1.47122 0.95901,1.4601 3.38701,0.54956 6.74733,1.29012 10.06165,2.18457 2.55224,0.75418 5.13361,1.57223 7.43681,2.92632 2.02322,1.26808 4.013,3.02103 6.52492,3.05631 1.74052,-0.33818 3.53769,0.063 5.07894,0.89756 1.63618,0.70385 3.66274,1.258 5.2685,0.17622 1.06054,-0.53255 2.37612,-0.78018 3.02782,-1.88055 1.29154,-1.61555 2.87749,-3.215 5.01417,-3.55506 6.68201,-1.49217 13.62245,-2.03658 20.26562,-3.40821 1.68027,-0.3941 3.40788,-0.72312 5.01172,-1.3457 0.52449,-0.66198 0.12375,-1.60752 0.57206,-2.32643 0.47197,-1.21199 1.64175,-2.02494 2.91033,-2.1923 1.21212,-0.40191 2.7177,-0.5673 3.49808,-1.69025 -0.0293,-1.132 -1.49027,-1.39214 -1.88867,-2.35352 -0.47162,-0.86216 -0.50265,-2.13988 -1.59271,-2.49688 -1.21368,-0.62498 -2.19123,-1.61814 -3.02879,-2.6691 -1.54879,-1.01505 -3.20273,-2.29962 -3.51624,-4.24993 -0.33146,-1.15288 -0.23739,-2.63289 -1.25939,-3.436691 -1.37683,-0.39539 -2.7551,0.30749 -4.07076,0.64317 -1.50309,0.552281 -3.48373,0.772051 -4.64671,-0.57397 -1.02659,-1.00488 -0.95447,-2.8117 -2.28384,-3.53691 -2.1553,-0.797024 -4.34163,1.01697 -6.50999,0.21227 -2.30747,-0.795078 -4.00853,-2.894682 -6.46266,-3.309928 -0.10951,-0.0046 -0.21772,-0.01147 -0.32618,0.0098 z" />
    <g
       id="g4876"
       style="stroke-width:1;stroke-dasharray:none"
       transform="translate(-12.277694,-4.3848907)">
      <path
         style="fill:#ffebc3;fill-opacity:1;stroke:#000000;stroke-width:1;stroke-linecap:round;stroke-linejoin:round;stroke-dasharray:none"
         d="m 131.59715,125.47262 c 10.41409,1.22309 20.58728,5.59216 30.40208,9.3578 5.21714,2.00165 3.61184,-1.02795 9.03845,-4.07387 3.606,-2.02402 7.56072,-3.45418 11.46614,-4.77974 4.47645,-1.51937 8.95864,-3.14539 13.52033,-4.39654 3.18414,-0.87333 7.48043,-1.07463 10.42037,-2.66213 0.45541,-0.24592 -5.14758,-3.72396 -5.37825,-3.85203 -4.34357,-2.4115 -9.45234,-3.96527 -14.30466,-5.06208 -2.34133,-0.52922 -4.89393,-0.58996 -7.05896,-1.69408 -0.6848,-0.34924 -1.59094,-1.33508 -2.35299,-1.47224 -2.10664,-0.37918 -10.50149,3.13616 -13.14684,3.75118 -7.26417,1.68886 -29.39239,6.7866 -32.60567,14.88373 z"
         id="path4400" />
      <path
         style="fill:#ffebc3;fill-opacity:1;stroke:#000000;stroke-width:1;stroke-linecap:round;stroke-linejoin:round;stroke-dasharray:none"
         d="m 147.39655,128.8247 c 2.20682,1.56507 5.42731,4.25255 8.12569,4.94738 1.26365,0.3254 7.35549,-2.17701 9.1975,-2.42682 7.67847,-1.04132 9.95958,-2.54146 17.65453,-3.41141 3.4314,-0.38793 15.95678,-1.10919 16.72154,-2.79687 0.70813,-1.56271 -2.165,-9.86509 -2.41248,-10.66868 -0.66018,-2.14362 2.56999,-0.33569 1.9495,-2.49803 -0.44509,-1.55107 -1.78766,-2.7621 -2.48826,-5.17455 -0.1152,-0.39671 -0.24384,-2.5559 -0.70354,-2.67427 -1.94213,-0.50011 -12.58864,3.929 -15.44604,4.69819 -6.20795,1.67114 -12.81628,1.52775 -19.17347,2.16008 -6.99885,0.69615 -14.39475,3.116 -20.80909,6.03145 -3.06737,1.39419 -6.28026,4.46784 -8.9077,4.85381 5.61179,2.55622 11.67471,3.68525 16.29182,6.95972 z"
         id="path4402"
         sodipodi:nodetypes="sssssssssssscs" />
      <path
         style="fill:#ffebc3;fill-opacity:1;stroke:#000000;stroke-width:1;stroke-linecap:round;stroke-linejoin:round;stroke-dasharray:none"
         d="m 143.34678,119.3728 c 9.47608,3.59194 8.07667,6.30246 17.12114,10.91989 0.64657,0.33009 7.3626,4.01206 7.73124,3.91253 0.1103,-0.0298 3.90189,-4.60144 4.85537,-5.28393 2.65944,-1.90358 5.84615,-2.77292 8.73966,-4.23521 2.33415,-1.17959 4.56777,-2.51678 6.94691,-3.63017 4.28281,-2.00428 8.78559,-2.9766 13.14684,-4.65873 0.46644,-0.1799 2.14338,-0.6927 2.0542,-1.27056 -0.0649,-0.42024 -8.25963,-4.66592 -9.18785,-5.12259 -5.01088,-2.46525 -12.29851,-7.91774 -17.96486,-7.78471 -2.97126,0.0697 -9.09329,3.88074 -11.98903,5.16292 -5.51857,2.44352 -10.74105,4.00293 -16.58295,5.40493 -5.39934,1.29579 -0.67238,2.95296 -5.82642,5.00365 -1.8523,0.73699 -2.17049,0.89423 0.95575,1.58198 z"
         id="path4404"
         sodipodi:nodetypes="csssssssscsssc" />
      <path
         style="fill:#ffebc3;fill-opacity:1;stroke:#000000;stroke-width:1;stroke-linecap:round;stroke-linejoin:round;stroke-dasharray:none"
         d="m 134.65977,113.91656 c 4.84709,5.96745 11.7106,9.97087 18.22631,13.91568 1.13058,0.68449 2.11284,2.03116 3.3614,2.48062 0.98258,0.35372 2.9655,-0.73683 3.84695,-1.02855 4.53257,-1.50008 9.08154,-2.93402 13.63238,-4.37638 4.79093,-1.51845 9.9417,-2.89021 14.90224,-3.75118 2.8036,-0.48661 6.44527,-0.14882 9.11316,-1.10923 1.1933,-0.42957 -7.14122,-9.92727 -7.76859,-10.64852 -1.43949,-1.65488 -2.85314,-3.54528 -3.95899,-5.44527 -0.26013,-0.44692 -0.92312,-3.21819 -1.64336,-3.34783 -3.03835,-0.54688 -9.22964,2.5856 -12.51191,3.38817 -2.75577,0.67384 -5.59751,0.67277 -8.36617,1.25039 -4.54579,0.94839 -7.42578,4.82091 -11.94019,5.85693 -1.51102,0.34676 -17.1186,0.62461 -16.89323,2.81517 z"
         id="path4406"
         sodipodi:nodetypes="cssssssssssssc" />
      <path
         style="fill:#ffebc3;fill-opacity:1;stroke:#000000;stroke-width:1;stroke-linecap:round;stroke-linejoin:round;stroke-dasharray:none"
         d="m 132.01924,118.91877 c 8.7394,2.07777 16.03049,7.60079 24.01273,11.4322 1.57893,1.66763 4.00508,1.47353 5.78838,-0.12641 5.10338,-3.003 9.94088,-6.52788 15.52899,-8.62147 5.44495,-2.17991 15.69217,-6.58456 19.53434,-8.82944 1.10509,-0.74838 0.66134,-1.70331 -1.88733,-2.77421 -8.38839,-4.77508 -10.7368,-5.16857 -16.92554,-8.70337 -2.15082,-1.29606 -4.20396,-2.919749 -6.53658,-3.814496 -2.46132,0.976034 -4.19479,3.166656 -6.41523,4.569446 -6.0673,4.28675 -16.53926,7.72102 -23.30514,10.81684 -3.00307,1.57428 -6.25567,2.86728 -8.80434,5.15068 z"
         id="path4410"
         sodipodi:nodetypes="cccccccccccc" />
    </g>
    <path
       style="fill:none;fill-opacity:1;stroke:#e5be69;stroke-width:3;stroke-linecap:round;stroke-linejoin:round;stroke-dasharray:none;stroke-opacity:1"
       d="m 157.96901,98.482585 c -0.0196,1.41598 -0.58514,4.482275 1.85979,3.131725 1.33234,-0.19215 1.56778,1.94516 3.05276,1.25301 1.18775,0.263 0.36606,2.82563 2.31598,1.99289 1.26543,-0.51334 3.36884,-1.33547 3.29598,0.83503 0.50933,1.12131 3.32576,-1.13267 2.29869,1.00457 -1.01871,1.32481 0.99947,1.19778 1.22449,1.62393 0.20103,0.74782 1.09579,0.76386 1.67535,1.04147"
       id="path11945" />
    <path
       style="fill:none;fill-opacity:1;stroke:#e5be69;stroke-width:3;stroke-linecap:round;stroke-linejoin:round;stroke-dasharray:none;stroke-opacity:1"
       d="m 148.18443,103.9322 c -0.22108,2.7439 3.58822,0.37679 3.8901,2.31717 1.19768,1.77904 4.39808,0.15171 4.66566,2.63314 1.36973,0.73647 0.9399,2.57014 2.90534,2.40297 1.48091,0.47608 4.00464,-0.29033 4.75423,1.40266"
       id="path11947" />
    <path
       style="fill:none;fill-opacity:1;stroke:#e5be69;stroke-width:3;stroke-linecap:round;stroke-linejoin:round;stroke-dasharray:none;stroke-opacity:1"
       d="m 142.4306,106.92284 c -0.96626,2.72417 2.41868,2.36913 3.74658,3.7348 1.29432,1.43228 3.26072,1.17347 4.19715,3.01859 1.74423,-0.11913 1.93518,2.04682 3.43332,2.48543 0.68724,0.14254 1.2902,0.57816 1.94599,0.82968"
       id="path11949" />
    <path
       style="fill:none;fill-opacity:1;stroke:#e5be69;stroke-width:3;stroke-linecap:round;stroke-linejoin:round;stroke-dasharray:none;stroke-opacity:1"
       d="m 133.01524,112.23954 c 1.52795,1.69872 3.3659,3.10294 5.3504,4.22735 1.57029,-0.0491 3.68465,-0.45928 3.84745,1.69186 1.59952,1.79017 4.4519,0.89728 6.16357,2.5297 0.47794,0.33527 0.95608,0.68299 1.50007,0.90511"
       id="path11951" />
  </g>
</svg>
