<?xml version="1.0" encoding="UTF-8" standalone="no"?>
<!-- Created with Inkscape (http://www.inkscape.org/) -->

<svg
   width="300mm"
   height="300mm"
   viewBox="0 0 300 300"
   version="1.1"
   id="svg5"
   inkscape:version="1.2.2 (732a01da63, 2022-12-09)"
   sodipodi:docname="parchment_9patch.svg"
   xmlns:inkscape="http://www.inkscape.org/namespaces/inkscape"
   xmlns:sodipodi="http://sodipodi.sourceforge.net/DTD/sodipodi-0.dtd"
   xmlns="http://www.w3.org/2000/svg"
   xmlns:svg="http://www.w3.org/2000/svg">
  <sodipodi:namedview
     id="namedview7"
     pagecolor="#7c7c7c"
     bordercolor="#000000"
     borderopacity="0.25"
     inkscape:showpageshadow="2"
     inkscape:pageopacity="0"
     inkscape:pagecheckerboard="true"
     inkscape:deskcolor="#2c2c2c"
     inkscape:document-units="mm"
     showgrid="false"
     inkscape:lockguides="false"
     inkscape:zoom="0.52724989"
     inkscape:cx="476.0551"
     inkscape:cy="760.55019"
     inkscape:window-width="1920"
     inkscape:window-height="1017"
     inkscape:window-x="1272"
     inkscape:window-y="-8"
     inkscape:window-maximized="1"
     inkscape:current-layer="layer1" />
  <defs
     id="defs2" />
  <g
     inkscape:label="Layer 1"
     inkscape:groupmode="layer"
     id="layer1">
    <path
       style="fill:#ffffff;stroke:#000000;stroke-width:5.11859;stroke-linecap:round;stroke-linejoin:round;stroke-dasharray:none;stroke-opacity:1"
       d="M 56.911651,5.8656614 C 48.421168,6.9196107 39.89913,6.9705827 31.355492,6.6502091 28.666822,6.5493882 25.98463,5.9550248 23.303238,5.9275994 18.893212,5.8824984 14.267435,7.4261514 9.9057546,6.6502091 7.7569071,6.2679293 6.1105066,4.7252273 4.0787667,4.048814 5.3545505,12.15782 6.1101964,21.260931 4.3540574,29.3608 c 0.8987097,4.617299 -0.2706046,9.154098 -0.3956945,13.769729 -0.062148,2.293175 0.2304085,4.567305 0.3211726,6.85447 0.062497,1.574869 -0.6884076,3.849907 -0.2064681,5.367958 2.3748034,0.87718 4.7311209,2.492585 6.4463916,3.736924 -0.383127,0.689604 -5.2698218,2.670195 -6.2628645,3.365296 -0.116139,0.08129 -0.02294,4.725723 -0.02294,5.367958 0,3.881619 1.5397537,7.486514 1.6517445,11.417233 0.049898,1.751366 -0.7733272,9.53712 -0.206468,10.302351 1.1275292,1.522103 7.946338,3.012999 8.946949,4.27372 -3.136992,2.729384 -6.2480604,4.351859 -8.2357813,6.255731 -0.4066783,0.43059 -0.00337,3.36204 -0.068825,4.08792 -0.1564108,1.73608 0.058526,3.42333 0,5.16148 -0.082368,2.44624 -0.338888,4.92418 -0.091766,7.37063 0.1866198,1.84745 0.613805,3.81657 0.5276407,5.67765 -0.082277,1.77706 -1.0539109,3.78529 -1.2158673,5.3886 3.4375043,9.57404 1.5235467,16.70497 0.7528376,26.41552 -0.2976587,3.75035 1.0483517,7.67514 0.6488662,11.27037 -0.3677195,3.30935 -1.051969,6.55119 -1.2977327,9.86887 -0.4672208,6.30724 1.4275063,12.856 1.4275063,19.15378 0,4.81856 -1.1500648,10.19908 -0.2595462,15.00769 0.6315675,3.41034 5.9971607,1.96799 6.6833247,4.43807 0.07878,0.28361 -6.4443244,5.95344 -7.0077584,7.47465 -0.663132,1.79039 1.0381862,7.51912 1.0381862,9.92728 0,3.3954 -1.8647451,6.43426 -1.622166,9.92725 0.5079381,7.31402 1.882176,14.79852 1.1679597,22.19037 -0.3760832,3.8923 0.5628433,7.65159 0.4542063,11.56234 -0.087445,3.14791 -1.0781521,6.31603 -1.4275061,9.46009 -0.1941183,1.74701 0.3244337,3.76181 0.3244337,5.5476 0,0.97283 -0.7071659,5.28777 0,5.60599 7.6270416,3.43204 10.8105756,0.56221 18.8171296,-0.46716 2.591326,-0.33317 5.461794,0.26578 8.110831,0.11678 3.222802,-0.18127 6.445786,-1.05112 9.668111,-1.05112 2.174993,0 4.492895,0.81754 6.748212,0.81754 3.240392,0 6.507381,-0.80363 9.732998,-0.64235 4.886767,0.24433 9.63453,1.72661 14.534611,1.92705 7.642481,0.31263 15.258559,-1.51828 22.904987,-1.51828 4.992768,0 9.956258,0.93667 14.923928,1.3431 6.21239,0.50826 12.3948,-0.46731 18.55758,-1.05113 8.03722,-0.76139 16.53015,0.12364 24.59205,0.35038 2.14111,0.0602 4.49637,0.70588 6.61845,0.46716 2.46296,-0.27706 9.97135,-7.63308 12.13379,-9.69368 1.23543,3.23866 0.23641,8.72887 3.50388,8.87614 6.01186,0 11.89094,-0.32496 17.90872,-0.52555 2.75101,-0.0918 5.6271,0.67561 8.37038,0.0583 3.27658,-0.73719 5.34187,-18.49175 6.294,-18.92019 0.0442,3.7172 0.25204,8.81161 1.4275,12.43828 2.26709,6.80097 18.19831,3.84784 23.74852,4.84684 12.59285,2.26662 26.63699,2.51101 38.99688,2.51101 3.71706,0 7.38907,0.59516 11.09562,0.81754 3.00409,0.18024 5.07593,0.36788 8.41512,0.42622 -0.21027,-3.35401 -1.64124,-7.21364 -1.29707,-9.17954 2.86181,-6.62904 1.49154,-11.02536 0.86301,-18.05029 -0.46174,-5.19432 -1.29774,-10.72729 -1.29774,-15.88363 0,-6.4635 0.9683,-14.15428 -0.38931,-20.2633 -1.00159,-4.50694 -9.79788,-3.81069 -9.79788,-4.26288 0,-0.11203 11.65359,-0.95753 12.1338,-2.68621 0.41552,-1.49584 2.44078,-15.66772 2.20614,-16.93475 -0.67102,-3.62343 -2.14126,-7.01907 -2.14126,-10.80319 0,-7.75732 0.90842,-15.52062 0.90842,-23.29989 0,-7.61086 -0.45738,-14.52799 -2.59547,-21.83997 -0.12807,-0.43798 -0.61118,-6.46969 -1.23285,-6.18995 -4.29484,-1.81713 -9.17929,-2.97474 -11.74448,-5.4308 1.92475,-0.86611 8.83626,-0.41929 10.25209,-1.69347 2.38674,-2.14799 0.21408,-18.18379 0.45421,-22.07358 0.24394,-3.95191 -1.27706,-9.03689 -0.5191,-12.78865 1.60467,-7.942836 0.19466,-15.805745 0.19466,-24.117417 0,-4.237545 1.89,-8.677339 2.27103,-12.963841 0.54922,-6.178408 -0.39135,-12.920075 -1.23285,-18.978597 -0.64646,-4.654436 0.19466,-10.193824 0.19466,-14.949295 0,-4.604774 0.28505,-9.19742 0.64888,-13.781381 0.41506,-5.229511 -1.57839,-3.309995 -4.88168,-7.769262 -0.36123,-0.487638 3.53813,-8.1633143 2.93508,-8.2311552 -1.57693,-0.1773969 -3.15627,-0.3420315 -4.73674,-0.5255613 -8.86371,-1.0292949 -26.05609,0.7120888 -35.4281,2.0438489 -2.5433,0.3614026 -5.02998,0.7231545 -7.59174,0.4087698 -5.14635,-0.631571 -7.14612,-2.7544748 -9.40857,2.3358274 -1.2805,1.9363914 -2.552,4.6469464 -4.08786,7.0658774 -1.61718,-2.268948 -6.49953,-9.3379309 -7.98105,-10.102453 -3.15405,-1.4192667 -16.7135,1.1012782 -20.76373,1.8686618 -12.17627,2.3069905 -24.60928,-2.4905149 -36.92051,-1.7518704 -4.28571,0.2571329 -8.7448,1.4572114 -12.97732,2.2190359 -3.44071,0.6193024 -7.5383,-0.8759352 -11.09563,-0.8759352 -7.76925,0 -17.99042,1.2272364 -25.56534,-0.2335827 C 109.468,6.3543851 105.5859,5.8784643 102.06682,5.790491 94.127557,5.5920173 86.431917,7.4255701 78.57785,7.4255701 c -2.910936,0 -12.756048,0.6251345 -14.794157,-0.2919784 C 61.737332,6.2128063 59.067437,6.0375713 56.911651,5.8656512 Z"
       id="path19643"
       sodipodi:nodetypes="ccssscssccsssscccssscsssssssssssssssssssssssssccssccssscccssssssssccssssssssssssscccssssssscc" />
  </g>
</svg>
