<?xml version="1.0" encoding="UTF-8" standalone="no"?>
<!-- Created with Inkscape (http://www.inkscape.org/) -->

<svg
   width="159.29967mm"
   height="163.70683mm"
   viewBox="0 0 159.29967 163.70683"
   version="1.1"
   id="svg5"
   inkscape:version="1.2.2 (732a01da63, 2022-12-09)"
   xml:space="preserve"
   sodipodi:docname="check.svg"
   xmlns:inkscape="http://www.inkscape.org/namespaces/inkscape"
   xmlns:sodipodi="http://sodipodi.sourceforge.net/DTD/sodipodi-0.dtd"
   xmlns="http://www.w3.org/2000/svg"
   xmlns:svg="http://www.w3.org/2000/svg"><sodipodi:namedview
     id="namedview7"
     pagecolor="#7c7c7c"
     bordercolor="#000000"
     borderopacity="0.25"
     inkscape:showpageshadow="2"
     inkscape:pageopacity="0"
     inkscape:pagecheckerboard="true"
     inkscape:deskcolor="#2c2c2c"
     inkscape:document-units="mm"
     showgrid="false"
     inkscape:lockguides="false"
     inkscape:zoom="0.74564394"
     inkscape:cx="-90.525781"
     inkscape:cy="249.44882"
     inkscape:window-width="1920"
     inkscape:window-height="1017"
     inkscape:window-x="1272"
     inkscape:window-y="-8"
     inkscape:window-maximized="1"
     inkscape:current-layer="layer1" /><defs
     id="defs2" /><g
     inkscape:label="Layer 1"
     inkscape:groupmode="layer"
     id="layer1"
     transform="translate(-32.319792,-33.571098)"><path
       id="path15568"
       style="fill:#ffffff;stroke:#000000;stroke-width:9.57986;stroke-linecap:round;stroke-linejoin:round;stroke-dasharray:none;stroke-opacity:1"
       d="m 171.87422,63.339156 c -3.23758,0.151932 -5.50358,2.733661 -7.80027,4.692134 -9.47045,8.392315 -16.70553,19.005223 -26.14322,27.366262 -3.14204,2.618116 -6.23124,5.298908 -9.19951,8.115068 -8.1858,7.71384 -16.04502,15.7539 -24.0505,23.64616 -2.23851,2.21009 -4.39476,4.53041 -6.010074,7.24762 -2.588144,4.0531 -4.735997,8.45197 -8.080243,11.96603 -0.352812,0.73075 -0.961722,0.44697 -1.300282,-0.26069 -2.140707,-2.55433 -4.060234,-5.30702 -6.442705,-7.65527 -5.859397,-6.44238 -11.298709,-13.32802 -14.71683,-21.4177 -1.853717,-4.27371 -4.983585,-7.97554 -8.958435,-10.41981 -4.139525,-2.65822 -9.609598,-3.92232 -14.262914,-1.87027 -4.656096,2.03708 -7.960908,7.22545 -7.107714,12.35223 0.59739,5.38769 3.939794,9.86256 6.706604,14.33789 3.120634,4.78586 6.048377,9.70954 9.436334,14.3132 4.32378,5.51048 9.128438,10.61992 13.533469,16.06394 2.319882,2.80187 4.790602,5.50314 6.891736,8.47031 2.636928,5.44234 7.002555,10.44211 12.911287,12.32405 4.557471,1.37662 9.834725,-0.14305 12.909137,-3.79299 5.5376,-5.48458 9.13443,-12.49218 13.63789,-18.77572 3.5187,-5.26093 7.32032,-10.3369 11.54541,-15.05384 4.34255,-4.99231 9.10215,-9.59411 13.77217,-14.27322 5.81669,-6.06955 12.15518,-11.59884 18.42156,-17.19085 5.90483,-5.30241 11.60275,-10.87056 16.57964,-17.065132 3.65827,-4.048939 7.93841,-7.801474 10.02124,-12.981136 1.92206,-4.181651 1.89052,-9.305579 -0.53108,-13.283333 -2.33372,-4.154693 -6.8981,-7.160104 -11.7627,-6.854933 z" /><path
       style="display:none;fill:#ffffff;stroke-width:0.499999;stroke-linecap:round;stroke-linejoin:round"
       d="m 110.30986,33.571615 c -8.42706,0.03159 -16.938194,1.57109 -24.807784,4.188891 -10.12024,3.366473 -19.177578,10.02747 -26.784412,17.503325 -9.318122,9.157668 -17.240482,20.268509 -22.007442,32.432645 -3.547014,9.051095 -4.257425,19.112364 -4.381645,28.832864 -0.09575,7.49252 0.556188,15.15697 2.808614,22.30355 3.607763,11.44689 9.206794,22.55125 16.798458,31.84715 6.035138,7.38994 13.792888,13.51957 22.1387,18.1436 7.212666,3.99618 15.235154,7.08085 23.439396,7.90701 14.971555,1.50762 30.823905,-0.0161 44.792095,-5.61155 10.14096,-4.06232 18.96718,-11.44011 26.33793,-19.5032 6.37048,-6.96887 10.94017,-15.54313 14.75052,-24.18198 3.75809,-8.52033 6.88339,-17.55847 7.80314,-26.82524 0.92236,-9.2931 0.42006,-19.00686 -2.38435,-27.914576 C 185.31904,81.595867 179.51345,70.750428 171.32371,62.485612 158.76076,49.807498 142.58823,39.39597 125.23143,35.236113 c -4.8391,-1.159776 -9.86532,-1.683454 -14.92157,-1.664498 z"
       id="path5594" /></g></svg>
