<?xml version="1.0" encoding="UTF-8" standalone="no"?>
<!-- Created with Inkscape (http://www.inkscape.org/) -->

<svg
   width="1920mm"
   height="1080mm"
   viewBox="0 0 1920 1080"
   version="1.1"
   id="svg5"
   xml:space="preserve"
   inkscape:version="1.2.2 (732a01da63, 2022-12-09)"
   sodipodi:docname="first_pancake_standin.svg"
   inkscape:export-filename="first_pancake_standin.png"
   inkscape:export-xdpi="20"
   inkscape:export-ydpi="20"
   xmlns:inkscape="http://www.inkscape.org/namespaces/inkscape"
   xmlns:sodipodi="http://sodipodi.sourceforge.net/DTD/sodipodi-0.dtd"
   xmlns="http://www.w3.org/2000/svg"
   xmlns:svg="http://www.w3.org/2000/svg"><sodipodi:namedview
     id="namedview7"
     pagecolor="#221f36"
     bordercolor="#000000"
     borderopacity="0.25"
     inkscape:showpageshadow="2"
     inkscape:pageopacity="0"
     inkscape:pagecheckerboard="0"
     inkscape:deskcolor="#d1d1d1"
     inkscape:document-units="mm"
     showgrid="false"
     inkscape:zoom="0.18641099"
     inkscape:cx="2706.3856"
     inkscape:cy="1630.8052"
     inkscape:window-width="1920"
     inkscape:window-height="1017"
     inkscape:window-x="1272"
     inkscape:window-y="-8"
     inkscape:window-maximized="1"
     inkscape:current-layer="layer1" /><defs
     id="defs2" /><g
     inkscape:label="Layer 1"
     inkscape:groupmode="layer"
     id="layer1"><g
       id="g13925"
       transform="matrix(2.0212602,0,0,2.0212602,717.49219,330.39603)"
       style="stroke:#ffa600;stroke-opacity:1"><path
         style="fill:none;fill-opacity:1;stroke:#ffa600;stroke-width:3.4;stroke-linecap:round;stroke-linejoin:round;stroke-dasharray:none;stroke-opacity:1"
         d="m 77.029018,55.701765 c 0.949595,1.730338 0.695058,3.66853 1.003636,5.519994 0.04348,0.260885 0.199041,0.493382 0.25091,0.752727 0.140221,0.701111 -0.224714,1.584047 0,2.258181 0.05914,0.177419 0.205549,0.320384 0.250907,0.501817 0.106362,0.425445 0,1.068435 0,1.505453 0,1.08503 -0.138822,4.489624 0.250909,5.269087 0.102698,0.205399 0.399119,0.547328 0.501817,0.752726"
         id="path4104" /><path
         style="fill:none;fill-opacity:1;stroke:#ffa600;stroke-width:3.4;stroke-linecap:round;stroke-linejoin:round;stroke-dasharray:none;stroke-opacity:1"
         d="m 68.999935,55.952675 c 3.878726,-0.14373 7.67719,0.25091 11.541808,0.25091 0.649605,0 -0.236406,0.498192 0.752726,0.250907 0.751829,-0.187958 2.499537,-0.492268 3.010905,-1.003636"
         id="path4106" /><path
         style="fill:none;fill-opacity:1;stroke:#ffa600;stroke-width:3.4;stroke-linecap:round;stroke-linejoin:round;stroke-dasharray:none;stroke-opacity:1"
         d="m 91.581731,55.450856 c 0,0.585454 0,1.170908 0,1.756362 0,1.392928 0.138642,2.87904 0,4.265451 -0.112813,1.128152 -0.623517,4.653076 -0.250907,5.770904 0.26698,0.800941 0.103539,1.123056 0.250907,2.007272 0.126987,0.761907 0.501819,1.522513 0.501819,2.258179"
         id="path4108" /><path
         style="fill:none;fill-opacity:1;stroke:#ffa600;stroke-width:3.4;stroke-linecap:round;stroke-linejoin:round;stroke-dasharray:none;stroke-opacity:1"
         d="m 92.08355,62.978122 c 3.067558,-0.09888 6.050174,0.0071 9.03272,0.752726 1.13068,0.282673 2.59192,0 3.76363,0"
         id="path4110" /><path
         style="fill:none;fill-opacity:1;stroke:#ffa600;stroke-width:3.4;stroke-linecap:round;stroke-linejoin:round;stroke-dasharray:none;stroke-opacity:1"
         d="m 107.13808,56.203585 c -0.20551,0.719283 -0.79812,1.287986 -1.00363,2.007269 -0.19553,0.684345 -0.11046,1.555922 -0.25091,2.258179 -0.0367,0.183385 -0.21424,0.318434 -0.25091,0.501819 -0.082,0.41006 0.18702,0.88051 0,1.254543 -0.0374,0.07481 -0.21351,-0.0748 -0.25091,0 -0.21841,0.436812 0,3.179641 0,3.763635 0,0.602747 -0.26383,1.981427 0,2.509089 0.0313,0.0626 0.90145,0 1.00363,0"
         id="path4112" /><path
         style="fill:none;fill-opacity:1;stroke:#ffa600;stroke-width:3.4;stroke-linecap:round;stroke-linejoin:round;stroke-dasharray:none;stroke-opacity:1"
         d="m 124.45079,55.199949 c -0.8897,0.150077 -1.87561,-0.176877 -2.75999,0 -0.5187,0.103738 -0.99229,0.373525 -1.50546,0.501816 -0.46661,0.116653 -1.05142,-0.151341 -1.50545,0 -0.17742,0.05914 -0.32039,0.205553 -0.50182,0.25091 -0.77039,0.192596 -2.9627,-0.486112 -3.51272,0 -0.65367,0.577725 -0.25091,2.035979 -0.25091,2.258179 0,3.171595 -0.32197,6.883331 1.00363,9.534536 0.19358,0.387164 -0.10389,1.150654 0.25091,1.505455 0.14177,0.141772 0.81673,0.314907 1.00364,0.501817 0.13224,0.132241 0.11867,0.369577 0.25091,0.501816 0.25055,0.250555 2.41826,0 2.75999,0 h 6.52363 c 0.60527,0 2.41896,0.295976 3.01091,0 0.10579,-0.0529 0.1387,-0.213505 0.25091,-0.250907 0.15869,-0.0529 0.36264,0.09278 0.50182,0 0.43285,-0.288573 0.12386,-0.752726 0.75272,-0.752726"
         id="path4114"
         sodipodi:nodetypes="csssssssssssssssc" /><path
         style="fill:none;fill-opacity:1;stroke:#ffa600;stroke-width:3.4;stroke-linecap:round;stroke-linejoin:round;stroke-dasharray:none;stroke-opacity:1"
         d="m 115.41807,63.479941 c 2.34182,0 4.68364,0 7.02545,0"
         id="path4116" /><path
         style="fill:none;fill-opacity:1;stroke:#ffa600;stroke-width:3.4;stroke-linecap:round;stroke-linejoin:round;stroke-dasharray:none;stroke-opacity:1"
         d="m 62.476305,94.843546 c 0,-2.425451 0,-4.850903 0,-7.276357 0,-0.601686 0.14528,-1.426146 0,-2.007269 -0.228095,-0.912373 -0.574625,-2.541577 -0.25091,-3.512725 0.0374,-0.112209 0.213506,-0.138699 0.25091,-0.250909 0.289407,-0.868223 -0.139581,-0.975384 0.501817,-2.258179 0.0374,-0.07481 -0.07481,-0.213506 0,-0.25091 0.149614,-0.07481 0.34313,0.0529 0.501819,0 0.646306,-0.215434 1.315339,-0.772991 2.00727,-1.003633 0.376364,-0.125455 0.878181,0.125452 1.254545,0 0.11221,-0.0374 0.145116,-0.198015 0.250907,-0.25091 0.556914,-0.278455 3.857858,0 4.767271,0"
         id="path4124" /><path
         style="fill:none;fill-opacity:1;stroke:#ffa600;stroke-width:3.4;stroke-linecap:round;stroke-linejoin:round;stroke-dasharray:none;stroke-opacity:1"
         d="m 67.243573,86.312646 c -0.876594,0.296204 -2.989554,-0.38704 -3.763632,0 -0.394692,0.197345 -0.284472,0.25091 -0.752726,0.25091"
         id="path4128" /><path
         style="fill:none;fill-opacity:1;stroke:#ffa600;stroke-width:3.4;stroke-linecap:round;stroke-linejoin:round;stroke-dasharray:none;stroke-opacity:1"
         d="M 80.541743,79.287197 C 84.672328,78.834503 88.91032,79.03629 93.087186,79.03629"
         id="path4130" /><path
         style="fill:none;fill-opacity:1;stroke:#ffa600;stroke-width:3.4;stroke-linecap:round;stroke-linejoin:round;stroke-dasharray:none;stroke-opacity:1"
         d="m 86.061737,80.290833 c -0.171059,1.205839 0.873384,2.340451 1.003636,3.512725 0.04618,0.415623 -0.04618,0.838919 0,1.254543 0.466071,4.19464 0.02604,-1.574107 0.501816,1.756362 0.05914,0.41398 -0.101422,0.84885 0,1.254546 0.29272,1.170874 0.50182,2.30039 0.50182,3.512722 0,0.334547 -0.149614,0.704411 0,1.003636 0.03266,0.06533 0.44705,0.305676 0.250907,0.501819 -0.196093,0.196093 -0.755296,0.168127 -1.003634,0.250907 -0.224419,0.07481 -0.290234,0.396026 -0.501819,0.50182 -0.450503,0.22525 -1.276823,0.155 -1.756362,0.250907 -0.183383,0.03668 -0.318432,0.214233 -0.501817,0.250909 -0.482518,0.0965 -1.022937,-0.0965 -1.505453,0 -1.491138,0.298228 -2.978758,0.25091 -4.51636,0.25091"
         id="path4132" /><path
         style="fill:none;fill-opacity:1;stroke:#ffa600;stroke-width:3.4;stroke-linecap:round;stroke-linejoin:round;stroke-dasharray:none;stroke-opacity:1"
         d="m 94.341729,94.592639 c -1.150075,-0.08933 -2.200396,-0.01445 -3.261815,0.250907 -1.236969,0.309242 -2.650921,-0.305446 -3.763632,0.25091 -0.373345,0.186671 -1.227354,-0.25091 -1.756362,-0.25091"
         id="path4134" /><path
         style="fill:none;fill-opacity:1;stroke:#ffa600;stroke-width:3.4;stroke-linecap:round;stroke-linejoin:round;stroke-dasharray:none;stroke-opacity:1"
         d="m 103.62536,97.352635 c 0.083,-2.006756 -0.22772,-4.107326 0.2509,-6.021811 0.10143,-0.405696 -0.082,-0.844484 0,-1.254546 0.0367,-0.183383 0.20556,-0.320384 0.25091,-0.501817 0.13751,-0.550002 -0.11122,-1.200218 0,-1.756362 0.0519,-0.259344 0.19905,-0.493382 0.25091,-0.752726 0.11749,-0.587431 -0.27321,-1.711759 0,-2.258179 0.18176,-0.363506 1.25455,-3.274166 1.25455,-3.512725 0,-0.981281 0.81689,-0.659355 1.50545,-1.003636 0.10579,-0.0529 0.1387,-0.213505 0.25091,-0.25091 0.35793,-0.119308 3.91584,-0.425712 4.26545,-0.250907 0.8706,0.435298 1.22319,1.207503 1.75636,2.00727 0.13122,0.196829 0.39603,0.290234 0.50182,0.501819 0.82429,1.648579 0.81125,2.971887 -0.75273,4.014541 -2.00727,1.338181 0.92,-0.919998 -0.75272,0.752727 -0.48171,0.481708 -5.22436,1.556999 -6.02182,1.756362 -0.34828,0.08707 -2.25818,0.488103 -2.25818,0.501817 0,0.250909 0.50182,0 0.75273,0 0.55287,0 0.88299,-0.25091 1.50545,-0.25091 0.5555,0 1.49912,0.169386 2.00728,0 0.11221,-0.0374 0.1387,-0.213505 0.25091,-0.250907 0.27943,-0.09315 2.87834,-0.127825 3.26181,0 0.80965,0.269883 0.26958,0.887518 1.00363,1.254543 1.16994,0.58497 1.77702,2.069235 2.25819,3.512725 0.0264,0.07934 -0.0591,0.19177 0,0.25091 0.51913,0.519138 -0.0203,-0.793314 0.50181,0.250907 0.0748,0.149613 -0.0748,0.352205 0,0.501819 0.22645,0.452885 0.64158,1.200631 0.75273,1.756362 0.0492,0.246036 -0.0609,0.509307 0,0.752727 0.0287,0.114747 0.2135,0.138697 0.25091,0.250907 0.18004,0.540133 0.25091,1.162108 0.25091,1.756362"
         id="path4136" /><path
         style="fill:none;fill-opacity:1;stroke:#ffa600;stroke-width:3.4;stroke-linecap:round;stroke-linejoin:round;stroke-dasharray:none;stroke-opacity:1"
         d="m 131.97806,81.294469 c -1.41526,0.36072 -3.09947,-0.354221 -4.51636,0 -0.45413,-0.151231 -0.46665,0.406458 -0.75273,0.501817 -0.15869,0.0529 -0.34313,-0.0529 -0.50182,0 -0.69637,0.232124 -1.40223,0.701119 -2.00727,1.003636 -0.14961,0.0748 -0.38354,-0.11828 -0.50182,0 -0.62463,0.624633 -1.15266,2.211027 -0.75272,3.010905 0.0529,0.105794 0.2135,0.1387 0.25091,0.25091 0.0529,0.158689 -0.0748,0.352205 0,0.501819 0.0374,0.07481 0.2135,-0.07481 0.25091,0 0.0748,0.149611 -0.0748,0.352203 0,0.501817 0.0478,0.09567 2.44448,0.250909 2.75999,0.250909 1.00723,0 2.1659,-0.171598 3.01091,0.250907 0.14961,0.07481 0.38354,-0.118279 0.50182,0 0.0591,0.05914 -0.0591,0.19177 0,0.25091 0.0679,0.06785 1.90672,0.07518 2.25818,0.25091 0.36593,0.182964 0.40138,0.401386 0.50182,0.501816 0.0591,0.05914 0.16727,0 0.2509,0 0.16728,0.08364 0.36958,0.118669 0.50182,0.25091 0.4972,0.497197 0.73184,1.21276 1.00364,1.756362 0.26737,0.534737 0.23445,-0.03292 0.50182,0.501817 0.10543,0.21086 0.10508,0.857814 0.25091,1.003636 0.0591,0.05914 0.2135,-0.07481 0.2509,0 0.14962,0.299225 -0.10579,0.686258 0,1.003636 0.0374,0.11221 0.19802,0.145116 0.25091,0.250907 0.11221,0.22442 0,0.50182 0,0.752727 0,1.671917 -0.35368,3.18775 -2.00727,4.014541 -0.22442,0.112212 -0.51469,-0.07934 -0.75273,0 -0.11221,0.0374 -0.14511,0.198014 -0.2509,0.25091 -0.36759,0.183795 -1.58272,0.10614 -2.00728,0 -0.36286,-0.09072 -0.64077,-0.411102 -1.00363,-0.501817 -0.55102,-0.137755 -1.20535,0.137753 -1.75636,0 -0.3653,-0.09133 -1.94522,-0.768916 -2.25818,-1.003636 -0.28387,-0.212902 -0.45749,-0.555898 -0.75273,-0.752726 -0.22006,-0.146709 -0.56571,-0.06389 -0.75273,-0.25091 -0.13975,-0.139753 -0.91825,-1.083789 -1.00363,-1.254543 -0.0748,-0.149614 0.11828,-0.38354 0,-0.501819 -0.0591,-0.05914 -0.16727,0 -0.25091,0"
         id="path4138" /><path
         style="fill:none;fill-opacity:1;stroke:#ffa600;stroke-width:3.4;stroke-linecap:round;stroke-linejoin:round;stroke-dasharray:none;stroke-opacity:1"
         d="m 140.25805,80.792652 c 1.07787,0.98661 2.65747,0.450551 3.76363,1.003634 0.46837,0.234182 1.288,-0.23418 1.75636,0 0.1058,0.0529 0.1387,0.213505 0.25091,0.250909 0.23804,0.07934 0.57531,-0.177419 0.75273,0 0.0591,0.05914 -0.0591,0.19177 0,0.25091 0.52245,0.522444 2.5647,-0.348559 3.26181,0 0.1058,0.0529 0.1387,0.213506 0.25091,0.250907 0.49065,0.16355 1.91748,-0.340704 2.25818,0 0.0591,0.05914 -0.0591,0.19177 0,0.25091 0.0845,0.08447 2.17308,0.0851 2.25818,0 0.33455,-0.334545 -0.41818,-0.25091 0.25091,-0.25091"
         id="path4148" /><path
         style="fill:none;fill-opacity:1;stroke:#ffa600;stroke-width:3.4;stroke-linecap:round;stroke-linejoin:round;stroke-dasharray:none;stroke-opacity:1"
         d="m 147.2835,83.301741 c 0.40531,5.718141 1.00363,11.09413 1.00363,17.061799"
         id="path4150" /><path
         style="fill:none;fill-opacity:1;stroke:#ffa600;stroke-width:3.4;stroke-linecap:round;stroke-linejoin:round;stroke-dasharray:none;stroke-opacity:1"
         d="m 57.458128,121.6908 c 0.409731,-2.34336 -0.466416,-4.94429 0,-7.27636 0.03668,-0.18339 0.220162,-0.31735 0.250909,-0.50182 0.06462,-0.38771 0.129183,-2.39482 0.250907,-2.76 0.113549,-0.34064 0.397659,-0.58699 0.50182,-1.00363 0.13549,-0.54196 0.07667,-1.23365 0.250907,-1.75636 0.03617,-0.10852 0.49553,-1.22939 0.501819,-1.25455 0.150855,-0.60342 -0.224652,-0.77898 0.25091,-1.25454 0.05914,-0.0591 0.191767,0.0591 0.250907,0 0.146169,-0.14617 -0.02133,-1.15669 0.501819,-1.50546 1.08167,-0.72111 2.811222,-0.90292 4.014541,-0.50182 0.398995,0.13301 0.622401,0.56211 1.003636,0.75273 0.366372,0.18319 0.931432,-0.0722 1.254544,0.25091 0.118279,0.11828 -0.07481,0.35221 0,0.50182 0.105793,0.21158 0.427011,0.2774 0.501816,0.50182 0.125455,0.37636 -0.125452,0.87818 0,1.25454 0.153104,0.45931 0.427704,0.97507 0.25091,1.50546 -0.204145,0.61243 -1.04275,0.77228 -1.505453,1.00363 -0.713962,0.35698 -1.44069,0.84014 -2.258179,1.00363 -1.608063,0.32162 -4.08033,0 -5.770904,0"
         id="path4152" /><path
         style="fill:none;fill-opacity:1;stroke:#ffa600;stroke-width:3.4;stroke-linecap:round;stroke-linejoin:round;stroke-dasharray:none;stroke-opacity:1"
         d="m 68.247209,120.93807 c 0.962985,-0.74998 1.484588,-1.85747 2.258179,-2.76 0.896998,-1.0465 1.737328,-2.10418 2.509089,-3.26181 0.207475,-0.31122 0.277397,-0.70441 0.501816,-1.00364 0.212905,-0.28387 0.640517,-0.4161 0.752729,-0.75273 0.0529,-0.15869 -0.04057,-0.33954 0,-0.50181 0.116891,-0.46757 0.619464,-0.85476 0.752727,-1.25455 0.0529,-0.15869 -0.0529,-0.34313 0,-0.50182 0.0748,-0.22442 0.427011,-0.27739 0.501816,-0.50181 0.0529,-0.15869 -0.04057,-0.33954 0,-0.50182 0.04939,-0.19757 0.452425,-0.80607 0.501817,-1.00364 0.240173,-0.96069 0.597321,-1.69646 1.003636,-2.50909 0.0374,-0.0748 -0.05914,-0.19176 0,-0.2509 0.344842,-0.34485 0.482211,0.84877 0.752726,1.25454 0.04639,0.0696 0.19177,-0.0591 0.25091,0 0.374711,0.37471 0.360463,1.08139 0.501817,1.50545 0.08329,0.24987 0.418531,0.50287 0.501819,0.75273 0.0529,0.15869 -0.0529,0.34313 0,0.50182 0.0374,0.11221 0.167272,0.16727 0.250907,0.25091 0.08364,0.16727 0.205552,0.32038 0.25091,0.50181 0.241085,0.96434 0.312475,1.8795 0.752726,2.76 0.100364,0.20073 -0.100362,0.552 0,0.75273 0.182216,0.36443 0.386136,0.5409 0.501819,1.00363 0.101042,0.40417 0.432337,2.94143 0.501817,3.01091 0.05914,0.0591 0.213506,-0.0748 0.25091,0 0.100361,0.20073 -0.100365,0.552 0,0.75273 0.105791,0.21158 0.396023,0.29023 0.501816,0.50181 0.07481,0.14962 -0.0748,0.35221 0,0.50182 0.440021,0.88004 0.501817,1.68641 0.501817,2.76"
         id="path4154" /><path
         style="fill:none;fill-opacity:1;stroke:#ffa600;stroke-width:3.4;stroke-linecap:round;stroke-linejoin:round;stroke-dasharray:none;stroke-opacity:1"
         d="m 72.763567,113.91262 c 0.418182,0 0.839594,-0.0519 1.254546,0 0.952119,0.11901 1.836697,0.94678 2.759995,1.25455 0.211606,0.0705 0.554586,-0.0991 0.752729,0 0.968764,0.48438 2.089997,0.50181 3.261815,0.50181"
         id="path4156" /><path
         style="fill:none;fill-opacity:1;stroke:#ffa600;stroke-width:3.4;stroke-linecap:round;stroke-linejoin:round;stroke-dasharray:none;stroke-opacity:1"
         d="m 88.821735,125.20352 c 1.034113,-3.6194 0.215135,-0.1441 0.501817,-3.01091 0.04243,-0.42434 0.203814,-0.83069 0.250909,-1.25454 0.203412,-1.8307 -0.329448,-3.77893 0.25091,-5.52 0.09691,-0.29074 -0.07298,-0.71173 0,-1.00363 0.195265,-0.78107 0.749165,-1.49477 1.003634,-2.25818 0.163702,-0.49111 0.08466,-1.00672 0.250909,-1.50546 0.09235,-0.27705 0.440854,-0.75978 0.501817,-1.00363 0.111403,-0.4456 0.171468,-2.00098 0.501819,-1.50545 0.404538,0.6068 0.492554,1.60774 0.752727,2.25818 0.08785,0.21964 0.444444,0.27232 0.501816,0.50181 0.150191,0.60076 -0.01577,1.22304 0.25091,1.75637 0.105794,0.21158 0.427011,0.27739 0.501817,0.50181 0.07935,0.23804 -0.177419,0.57531 0,0.75273 0.05914,0.0591 0.19177,-0.0591 0.250909,0 0.11828,0.11828 -0.118279,0.38354 0,0.50182 0.05914,0.0591 0.213506,-0.0748 0.25091,0 0.07481,0.14961 -0.0529,0.34313 0,0.50182 0.203195,0.60958 0.729848,1.20878 1.003636,1.75636 0.07481,0.14961 -0.07481,0.3522 0,0.50181 0.124457,0.24892 0.415184,0.49284 0.501817,0.75273 0.0529,0.15869 -0.07481,0.35221 0,0.50182 0.0374,0.0748 0.213505,-0.0748 0.250909,0 0.07481,0.14961 -0.07481,0.3522 0,0.50182 0.0374,0.0748 0.191768,-0.0591 0.250907,0 0.093,0.093 0.173403,0.84862 0.25091,1.00363 0.607089,1.21418 1.27662,3.02195 2.258179,3.51273 0.365932,0.18296 0.401386,0.40138 0.501819,0.50181 0.187016,0.18702 0.565704,0.0639 0.752724,0.25091 0.0591,0.0591 0,0.33455 0,0.25091 0,-1.05566 0.26675,-2.69663 0,-3.76363 -0.0731,-0.29255 -0.406456,-0.46665 -0.501817,-0.75273 -0.148391,-0.44517 -0.10084,-6.82376 0,-7.02545 0.0374,-0.0748 0.224467,0.0794 0.250907,0 0.25965,-0.77892 0,-4.74534 0,-5.7709"
         id="path4158" /><path
         style="fill:none;fill-opacity:1;stroke:#ffa600;stroke-width:3.4;stroke-linecap:round;stroke-linejoin:round;stroke-dasharray:none;stroke-opacity:1"
         d="m 114.91626,107.6399 c -0.33175,-0.72102 -2.20173,0.0282 -2.76,-0.25091 -0.85151,-0.42575 -1.99485,-0.25091 -3.01091,-0.25091 -0.49964,0 -1.28491,-0.15715 -1.75636,0 -0.93982,0.31327 -1.64299,1.27872 -2.00727,2.00727 -0.10579,0.21159 -0.42701,0.2774 -0.50182,0.50182 -0.10579,0.31738 0.10579,0.68626 0,1.00363 -0.0374,0.11221 -0.19801,0.14512 -0.25091,0.25091 -0.14961,0.29923 0.0811,0.67908 0,1.00364 -0.0287,0.11475 -0.19801,0.14512 -0.25091,0.25091 -0.27191,0.54383 0.099,1.80229 0.25091,2.25818 0.1574,0.47218 0.13668,1.89303 0.25091,2.00727 0.0591,0.0591 0.19177,-0.0591 0.25091,0 0.11828,0.11828 -0.0748,0.3522 0,0.50182 0.0529,0.10579 0.21351,0.13869 0.25091,0.2509 0.10579,0.31738 -0.10579,0.68626 0,1.00364 0.0374,0.11221 0.22222,0.13616 0.25091,0.25091 0,1.77963 -0.17742,0.14698 0.25091,1.00363 0.0757,0.1515 -0.11599,0.63674 0,0.75273 0.13224,0.13224 0.3896,0.1013 0.50181,0.25091 0.76504,0.17762 0.0967,0.6952 0.25091,1.00364 0.23559,0.47118 2.08203,2.36673 2.50909,2.50908 0.9411,0.3137 6.87634,1.20365 7.77818,0.75273 0.51118,-0.25559 1.54892,-0.69807 2.00727,-1.00364 0.33814,-0.22543 0.97889,-1.00363 1.25454,-1.00363"
         id="path4160" /><path
         style="fill:none;fill-opacity:1;stroke:#ffa600;stroke-width:3.4;stroke-linecap:round;stroke-linejoin:round;stroke-dasharray:none;stroke-opacity:1"
         d="m 124.19988,121.6908 c 1.15127,-1.48942 0.35334,-3.4206 0.75273,-5.01818 0.24827,-0.99308 0.46296,-1.99673 0.75273,-3.01091 0.30838,-1.07936 0.32999,-2.20498 0.75272,-3.26181 0.0439,-0.10982 0.16728,-0.16728 0.25091,-0.25091 0.16727,-0.25091 0.38982,-0.47274 0.50182,-0.75273 0.14845,-0.37112 0.20198,-1.45652 0.50182,-1.75636 0.0591,-0.0591 0.19177,0.0591 0.25091,0 0.14995,-0.14995 -0.27121,-0.50182 0.25091,-0.50182 0.59348,0 1.58139,4.3183 1.75636,5.01818 0.14907,0.59631 0.57478,1.22252 0.75272,1.75636 0.0529,0.15869 -0.0529,0.34313 0,0.50182 0.0374,0.11221 0.21351,0.1387 0.25091,0.25091 0.25195,0.75584 0.16217,1.57888 0.50182,2.25818 0.0748,0.14961 -0.0748,0.3522 0,0.50181 0.13486,0.26972 0.28859,0.5395 0.50182,0.75273 0.0591,0.0591 0.19177,-0.0591 0.25091,0 0.25894,0.25894 0.36459,0.72918 0.50181,1.00364 0.0836,0.16727 0.41819,0.0836 0.50182,0.2509 0.0748,0.14962 -0.0748,0.35221 0,0.50182 0.009,0.018 0.50182,0.1534 0.50182,0.75273"
         id="path4164" /><path
         style="fill:none;fill-opacity:1;stroke:#ffa600;stroke-width:3.4;stroke-linecap:round;stroke-linejoin:round;stroke-dasharray:none;stroke-opacity:1"
         d="m 125.20352,115.41807 c 0.3527,-0.17965 3.28298,0.22975 3.51272,0 0.0591,-0.0591 -0.0748,-0.2135 0,-0.2509 0.2898,-0.1449 1.15481,0 1.50545,0"
         id="path4166" /><path
         style="fill:none;fill-opacity:1;stroke:#ffa600;stroke-width:3.4;stroke-linecap:round;stroke-linejoin:round;stroke-dasharray:none;stroke-opacity:1"
         d="m 137.24714,103.37445 c 0,0.83636 -0.0491,1.67417 0,2.50909 0.0943,1.60268 0.69633,2.97981 1.00364,4.51636 0.0892,0.44617 0.1746,2.35648 0.25091,2.50908 0.0529,0.1058 0.2135,0.1387 0.25091,0.25091 0.27556,0.8267 -0.21166,1.91338 0,2.76 0.0907,0.36287 0.4111,0.64077 0.50181,1.00364 0.13399,0.53594 -0.17459,1.23257 0,1.75636 0.1073,0.32188 0.39453,0.68176 0.50182,1.00363 0.12546,0.37637 -0.12545,0.87818 0,1.25455 0.3067,0.92009 0.50182,1.79151 0.50182,2.75999"
         id="path4168" /><path
         style="fill:none;fill-opacity:1;stroke:#ffa600;stroke-width:3.4;stroke-linecap:round;stroke-linejoin:round;stroke-dasharray:none;stroke-opacity:1"
         d="m 139.00351,112.90898 c 1.15046,-0.56438 1.42499,-2.17772 2.25818,-3.0109 0.13224,-0.13224 0.36957,-0.11867 0.50181,-0.25091 0.10116,-0.10116 0.16418,-0.62263 0.25091,-0.75273 -0.61914,-0.75962 0.68249,-0.43158 0.75273,-0.50181 0.47817,-0.47818 0.57779,-0.86669 1.00363,-1.50546 0.43086,-0.64629 1.00364,-0.38248 1.00364,-1.25454"
         id="path4172" /><path
         style="fill:none;fill-opacity:1;stroke:#ffa600;stroke-width:3.4;stroke-linecap:round;stroke-linejoin:round;stroke-dasharray:none;stroke-opacity:1"
         d="m 150.04349,121.9417 c -1.90067,-0.88711 -3.38627,-2.45811 -5.01817,-3.76363 -0.45608,-0.36486 -0.54931,-0.95166 -1.00364,-1.25454 -0.15561,-0.10374 -0.36957,-0.11867 -0.50182,-0.25091 -0.21323,-0.21324 -0.28858,-0.5395 -0.50181,-0.75273 -0.4113,-0.41129 -1.53535,-1.06341 -1.75636,-1.50545 -0.0374,-0.0748 0.0591,-0.19177 0,-0.25091 -0.38122,-0.38121 -1.75637,-1.15714 -1.75637,-1.75636"
         id="path4178" /><path
         style="fill:none;fill-opacity:1;stroke:#ffa600;stroke-width:3.4;stroke-linecap:round;stroke-linejoin:round;stroke-dasharray:none;stroke-opacity:1"
         d="m 149.79259,111.90535 c 2.06658,0.46168 5.0636,0.0573 6.27272,-1.75636 0.79743,-1.19615 1.86311,-2.47715 1.50545,-4.26545 -0.4589,-2.2945 -3.71616,-2.30791 -5.51999,-2.00728 -0.0502,0.008 -1.96033,0.97235 -2.00728,1.00364 -0.10615,0.0708 -0.72367,0.88743 -0.75272,1.00364 -0.0609,0.24341 0.0689,0.51147 0,0.75272 -0.10276,0.35965 -0.38354,0.6488 -0.50182,1.00364 -0.369,1.10701 -0.27547,2.15993 0,3.26181 0.0203,0.0811 -0.0591,0.19177 0,0.25091 0.2957,0.2957 0.81662,0.3787 1.00364,0.75273 0.26448,0.52896 0.12261,1.17905 0.2509,1.75636 0.24233,1.09046 0.15756,0.0642 0.50182,0.75273 0.49403,0.98805 0.77606,1.77386 1.75636,2.50909 0.14962,0.11221 0.36958,0.11867 0.50182,0.2509 0.0591,0.0591 -0.0748,0.21351 0,0.25091 0.14962,0.0748 0.33954,-0.0406 0.50182,0 0.36287,0.0907 0.64077,0.41111 1.00364,0.50182 0.79649,0.19913 4.78242,0.4353 5.51999,0.25091 0.11475,-0.0287 0.1387,-0.21351 0.25091,-0.25091 0.47606,-0.15869 1.01338,0.0984 1.50545,0 0.3214,-0.0643 0.3383,-0.25091 0.75273,-0.25091"
         id="path4182" /><path
         style="fill:none;fill-opacity:1;stroke:#ffa600;stroke-width:3.4;stroke-linecap:round;stroke-linejoin:round;stroke-dasharray:none;stroke-opacity:1"
         d="m 59.4654,129.97079 c 5.510289,2.44902 -1.696524,-0.6283 5.770903,2.00727 0.284361,0.10036 0.470371,0.39593 0.752727,0.50182 0.808868,0.30332 3.33307,0.43005 3.763632,0.50181 0.184472,0.0308 0.320384,0.20555 0.501816,0.25091 1.342139,0.33554 2.429971,0.30817 3.763635,0.75273 0.290745,0.0969 0.711729,-0.073 1.003636,0 0.478954,0.11974 0.860811,0.30495 1.254543,0.50182 0.200726,0.10036 0.552,-0.10037 0.752726,0 0.105794,0.0529 0.136163,0.22222 0.25091,0.25091 0.243416,0.0609 0.509309,-0.0609 0.752726,0 0.114747,0.0287 0.1387,0.2135 0.25091,0.25091 0.396721,0.13223 0.841224,-0.0636 1.254543,0 0.843007,0.12969 1.661379,0.40762 2.509088,0.50181 1.809491,0.20106 3.704363,0.0693 5.519994,0.25091 1.090608,0.10906 2.189438,0.34862 3.261816,0.50182 0.5164,0.0738 1.477443,-0.17661 2.007272,0 0.112209,0.0374 0.136159,0.22222 0.250909,0.25091 0.789625,0.1974 1.935697,0 2.759996,0 2.676361,0 5.352718,0 8.029078,0 3.25633,0 6.88374,0.37961 10.03636,-0.25091 1.84705,-0.36941 3.89758,0.23416 5.7709,0 2.02288,-0.25286 0.51243,-0.29749 2.76,-0.50182 1.20373,-0.10943 2.5762,0.23749 3.76363,0 0.7529,-0.15058 1.46206,-0.62004 2.25818,-0.75272 0.83637,-0.1394 0.20909,0.20908 1.25455,0 0.18338,-0.0367 0.32038,-0.20556 0.50181,-0.25091 0.8824,-0.2206 1.86896,-0.10241 2.76,-0.25091 1.48284,-0.24714 0.58453,-0.31586 2.25818,-0.50182 0.7539,-0.0838 1.52963,-0.0688 2.25818,-0.25091 0.51317,-0.12829 0.99229,-0.37353 1.50546,-0.50182 0.30886,-0.0772 0.7025,0.10038 1.00363,0 0.28608,-0.0954 0.46665,-0.40646 0.75273,-0.50182 0.4002,-0.1334 0.8241,-0.10742 1.25454,-0.2509 0.44126,-0.14709 2.50909,-0.61083 2.50909,-1.00364"
         id="path4184" /><path
         style="fill:none;fill-opacity:1;stroke:#ffa600;stroke-width:3.4;stroke-linecap:round;stroke-linejoin:round;stroke-dasharray:none;stroke-opacity:1"
         d="m 59.716307,57.709037 c 1.194911,0.337027 1.593466,1.604164 2.509088,2.258179 1.026451,0.733179 2.258344,1.204492 3.261816,2.00727 0.326546,0.261236 0.707937,0.457028 1.003636,0.752729 0.132241,0.132239 0.0953,0.398079 0.250909,0.501816 0.139179,0.09279 0.362638,-0.09279 0.501817,0 0.155607,0.103738 0.118668,0.369578 0.25091,0.501817 0.05914,0.05914 0.191767,-0.05914 0.250907,0 0.334846,0.334846 -1.274578,2.252562 -1.505453,2.509089 -0.712124,0.79125 -1.576692,1.440397 -2.258179,2.258182 -0.193051,0.231658 -0.288587,0.539493 -0.501817,0.752726 -0.132241,0.132239 -0.369578,0.118668 -0.501819,0.250907 -0.132239,0.132241 -0.138697,0.352205 -0.250907,0.501819 -0.867532,1.156708 -2.024732,2.392363 -3.261815,3.010906 -0.492228,0.246112 0.01921,0.501816 -0.50182,0.501816"
         id="path4186" /><path
         style="fill:none;fill-opacity:1;stroke:#ffa600;stroke-width:3.4;stroke-linecap:round;stroke-linejoin:round;stroke-dasharray:none;stroke-opacity:1"
         d="m 58.96358,65.73812 c 3.405923,-0.303368 5.94773,-2.509089 9.283629,-2.509089"
         id="path4188" /><path
         style="fill:none;fill-opacity:1;stroke:#ffa600;stroke-width:3.4;stroke-linecap:round;stroke-linejoin:round;stroke-dasharray:none;stroke-opacity:1"
         d="m 141.7635,56.203585 c -2.21504,0.632867 -1.47035,0.163946 -3.26181,1.756359 -0.62754,0.557811 -1.48178,1.099492 -2.00727,1.756363 -0.18838,0.235476 -0.28859,0.539496 -0.50182,0.752726 -0.0591,0.05914 -0.19177,-0.05914 -0.25091,0 -0.45619,0.456189 0.95569,1.257348 1.75636,2.258182 0.30465,0.380812 0.46012,0.864399 0.75273,1.254543 1.24547,1.660623 0.31836,-0.132869 1.25454,1.505453 0.31602,0.553032 0.34496,1.267039 0.75273,1.756362 0.26771,0.321257 0.70794,0.457028 1.00364,0.752726 0.61505,0.615051 1.6823,1.818042 2.25817,2.509089 0.37545,0.450532 0.68393,1.756362 1.25455,1.756362"
         id="path4190" /><path
         style="fill:none;fill-opacity:1;stroke:#ffa600;stroke-width:3.4;stroke-linecap:round;stroke-linejoin:round;stroke-dasharray:none;stroke-opacity:1"
         d="m 136.24351,60.218126 c 0.89692,0.241012 1.65062,1.162066 2.50909,1.505453 1.05989,0.423955 -0.0626,-0.548804 1.00363,0.250907 0.18925,0.141936 0.29023,0.396025 0.50182,0.501819 0.14961,0.07481 0.3522,-0.07481 0.50182,0 0.21158,0.105791 0.29023,0.396026 0.50182,0.501817 0.14961,0.07481 0.3522,-0.07481 0.50181,0 0.0748,0.0374 -0.0591,0.19177 0,0.250909 0.19781,0.197811 1.25215,0.124259 1.50545,0.25091 0.21159,0.105791 0.305,0.370597 0.50182,0.501817 0.13918,0.09279 0.38354,-0.11828 0.50182,0 0.0591,0.05914 -0.0591,0.19177 0,0.250909 0.22367,0.223666 0.73716,0.117674 1.00364,0.250908 1.04422,0.522112 -0.26823,-0.01733 0.25091,0.501819 0.11828,0.118279 0.3522,-0.07481 0.50181,0 0.21159,0.105791 0.29024,0.396026 0.50182,0.501817 0.14961,0.07481 0.35221,-0.07481 0.50182,0 0.26325,0.131627 0.88665,0.501819 1.00364,0.501819"
         id="path4196" /></g><path
       style="fill:none;fill-opacity:1;stroke:#ff6361;stroke-width:6.49146;stroke-linecap:round;stroke-linejoin:round;stroke-dasharray:none;stroke-opacity:1"
       d="m 779.19741,542.38487 c 0.314,2.19811 -0.15674,-0.8797 0.28793,1.34366 0.0506,0.25292 0.038,0.51649 0.096,0.76781 0.0387,0.16787 0.14662,0.31367 0.19195,0.47988 0.1862,0.68275 0.23553,1.41903 0.3839,2.11147 0.10394,0.48504 0.22411,1.05622 0.3839,1.53562 0.0226,0.0679 0.0842,0.12138 0.096,0.19195 0.021,0.12623 -0.0352,0.26086 0,0.3839 0.0317,0.11091 0.14035,0.18476 0.19195,0.28793 0.16214,0.32427 0.17449,0.71541 0.28793,1.05573 0.0545,0.16345 0.14662,0.31368 0.19195,0.47988 0.0512,0.18775 0.0401,0.38947 0.096,0.57586 0.0411,0.13704 0.15084,0.24687 0.19195,0.3839 0.0559,0.1864 0.064,0.38391 0.096,0.57586 0.064,0.12797 0.1417,0.24994 0.19195,0.3839 0.0926,0.24702 0.088,0.52533 0.19195,0.76781 0.0454,0.10602 0.14651,0.18191 0.19195,0.28793 0.0519,0.12124 0.044,0.26266 0.096,0.3839 0.0909,0.21205 0.3029,0.35985 0.3839,0.57586 0.0573,0.15274 0.0403,0.32657 0.096,0.47988 0.0733,0.20169 0.22006,0.37226 0.28793,0.57586 0.0303,0.091 -0.0378,0.19971 0,0.28792 0.25361,0.59177 0.58448,1.14748 0.86378,1.72757 0.27338,0.56778 0.47296,1.17063 0.76781,1.72756 0.48063,0.90787 1.04726,1.78039 1.53562,2.68733 0.28538,0.53 0.40533,1.09862 0.67182,1.63159 0.37389,0.74778 0.80549,1.44576 1.15171,2.20745 0.0837,0.1842 0.10147,0.39488 0.19196,0.57585 0.0834,0.16686 0.19195,0.31992 0.28793,0.47989 0.032,0.096 0.0561,0.19493 0.096,0.28792 0.1016,0.23708 0.29334,0.43033 0.38391,0.67183 0.0573,0.15275 0.0387,0.32715 0.096,0.47988 0.0405,0.10801 0.13472,0.18778 0.19196,0.28793 0.155,0.27127 0.52554,1.12188 0.57585,1.24769 0.15029,0.37573 0.21645,0.78331 0.3839,1.15171 0.36942,0.81271 0.84792,1.59986 1.24769,2.3994 0.57498,1.14995 0.0343,0.18515 0.47988,1.34366 0.16443,0.42753 0.3839,0.83179 0.57585,1.24769 0.49773,1.07839 0.10287,0.0983 0.86379,1.53562 0.38757,0.73208 0.68814,1.51209 1.15171,2.20744 0.32079,0.48119 0.68111,0.92878 0.95976,1.43965 0.17128,0.314 0.29031,0.65644 0.47988,0.95975 0.24246,0.38794 0.54111,0.755 0.7678,1.15171 0.0502,0.0878 0.0458,0.20009 0.096,0.28793 0.1259,0.22032 0.52118,0.84482 0.67184,1.05574 0.0789,0.11044 0.20903,0.17748 0.28792,0.28792 0.34036,0.4765 0.55389,1.03979 0.86379,1.53562 0.82213,1.31541 -0.20937,-0.42747 0.57585,0.67183 0.0832,0.11642 0.11259,0.26486 0.19196,0.3839 0.29039,0.4356 0.41204,0.44813 0.67182,0.86379 0.24534,0.39254 0.36335,0.79181 0.67184,1.15171 0.26747,0.31205 0.50571,0.64524 0.7678,0.95976 0.39955,0.47945 0.90254,0.90253 1.34367,1.34366 0.69009,0.69009 1.3571,1.39323 2.01549,2.11147 1.20796,1.31778 2.47656,2.57254 3.74306,3.83904 0.65951,0.65951 1.33384,1.28654 2.0155,1.91952 0.26524,0.24629 0.4869,0.53957 0.76781,0.76781 0.23424,0.19032 0.51187,0.31992 0.7678,0.47988 0.30728,0.46091 0.58465,0.96111 0.86379,1.43964 0.18023,0.30896 0.27198,0.6687 0.47988,0.95976 0.18157,0.2542 0.49025,0.41762 0.67183,0.67183 0.0588,0.0823 0.0439,0.20117 0.096,0.28793 0.21981,0.36635 0.68683,0.63224 0.95976,0.95975 0.0738,0.0886 0.11038,0.20637 0.19195,0.28793 0.21664,0.21665 0.53458,0.37595 0.7678,0.57586 0.41613,0.35667 0.82726,0.70538 1.24769,1.05573 0.0886,0.0738 0.21409,0.10334 0.28793,0.19196 0.0916,0.10991 0.0908,0.28273 0.19195,0.3839 0.0715,0.0715 0.19744,0.0507 0.28793,0.096 0.147,0.0735 0.0751,0.17103 0.19195,0.28792 0.0506,0.0506 0.14138,0.0454 0.19196,0.096 0.16883,0.16884 0.28261,0.40677 0.47987,0.57586 0.78082,0.66927 1.62173,1.25294 2.3994,1.91952 0.27288,0.23389 0.42803,0.524 0.67183,0.7678 0.48485,0.48485 0.22129,0.14752 0.57586,0.38391 0.29186,0.19457 0.43228,0.62423 0.67183,0.86378 0.62692,0.62692 -0.30645,-0.57502 0.3839,0.28793 0.40345,0.5043 -0.0639,0.10314 0.57586,0.67183 0.30621,0.27219 0.65355,0.49562 0.95976,0.76781 0.23671,0.21041 0.43137,0.46572 0.67183,0.67183 0.70792,0.60678 1.50016,1.12132 2.20745,1.72757 0.42827,0.36709 0.82335,0.78041 1.24768,1.15171 0.35968,0.31472 0.78642,0.55937 1.15172,0.86378 0.10427,0.0869 0.17154,0.2181 0.28793,0.28793 0.0549,0.0329 0.13708,-0.0329 0.19195,0 0.11639,0.0698 0.18194,0.20314 0.28792,0.28793 0.33979,0.27183 0.68675,0.53718 1.05574,0.7678 0.54281,0.33926 1.07284,0.73645 1.63159,1.05574 0.24844,0.14196 0.52972,0.22518 0.76781,0.3839 1.40155,0.93437 2.80367,1.92971 4.31892,2.68733 0.74106,0.37054 1.44123,0.81117 2.20744,1.15171 0.39384,0.17504 1.08894,0.45264 1.43965,0.67183 0.33081,0.20677 0.62134,0.56476 0.95975,0.76781 0.20893,0.12535 0.46029,0.16705 0.67183,0.28793 0.54169,0.30953 0.97686,0.74678 1.43964,1.15171 0.89632,0.78428 -0.11511,-0.15077 0.76781,0.47988 0.55986,0.3999 0.0533,0.15996 0.47988,0.47988 0.29748,0.22311 0.63597,0.49194 0.95976,0.67183 0.35343,0.19635 1.45343,0.66686 1.82354,0.76781 0.18775,0.0512 0.3839,0.064 0.57586,0.096 0.22394,0.064 0.44789,0.12797 0.67183,0.19196 0.59865,0.1842 1.12612,0.49998 1.72757,0.67183 1.84259,0.52645 3.77519,1.00659 5.47063,1.91952 0.26574,0.14308 0.5071,0.3278 0.76781,0.47988 0.29345,0.17118 0.54553,0.2566 0.86378,0.3839 0.0786,0.0449 0.11436,0.14538 0.19195,0.19195 0.2591,0.15546 0.60468,0.22844 0.86378,0.3839 0.0776,0.0466 0.11437,0.14538 0.19195,0.19196 0.35754,0.21452 0.86193,0.3396 1.24769,0.47988 0.16191,0.0589 0.31992,0.12797 0.47988,0.19195 0.12797,0.064 0.24995,0.1417 0.38391,0.19195 0.79045,0.29642 1.59833,0.57769 2.39939,0.86378 0.63688,0.22746 1.30753,0.36584 1.91952,0.67184 0.36566,0.18282 0.68087,0.51117 1.05574,0.67183 0.12124,0.0519 0.26266,0.044 0.3839,0.096 0.26603,0.11402 0.50865,0.35031 0.76781,0.47989 0.48431,0.24215 1.05149,0.33379 1.53561,0.57585 0.52341,0.2617 1.04865,0.47752 1.6316,0.67183 0.29096,0.097 0.57282,0.095 0.86378,0.19195 0.13573,0.0452 0.24817,0.14673 0.3839,0.19196 0.81299,0.27099 1.66662,0.36866 2.49538,0.57585 1.30576,0.32644 2.59155,0.73585 3.93501,0.95976 0.51933,0.0866 1.10652,0.22959 1.63159,0.28793 0.15899,0.0177 0.32116,-0.0199 0.47989,0 0.2953,0.0369 0.56846,0.25103 0.86378,0.28792 0.8797,0.10999 0.0816,-0.14351 0.95975,0.096 0.59444,0.16212 1.14908,0.46147 1.72757,0.67184 1.10203,0.40073 -1.02271,-0.38851 0.86379,0.19195 0.23286,0.0716 0.44069,0.21088 0.67183,0.28792 0.15475,0.0516 0.32512,0.0444 0.47988,0.096 0.13573,0.0452 0.24424,0.1609 0.3839,0.19195 0.15615,0.0347 0.3209,-0.0176 0.47988,0 1.60451,0.17827 -0.60211,0.01 0.67183,0.19195 0.26127,0.0373 0.4199,-0.028 0.67183,0 0.46321,0.0515 0.89356,0.20609 1.34367,0.28793 0.56956,0.10356 1.16276,0.10506 1.72756,0.19195 0.81011,0.12464 1.58989,0.47467 2.39941,0.57586 0.44747,0.0559 0.90377,0.0453 1.34366,0.19195 0.47295,0.15765 0.94927,0.36313 1.43964,0.47988 0.50662,0.12063 1.02898,0.1673 1.53561,0.28793 0.1676,0.0399 0.31143,0.15587 0.47988,0.19195 0.28327,0.0607 0.58052,0.0353 0.86379,0.096 0.16846,0.0361 0.31094,0.15815 0.47988,0.19196 0.15685,0.0314 0.32057,-0.0145 0.47987,0 0.48214,0.0438 0.95977,0.12796 1.43964,0.19195 0.64228,0.0856 1.27155,0.23811 1.91952,0.28793 1.46559,0.11274 2.95573,-0.15478 4.4149,0.096 0.55641,0 1.10339,0.23985 1.63159,0.38391 0.7621,0.20784 1.54106,0.42338 2.30342,0.57585 0.21533,0.0431 0.4565,-0.0431 0.67183,0 0.0702,0.014 0.12139,0.0842 0.19196,0.096 0.36647,0.0611 0.78261,-0.0335 1.15171,0 0.1938,0.0176 0.38182,0.081 0.57585,0.096 0.47847,0.0368 0.96059,-0.0282 1.43964,0 2.29049,0.13474 4.60206,0.45281 6.91027,0.28793 0.54579,-0.039 1.08892,-0.13768 1.63159,-0.19195 0.50495,-0.0505 1.03264,-0.0241 1.53562,-0.096 0.74061,-0.1058 1.44601,-0.25168 2.20744,-0.28793 1.46054,-0.0695 2.9588,0.13238 4.41489,0 0.13137,-0.0119 0.2538,-0.0743 0.38391,-0.096 0.31057,-0.0518 0.64667,0.0348 0.95976,0 0.16213,-0.018 0.31742,-0.0812 0.47988,-0.096 0.38233,-0.0348 0.76894,0.0294 1.15171,0 0.4511,-0.0347 0.89279,-0.1544 1.34367,-0.19194 0.76629,-0.0639 1.53861,-0.0195 2.30342,-0.096 1.06789,-0.10679 2.10494,-0.45783 3.1672,-0.57586 0.38152,-0.0424 0.77228,-0.0418 1.15171,-0.096 0.2003,-0.0286 0.37556,-0.16333 0.57586,-0.19195 0.12668,-0.0181 0.25692,0.0159 0.3839,0 0.6504,-0.0813 1.27604,-0.38795 1.91952,-0.47987 0.19002,-0.0272 0.38652,0.0315 0.57586,0 0.6399,-0.10666 1.27306,-0.12731 1.91952,-0.19196 0.5756,-0.0576 1.14836,-0.23001 1.72756,-0.28793 0.4981,-0.0498 1.04432,-0.0141 1.53562,-0.096 0.19958,-0.0333 0.37956,-0.14289 0.57586,-0.19195 0.77482,-0.19371 0.40649,-0.0259 1.24768,-0.096 1.34944,-0.11245 2.68648,-0.51365 4.03099,-0.67183 0.19064,-0.0224 0.38439,0.0137 0.57586,0 0.74016,-0.0529 1.46908,-0.21409 2.20745,-0.28793 0.15916,-0.0159 0.32372,0.0347 0.47987,0 0.13967,-0.0311 0.24511,-0.15722 0.38391,-0.19195 0.12415,-0.0311 0.25692,0.0159 0.3839,0 0.26178,-0.0327 0.50561,-0.1628 0.76781,-0.19195 0.15898,-0.0176 0.3209,0.0177 0.47988,0 0.89265,-0.0992 -0.0561,-0.0706 0.67183,-0.19196 0.0947,-0.0158 0.19328,0.0158 0.28795,0 0.26994,-0.045 0.51391,-0.2033 0.76778,-0.28792 0.86206,-0.28736 1.73014,-0.5767 2.59134,-0.86379 0.59131,-0.19709 1.13016,-0.47269 1.72759,-0.67183 1.04399,-0.34799 2.13234,-0.59017 3.16719,-0.95976 0.22947,-0.0819 0.43898,-0.21627 0.67186,-0.28793 0.18598,-0.0572 0.38706,-0.0487 0.57585,-0.096 1.58105,-0.39527 3.13668,-0.89619 4.7028,-1.34367 1.13746,-0.32497 2.32291,-0.52412 3.45513,-0.86378 0.31992,-0.096 0.64293,-0.1823 0.95976,-0.28793 0.13573,-0.0452 0.24636,-0.15262 0.38392,-0.19195 0.0923,-0.0263 0.19323,0.0158 0.28795,0 0.45035,-0.0751 1.25545,-0.43422 1.72754,-0.57585 0.7535,-0.22606 1.54654,-0.3596 2.30344,-0.57586 0.6822,-0.19493 1.33719,-0.47234 2.0155,-0.67183 0.28297,-0.0832 0.58185,-0.10521 0.86374,-0.19196 0.32457,-0.0999 0.62534,-0.28834 0.95976,-0.3839 0.3665,-0.10471 0.80186,-0.13799 1.15175,-0.28792 0.10603,-0.0454 0.18079,-0.14911 0.2879,-0.19196 0.37574,-0.15028 0.7714,-0.24561 1.15174,-0.3839 0.71796,-0.26109 1.48536,-0.33517 2.20743,-0.57585 0.54679,-0.18227 1.08066,-0.50655 1.63152,-0.67184 0.1864,-0.0559 0.3882,-0.0447 0.5759,-0.096 0.3397,-0.0926 1.153,-0.40384 1.4396,-0.57586 0.078,-0.0466 0.1167,-0.14175 0.192,-0.19195 0.328,-0.21867 0.7162,-0.29128 1.0557,-0.47988 0.2797,-0.15537 0.4965,-0.4063 0.7678,-0.57586 0.8999,-0.56241 1.8459,-1.0308 2.7833,-1.53561 0.3425,-0.18442 0.6383,-0.45752 0.9598,-0.67183 0.1786,-0.11905 0.3939,-0.17419 0.5758,-0.28793 0.3625,-0.22651 0.6836,-0.45914 1.0558,-0.67183 0.1002,-0.0572 0.192,-0.12797 0.2879,-0.19195 0.064,-0.064 0.1144,-0.14538 0.192,-0.19196 0.3226,-0.19357 0.2209,0.002 0.4798,-0.19195 0.072,-0.0543 0.128,-0.12797 0.192,-0.19195 0.2879,-0.19195 0.5759,-0.38391 0.8638,-0.57586 0.1218,-0.075 0.2675,-0.10879 0.3839,-0.19195 0.1104,-0.0789 0.1819,-0.20314 0.2879,-0.28792 0.4563,-0.365 1.2024,-0.69807 1.6316,-1.05574 0.1043,-0.0869 0.175,-0.21264 0.288,-0.28793 0.084,-0.0561 0.2,-0.0458 0.2879,-0.096 0.192,-0.10974 0.3838,-0.37015 0.5758,-0.47989 0.1496,-0.0855 0.3293,-0.10828 0.4799,-0.19195 0.6118,-0.33986 1.0771,-0.87293 1.7276,-1.15171 0.214,-0.0917 0.4577,-0.1002 0.6718,-0.19195 0.2371,-0.1016 0.4381,-0.27483 0.6719,-0.38391 0.2476,-0.11559 0.5271,-0.15833 0.7677,-0.28792 0.1804,-0.0971 0.3095,-0.27028 0.4799,-0.3839 0.3667,-0.24447 0.7776,-0.43798 1.1517,-0.67184 0.6532,-0.40819 0.1301,-0.1616 0.7678,-0.67183 1.2618,-1.00938 -0.1024,0.19038 1.1517,-0.67183 0.3376,-0.2321 0.6399,-0.51187 0.9598,-0.76781 0.05,-0.0506 0.045,-0.14137 0.096,-0.19195 0.09,-0.0902 0.3574,-0.10011 0.4798,-0.19195 0.3763,-0.2822 0.6795,-0.67756 1.0558,-0.95976 0.1144,-0.0858 0.2827,-0.0908 0.3839,-0.19195 0.05,-0.0506 0.036,-0.15225 0.096,-0.19195 0.053,-0.0355 0.1422,0.04 0.1919,0 0.16,-0.12797 0.2135,-0.36625 0.384,-0.47989 0.3761,-0.25079 0.6887,-0.60166 1.0557,-0.86378 0.3537,-0.25266 0.798,-0.41917 1.1517,-0.67183 1.0181,-0.72719 -0.3762,0.0914 0.5758,-0.47988 0.1787,-0.10717 0.4095,-0.16314 0.5759,-0.28793 0.4512,-0.33837 -0.1481,-0.11546 0.6718,-0.47988 0.1206,-0.0536 0.266,-0.037 0.3839,-0.096 0.8813,-0.44064 -0.6581,0.0713 0.4799,-0.38391 0.059,-0.0237 0.1299,0.0155 0.192,0 0.3206,-0.0802 0.7846,-0.38224 1.0557,-0.57585 0.1105,-0.0789 0.1919,-0.19195 0.288,-0.28793 0.096,-0.032 0.2011,-0.0439 0.2878,-0.096 0.1165,-0.0698 0.1592,-0.24503 0.288,-0.28793 0.061,-0.0202 0.1325,0.0237 0.1919,0 0.712,-0.28478 1.5336,-0.94433 2.1115,-1.43963 0.2061,-0.17667 0.3587,-0.41298 0.5759,-0.57586 0.057,-0.0429 0.1416,-0.0454 0.1919,-0.096 0.1088,-0.10878 0.1289,-0.30438 0.2879,-0.38391 0.6878,-0.34388 1.9413,-1.84891 2.4954,-2.49537 0.2323,-0.27095 0.5538,-0.48241 0.7678,-0.76781 0.043,-0.0572 0.045,-0.14138 0.096,-0.19195 0.1449,-0.14485 0.3663,-0.21346 0.4799,-0.38391 0.5279,-0.79183 1.2974,-1.38574 1.9195,-2.11147 0.286,-0.33364 0.5551,-0.74701 0.8638,-1.05573 0.082,-0.0816 0.2064,-0.11039 0.2879,-0.19195 0.051,-0.0506 0.054,-0.13473 0.096,-0.19196 0.2592,-0.34564 0.5856,-0.62596 0.8637,-0.95975 0.074,-0.0886 0.1105,-0.20637 0.192,-0.28793 0.2444,-0.24435 0.5561,-0.37543 0.7678,-0.67184 0.083,-0.11642 0.1088,-0.26748 0.192,-0.3839 0.2318,-0.32463 0.6081,-0.55698 0.8637,-0.86378 0.074,-0.0886 0.1104,-0.20637 0.192,-0.28793 0.082,-0.0816 0.2064,-0.11039 0.2879,-0.19195 0.1632,-0.16313 0.2363,-0.39863 0.3839,-0.57586 0.2315,-0.2777 0.5231,-0.42708 0.7679,-0.67183 0.1832,-0.18329 0.3016,-0.49358 0.4799,-0.67183 0.1196,-0.11968 0.5085,-0.11559 0.4798,-0.38391 0.7018,-0.87725 1.4991,-1.70592 2.2075,-2.59134 0.2374,-0.2968 0.4203,-0.66633 0.6718,-0.95977 0.3284,-0.38309 0.6884,-0.71757 0.9597,-1.15171 0.076,-0.12132 0.1089,-0.26748 0.192,-0.3839 0.079,-0.11045 0.2127,-0.175 0.2879,-0.28793 0.056,-0.0842 0.044,-0.20118 0.096,-0.28793 0.1054,-0.17565 0.2391,-0.33503 0.3839,-0.47988 0.023,-0.0226 0.073,0.0226 0.096,0 0.05,-0.0506 0.053,-0.13472 0.096,-0.19195 0.1357,-0.18097 0.3326,-0.30812 0.4799,-0.47988 0.104,-0.12145 0.1919,-0.25593 0.2879,-0.3839 0.032,-0.096 0.035,-0.207 0.096,-0.28793 0.043,-0.0572 0.1417,-0.0454 0.192,-0.096 0.4531,-0.45305 -0.024,-0.10749 0.2879,-0.57585 0.075,-0.11294 0.2091,-0.17748 0.288,-0.28793 0.6568,-0.91954 -0.2206,0.0838 0.3839,-0.67183 0.1376,-0.17206 0.3577,-0.29666 0.4799,-0.47988 0.3146,-0.472 0.6988,-0.99352 1.0557,-1.43964 0.085,-0.10599 0.209,-0.17748 0.2879,-0.28793 0.2533,-0.35461 0.4403,-0.78118 0.6718,-1.15171 0.248,-0.3968 0.6275,-0.70128 0.8638,-1.05573 0.4364,-0.65451 0.8127,-1.36291 1.2477,-2.0155 0.05,-0.0753 0.1454,-0.11436 0.1919,-0.19195 0.1566,-0.26085 0.2472,-0.59034 0.3839,-0.86379 0.132,-0.26382 0.3335,-0.51148 0.4799,-0.7678 0.142,-0.24844 0.2323,-0.52516 0.3839,-0.76781 0.085,-0.13565 0.2086,-0.24502 0.288,-0.38391 0.1525,-0.26698 0.2459,-0.58778 0.3839,-0.86378 0.1485,-0.29708 0.306,-0.36751 0.4798,-0.67183 0.1515,-0.26502 0.1942,-0.6108 0.384,-0.86378 0.3285,-0.43804 0.5267,-0.99022 0.8638,-1.43964 0.2777,-0.37034 0.557,-0.73025 0.7677,-1.15171 0.1541,-0.30819 0.2299,-0.65158 0.3839,-0.95976 0.2613,-0.52241 0.6026,-1.01322 0.8638,-1.53562 0.2276,-0.45506 0.1295,-0.45671 0.384,-0.86378 0.085,-0.13565 0.1919,-0.25594 0.2879,-0.38391 0.032,-0.096 0.044,-0.20117 0.096,-0.28793 0.046,-0.0776 0.1455,-0.11435 0.192,-0.19194 0.1041,-0.17351 0.1014,-0.39489 0.1919,-0.57586 0.1032,-0.20634 0.2808,-0.36952 0.384,-0.57586 0.1541,-0.30819 0.2298,-0.65157 0.3839,-0.95976 0.1668,-0.33369 0.4214,-0.62011 0.5758,-0.95975 0.084,-0.1842 0.1142,-0.38909 0.1919,-0.57586 0.4775,-1.14587 1.0782,-2.25218 1.6317,-3.35916 0.4136,-0.82739 0.6816,-1.74977 1.0557,-2.59135 0.076,-0.17047 0.2187,-0.30668 0.2879,-0.47988 0.061,-0.15146 0.03,-0.33081 0.096,-0.47988 0.065,-0.14617 0.192,-0.25593 0.2879,-0.3839 0.032,-0.12797 0.042,-0.26337 0.096,-0.38391 0.1248,-0.28071 0.6044,-0.8991 0.6718,-1.15171 0.066,-0.24729 0,-0.51187 0,-0.76781 0.053,-0.10556 0.2544,-0.2832 0.2879,-0.3839 0.083,-0.2485 0.033,-0.38488 0.096,-0.67183 0.096,-0.42995 0.3722,-0.81677 0.4799,-1.24769 0.1204,-0.48161 0.1316,-0.95654 0.192,-1.43964 0.096,-0.76688 0.2104,-1.52884 0.2879,-2.30342 0.1525,-1.52476 0.032,0.41868 0.192,-0.86378 0.064,-0.51405 0.1185,-1.02186 0.1919,-1.53562 0.053,-0.36708 -0.09,-0.79271 0,-1.15171 0.183,-0.73201 0.2987,-1.53644 0.3839,-2.30343 0.045,-0.41082 -0.045,-0.83686 0,-1.24768 0.015,-0.1311 0.084,-0.25254 0.096,-0.3839 0.1045,-1.15006 0.065,-2.31081 0.1919,-3.45514 0.053,-0.47214 -0.067,-0.96954 0,-1.43964 0.014,-0.10015 0.084,-0.18754 0.096,-0.28793 0.055,-0.44099 -0.055,-0.90266 0,-1.34366 0.043,-0.34823 0.1525,-0.69824 0.192,-1.05573 0.07,-0.62693 -0.1036,-1.29792 0,-1.91952 0.022,-0.13011 0.078,-0.25333 0.096,-0.38391 0.112,-0.7838 -0.112,-1.61559 0,-2.3994 0.019,-0.13058 0.078,-0.25332 0.096,-0.3839 0.1116,-0.78121 -0.1297,-1.62121 0,-2.3994 0.064,-0.3862 0.115,-0.76713 0.192,-1.15171 0.068,-0.33808 -0.049,-0.714 0,-1.05574 0.1192,-0.83487 0.055,0.0118 0.1919,-0.67183 0.031,-0.15685 -0.026,-0.3221 0,-0.47988 0.017,-0.0998 0.082,-0.18777 0.096,-0.28793 0.045,-0.3167 -0.027,-0.64094 0,-0.95975 0.1525,-1.8287 0.025,0.37395 0.192,-0.95977 0.091,-0.72704 0.015,-1.47931 0.096,-2.20744 0.015,-0.1311 0.08,-0.25302 0.096,-0.38391 0.054,-0.43109 0,-0.90905 0,-1.34366 0,-0.98448 0.075,-1.99529 0,-2.97525 -0.013,-0.16265 -0.08,-0.31757 -0.096,-0.47988 -0.047,-0.47286 0.067,-0.96955 0,-1.43964 -0.1906,-1.3344 -0.4521,-2.61645 -0.6718,-3.93502 -0.1007,-0.60383 -0.058,-1.21976 -0.192,-1.82354 -0.059,-0.26683 -0.2286,-0.50097 -0.2879,-0.7678 -0.035,-0.15616 0.016,-0.32072 0,-0.47989 -0.045,-0.45703 -0.2419,-0.88662 -0.2879,-1.34366 -0.016,-0.15916 0.016,-0.32071 0,-0.47988 -0.1606,-1.60685 -0.037,0.7978 -0.192,-1.05573 -0.016,-0.19129 0.038,-0.38764 0,-0.57586 -0.028,-0.14029 -0.1573,-0.2451 -0.1919,-0.3839 -0.088,-0.35209 -0.01,-0.79963 -0.096,-1.15172 -0.035,-0.1388 -0.1416,-0.24993 -0.1919,-0.3839 -0.1602,-0.42701 -0.1946,-1.16464 -0.288,-1.63159 -0.1,-0.4993 -0.064,-0.096 -0.1919,-0.47988 -0.1675,-0.5024 -0.3341,-1.02538 -0.4799,-1.53562 -0.2207,-0.77238 -0.3882,-1.55267 -0.5759,-2.30342 -0.1362,-0.54493 -0.5206,-1.04119 -0.7678,-1.53561 -0.1425,-0.285 -0.3208,-0.74041 -0.3839,-1.05574 -0.012,-0.0627 0.02,-0.13125 0,-0.19195 -0.014,-0.0429 -0.085,-0.0521 -0.096,-0.096 -0.059,-0.23711 0.04,-0.52648 0,-0.76781 -0.1365,-0.81866 -0.096,0.331 -0.096,-0.67183 -0.1026,-0.82043 -0.3174,-1.68259 -0.4799,-2.49538 -0.052,-0.25869 -0.2206,-0.50555 -0.1919,-0.76781 0.029,-0.26616 0.148,-0.51462 0.222,-0.77193 -0.1019,-0.2037 -0.1712,-0.4529 -0.2036,-0.67865 -0.016,-0.11198 0.036,-0.23203 0,-0.33933 -0.01,-0.0304 -0.058,-0.0375 -0.068,-0.0679 -0.014,-0.0429 0.02,-0.0953 0,-0.13573 -0.01,-0.0202 -0.058,0.0202 -0.068,0 -0.02,-0.0405 0.011,-0.0919 0,-0.13573 -0.064,-0.25679 -0.2862,-0.4828 -0.3393,-0.74651 -0.014,-0.0665 0.014,-0.13705 0,-0.2036 -0.035,-0.17261 -0.2058,-0.32193 -0.2715,-0.47506 -0.037,-0.0857 -0.035,-0.18412 -0.068,-0.27146 -0.195,-0.51994 -0.3916,-1.04947 -0.6108,-1.5609 -0.1338,-0.31224 -0.236,-0.40419 -0.4072,-0.74652 -0.1103,-0.22072 -0.017,-0.16143 -0.1357,-0.33932 -0.063,-0.0941 -0.1533,-0.1703 -0.2036,-0.27147 -0.042,-0.0834 -0.026,-0.18803 -0.068,-0.27145 -0.2306,-0.46128 -0.557,-0.90694 -0.8144,-1.35731 -0.1389,-0.24305 -0.2004,-0.50347 -0.3393,-0.74652 -0.2394,-0.41889 -0.5321,-0.79288 -0.7465,-1.22157 -0.1261,-0.25215 -0.4032,-0.46125 -0.5429,-0.67866 -0.1975,-0.30712 -0.2785,-0.70343 -0.4751,-1.01797 -0.259,-0.41445 -0.5553,-0.80712 -0.8144,-1.22158 -0.2298,-0.36767 -0.4282,-0.73521 -0.6786,-1.08584 -0.077,-0.10734 -0.1446,-0.22135 -0.2036,-0.33933 -0.032,-0.064 -0.023,-0.14774 -0.068,-0.20359 -0.051,-0.0637 -0.1517,-0.0731 -0.2036,-0.13574 -0.1765,-0.21182 -0.098,-0.26289 -0.2036,-0.47505 -0.1392,-0.27851 -0.1031,-0.12892 -0.2715,-0.33933 -0.6407,-0.8009 0.2982,0.34545 -0.2035,-0.40719 -0.053,-0.0799 -0.1506,-0.12374 -0.2036,-0.20359 -0.04,-0.0595 -0.036,-0.13961 -0.068,-0.2036 -0.4075,-0.81495 0.1073,0.2919 -0.2715,-0.33933 -0.161,-0.26846 -0.2544,-0.60734 -0.4072,-0.88224 -0.055,-0.0989 -0.1436,-0.17555 -0.2035,-0.27146 -0.2359,-0.37741 -0.4431,-0.77679 -0.6787,-1.15372 -0.2417,-0.38674 -0.022,-0.18823 -0.3393,-0.61078 -0.058,-0.0768 -0.156,-0.12027 -0.2036,-0.2036 -0.406,-0.71044 0.3139,0.18166 -0.2036,-0.54292 -0.056,-0.0781 -0.1501,-0.12374 -0.2036,-0.2036 -0.4277,-0.64146 -0.6408,-1.37599 -1.018,-2.03595 -0.091,-0.15836 -0.1654,-0.32665 -0.2715,-0.47506 -0.056,-0.0781 -0.1477,-0.12549 -0.2036,-0.2036 -0.2354,-0.32951 -0.056,-0.17968 -0.2035,-0.47505 -0.098,-0.19561 -0.2949,-0.36812 -0.4072,-0.54292 -0.462,-0.71867 -0.8827,-1.45973 -1.3573,-2.17169 -0.1184,-0.17757 -0.2295,-0.35992 -0.3394,-0.54292 -0.073,-0.12159 -0.05,-0.22572 -0.1357,-0.33933 -0.038,-0.0512 -0.107,-0.0785 -0.1357,-0.13573 -0.02,-0.0405 0.023,-0.0965 0,-0.13573 -0.072,-0.12577 -0.1846,-0.22345 -0.2715,-0.33933 -0.1553,-0.20702 -0.2819,-0.45311 -0.4072,-0.67865 -0.09,-0.1628 -0.2478,-0.655 -0.4072,-0.81438 -0.058,-0.0577 -0.1511,-0.0731 -0.2036,-0.13573 -0.1914,-0.22975 -0.3028,-0.5683 -0.475,-0.81439 -0.3978,-0.56824 -0.8595,-1.09131 -1.2895,-1.62876 -0.3826,-0.47838 -0.6736,-1.03506 -1.0858,-1.49303 -0.055,-0.0606 -0.1506,-0.0738 -0.2036,-0.13574 -0.5388,-0.6286 -10e-5,-0.0906 -0.2714,-0.54292 -0.033,-0.0549 -0.1028,-0.0809 -0.1358,-0.13573 -0.037,-0.0613 -0.036,-0.13961 -0.068,-0.2036 -0.05,-0.0992 -0.2933,-0.41357 -0.3393,-0.47505 -0.042,-0.0834 -0.02,-0.19148 -0.068,-0.27146 -0.026,-0.0434 -0.1055,-0.0274 -0.1358,-0.0679 -0.043,-0.0572 -0.036,-0.13961 -0.068,-0.2036 -0.168,-0.33607 -0.3555,-0.69017 -0.5429,-1.01797 -0.603,-1.05532 -1.5831,-1.81678 -2.3752,-2.71461 -0.1917,-0.21723 -0.3691,-0.4469 -0.543,-0.67865 -0.098,-0.13051 -0.1561,-0.29185 -0.2714,-0.4072 -0.093,-0.0933 -0.2338,-0.12445 -0.3393,-0.20359 -0.128,-0.096 -0.2063,-0.2506 -0.3394,-0.33933 -0.1937,-0.12919 -0.4398,-0.16912 -0.6108,-0.33933 -0.4496,-0.29973 -0.8022,-0.7267 -1.3017,-0.95839 0,-0.32645 -0.9624,-1.54109 -1.1517,-1.91952 -0.159,-0.31814 -0.5502,-0.35831 -0.7678,-0.57586 -0.2362,-0.23627 -0.5817,-0.90358 -0.7678,-1.15171 -0.1487,-0.19825 -0.4656,-0.35533 -0.5758,-0.57586 -0.029,-0.0572 0.045,-0.14672 0,-0.19195 -0.045,-0.0452 -0.1466,0.0452 -0.192,0 -0.045,-0.0452 0.057,-0.16333 0,-0.19195 -0.1144,-0.0572 -0.2695,0.0572 -0.3839,0 -0.024,-0.0119 -0.2236,-0.4957 -0.3839,-0.57585 -0.9461,-0.47307 -0.2349,0.15761 -1.1517,-0.57586 -0.212,-0.16958 -0.35,-0.42528 -0.5759,-0.57585 -0.2381,-0.15873 -0.5654,-0.18158 -0.7678,-0.38391 -0.4518,-0.45183 -0.7711,-1.15393 -1.3436,-1.53561 -0.2381,-0.15873 -0.5655,-0.18158 -0.7678,-0.38391 -0.1012,-0.10117 -0.1026,-0.27218 -0.192,-0.3839 -0.4283,-0.53545 -0.7442,-0.55223 -1.1517,-0.95976 -0.045,-0.0452 0.045,-0.14673 0,-0.19195 -0.1012,-0.10117 -0.2648,-0.11259 -0.3839,-0.19196 -0.3012,-0.20077 -0.4852,-0.54169 -0.7678,-0.7678 -0.3535,-0.28279 -0.7725,-0.515 -1.1517,-0.76781 -0.2879,-0.19196 -0.192,-0.3839 -0.5759,-0.57585 -0.1144,-0.0572 -0.2694,0.0572 -0.3839,0 -0.4545,-0.22728 -0.4603,-0.65229 -0.7678,-0.95977 -0.043,-0.0434 -0.7736,-0.48277 -0.9597,-0.57585 -0.057,-0.0286 -0.1634,0.0572 -0.192,0 -0.057,-0.11446 0.071,-0.27743 0,-0.38391 -0.1205,-0.18082 -0.5963,-0.34722 -0.7678,-0.57585 -0.192,-0.25593 -0.4328,-0.48166 -0.5758,-0.76781 -0.029,-0.0572 0.045,-0.14673 0,-0.19195 -0.3969,-0.39715 0.016,0.60691 -0.384,-0.19195 -0.2363,-0.47277 0.5572,0.17328 -0.1919,-0.57586 -0.1012,-0.10117 -0.2649,-0.11259 -0.3839,-0.19195 -0.2215,-0.14766 -0.3544,-0.4282 -0.5759,-0.57586 -1.0198,-0.67984 -2.1548,-1.55729 -3.2632,-2.11147 -0.1809,-0.0905 -0.4023,-0.0879 -0.5758,-0.19195 -0.5009,-0.30055 -1.3266,-1.23914 -1.9195,-1.53561 -1.1902,-0.59509 -2.6663,-1.14119 -3.8391,-1.72757 -0.1145,-0.0572 -0.2694,0.0572 -0.3839,0 -0.7988,-0.3994 -1.7698,-0.61569 -2.6873,-0.95976 -0.6744,-0.25289 -1.2767,-0.93744 -1.9195,-1.15171 -0.8311,-0.27703 0.07,0.36695 -0.7678,-0.19196 -0.3141,-0.20936 -0.3655,-0.44172 -0.7678,-0.57585 -0.3424,-0.1141 -0.8344,-0.22523 -1.1517,-0.3839 -0.6717,-0.33584 -1.2426,-1.0052 -1.9196,-1.34367 -0.587,-0.29349 -1.2918,-0.64592 -1.9195,-0.95975 -0.1809,-0.0905 -0.414,-0.0705 -0.5758,-0.19196 -0.1145,-0.0858 -0.091,-0.28273 -0.192,-0.3839 -0.8475,-0.84753 -3.0402,-1.56033 -4.031,-2.30343 -0.5878,-0.44086 -1.138,-0.90146 -1.72753,-1.34366 -0.1024,-0.0768 -0.26945,0.0572 -0.38391,0 -0.16186,-0.0809 -0.22201,-0.30297 -0.38392,-0.3839 -0.11446,-0.0572 -0.26247,0.0405 -0.38391,0 -0.13573,-0.0452 -0.25593,-0.12797 -0.38387,-0.19195 -0.064,-0.064 -0.10613,-0.16334 -0.19198,-0.19195 -0.12139,-0.0405 -0.26247,0.0405 -0.38386,0 -0.1717,-0.0572 -0.22206,-0.30298 -0.38392,-0.38391 -0.76853,-0.38427 -1.76281,-0.54115 -2.49537,-0.95976 -0.12426,-0.071 -0.0775,-0.29806 -0.19199,-0.3839 -0.16185,-0.1214 -0.38386,-0.12797 -0.57584,-0.19196 -0.064,0 -0.1347,0.0286 -0.19193,0 -0.14325,-0.0716 -0.70487,-0.32094 -0.76784,-0.3839 -0.0454,-0.0452 0.0572,-0.16333 0,-0.19195 -0.11446,-0.0572 -0.26247,0.0405 -0.38391,0 -0.30505,-0.1017 -0.67376,-0.43286 -0.95971,-0.57586 -0.11447,-0.0572 -0.26945,0.0572 -0.38392,0 -0.19041,-0.0952 -0.37704,-0.31762 -0.57584,-0.3839 -0.30954,-0.10317 -0.63985,-0.12797 -0.95977,-0.19195 -0.064,-0.064 -0.11106,-0.15149 -0.19198,-0.19196 -0.22888,-0.11445 -0.51532,0.0421 -0.76778,0 -0.54442,-0.0907 -2.01062,-0.41426 -2.49537,-0.57585 -0.0859,-0.0286 -0.10614,-0.16333 -0.19199,-0.19195 -0.12139,-0.0405 -0.25971,0.031 -0.38386,0 -0.27762,-0.0694 -0.49638,-0.29342 -0.76783,-0.38391 -0.16191,-0.0539 -0.42427,0.0758 -0.57585,0 -0.0809,-0.0405 -0.10613,-0.16333 -0.19198,-0.19195 -0.24279,-0.0809 -0.53885,0.11446 -0.76778,0 -0.0572,-0.0286 0.0572,-0.16333 0,-0.19195 -0.15358,-0.0768 -0.42233,0.0768 -0.57585,0 -0.0809,-0.0405 -0.10321,-0.17421 -0.19198,-0.19195 -0.25095,-0.0502 -0.5217,0.0703 -0.76778,0 -0.22185,-0.0634 -0.36169,-0.29823 -0.57585,-0.3839 -0.41773,-0.16707 -0.91459,-0.0489 -1.34368,-0.19196 -0.25149,-0.0838 -0.51926,-0.47643 -0.76783,-0.57585 -0.599,-0.2396 -1.30689,-0.37166 -1.91947,-0.57586 -0.28811,-0.096 -0.66424,0.0739 -0.95977,0 -0.95294,-0.23823 -1.91671,-0.57529 -2.87928,-0.76781 -0.50585,-0.10116 -1.03123,-0.0839 -1.53561,-0.19195 -0.77498,-0.16606 -1.55687,-0.51894 -2.30345,-0.7678 -0.12139,-0.0405 -0.29341,0.0905 -0.38391,0 -0.0454,-0.0452 0.0454,-0.14673 0,-0.19196 -0.18306,-0.18308 -0.85493,-0.093 -1.1517,-0.19195 -0.79915,-0.26639 -1.44646,-0.93748 -2.30342,-1.15171 -0.18066,-0.0452 -0.3952,0.0452 -0.57586,0 -4.15632,-1.03908 -8.52639,-0.78812 -12.80675,-0.70171 -1.25695,-0.3428 -2.5536,-0.57605 -3.80046,-0.95011 -0.58966,-0.1769 -1.15127,-0.556 -1.7645,-0.67865 -0.22182,-0.0444 -0.45321,0.0188 -0.67865,0 -0.86825,-0.0724 -1.71471,-0.31117 -2.57888,-0.40719 -0.4047,-0.0449 -0.81579,0.0338 -1.22157,0 -2.72952,-0.22748 1.31751,-0.0513 -1.7645,-0.27146 -0.99385,-0.071 -1.99093,-0.086 -2.98607,-0.13573 -0.81021,-0.0405 -1.63509,0.0673 -2.44315,0 -0.4598,-0.0383 -0.89947,-0.21423 -1.35731,-0.27147 -1.0419,-0.13023 -2.76805,-0.0645 -3.80044,0 -1.08264,0.0677 -2.18599,0.15241 -3.25754,0.27147 -0.87496,0.0972 -1.70021,0.44529 -2.57888,0.54292 -0.87587,0.0973 -1.83526,0 -2.71461,0 -1.20731,0 -2.46536,0.10903 -3.66472,0 -1.44115,-0.13086 -3.16964,-0.31638 -4.61484,-0.13573 -0.1851,0.0232 -0.35782,0.11258 -0.54292,0.13573 -0.66821,0.0835 -1.36775,-0.0835 -2.03596,0 -1.04053,0.13007 -2.08118,0.4273 -3.1218,0.54292 -0.49463,0.055 -0.99682,-0.0382 -1.49303,0 -0.85358,0.0657 -1.72938,0.18651 -2.57888,0.27146 -1.04638,0.10464 -2.09897,0.45948 -3.1218,0.67865 -2.65907,0.5698 1.31442,-0.3883 -1.7645,0.27146 -1.03969,0.2228 -2.15669,0.64716 -3.1218,1.08585 -1.09403,0.49728 -1.94196,1.12133 -3.1218,1.3573 -1.97818,0.39564 -3.84341,0.90466 -5.83642,1.08585 -0.69701,0.0634 -1.34389,0.33799 -2.03595,0.40719 -1.5031,0.15031 -2.99506,0.17191 -4.47911,0.54292 -0.46194,0.11549 -0.91303,0.29612 -1.3573,0.40719 -0.1963,0.0491 -0.34452,0.23176 -0.54293,0.27146 -0.13309,0.0266 -0.28116,-0.0504 -0.40718,0 -0.11882,0.0476 -0.15701,0.21423 -0.27147,0.27147 -0.0809,0.0405 -0.18561,-0.0286 -0.27146,0 -0.14059,0.0468 -0.27254,0.20413 -0.40719,0.27145 -0.14663,0.0733 -0.75439,0.0868 -0.95011,0.13573 -0.38324,0.0958 -0.70261,0.44712 -1.08585,0.54293 -0.61117,0.15279 -1.27763,0.25154 -1.90022,0.40719 -0.59519,0.1488 -1.1702,0.39435 -1.7645,0.54292 -0.22381,0.0559 -0.46264,0.0547 -0.67865,0.13573 -0.15275,0.0573 -0.26129,0.19851 -0.40719,0.27146 -0.25594,0.12797 -0.55845,0.1435 -0.81439,0.27146 -0.30434,0.15217 -0.60566,0.45681 -0.95011,0.54293 -1.21897,0.30474 -2.98884,1.29082 -4.20765,1.90022 -0.11445,0.0572 -0.15006,0.231 -0.27146,0.27146 -0.0858,0.0286 -0.18744,-0.0336 -0.27146,0 -0.4413,0.17653 -0.79578,0.60149 -1.22157,0.81439 -0.7038,0.3519 -1.44196,0.63737 -2.17169,0.95011 -0.79778,0.34191 -1.49496,0.89659 -2.30742,1.22158 -0.7788,0.31152 -1.67834,0.35087 -2.44314,0.67865 -0.14995,0.0643 -0.25446,0.21418 -0.4072,0.27146 -0.81388,0.3052 -1.75948,0.23564 -2.57888,0.54292 -0.52967,0.19863 -1.01752,0.4409 -1.49303,0.67865 -0.0809,0.0405 -0.19053,-0.0405 -0.27146,0 -0.26794,0.13397 -0.48644,0.16215 -0.81439,0.27146 -0.95498,0.31831 0.22395,-0.096 -0.95011,0.40719 -0.86671,0.37146 -1.88838,0.537 -2.71461,0.95012 -0.24689,0.12344 -0.44823,0.40466 -0.67865,0.54292 -0.12268,0.0736 -0.28451,0.0621 -0.40719,0.13573 -0.10974,0.0658 -0.16909,0.19468 -0.27147,0.27146 -0.16186,0.1214 -0.38105,0.15006 -0.54292,0.27146 -0.28503,0.21377 -0.52935,0.46489 -0.81438,0.67866 -0.46854,0.3514 -1.01634,0.59258 -1.49303,0.95011 -0.13573,0.10179 -0.27147,0.33932 -0.4072,0.40719 -0.0809,0.0405 -0.19907,-0.0543 -0.27146,0 -0.1305,0.0979 -0.15611,0.29184 -0.27146,0.40719 -0.51485,0.51485 -0.26242,0.076 -0.81438,0.40719 -0.39423,0.23654 -0.69893,0.69217 -1.08585,0.95011 -0.56565,0.37711 -1.19514,0.79457 -1.76449,1.22158 -0.16187,0.1214 -0.38105,0.15006 -0.54292,0.27146 -0.78544,0.58907 0.4567,-0.084 -0.81439,0.67865 -0.53393,0.32037 -1.30987,0.57824 -1.90023,0.81439 -0.32159,0.12864 -0.28128,0.14555 -0.54291,0.40719 -0.16686,0.0834 -0.37147,0.0622 -0.54293,0.13573 -0.93044,0.39876 -1.71708,1.11169 -2.57887,1.62876 -1.01887,0.61132 -2.03784,1.18905 -2.98608,1.90023 -0.51306,0.3848 -0.98217,0.83843 -1.49303,1.22157 -0.19677,0.14758 -0.48188,0.25962 -0.67865,0.4072 -0.20476,0.15356 -0.35164,0.37288 -0.54293,0.54292 -0.31176,0.27712 -0.6334,0.54292 -0.95011,0.81438 -0.18097,0.13573 -0.37117,0.25998 -0.54292,0.40719 -0.65695,0.5631 -1.23593,1.21092 -1.90023,1.7645 -0.61883,0.51569 -1.33063,0.92343 -1.90022,1.49304 -0.0715,0.0715 -0.0548,0.21076 -0.13574,0.27146 -0.11446,0.0858 -0.28451,0.0621 -0.40719,0.13572 -0.24841,0.14905 -0.4738,0.33808 -0.67865,0.54293 -0.0715,0.0715 -0.0642,0.19993 -0.13573,0.27146 -0.11535,0.11535 -0.29185,0.15611 -0.40719,0.27146 -0.0715,0.0715 -0.075,0.19053 -0.13573,0.27146 -0.26326,0.35101 -0.32249,0.24612 -0.67865,0.54292 -0.29493,0.24577 -0.51946,0.56862 -0.81439,0.81439 -0.20267,0.16889 -0.49211,0.22065 -0.67865,0.40719 -0.032,0.032 0.0202,0.0953 0,0.13573 -0.10394,0.20788 -0.24187,0.10614 -0.40719,0.27146 -0.32966,0.32966 0.0404,0.19931 -0.27146,0.40719 -0.0842,0.0561 -0.21076,0.0548 -0.27146,0.13573 -0.0859,0.11446 -0.0621,0.28451 -0.13574,0.40719 -0.31301,0.5217 -0.97566,0.88026 -1.3573,1.35731 -0.37673,0.47091 -0.70239,1.01371 -1.08584,1.49303 -0.41643,0.52053 -0.97034,0.95129 -1.35731,1.49304 -0.40021,0.5603 -0.66734,1.20649 -1.08584,1.76449 -0.29092,0.38791 -0.64881,0.70922 -0.95012,1.08585 -0.20381,0.25476 -0.33911,0.55962 -0.54291,0.81438 -0.38235,0.47793 -1.05623,0.99123 -1.35731,1.49304 -0.0736,0.12268 -0.0621,0.2845 -0.13573,0.40719 -0.0658,0.10973 -0.19468,0.16908 -0.27146,0.27146 -0.1214,0.16187 -0.12839,0.39985 -0.27147,0.54292 -0.032,0.032 -0.10376,-0.032 -0.13573,0 -0.14307,0.14308 -0.14192,0.38748 -0.27145,0.54292 -0.16385,0.19662 -0.37908,0.34631 -0.54293,0.54293 -0.0648,0.0777 -0.0905,0.18097 -0.13573,0.27145 0,0.0905 0.0543,0.19908 0,0.27147 -0.0979,0.1305 -0.30529,0.14408 -0.40719,0.27146 -0.22787,0.28483 -0.0173,0.82552 -0.54292,0.95011 -0.15996,0.15996 -0.38297,0.24723 -0.54293,0.40719 -0.11534,0.11535 -0.16529,0.28334 -0.27145,0.4072 -0.24985,0.29147 -0.58405,0.50726 -0.81439,0.81438 -0.63052,0.84069 -1.33569,1.64285 -2.03596,2.44315 -0.13413,0.15329 -1.1557,1.13175 -1.22157,1.22157 -0.31202,0.42548 -0.52171,0.9183 -0.81438,1.35731 -0.1607,0.24104 -0.39388,0.43023 -0.54293,0.67865 -0.13664,0.22773 -0.47623,1.32398 -0.54291,1.3573 -0.24616,0.12308 -0.54293,-0.0905 -0.8144,-0.13573 0,0.21439 -0.18638,0.33022 -0.27145,0.54293 -0.23286,0.58214 -0.46284,1.23717 -0.81439,1.76449 -0.15824,0.23735 -0.39493,0.43199 -0.54292,0.67866 -0.12535,0.20892 -0.1363,0.47592 -0.27146,0.67865 -0.15196,0.22793 -0.41829,0.4294 -0.54293,0.67864 -0.053,0.10602 -0.15286,0.56006 -0.27145,0.67866 -0.0715,0.0715 -0.21076,0.0548 -0.27146,0.13572 -0.0859,0.11446 -0.0621,0.28451 -0.13574,0.4072 -0.0658,0.10974 -0.19152,0.17154 -0.27146,0.27146 -0.82375,1.0297 0.19493,-0.18913 -0.40718,0.81438 -0.13845,0.23074 -0.38988,0.44909 -0.54293,0.67865 -0.28468,0.42704 -0.42351,0.93208 -0.67866,1.35732 -0.11208,0.1868 -0.43082,0.49182 -0.54292,0.67865 -0.25381,0.42303 -0.3832,0.96336 -0.67864,1.3573 -0.0768,0.10237 -0.20563,0.16173 -0.27147,0.27146 -0.14722,0.24537 -0.16518,0.5487 -0.27146,0.81438 -0.25279,0.63199 -0.64835,1.23609 -0.81438,1.90023 -0.022,0.0878 0.0286,0.18562 0,0.27146 -0.18021,0.54064 -0.53925,1.07113 -0.67866,1.62876 -0.0974,0.38942 -0.10588,0.83525 -0.27145,1.22158 -0.0643,0.14994 -0.19852,0.26128 -0.27147,0.40719 -0.49173,0.98348 0.0713,-0.046 -0.13573,0.67865 -0.0453,0.15876 -0.3276,1.14506 -0.40718,1.35731 -0.24826,0.66198 -0.62311,1.23073 -0.81439,1.90022 -0.0634,0.22183 -0.0798,0.45485 -0.13573,0.67865 -0.0944,0.37778 -0.34316,0.70162 -0.40719,1.08586 -0.0223,0.13388 0.0429,0.27843 0,0.40718 -0.096,0.28793 -0.30063,0.53021 -0.4072,0.81439 -0.0317,0.0847 0.0286,0.18562 0,0.27145 -0.064,0.19197 -0.21587,0.34837 -0.27146,0.54293 -0.0373,0.1305 0.0266,0.2741 0,0.4072 -0.0478,0.2389 -0.31862,0.40249 -0.27145,0.67864 -0.0223,0.13389 0.0266,0.2741 0,0.40719 -0.0928,0.4638 -0.44837,0.8845 -0.54293,1.35732 -0.0355,0.17744 0.0439,0.36735 0,0.54291 -0.22058,0.88232 -0.35991,1.79958 -0.54293,2.71462 -0.0522,0.26102 0.0522,0.55335 0,0.81438 -0.0397,0.1984 -0.22239,0.34662 -0.27145,0.54291 -0.0439,0.17557 0.0439,0.36735 0,0.54292 -0.15059,0.60237 -0.2919,1.31449 -0.54293,1.90024 -0.32394,0.75589 -0.69109,1.53038 -0.95011,2.30741 -0.0729,0.21887 -0.0628,0.4598 -0.13573,0.67865 -0.064,0.19195 -0.21822,0.34772 -0.27145,0.54293 -0.22995,0.84312 -0.26273,1.73826 -0.54293,2.57888 -0.24173,0.7252 -0.56959,1.54397 -0.67865,2.30742 -0.0698,0.48871 -0.0545,1.00551 -0.13573,1.49303 -0.0686,0.41172 -0.20285,0.80985 -0.27146,1.22157 -0.0446,0.26778 0.0532,0.54819 0,0.81438 -0.0199,0.0992 -0.11587,0.17227 -0.13573,0.27147 -0.0532,0.26619 0.0446,0.54661 0,0.81439 -0.19296,1.15775 -0.13574,-0.46812 -0.13574,0.9501 -0.0405,0.28327 -0.22439,0.53214 -0.27145,0.81439 -0.0509,0.30526 0.0607,0.64646 0,0.95011 -0.3014,1.50696 -0.41526,3.00337 0,4.47911 0.0597,0.64796 -0.084,1.32033 -0.019,1.97051 0.0483,0.48309 0.1321,0.96084 0.19194,1.43964 0.0472,0.37737 -0.0538,0.77532 0,1.15171 0.0143,0.10015 0.0793,0.18814 0.096,0.28793 0.0593,0.35544 0,0.79421 0,1.15171 0,0.88608 0.0881,1.8066 0,2.68732 -0.0162,0.16232 -0.0797,0.31756 -0.096,0.47988 -0.0318,0.31833 0.0319,0.64143 0,0.95976 -0.0392,0.39153 -0.11613,0.77262 -0.19194,1.15171 -0.15808,0.79035 0.0851,2.02782 0,2.87928 -0.15875,1.58738 -0.096,3.19905 -0.096,4.7988 0,0.33688 -0.0276,0.42462 0.096,0.67183 0.13156,0.26313 -0.0592,0.75961 0,1.05574 0.014,0.0701 0.0819,0.1218 0.096,0.19195 0.0376,0.18822 -0.0315,0.38652 0,0.57586 0.0167,0.0998 0.0793,0.18813 0.096,0.28792 0.0459,0.27551 -0.0676,0.59357 0,0.86379 0.11801,0.47201 0.2173,0.85842 0.096,1.34366 z"
       id="path15860" /><path
       style="fill:none;fill-opacity:1;stroke:#ff6361;stroke-width:6.49146;stroke-linecap:round;stroke-linejoin:round;stroke-dasharray:none;stroke-opacity:1"
       d="m 1078.6214,538.93117 c -0.091,0.72389 -0.181,1.44779 -0.2715,2.17169 0,0.45244 0.053,0.90797 0,1.35731 -0.038,0.32712 -0.2213,0.62457 -0.2714,0.95011 -0.1639,1.06501 0,2.19194 -0.1358,3.25753 -0.018,0.14197 -0.1199,0.26499 -0.1357,0.40719 -0.104,0.93583 -0.019,1.91729 -0.1357,2.85034 -0.023,0.18511 -0.1152,0.35752 -0.1358,0.54293 -0.079,0.71441 0.06,1.45528 0,2.17167 -0.049,0.59304 -0.1976,1.17402 -0.2714,1.76451 -0.073,0.58535 -0.053,1.18052 -0.1357,1.7645 -0.042,0.29626 -0.2292,0.65384 -0.2715,0.9501 -0.044,0.31038 0.044,0.63974 0,0.95012 -0.02,0.14164 -0.1122,0.26607 -0.1357,0.4072 -0.081,0.48589 -0.2012,1.0008 -0.2715,1.49303 -0.047,0.32759 -0.014,0.77969 -0.1358,1.08584 -0.061,0.15146 -0.2266,0.25034 -0.2714,0.40718 -0.05,0.17402 0.04,0.36627 0,0.54293 -0.1048,0.47169 -0.4096,0.89071 -0.5429,1.35731 -0.4613,1.61464 0.077,-0.3276 -0.1357,0.95011 -0.08,0.47858 -0.2673,1.02641 -0.4072,1.49304 -0.1453,0.48423 -0.3977,1.00879 -0.543,1.49303 -0.1326,0.44194 -0.1713,0.90691 -0.2714,1.3573 -0.081,0.3642 -0.1405,0.73652 -0.2715,1.08585 -0.071,0.18945 -0.2159,0.34838 -0.2714,0.54292 -0.037,0.13051 0.022,0.27331 0,0.4072 -0.1249,0.74924 -0.6867,1.4056 -0.8144,2.17169 -0.097,0.58314 -0.1805,1.19784 -0.4072,1.76449 -0.4728,1.18195 -1.0188,2.42347 -1.3573,3.66471 -0.1026,0.37603 -0.1414,1.10276 -0.2715,1.49304 -0.064,0.19196 -0.2004,0.35347 -0.2714,0.54293 -0.3704,0.98754 -0.524,2.10541 -0.8144,3.1218 -0.186,0.65098 -0.2676,1.41637 -0.5429,2.03595 -0.3345,0.75247 -0.7181,1.35946 -0.9502,2.17169 -0.2803,0.98126 -0.594,1.90081 -0.95,2.85035 -0.066,0.17466 -0.045,0.37985 -0.1358,0.54291 -0.1407,0.25325 -0.4134,0.41954 -0.5429,0.67866 -0.061,0.1214 0.037,0.27668 0,0.40719 -0.1816,0.63559 -0.6559,1.31167 -0.9501,1.90023 -0.4557,0.91122 -1.1738,1.66895 -1.6288,2.57887 -0.4145,0.82894 -0.9046,1.70765 -1.4931,2.44315 -0.1607,0.5877 -0.7455,0.79616 -1.0858,1.22158 -0.2038,0.25477 -0.3391,0.55962 -0.5429,0.81438 -0.3651,0.4563 -0.2865,0.15072 -0.8144,0.67866 -0.4312,0.43123 -0.6981,1.0277 -1.0858,1.49304 -0.4873,0.58469 -0.9799,1.2 -1.4931,1.76449 -0.6685,0.73538 -1.389,1.41701 -2.0359,2.17169 -0.4828,0.56328 -0.8594,1.21121 -1.3573,1.76449 l -3.2255,4.71716 c -0.4427,0.59645 -3.1857,4.2361 -5.4213,6.83616 -0.8374,0.97385 -6.5367,6.60159 -7.5051,7.44895 -2.3104,2.02157 1.3607,-1.2581 -1.2216,0.67866 -0.181,0.13573 -0.2391,0.39159 -0.4072,0.54292 -1.5674,1.41064 -0.3435,0.0862 -1.6288,1.08585 -0.202,0.15712 -0.343,0.38304 -0.5429,0.54292 -0.4313,0.345 -0.9214,0.61105 -1.3573,0.95011 -0.6861,0.53357 -1.3761,1.06316 -2.036,1.62877 -0.1943,0.16656 -0.3409,0.38579 -0.5429,0.54291 -0.3863,0.30046 -0.8352,0.51394 -1.2215,0.81439 -0.4301,0.33448 -0.7683,0.78364 -1.2216,1.08584 -1.6859,1.1239 0.2564,-0.58819 -1.2216,0.67865 -0.2915,0.24985 -0.502,0.59125 -0.8144,0.81439 -0.1646,0.11761 -0.3783,0.15385 -0.5429,0.27146 -0.1562,0.11157 -0.2597,0.28431 -0.4072,0.40719 -0.3738,0.31152 -0.8478,0.50287 -1.2216,0.81438 -0.3699,0.30825 -0.7101,0.64956 -1.0859,0.95012 -0.4532,0.36258 -1.0178,0.49763 -1.4929,0.81438 -0.4534,0.3022 -0.7596,0.7971 -1.2216,1.08585 -0.1582,0.0989 -0.3698,0.0665 -0.543,0.13573 -0.1182,0.0473 -1.7971,1.56551 -2.0359,1.76449 -0.2506,0.20886 -0.5596,0.33911 -0.8144,0.54292 -0.1999,0.15988 -0.33,0.40096 -0.5429,0.54292 -0.9102,0.60681 -0.1967,-0.11175 -1.0859,0.67866 -0.2391,0.21254 -0.4378,0.46798 -0.6786,0.67865 -0.7146,0.62525 -1.6203,0.9459 -2.4432,1.3573 -0.4077,0.20389 -0.7096,0.59939 -1.0858,0.81439 -0.2116,0.12088 -0.472,0.14233 -0.6787,0.27146 -0.1627,0.10174 -0.2444,0.30545 -0.4071,0.40719 -0.2066,0.12913 -0.4525,0.18097 -0.6787,0.27146 -0.1358,0.13573 -0.251,0.29563 -0.4072,0.40719 -0.3358,0.23987 -0.8668,0.36557 -1.2216,0.54293 -0.4657,0.23286 -0.9043,0.55556 -1.3573,0.81438 -0.6416,0.36667 -1.4142,0.57706 -2.0359,0.95011 -0.1098,0.0658 -0.1617,0.20562 -0.2715,0.27146 -0.5419,0.32512 -1.1964,0.53034 -1.7645,0.81438 -0.5526,0.2763 -1.0625,0.69846 -1.6287,0.95012 -0.1705,0.0758 -0.366,0.0767 -0.54295,0.13573 -0.32062,0.10686 -0.86115,0.47083 -1.22159,0.54292 -0.13312,0.0266 -0.2741,-0.0266 -0.40723,0 -0.3494,0.0699 -0.73315,0.30644 -1.0858,0.40719 -0.47512,0.13574 -0.88701,0.19308 -1.35731,0.27147 -0.5098,0.085 -1.00694,0.39708 -1.49304,0.54292 -1.06092,0.31827 -2.18254,0.54562 -3.25753,0.81438 -0.9795,0.24487 -1.9034,0.63447 -2.85034,0.95011 -0.50185,0.16728 -0.89512,0.66033 -1.35731,0.81439 -0.48162,0.16056 -0.0687,-0.21996 -0.54291,0.13573 -0.1024,0.0768 -0.15265,0.22391 -0.2715,0.27146 -0.12599,0.0504 -0.27838,-0.0429 -0.40718,0 -0.67863,0.22622 -0.75404,0.45243 -1.35731,0.67865 -0.17467,0.0655 -0.37142,0.0623 -0.5429,0.13573 -0.68707,0.29445 -1.31474,0.7097 -2.03594,0.95011 -1.06552,0.35517 -2.17243,0.64007 -3.25753,0.95011 -1.40475,0.40136 0.67273,-0.18766 -0.81441,0.4072 -0.084,0.0336 -0.18273,-0.0177 -0.27145,0 -0.47874,0.0957 -1.02971,0.25275 -1.49303,0.40719 -0.21136,0.0704 -0.79997,0.34365 -1.08586,0.40719 -0.70849,0.15745 -1.47184,0.21633 -2.17167,0.40719 -0.63454,0.17306 -1.23408,0.45965 -1.90027,0.54292 -0.94451,0.11807 -1.90113,0.18518 -2.85029,0.27146 -0.63503,0.0577 -1.2791,0.26916 -1.90025,0.4072 -1.13248,0.25166 -2.2655,0.40195 -3.39326,0.54292 -0.6118,0.0765 -1.45361,0.23249 -2.03596,0.40719 -0.94823,0.28447 -0.12678,0.28731 -1.08584,0.40719 -2.01103,0.25138 -3.96059,0.81926 -5.97214,1.22158 -0.32299,0.0646 -0.62522,0.21731 -0.95012,0.27145 -0.94803,0.15801 -1.90491,0.21811 -2.85034,0.4072 -0.59765,0.11953 -1.16848,0.33269 -1.76449,0.40719 -0.44895,0.0561 -0.90837,-0.0561 -1.35731,0 -0.14197,0.0177 -0.26606,0.1122 -0.40719,0.13573 -0.96227,0.16038 -2.01622,-0.0882 -2.98607,0 -1.67755,0.1525 -3.46371,0.2769 -5.15776,0.13573 -1.21502,-0.10125 -2.44116,-0.27146 -3.66472,-0.27146 -0.45048,0 -0.65248,0.0491 -1.08585,0.13573 -0.37703,0.0754 -0.22621,-0.11311 -0.67865,0 -0.0621,0.0155 -0.0736,0.12021 -0.13573,0.13573 -0.26336,0.0658 -0.54661,-0.0446 -0.81438,0 -1.07194,0.17866 -2.15427,0.21454 -3.25754,0 -0.19485,0 -0.51738,-0.0403 -0.67865,0 -0.0621,0.0155 -0.073,0.12318 -0.13573,0.13573 -0.17746,0.0355 -0.36269,-0.0164 -0.54292,0 -0.82863,0.0753 -1.60455,0.20024 -2.44315,0.13573 -1.05601,-0.0812 -2.07976,-0.41266 -3.1218,-0.54292 -0.35915,-0.0449 -0.72611,0.04 -1.08584,0 -0.22929,-0.0255 -0.4489,-0.11485 -0.67865,-0.13573 -1.12111,-0.10192 -2.27045,0.0802 -3.39327,0 -0.23011,-0.0164 -0.4489,-0.11485 -0.67865,-0.13573 -0.8091,-0.0736 -1.63498,-0.0549 -2.44315,-0.13573 -0.4591,-0.0459 -0.87646,-0.33604 -1.35731,-0.27146 -0.72225,-0.0556 -1.45532,-0.0334 -2.17168,-0.13574 -0.14164,-0.0202 -0.26556,-0.11549 -0.4072,-0.13572 -0.31352,-0.0448 -0.63659,0.0448 -0.95011,0 -0.45906,-0.0656 -0.90578,-0.20696 -1.3573,-0.27146 -0.35831,-0.0512 -0.72753,0.0512 -1.08585,0 -0.28326,-0.0405 -0.53213,-0.2244 -0.81438,-0.27147 -0.13388,-0.0223 -0.27331,0.0223 -0.40719,0 -0.59673,-0.0995 -1.16722,-0.41019 -1.7645,-0.54292 -1.29956,-0.28879 -2.65441,-0.45834 -3.93618,-0.81438 -0.77247,-0.21458 -1.5119,-0.57921 -2.30742,-0.67865 -2.77175,-0.34647 -5.50703,-1.06649 -8.27956,-1.49304 -0.17887,-0.0275 -0.36376,0.0256 -0.54292,0 -0.32607,-0.0466 -0.62713,-0.20686 -0.95012,-0.27146 -0.7253,-0.14506 -1.47068,-0.23194 -2.17168,-0.40719 -0.66313,-0.16578 -1.38021,-0.20227 -2.03596,-0.40719 -0.50546,-0.15796 -0.99065,-0.37546 -1.49303,-0.54293 -0.35395,-0.11797 -0.73652,-0.14046 -1.08585,-0.27145 -0.63848,-0.23944 -1.23516,-0.63301 -1.90022,-0.81439 -0.26551,-0.0724 -0.55575,-0.0417 -0.81439,-0.13573 -0.24793,-0.0902 -0.43072,-0.31703 -0.67865,-0.40719 -0.25864,-0.0941 -0.5533,-0.0487 -0.81438,-0.13573 -0.28793,-0.096 -0.53423,-0.29046 -0.81439,-0.40719 -0.74824,-0.31177 -1.55031,-0.42629 -2.30742,-0.67865 -0.19195,-0.064 -0.35347,-0.20042 -0.54291,-0.27147 -0.56519,-0.21194 -1.1679,-0.3154 -1.7645,-0.40719 -0.17887,-0.0275 -0.36891,0.0497 -0.54292,0 -0.94305,-0.26944 0.11313,-0.29125 -0.81439,-0.40719 -0.22447,-0.0281 -0.45782,0.0491 -0.67865,0 -0.19752,-0.0439 -0.34912,-0.21332 -0.54292,-0.27146 -0.67123,-0.20136 -1.37686,-0.29576 -2.03596,-0.54292 -0.15274,-0.0573 -0.25725,-0.20721 -0.40719,-0.27146 -0.55438,-0.23759 -1.19075,-0.35168 -1.7645,-0.54292 -0.67167,-0.2239 -1.37898,-0.41587 -2.03595,-0.67865 -0.67866,-0.27147 0.27145,0 -0.81439,-0.4072 -0.17466,-0.0655 -0.37146,-0.0623 -0.54292,-0.13573 -0.33527,-0.14369 -0.61678,-0.39478 -0.95012,-0.54292 -1.12768,-0.50119 -2.2547,-1.01864 -3.39326,-1.49303 -0.61408,-0.25588 -1.4955,-0.64534 -2.17168,-0.81439 -0.82858,-0.20714 0.46904,0.35614 -0.67865,-0.13573 -0.18598,-0.0797 -0.34913,-0.21332 -0.54293,-0.27146 -0.2636,-0.0791 -0.55574,-0.0417 -0.81438,-0.13573 -0.24793,-0.0902 -0.44269,-0.28921 -0.67866,-0.40719 -0.65637,-0.32819 -1.37055,-0.51865 -2.03595,-0.81438 -0.14907,-0.0663 -0.25812,-0.20521 -0.40719,-0.27147 -0.9229,-0.41017 -1.92271,-0.67356 -2.85034,-1.08584 -0.60073,-0.26699 -1.07902,-0.60652 -1.62877,-0.95011 -0.59693,-0.37308 -1.27993,-0.63997 -1.90022,-0.95012 -0.19847,-0.0992 -0.82716,-0.58643 -0.95012,-0.67865 -0.16685,-0.0834 -0.37985,-0.0451 -0.54292,-0.13573 -0.55116,-0.3062 -0.76583,-0.70605 -1.22158,-1.08585 -0.31874,-0.26562 -0.74086,-0.44866 -1.08584,-0.67865 -0.48727,-0.32484 -0.90307,-0.72246 -1.3573,-1.08584 -0.52965,-0.42372 -1.10075,-0.79915 -1.62877,-1.22157 -0.079,-0.0632 -0.19992,-0.0642 -0.27146,-0.13573 -0.11535,-0.11535 -0.15611,-0.29185 -0.27146,-0.4072 -0.1024,-0.1024 -0.67715,-0.56887 -0.81438,-0.67865 -0.237,-0.1896 -0.57739,-0.21759 -0.81439,-0.40719 -0.27593,-0.22074 -0.27614,-0.69917 -0.67865,-0.81438 -0.34519,-0.25105 -0.74065,-0.42761 -1.08584,-0.67866 -0.77699,-0.56507 -1.56248,-1.29073 -2.30742,-1.90022 -0.99519,-0.81424 -0.0809,-0.0505 -1.08584,-0.67865 -0.87147,-0.54467 -1.59829,-1.33699 -2.44315,-1.90023 -0.16836,-0.11224 -0.37828,-0.15386 -0.54293,-0.27147 -0.15619,-0.11156 -0.25099,-0.29562 -0.40719,-0.40718 -0.49732,-0.35524 -1.12011,-0.5092 -1.62876,-0.81439 -0.24842,-0.14904 -0.43299,-0.38938 -0.67865,-0.54292 -0.52289,-0.3268 -1.11875,-0.61009 -1.62877,-0.95011 -0.24105,-0.1607 -0.43761,-0.38223 -0.67866,-0.54293 -0.77999,-0.51999 -1.68033,-0.94817 -2.44314,-1.49303 -0.1562,-0.11157 -0.24054,-0.31196 -0.40719,-0.40719 -0.16197,-0.0926 -0.38096,-0.0432 -0.54293,-0.13573 -0.36731,-0.2099 -0.60897,-0.69426 -0.95011,-0.95011 -0.65841,-0.49381 -1.30137,-1.20554 -1.76449,-1.90023 -0.42728,-0.64092 -1.13045,-1.16652 -1.62877,-1.7645 -0.3046,-0.36552 -0.47847,-0.88566 -0.81438,-1.22157 -0.11536,-0.11535 -0.29185,-0.15612 -0.4072,-0.27146 -0.11534,-0.11535 -0.16703,-0.28188 -0.27146,-0.4072 -0.36714,-0.44056 -0.85443,-0.781 -1.22157,-1.22157 -0.10443,-0.12532 -0.15611,-0.29184 -0.27147,-0.40719 -0.0715,-0.0715 -0.19052,-0.075 -0.27145,-0.13573 -0.32773,-0.24579 -0.2758,-0.34475 -0.54293,-0.67866 -0.27356,-0.34195 -0.6532,-0.51747 -0.95011,-0.81438 -0.0715,-0.0715 -0.0642,-0.19992 -0.13573,-0.27146 -0.10756,-0.10756 -1.33123,-1.0077 -1.35731,-1.08584 -0.0286,-0.0859 0.0502,-0.19618 0,-0.27147 -0.0561,-0.0842 -0.18097,-0.0905 -0.27146,-0.13572 l -0.27145,-0.40719 c -1.0155,-1.77712 -2.5572,-3.12211 -3.80047,-4.75058 -0.22621,-0.45243 -0.4184,-0.92355 -0.67865,-1.3573 -0.38855,-0.6476 -1.21955,-1.62675 -1.76449,-2.17169 -0.15996,-0.15996 -0.38297,-0.24723 -0.54293,-0.40718 -0.43033,-0.43035 -0.82927,-1.02228 -1.22157,-1.49304 -0.59673,-0.71607 -1.0342,-1.64018 -1.49303,-2.44315 -0.53146,-0.93005 -0.008,0.0348 -0.54293,-0.67865 -0.61236,-0.81648 -1.3821,-2.07937 -1.90022,-2.98608 -0.41404,-0.72457 -0.60474,-1.63387 -1.08585,-2.30742 -0.11157,-0.1562 -0.29562,-0.25099 -0.40719,-0.40718 -0.46648,-0.65308 -0.82097,-1.47061 -1.22158,-2.1717 -0.25394,-0.44441 -0.32032,-0.91211 -0.54291,-1.35731 -0.38726,-0.7745 -0.86,-1.51192 -1.22158,-2.30741 -0.49456,-1.08806 -0.0572,-0.2787 -0.54292,-1.49302 -0.18787,-0.46967 -0.48606,-0.88957 -0.67865,-1.35732 -0.41738,-1.01361 -0.6546,-2.11555 -1.08585,-3.1218 -0.0797,-0.18598 -0.18097,-0.36194 -0.27146,-0.54293 -0.0905,-0.13573 -0.20721,-0.25724 -0.27146,-0.40718 -0.14697,-0.34292 -0.14046,-0.73652 -0.27147,-1.08585 -0.23488,-0.62639 -0.65398,-1.17224 -0.95011,-1.7645 -0.21792,-0.43584 -0.34127,-0.91368 -0.54293,-1.35729 -0.4258,-0.9368 -0.82626,-1.96529 -1.35729,-2.85035 -0.26253,-0.43754 -0.3488,-0.43244 -0.54292,-0.95011 -0.23133,-0.61685 -0.35468,-1.27272 -0.54293,-1.90024 -0.75507,-2.51688 0.27145,1.25548 -0.67864,-1.35729 -0.094,-0.25865 -0.0727,-0.54649 -0.13575,-0.81438 -0.11815,-0.50215 -0.26912,-0.996 -0.40718,-1.49304 -0.24214,-0.87172 -0.55605,-1.71775 -0.81438,-2.57887 -0.39197,-1.30658 -0.5178,-2.73725 -0.81439,-4.07192 -0.16176,-0.7279 -0.37527,-1.44524 -0.54292,-2.17169 -0.1523,-0.66001 -0.19316,-1.39391 -0.40718,-2.03596 -0.064,-0.19195 -0.22241,-0.34663 -0.27148,-0.54292 -0.0439,-0.17557 0.0225,-0.36334 0,-0.54292 -0.0517,-0.41391 -0.27308,-0.79635 -0.27145,-1.22159 -0.02,-0.17987 0.0439,-0.36735 0,-0.54291 -0.0491,-0.1963 -0.21588,-0.34837 -0.27146,-0.54293 -0.0373,-0.1305 0.0223,-0.2733 0,-0.40718 -0.0686,-0.41174 -0.20284,-0.80986 -0.27147,-1.22158 -0.0805,-0.48307 0.0541,-1.00602 0,-1.49303 -0.16112,-1.45009 -0.27471,-2.88615 -0.40718,-4.34338 -0.0855,-0.94079 0.1043,-1.91168 0,-2.85034 -0.0206,-0.1854 -0.11258,-0.35782 -0.13573,-0.54293 -0.0945,-0.75603 0.10772,-1.55338 0,-2.3074 -0.13989,-0.97927 -0.31643,-1.98766 -0.4072,-2.98608 -0.11905,-1.30955 0.0432,-2.64044 0.13573,-3.93619 0.0609,-0.85324 -0.0774,-1.72689 0,-2.57887 0.0249,-0.27408 0.1129,-0.54014 0.13573,-0.81438 0.0526,-0.63123 -0.0421,-1.26823 0,-1.90024 0.0579,-0.86876 0.3351,-1.7137 0.4072,-2.57887 0.0674,-0.80876 -0.0674,-1.63438 0,-2.44315 0.0229,-0.27425 0.11289,-0.54012 0.13572,-0.81438 0.1426,-1.71059 -0.21194,-3.46771 0.13573,-5.15776"
       id="path15866"
       sodipodi:nodetypes="cccsccsscssscscsscssssssscssssssssscscsscssssssccsscsssssssssssssssssssssssssscssssssssssssssssssssssscssssssssssssssssssssssscsssssssssscsssssssssscsssssssssssssssssssssssssssssssssssscssssssssscssssssssssssssssssssssssssscccssssssssssssssscssssssscsssssssscsssssssssssssssssc" /></g></svg>
