<?xml version="1.0" encoding="UTF-8" standalone="no"?>
<!-- Created with Inkscape (http://www.inkscape.org/) -->

<svg
   width="78.444572mm"
   height="87.16758mm"
   viewBox="0 0 78.444573 87.16758"
   version="1.1"
   id="svg5"
   inkscape:version="1.2.2 (732a01da63, 2022-12-09)"
   sodipodi:docname="heart.svg"
   xmlns:inkscape="http://www.inkscape.org/namespaces/inkscape"
   xmlns:sodipodi="http://sodipodi.sourceforge.net/DTD/sodipodi-0.dtd"
   xmlns="http://www.w3.org/2000/svg"
   xmlns:svg="http://www.w3.org/2000/svg">
  <sodipodi:namedview
     id="namedview7"
     pagecolor="#7c7c7c"
     bordercolor="#000000"
     borderopacity="0.25"
     inkscape:showpageshadow="2"
     inkscape:pageopacity="0"
     inkscape:pagecheckerboard="true"
     inkscape:deskcolor="#2c2c2c"
     inkscape:document-units="mm"
     showgrid="false"
     inkscape:lockguides="false"
     inkscape:zoom="1.4912879"
     inkscape:cx="164.95809"
     inkscape:cy="120.03048"
     inkscape:window-width="1920"
     inkscape:window-height="1017"
     inkscape:window-x="1272"
     inkscape:window-y="-8"
     inkscape:window-maximized="1"
     inkscape:current-layer="layer1" />
  <defs
     id="defs2" />
  <g
     inkscape:label="Layer 1"
     inkscape:groupmode="layer"
     id="layer1"
     transform="translate(-26.280231,-49.698519)">
    <path
       style="fill:#ffffff;fill-opacity:1;stroke:#000000;stroke-width:4.47578;stroke-linecap:round;stroke-linejoin:round;stroke-dasharray:none;stroke-opacity:1"
       d="m 54.319209,118.60432 c 3.666315,4.6045 7.494783,8.36695 11.256017,13.60483 6.669782,-5.22618 12.19042,-11.81966 17.131866,-18.66958 2.286197,-3.16916 3.731684,-6.86824 5.696353,-10.24617 C 91.662238,97.690436 97.171746,93.020643 98.504003,86.677305 99.892065,80.068257 100.27062,71.685908 95.834252,66.594264 90.967991,61.009237 81.530109,58.621855 74.41345,60.677629 69.311481,62.151425 64.608816,66.911023 63.684068,72.454725 63.109745,66.758782 57.526445,63.036018 52.578423,61.268117 47.808609,59.563889 41.455344,59.708822 37.463124,62.826145 c -5.129886,4.005666 -6.66256,11.849308 -6.651284,18.357838 0.0092,5.297488 2.839682,10.322172 5.465418,14.923153 3.269244,5.728574 8.440589,10.139444 12.535993,15.309754 1.873909,2.36575 3.62604,4.82645 5.505958,7.18743 z"
       id="path14214"
       sodipodi:nodetypes="asaaaaasaaaaaa" />
  </g>
</svg>
