<?xml version="1.0" encoding="UTF-8" standalone="no"?>
<!-- Created with Inkscape (http://www.inkscape.org/) -->

<svg
   width="200mm"
   height="200mm"
   viewBox="0 0 199.99998 200"
   version="1.1"
   id="svg5"
   inkscape:version="1.2.2 (732a01da63, 2022-12-09)"
   xml:space="preserve"
   sodipodi:docname="info.svg"
   xmlns:inkscape="http://www.inkscape.org/namespaces/inkscape"
   xmlns:sodipodi="http://sodipodi.sourceforge.net/DTD/sodipodi-0.dtd"
   xmlns="http://www.w3.org/2000/svg"
   xmlns:svg="http://www.w3.org/2000/svg"><sodipodi:namedview
     id="namedview7"
     pagecolor="#7c7c7c"
     bordercolor="#000000"
     borderopacity="0.25"
     inkscape:showpageshadow="2"
     inkscape:pageopacity="0"
     inkscape:pagecheckerboard="true"
     inkscape:deskcolor="#2c2c2c"
     inkscape:document-units="mm"
     showgrid="false"
     inkscape:lockguides="false"
     inkscape:zoom="0.5272499"
     inkscape:cx="83.451889"
     inkscape:cy="405.87964"
     inkscape:window-width="1920"
     inkscape:window-height="1017"
     inkscape:window-x="1272"
     inkscape:window-y="-8"
     inkscape:window-maximized="1"
     inkscape:current-layer="layer1" /><defs
     id="defs2" /><g
     inkscape:label="Layer 1"
     inkscape:groupmode="layer"
     id="layer1"
     transform="translate(-19.882122,-21.933975)"><path
       id="path2468"
       style="fill:none;fill-opacity:1;stroke:#000000;stroke-width:15.9339;stroke-linecap:round;stroke-linejoin:round;stroke-dasharray:none;stroke-opacity:1"
       d="m 120.61293,46.191276 c -12.64141,0.426657 -25.187014,3.209228 -36.885486,7.999102 -10.437896,4.521599 -19.189242,12.30926 -26.066639,21.268601 -6.499022,8.559574 -10.200392,18.826654 -13.109132,29.068141 -1.040288,3.53782 -1.954845,7.13111 -2.237485,10.82005 -0.35676,3.44652 -0.334455,6.91971 -0.754148,10.35966 -0.737846,9.81649 1.97281,19.59427 6.265515,28.35241 3.401391,7.03892 7.806042,13.53271 12.438595,19.80812 5.199012,8.21566 13.16526,14.26749 21.655072,18.78029 3.252404,1.77151 6.657985,3.23979 10.03428,4.74783 6.798274,3.88687 14.858098,4.85581 22.564208,4.31999 4.64274,-0.28402 9.2271,-1.14221 13.78468,-2.01219 16.52119,-0.79693 32.77041,-7.58936 44.6698,-19.13052 8.58738,-8.2866 15.26707,-18.49637 19.70391,-29.55855 4.27718,-10.85915 6.18321,-22.74218 4.80429,-34.37066 -1.52461,-14.35157 -6.23218,-28.558074 -14.71889,-40.323432 -7.55403,-10.312814 -17.5368,-19.003036 -29.21396,-24.320169 -8.72046,-3.934079 -18.32834,-5.559702 -27.84406,-5.825106 -1.69687,-0.04799 -3.39379,-0.0208 -5.09055,0.01643 z" /><path
       style="fill:none;fill-opacity:1;stroke:#000000;stroke-width:18.3444;stroke-linecap:round;stroke-linejoin:round;stroke-dasharray:none;stroke-opacity:1"
       d="m 106.61333,105.5345 c 4.18091,1.73032 15.43483,-2.83573 15.75392,1.1492 0.2039,2.54633 -1.71137,12.41615 -1.90847,13.92387 -1.76163,13.47593 -2.35339,27.31416 -2.63511,40.87821 -0.0296,1.42452 -0.58744,21.66112 -0.22331,13.30448"
       id="path27756"
       sodipodi:nodetypes="csssc" /><path
       style="fill:#000000;fill-opacity:1;stroke:none;stroke-width:24.4414;stroke-linecap:round;stroke-linejoin:round;stroke-dasharray:none;stroke-opacity:1"
       d="m 118.57207,64.89457 c -5.61147,0.853602 -8.96522,3.988576 -12.00607,8.574311 -1.70295,2.56816 -1.66686,5.65107 -0.9295,8.504599 3.16544,12.249713 16.66381,11.080331 25.01907,4.531136 8.33056,-6.529817 4.80724,-23.073952 -6.89379,-23.073952 -1.65289,0 -4.44969,1.230224 -5.18971,1.463906 z"
       id="path27758" /></g></svg>
