<?xml version="1.0" encoding="UTF-8" standalone="no"?>
<!-- Created with Inkscape (http://www.inkscape.org/) -->

<svg
   width="164.30127mm"
   height="168.7086mm"
   viewBox="0 0 164.30127 168.7086"
   version="1.1"
   id="svg5"
   inkscape:version="1.2.2 (732a01da63, 2022-12-09)"
   xml:space="preserve"
   sodipodi:docname="lock.svg"
   xmlns:inkscape="http://www.inkscape.org/namespaces/inkscape"
   xmlns:sodipodi="http://sodipodi.sourceforge.net/DTD/sodipodi-0.dtd"
   xmlns="http://www.w3.org/2000/svg"
   xmlns:svg="http://www.w3.org/2000/svg"><sodipodi:namedview
     id="namedview7"
     pagecolor="#7c7c7c"
     bordercolor="#000000"
     borderopacity="0.25"
     inkscape:showpageshadow="2"
     inkscape:pageopacity="0"
     inkscape:pagecheckerboard="true"
     inkscape:deskcolor="#2c2c2c"
     inkscape:document-units="mm"
     showgrid="false"
     inkscape:lockguides="false"
     inkscape:zoom="0.37282197"
     inkscape:cx="-299.07036"
     inkscape:cy="826.13157"
     inkscape:window-width="1920"
     inkscape:window-height="1017"
     inkscape:window-x="1272"
     inkscape:window-y="-8"
     inkscape:window-maximized="1"
     inkscape:current-layer="layer1" /><defs
     id="defs2" /><g
     inkscape:label="Layer 1"
     inkscape:groupmode="layer"
     id="layer1"
     transform="translate(-29.819707,-31.071097)"><path
       style="display:none;fill:#ffffff;stroke:#000000;stroke-width:8;stroke-linecap:round;stroke-linejoin:round;stroke-dasharray:none;stroke-opacity:1"
       d="m 110.31006,33.571594 c -8.42707,0.03159 -16.938187,1.571088 -24.807785,4.188892 -10.12025,3.366476 -19.17757,10.027462 -26.784412,17.503324 -9.318131,9.157677 -17.240477,20.268497 -22.007442,32.432646 -3.547017,9.051104 -4.257425,19.112354 -4.381645,28.832864 -0.09575,7.49253 0.556186,15.15696 2.808614,22.30355 3.607767,11.4469 9.206786,22.55124 16.798458,31.84715 6.035144,7.38995 13.792879,13.51957 22.1387,18.1436 7.212673,3.99619 15.235145,7.08085 23.439396,7.90701 14.971566,1.50762 30.823886,-0.0161 44.792096,-5.61155 10.14097,-4.06233 18.96717,-11.4401 26.33793,-19.5032 6.37049,-6.96888 10.94016,-15.54313 14.75052,-24.18199 3.75809,-8.52033 6.88339,-17.55845 7.80314,-26.82523 0.92236,-9.29311 0.42006,-19.00685 -2.38435,-27.914576 -3.49405,-11.098248 -9.29962,-21.943668 -17.48937,-30.208492 -12.56296,-12.678127 -28.73547,-23.089638 -46.09228,-27.2495 -4.83911,-1.159777 -9.86532,-1.683454 -14.92157,-1.664498 z"
       id="path5594"
       transform="translate(1.1666667e-6)"
       inkscape:label="Circle" /><path
       id="path30331"
       style="display:inline;fill:#ffffff;stroke:#000000;stroke-width:10.0899;stroke-linecap:round;stroke-linejoin:round;stroke-dasharray:none;stroke-opacity:1"
       d="m 112.43307,41.333088 c -10.81191,-0.04717 -21.925225,2.947714 -30.997059,8.205007 -7.362596,4.266762 -12.114192,12.45503 -15.56859,20.231934 -3.461731,7.793406 -3.799898,16.677477 -4.583828,25.169014 -0.883638,9.571587 0.128852,19.227247 -0.11471,28.836477 -0.226884,8.95127 -1.010615,17.88276 -1.253986,26.8336 -0.196871,7.24079 -1.054262,14.54087 -0.166199,21.72968 0.61449,4.97425 -2.707772,11.19979 3.770432,14.55576 9.281352,3.5682 22.71842,0.6647 34.081186,0.73584 14.129154,0.0885 28.274434,0.31601 42.386554,-0.3839 5.49789,-0.27268 13.09448,1.82358 16.44716,-1.48535 3.35269,-3.30896 2.24525,-11.78005 2.70677,-17.74612 0.79356,-10.25956 0.0907,-20.58041 0.0945,-30.87061 0.005,-13.85603 1.85411,-27.85029 -0.0945,-41.568607 -1.57871,-11.11416 -3.24658,-22.915586 -9.30453,-32.3664 -5.47453,-8.540598 -13.33848,-16.975925 -23.06645,-19.853261 -4.57021,-1.351784 -9.42227,-2.001623 -14.33675,-2.023064 z m -1.04804,19.086792 c 6.19032,0.02413 12.56478,1.334483 17.16215,4.15106 11.75962,6.27352 10.0597,13.368389 12.14554,21.258454 2.23494,8.454039 0.71613,20.322746 -0.0568,26.233986 -6.63409,0.26138 -18.12847,0.59671 -24.72908,1.32569 -8.0675,0.3571 -16.086969,-0.94396 -24.163997,-0.93919 -5.11479,-0.19648 -9.172319,0.74181 -14.998952,-1.06889 -2.651128,-11.518833 -1.632257,-25.754076 5.362682,-36.085992 3.257098,-6.38796 9.111307,-11.07027 16.091302,-12.700195 3.669445,-1.433962 8.372385,-2.19369 13.187055,-2.174923 z m 0.77016,64.0289 c 2.44499,-0.0249 4.86975,0.59246 6.60624,2.04327 2.88676,2.41185 3.38924,7.20104 2.83841,10.9222 -0.54735,3.69761 -4.82233,6.08958 -5.84368,9.57109 0.52152,5.46822 3.60132,10.09592 5.15282,15.2238 1.05069,3.47268 1.19408,7.22563 2.81105,10.51485 -2.13113,3.49438 -7.17506,0.11591 -10.42687,1.97027 -4.7495,0.12575 -13.76191,-0.0937 -18.511433,-0.15055 -5.142605,-0.46044 0.442339,-5.37496 1.014144,-8.00232 0.811654,-3.72941 2.373412,-7.2573 3.411961,-10.93001 0.829878,-2.93476 1.880308,-5.84511 2.251178,-8.8685 -3.326429,-3.04072 -6.893395,-7.18121 -6.546279,-11.61046 0.317276,-4.0484 3.843883,-7.92128 7.563669,-9.55023 1.61215,-0.70598 7.77713,-1.11408 9.67879,-1.13341 z"
       sodipodi:nodetypes="sssssssccssccssssscsccccccsssscscccsscsss" /></g></svg>
