<?xml version="1.0" encoding="UTF-8" standalone="no"?>
<!-- Created with Inkscape (http://www.inkscape.org/) -->

<svg
   width="62.507679mm"
   height="62.432812mm"
   viewBox="0 0 62.507679 62.432812"
   version="1.1"
   id="svg5"
   inkscape:version="1.2.2 (732a01da63, 2022-12-09)"
   sodipodi:docname="mana page.svg"
   xmlns:inkscape="http://www.inkscape.org/namespaces/inkscape"
   xmlns:sodipodi="http://sodipodi.sourceforge.net/DTD/sodipodi-0.dtd"
   xmlns="http://www.w3.org/2000/svg"
   xmlns:svg="http://www.w3.org/2000/svg">
  <sodipodi:namedview
     id="namedview7"
     pagecolor="#7c7c7c"
     bordercolor="#000000"
     borderopacity="0.25"
     inkscape:showpageshadow="2"
     inkscape:pageopacity="0"
     inkscape:pagecheckerboard="true"
     inkscape:deskcolor="#2c2c2c"
     inkscape:document-units="mm"
     showgrid="false"
     inkscape:lockguides="false"
     inkscape:zoom="0.74564394"
     inkscape:cx="299.07036"
     inkscape:cy="252.13106"
     inkscape:window-width="1920"
     inkscape:window-height="1017"
     inkscape:window-x="1272"
     inkscape:window-y="-8"
     inkscape:window-maximized="1"
     inkscape:current-layer="layer1" />
  <defs
     id="defs2" />
  <g
     inkscape:label="Layer 1"
     inkscape:groupmode="layer"
     id="layer1"
     transform="translate(-39.004229,-72.396496)">
    <path
       style="fill:#8e81e2;fill-opacity:1;stroke:#000000;stroke-width:6;stroke-linecap:round;stroke-linejoin:round;stroke-dasharray:none;stroke-opacity:1"
       d="m 62.281309,127.22387 c -2.66284,-1.00651 -5.33267,-1.99553 -7.99998,-2.99064 -1.43966,-0.53711 -11.83324,-3.52502 -12.27689,-4.00414 -0.0368,-0.0397 0.78454,-1.05291 0.86154,-1.14641 1.01894,-1.23797 1.88227,-2.59368 2.86153,-3.85461 4.51771,-5.81719 10.13069,-12.157 12.73842,-19.123486 2.36463,-6.31704 4.78039,-13.93983 5.26921,-20.70817 9.34284,2.46361 19.30063,5.46121 29.00761,5.93772 0.8611,0.0423 5.50761,0.9239 5.76922,0.89719 -2.23431,13.47628 -5.22144,21.181286 -9.52274,31.150996 -2.80361,6.4983 -10.32312,15.90047 -10.51183,18.44707 -3.68407,-0.98389 -14.43102,-3.93835 -16.19609,-4.60552 z"
       id="path12772"
       sodipodi:nodetypes="ssscsscscacs" />
    <path
       style="fill:none;fill-opacity:1;stroke:#564f8b;stroke-width:2;stroke-linecap:round;stroke-linejoin:round;stroke-dasharray:none;stroke-opacity:1"
       d="m 75.222329,85.328784 c 0.22483,0.12923 0.43175,0.29641 0.67447,0.38769 1.01765,0.38269 2.38622,0.42273 3.45938,0.69315 1.42924,0.36016 2.70343,1.21008 4.15559,1.21008"
       id="path13714" />
    <path
       style="fill:none;fill-opacity:1;stroke:#564f8b;stroke-width:2;stroke-linecap:round;stroke-linejoin:round;stroke-dasharray:none;stroke-opacity:1"
       d="m 60.524919,108.23536 c 0.42984,0.41192 0.92249,0.55529 1.50124,0.57567 2.26215,0.0797 3.72035,0.3274 5.93968,0.82239 0.62506,0.13941 0.85812,0.78811 1.45772,0.92812 0.63041,0.1472 1.34874,0.0696 1.93638,0.37594 0.40686,0.21212 0.46203,0.69593 0.84853,0.90463 0.57612,0.31109 1.30964,0.27697 1.91462,0.54042 2.19283,0.9549 2.11237,1.61059 4.74304,1.7975"
       id="path13722" />
    <path
       style="fill:none;fill-opacity:1;stroke:#564f8b;stroke-width:2;stroke-linecap:round;stroke-linejoin:round;stroke-dasharray:none;stroke-opacity:1"
       d="m 57.468049,112.56081 c 0.90077,1.09034 2.16177,0.4253 3.26356,0.66965 1.03834,0.23028 1.80672,0.98275 2.74139,1.40981 0.72948,0.3333 1.86618,0.62891 2.65436,0.88112 2.41561,0.77297 4.90329,1.00977 7.35389,1.80925 1.04355,0.34044 2.0985,1.23196 3.15477,1.37455"
       id="path13724" />
    <path
       style="fill:none;fill-opacity:1;stroke:#564f8b;stroke-width:2;stroke-linecap:round;stroke-linejoin:round;stroke-dasharray:none;stroke-opacity:1"
       d="m 54.324109,115.78256 c 1.73701,1.54657 4.55715,1.62704 6.80996,1.89149 0.8165,0.0958 0.62981,1.11585 1.26191,1.46854 0.72539,0.40475 3.97309,0.3003 5.13467,0.57567 0.5781,0.13705 0.91005,0.61348 1.45772,0.81064 0.99866,0.3595 5.76049,1.96197 6.61415,1.96197"
       id="path13726" />
    <path
       style="fill:none;fill-opacity:1;stroke:#564f8b;stroke-width:2;stroke-linecap:round;stroke-linejoin:round;stroke-dasharray:none;stroke-opacity:1"
       d="m 83.632379,103.52814 c -1.99236,-1.68635 -4.92361,-2.67269 -7.04919,-4.183308 -2.06878,-1.47026 -3.50039,-3.622738 -6.11192,-4.019468 -2.71329,-0.41218 -6.15503,4.284788 -5.00171,6.817596 1.85517,4.07417 7.2739,1.61337 10.67412,1.59911 1.34272,-0.006 5.66871,0.11788 7.4887,-0.21397 z"
       id="path13744"
       sodipodi:nodetypes="csssscc" />
    <path
       style="fill:none;fill-opacity:1;stroke:#564f8b;stroke-width:2;stroke-linecap:round;stroke-linejoin:round;stroke-dasharray:none;stroke-opacity:1"
       d="m 68.499879,89.259324 c 0.56112,0.39702 0.73333,0.57939 1.41421,0.79889 0.70616,0.22765 2.35952,-0.33225 2.87194,0.0235 1.85497,1.28783 3.27621,0.28879 4.41668,0.90463 1.89863,1.02521 4.005,0.84794 6.07022,1.3863 0.84207,0.21951 1.72959,0.61592 2.58909,0.88113 0.8762,0.27036 3.43403,1.63862 4.09033,1.15133"
       id="path13746" />
  </g>
</svg>
