<?xml version="1.0" encoding="UTF-8" standalone="no"?>
<!-- Created with Inkscape (http://www.inkscape.org/) -->

<svg
   width="159.29967mm"
   height="163.70683mm"
   viewBox="0 0 159.29967 163.70683"
   version="1.1"
   id="svg5"
   inkscape:version="1.2.2 (732a01da63, 2022-12-09)"
   xml:space="preserve"
   sodipodi:docname="question_mark.svg"
   xmlns:inkscape="http://www.inkscape.org/namespaces/inkscape"
   xmlns:sodipodi="http://sodipodi.sourceforge.net/DTD/sodipodi-0.dtd"
   xmlns="http://www.w3.org/2000/svg"
   xmlns:svg="http://www.w3.org/2000/svg"><sodipodi:namedview
     id="namedview7"
     pagecolor="#7c7c7c"
     bordercolor="#000000"
     borderopacity="0.25"
     inkscape:showpageshadow="2"
     inkscape:pageopacity="0"
     inkscape:pagecheckerboard="true"
     inkscape:deskcolor="#2c2c2c"
     inkscape:document-units="mm"
     showgrid="false"
     inkscape:lockguides="false"
     inkscape:zoom="0.74564394"
     inkscape:cx="-174.34595"
     inkscape:cy="219.94412"
     inkscape:window-width="1920"
     inkscape:window-height="1017"
     inkscape:window-x="1272"
     inkscape:window-y="-8"
     inkscape:window-maximized="1"
     inkscape:current-layer="layer1" /><defs
     id="defs2" /><g
     inkscape:label="Layer 1"
     inkscape:groupmode="layer"
     id="layer1"
     transform="translate(-32.319792,-33.571098)"><path
       style="display:none;fill:#ffffff;stroke-width:0.499999;stroke-linecap:round;stroke-linejoin:round"
       d="m 110.30986,33.571615 c -8.42706,0.03159 -16.938194,1.57109 -24.807784,4.188891 -10.12024,3.366473 -19.177578,10.02747 -26.784412,17.503325 -9.318122,9.157668 -17.240482,20.268509 -22.007442,32.432645 -3.547014,9.051095 -4.257425,19.112364 -4.381645,28.832864 -0.09575,7.49252 0.556188,15.15697 2.808614,22.30355 3.607763,11.44689 9.206794,22.55125 16.798458,31.84715 6.035138,7.38994 13.792888,13.51957 22.1387,18.1436 7.212666,3.99618 15.235154,7.08085 23.439396,7.90701 14.971555,1.50762 30.823905,-0.0161 44.792095,-5.61155 10.14096,-4.06232 18.96718,-11.44011 26.33793,-19.5032 6.37048,-6.96887 10.94017,-15.54313 14.75052,-24.18198 3.75809,-8.52033 6.88339,-17.55847 7.80314,-26.82524 0.92236,-9.2931 0.42006,-19.00686 -2.38435,-27.914576 C 185.31904,81.595867 179.51345,70.750428 171.32371,62.485612 158.76076,49.807498 142.58823,39.39597 125.23143,35.236113 c -4.8391,-1.159776 -9.86532,-1.683454 -14.92157,-1.664498 z"
       id="path5594" /><path
       id="path16326"
       style="color:#000000;fill:#ffffff;fill-opacity:1;stroke:#000000;stroke-width:12;stroke-linecap:round;stroke-linejoin:round;stroke-dasharray:none;stroke-opacity:1"
       d="m 114.00454,42.108871 c -7.70289,0.17734 -15.477672,2.46783 -22.169926,6.097656 -8.54668,4.58378 -15.550608,11.609586 -21.180815,19.42611 -3.01245,4.258501 -5.546426,8.817949 -7.350435,13.73014 -0.971064,2.512708 -0.9096,5.438233 -0.289726,8.073457 1.454142,6.154706 6.54082,11.465896 12.844548,12.605786 5.055167,0.9441 10.472812,-0.69122 14.273626,-4.185377 2.215895,-1.96686 3.745466,-4.549538 5.046425,-7.177229 2.057509,-3.727567 4.499744,-7.315721 7.783813,-10.074858 3.14146,-2.868339 7.02127,-5.406118 11.41084,-5.491779 2.37215,-0.03413 4.98745,1.148724 5.79468,3.526858 1.03339,2.566414 0.024,5.91442 -2.55326,7.133951 -5.08055,3.239213 -10.92761,5.511237 -15.07071,10.040363 -3.866504,4.173227 -5.864168,9.835751 -6.648743,15.437221 -0.709022,5.44886 -0.717562,11.01207 -1.405594,16.48877 -0.195686,2.26932 -0.228469,4.73315 0.03872,6.90549 0.413983,3.8396 2.055791,7.61873 4.980371,10.20595 2.749816,2.51444 6.351136,4.07349 10.066496,4.36101 1.5688,0.11767 3.37107,0.0127 4.98892,-0.35663 5.25883,-1.11108 9.7443,-4.78615 12.43686,-9.36603 1.72467,-2.94366 2.76452,-6.50642 2.64781,-9.99527 -0.004,-2.83166 -1.38325,-5.4532 -1.31537,-8.29339 0.1682,-1.16229 -0.51571,-2.46956 0.28295,-3.5076 0.82594,-0.81981 2.04249,-1.085 3.06187,-1.60599 2.23885,-0.94252 4.25752,-2.3294 6.2257,-3.73625 9.03851,-6.72002 14.81439,-17.580852 15.72009,-28.716968 0.85101,-9.551896 -2.1771,-19.334227 -8.14423,-26.822856 -6.8185,-8.633211 -17.4485,-14.071607 -28.42413,-14.657613 -0.97648,-0.05025 -2.04085,-0.07078 -3.05078,-0.04492 z" /><path
       id="path16336"
       style="color:#000000;fill:#ffffff;fill-opacity:1;stroke:#000000;stroke-width:12;stroke-linecap:round;stroke-linejoin:round;stroke-dasharray:none;stroke-opacity:1"
       d="m 110.01884,151.27117 c -3.44296,0.26674 -6.77288,2.04525 -9.3095,4.4189 -3.318284,3.08362 -5.846456,7.1375 -6.595621,11.6495 -0.788599,4.27757 0.0189,8.85348 2.437882,12.49389 2.867893,4.47239 7.684509,7.58719 12.978919,8.20082 4.78549,0.59542 9.58153,-1.32398 13.24567,-4.3229 4.64448,-3.76681 7.68455,-9.76911 7.08159,-15.81914 -0.4996,-5.05559 -3.45181,-9.78398 -7.7512,-12.48409 -1.55805,-1.2827 -3.21321,-2.56533 -5.23279,-2.99539 -2.32115,-0.68652 -4.47977,-1.20594 -6.85495,-1.14159 z" /></g></svg>
