<?xml version="1.0" encoding="UTF-8" standalone="no"?>
<!-- Created with Inkscape (http://www.inkscape.org/) -->

<svg
   width="778.05438mm"
   height="631.4989mm"
   viewBox="0 0 778.05438 631.4989"
   version="1.1"
   id="svg5"
   inkscape:version="1.2.2 (732a01da63, 2022-12-09)"
   xml:space="preserve"
   sodipodi:docname="Seige Engine.svg"
   xmlns:inkscape="http://www.inkscape.org/namespaces/inkscape"
   xmlns:sodipodi="http://sodipodi.sourceforge.net/DTD/sodipodi-0.dtd"
   xmlns="http://www.w3.org/2000/svg"
   xmlns:svg="http://www.w3.org/2000/svg"><sodipodi:namedview
     id="namedview7"
     pagecolor="#7c7c7c"
     bordercolor="#000000"
     borderopacity="0.25"
     inkscape:showpageshadow="2"
     inkscape:pageopacity="0"
     inkscape:pagecheckerboard="true"
     inkscape:deskcolor="#2c2c2c"
     inkscape:document-units="mm"
     showgrid="false"
     inkscape:lockguides="false"
     inkscape:zoom="2.1089995"
     inkscape:cx="291.84454"
     inkscape:cy="848.74366"
     inkscape:window-width="1920"
     inkscape:window-height="1017"
     inkscape:window-x="1272"
     inkscape:window-y="-8"
     inkscape:window-maximized="1"
     inkscape:current-layer="layer1" /><defs
     id="defs2"><inkscape:path-effect
       effect="fill_between_many"
       method="originald"
       linkedpaths="#path7720,0,1"
       id="path-effect10330"
       join="true"
       close="true"
       autoreverse="true"
       is_visible="true"
       lpeversion="0" /></defs><g
     inkscape:label="Layer 1"
     inkscape:groupmode="layer"
     id="layer1"
     transform="translate(487.13924,322.1066)"><path
       style="fill:#4c3300;fill-opacity:1;stroke:#000000;stroke-width:7.99999;stroke-linecap:round;stroke-linejoin:round;stroke-dasharray:none;stroke-opacity:1"
       d="m 151.30134,-102.10223 c 3.00816,47.426066 9.57952,114.081669 12.47957,171.239288 2.30007,45.332352 11.58496,134.328572 3.89937,136.116162 -30.53463,12.38631 -63.78012,-6.66948 -95.970172,-1.18957 -85.231792,4.64272 -170.225201,-7.86607 -255.394468,-1.05656 -60.57321,2.64803 -120.71659,10.01318 -181.18753,13.43807 -30.67727,-10.6643 -77.05908,6.08612 -98.73949,-10.72138 -1.76465,-46.28615 7.62985,-107.672229 11.68021,-161.49097 3.85464,-51.2181916 -0.37966,-102.926381 12.01195,-153.6202 56.32132,0.30356 121.34729,2.31809 177.77477,-0.55841 81.63563,-3.08523 160.74547,-1.40919 242.185114,0.7531 30.79101,13.045166 151.890506,5.48583 171.260676,7.09047 z"
       id="path3444"
       sodipodi:nodetypes="cacccccacccc" /><path
       style="fill:#2f1f00;fill-opacity:1;stroke:#000000;stroke-width:7.99999;stroke-linecap:round;stroke-linejoin:round;stroke-dasharray:none;stroke-opacity:1"
       d="m 151.36421,-103.14054 c -1.60725,-18.48668 -35.59575,-38.67648 -55.913572,-55.20429 -20.191514,-16.42506 -32.569899,-32.26544 -65.023901,-43.23437 -59.63195,3.78881 -247.432967,3.52517 -312.325957,4.35588 -48.11449,27.30887 -49.00463,20.61269 -72.23884,33.42393 -30.03151,16.55924 -81.79049,37.7741 -86.36798,55.90591 46.42903,4.75921 62.08991,7.959136 93.3219,8.549523 34.21991,0.646868 68.32457,-5.563133 102.53084,-5.496423 54.96813,0.10723 109.74384,8.609213 164.74167,9.475121 51.954794,0.817997 103.906784,-2.090209 155.831154,-4.047148 25.161056,-0.948273 66.289016,2.202678 75.444686,-3.728133 z"
       id="path3455"
       sodipodi:nodetypes="caccacaaaac" /><g
       id="g12885"
       inkscape:label="Log"
       transform="translate(-10.036354,12.043625)"><path
         style="fill:#4c3300;fill-opacity:1;stroke:#000000;stroke-width:8;stroke-linecap:round;stroke-linejoin:round;stroke-dasharray:none;stroke-opacity:1"
         d="m -457.67959,-53.513821 c 109.94829,-3.175659 219.98339,1.32909 329.94502,-1.238003 37.960084,-0.886191 75.858723,-4.030977 113.829464,-4.889072 68.245858,-1.542278 133.128616,-0.857731 204.794036,-0.464316 17.50581,1.301881 11.25152,51.5572045 -0.81698,71.813829 C 151.109,12.06624 -10.542714,11.173936 -69.987633,10.88391 c -81.998237,-0.664613 -163.994107,1.716983 -245.989757,2.746963 -33.11748,0.416001 -66.28341,3.614959 -99.35115,1.386529 -13.72284,-0.92478 -28.61443,2.108441 -40.92046,-6.1114979"
         id="path7378"
         sodipodi:nodetypes="caacccaac" /><path
         style="fill:#c48d27;fill-opacity:1;stroke:#000000;stroke-width:7.99999;stroke-linecap:round;stroke-linejoin:round;stroke-dasharray:none;stroke-opacity:1"
         d="m -462.25365,-50.72956 c -11.72875,6.357489 -9.97849,14.852697 -10.65336,26.294351 -0.32811,5.563124 -0.24831,10.725541 0.25986,16.2446759 1.83464,19.9267511 20.35826,31.9171461 30.92063,7.43400581 6.71979,-15.57617971 8.21533,-61.10141671 -20.52713,-49.97303271 z"
         id="path7376" /><g
         id="g12222"
         inkscape:label="Headpiece"
         transform="translate(-64.337123,3.9641066)"><path
           d="m 322.78752,-11.545366 c -1.96925,4.6793 -2.87931,5.6736391 -8.68325,10.435576 -5.80394,4.7619369 -11.57646,7.8734863 -20.76524,9.4280978 -9.18878,1.554611 -22.69883,0.4507045 -30.00504,0.4356208 -7.30621,-0.015084 -15.0973,0.1358398 -15.0973,0.1358398 0,0 9.00386,-26.8850154 9.58799,-40.8641014 0.45752,-10.948855 -4.81325,-32.520968 -4.81325,-32.520968 0,0 21.37715,0.550308 31.69719,0.351936 10.32004,-0.198372 22.51992,-0.612245 30.1801,0.551238 7.66018,1.163483 8.64214,6.236488 15.47942,8.082167 6.83728,1.845679 17.94395,2.040725 23.64667,5.675915 5.70272,3.63519 9.57307,13.371807 5.72574,15.680622 -3.84734,2.308814 -15.81372,4.833233 -23.1018,8.37469 -7.28808,3.541457 -11.88198,9.554068 -13.85123,14.233367 z"
           id="path10332"
           style="fill:#ffac00;fill-opacity:1"
           inkscape:original-d="M 0,0"
           inkscape:path-effect="#path-effect10330"
           class="UnoptimicedTransforms" /><path
           style="fill:#7e5300;fill-opacity:1;stroke:none;stroke-width:7.99999;stroke-linecap:round;stroke-linejoin:round;stroke-dasharray:none;stroke-opacity:1"
           d="m 317.92217,-58.47539 c 0.25556,1.398167 0.42256,2.780268 0.42256,4.206902 0,1.509342 -0.53557,3.01861 -0.97716,4.449333 -0.38917,1.260833 8.49858,-3.561815 7.71163,-6.217658 -0.35354,-1.193122 -6.74897,-4.377663 -7.15703,-2.438577 z"
           id="path9061" /><path
           id="path9636"
           style="fill:#ffbe3e;fill-opacity:1;stroke:none;stroke-width:7.99999;stroke-linecap:round;stroke-linejoin:round;stroke-dasharray:none;stroke-opacity:1"
           d="m 344.93657,-52.742517 c -0.10882,0.0052 -0.23953,0.04131 -0.39378,0.116272 0.26348,0.03447 0.52671,0.07686 0.7891,0.125057 -0.0664,-0.153683 -0.19346,-0.251033 -0.39532,-0.241329 z m 0.39532,0.241329 c 0.12696,0.293674 0.0319,0.794623 -0.1912,1.156002 -0.42185,0.68337 -1.34491,0.9817 -1.97869,1.574064 -2.96415,-1.023284 -6.12814,-1.732063 -7.5644,-1.900659 -0.52416,-0.06153 -4.01422,0.01049 -4.01422,-0.114205 l -0.73949,0.912605 c -1.28082,-0.07505 -2.52012,-0.118877 -3.77652,0.157097 -2.72885,0.599397 -6.7827,2.908373 -2.16575,4.648812 5.71571,2.15463 12.7734,3.139195 18.85673,2.652551 1.65297,0.114645 4.34754,2.181299 4.71101,2.543998 1.14096,1.416999 6.19239,6.086961 8.44092,5.566609 0.72245,-0.167188 1.07458,-3.266015 1.30741,-3.831808 3.02718,-7.355699 -3.0255,-10.264511 -10.27614,-12.683454 -0.84988,-0.283536 -1.72538,-0.51919 -2.60966,-0.681612 z"
           sodipodi:nodetypes="sccscscsccssccscsc" /><path
           style="fill:#7e5300;fill-opacity:1;stroke:none;stroke-width:7.99999;stroke-linecap:round;stroke-linejoin:round;stroke-dasharray:none;stroke-opacity:1"
           d="m 248.90158,6.2727215 c 2.75896,-3.3813631 1.75409,-8.2931139 4.64182,-11.5418075 2.58302,-2.9058975 18.23842,-0.1061995 21.82906,0.1254546 5.96595,0.3848999 11.94935,1.210995 17.93999,0.8781809 5.42425,-0.3013467 10.66808,-1.1148244 15.55636,-3.1363609 3.98708,-1.6488461 9.00865,-6.5150406 10.78906,-7.1509026 0.68824,-0.245795 1.3403,4.111412 2.00729,3.889088 4.90186,8.2811364 -25.82764,18.1458135 -31.11271,19.0690727 -8.02251,1.3370838 -16.47775,0.5018175 -24.58905,0.5018175 -3.1192,0 -15.21825,0.4380698 -17.06182,-2.6345427 z"
           id="path10121"
           sodipodi:nodetypes="csssasccsc" /><path
           style="fill:#ffba31;fill-opacity:1;stroke:none;stroke-width:7.99999;stroke-linecap:round;stroke-linejoin:round;stroke-dasharray:none;stroke-opacity:1"
           d="m 260.6943,-38.389054 c 1.62585,0 1.64931,0.01452 3.88908,-0.125455 4.65545,-0.290965 9.42769,0.230177 14.05091,-0.125455 1.43767,-0.11059 2.67745,-0.627271 4.13999,-0.627271 3.71917,0 7.3106,0.273711 10.91454,-0.627272 3.22556,-0.806394 5.8288,-3.296285 8.78181,-4.139996 3.94203,-1.1263 10.84366,-0.99278 13.29817,-4.265451 1.51823,-2.024319 1.36956,-4.610497 2.13273,-6.899995 0.48024,-1.440788 0.18854,-4.704159 -0.87818,-5.770903 -0.47329,-0.473279 -5.558,-0.131787 -6.27274,-0.250907 -1.31929,-0.219882 -2.54519,-0.811652 -3.88909,-1.003636 -5.40094,-0.771565 -10.76952,-1.730296 -16.30907,-2.007272 -7.60481,-0.380241 -15.2196,-0.752727 -22.8327,-0.752727 -3.58236,0 -8.7567,-0.863864 -11.66726,1.630908 -2.27463,1.949683 -0.70513,6.23384 -0.25091,8.656357 0.40675,2.169355 1.09549,4.131056 1.6309,6.27272 0.40196,1.607817 0.24741,3.502216 0.75273,5.018177 0.26162,0.784845 0.61412,1.552001 0.75273,2.383634 0.0569,0.341405 1.45922,2.040253 1.75636,2.634544 z"
           id="path11429" /><path
           style="fill:none;fill-opacity:1;stroke:#000000;stroke-width:7.99999;stroke-linecap:round;stroke-linejoin:round;stroke-dasharray:none;stroke-opacity:1"
           d="m 322.78752,-11.545366 c -1.96925,4.6793 -2.87931,5.6736391 -8.68325,10.435576 -5.80394,4.7619369 -11.57646,7.8734863 -20.76524,9.4280978 -9.18878,1.554611 -22.69883,0.4507045 -30.00504,0.4356208 -7.30621,-0.015084 -15.0973,0.1358398 -15.0973,0.1358398 0,0 9.00386,-26.8850154 9.58799,-40.8641014 0.45752,-10.948855 -4.81325,-32.520968 -4.81325,-32.520968 0,0 21.37715,0.550308 31.69719,0.351936 10.32004,-0.198372 22.51992,-0.612245 30.1801,0.551238 7.66018,1.163483 8.64214,6.236488 15.47942,8.082167 6.83728,1.845679 17.94395,2.040725 23.64667,5.675915 5.70272,3.63519 9.57307,13.371807 5.72574,15.680622 -3.84734,2.308814 -15.81372,4.833233 -23.1018,8.37469 -7.28808,3.541457 -11.88198,9.554068 -13.85123,14.233367 z"
           id="path7720"
           sodipodi:nodetypes="zzzzcaczzzzzzz"
           class="UnoptimicedTransforms" /><path
           style="fill:none;fill-opacity:1;stroke:none;stroke-width:7.99999;stroke-linecap:round;stroke-linejoin:round;stroke-dasharray:none;stroke-opacity:1"
           d="m 330.50011,-65.542233 c 3.89459,0.304392 7.75939,0.652232 11.6731,0.727294 2.04663,0.03925 4.48678,-0.495403 6.49679,0.228172"
           id="path7724" /><path
           style="fill:#7e5300;fill-opacity:1;stroke:none;stroke-width:7.99999;stroke-linecap:round;stroke-linejoin:round;stroke-dasharray:none;stroke-opacity:1"
           d="m 287.44534,-37.284011 c 2.76138,-0.350356 5.34411,-1.191512 7.92292,-2.224667 1.89151,-0.757788 3.72105,-1.653 5.65169,-2.310231 1.50709,-0.513051 2.89237,-0.928005 4.46323,-1.197898 0.63111,-0.108432 5.62702,-1.01156 6.41757,-0.584687 0.70184,0.378968 -2.81585,5.842243 -3.03712,6.24618 -2.7931,5.099235 -9.83999,8.158652 -15.47609,8.285459 -0.95949,0.02159 -2.39318,0.280186 -3.30121,0 -3.19733,-0.986565 -4.24032,-5.551387 -2.64099,-8.214156 z"
           id="path7925" /><path
           style="fill:#ffffff;fill-opacity:1;stroke:none;stroke-width:7.99999;stroke-linecap:round;stroke-linejoin:round;stroke-dasharray:none;stroke-opacity:1"
           d="m 291.23515,-40.60616 c -1.16991,0.227189 -7.50521,1.506418 -7.37848,-0.371704 0.0207,-0.306614 0.0103,-0.594964 0.31966,-0.832622 2.16466,-1.663044 12.79786,-5.356189 16.22612,-6.191823 1.21818,-0.296934 11.64886,-0.812431 9.49425,1.03411 -0.78526,0.672965 -2.12335,1.10123 -3.22123,1.272955 -2.20434,0.344792 -4.45744,0.236204 -6.65654,0.643105 -1.77772,0.328943 -3.44259,0.797805 -4.78844,1.852617 -0.48373,0.379125 -0.65484,0.804777 -0.54034,0.979255 -0.65834,0.634774 -1.86706,1.305728 -3.455,1.614101 z"
           id="path9063"
           sodipodi:nodetypes="sssssssscs" /><path
           style="fill:#ffffff;fill-opacity:1;stroke:none;stroke-width:7.99999;stroke-linecap:round;stroke-linejoin:round;stroke-dasharray:none;stroke-opacity:1"
           d="m 313.93058,-58.789895 c -0.52382,1.08403 -1.10223,2.195052 -1.45661,3.357915 -0.16618,0.545309 -0.17798,1.128919 -0.33613,1.684001 -0.26045,0.914101 0.0233,4.033322 1.66204,2.571374 1.61038,-1.436684 4.99295,-9.880766 0.1307,-7.61329 z"
           id="path9065" /><path
           style="fill:#ffffff;fill-opacity:1;stroke:none;stroke-width:7.99999;stroke-linecap:round;stroke-linejoin:round;stroke-dasharray:none;stroke-opacity:1"
           d="m 351.06194,-45.886228 c -1.23224,-0.313852 -2.18907,-1.16679 -3.42011,-1.467929 -0.76089,-0.186133 -1.48785,-0.358405 -2.27249,-0.379731 -8.15743,-0.221844 6.93255,5.37151 7.59184,5.086999 1.55418,-0.670696 -1.29928,-2.918098 -1.89924,-3.239339 z"
           id="path9634" /></g><path
         style="color:#000000;fill:#58508d;fill-opacity:1;stroke:#000000;stroke-width:8;stroke-linecap:round;stroke-linejoin:round;stroke-dasharray:none;stroke-opacity:1"
         d="m 34.948652,-210.63599 c -12.346685,0.0367 -8.44029,16.43094 -0.300921,20.15578 17.577034,18.3162 33.354292,38.28786 49.977887,57.47827 17.666342,20.39416 34.724732,41.325467 52.885022,61.281054 7.28043,8.000162 14.5677,16.040827 22.4659,23.416842 4.88848,10.054619 21.6623,5.437416 16.31097,-6.009362 -4.79584,-7.59925 -13.00716,-13.836398 -19.50471,-20.760267 -6.77405,-7.218525 -13.78212,-14.225118 -20.30957,-21.667391 -21.09733,-24.054146 -39.630362,-50.288396 -60.87232,-74.214916 -11.334694,-12.76718 -23.85907,-24.4327 -35.474794,-36.94352 -1.383428,-1.60063 -3.070379,-2.60721 -5.177464,-2.73649 z"
         id="path17155"
         sodipodi:nodetypes="scaassaaacs" /><path
         style="color:#000000;display:inline;fill:#58508d;fill-opacity:1;stroke:#000000;stroke-width:8;stroke-linecap:round;stroke-linejoin:round;stroke-dasharray:none;stroke-opacity:1"
         d="m -279.24805,-185.14062 c -2.08786,0.37691 -3.94049,1.56774 -5.15039,3.31054 -5.10995,7.35804 -30.17568,27.63322 -44.7369,41.99708 -11.14002,10.98903 -21.80574,22.44947 -32.59381,33.78421 -20.68459,21.732765 -34.59404,33.45025 -61.61069,65.617149 -2.8406,3.382949 -2.40167,8.427973 0.98047,11.269532 3.38324,2.841919 8.42976,2.402939 11.27148,-0.980469 25.75366,-30.66314 40.16561,-43.217049 60.5853,-64.50582 10.89952,-11.363422 21.86288,-22.669402 33.05461,-33.745142 15.16525,-15.00808 38.39901,-33.09271 46.19017,-44.31154 2.51966,-3.62829 1.6217,-8.6121 -2.00586,-11.13281 -1.74302,-1.21085 -3.89576,-1.67948 -5.98438,-1.30273 z"
         id="path17149"
         transform="translate(12.043625,-12.043625)"
         sodipodi:nodetypes="ccaacccaaccc" /><path
         style="fill:none;fill-opacity:1;stroke:#2f1f00;stroke-width:8;stroke-linecap:round;stroke-linejoin:round;stroke-dasharray:none;stroke-opacity:1"
         d="m -452.61789,-37.129915 c -11.03993,-2.53267 -13.88266,31.9379997 -4.96502,33.1418348 13.80445,1.8635273 10.17942,-24.8793408 4.33052,-16.7005188"
         id="path18853"
         sodipodi:nodetypes="csc" /></g><g
       id="g4454"
       inkscape:label="Front Wall"
       style="fill:none;stroke:#2f1f00;stroke-opacity:1"><path
         style="fill:#624200;fill-opacity:1;stroke:#000000;stroke-width:8;stroke-linecap:round;stroke-linejoin:round;stroke-dasharray:none;stroke-opacity:1"
         d="m 166.74089,207.7617 c -70.428122,3.52727 -142.786463,3.76334 -214.195382,3.67582 -45.552344,-0.0558 -91.079588,-3.08307 -136.630858,-2.67977 -55.43074,0.49075 -110.74077,6.58846 -166.17244,6.20423 -36.58436,-0.2536 -71.97927,-5.72271 -109.59843,-5.61464 12.04008,-21.44091 22.30307,-44.58127 33.39255,-66.90008 25.20506,-50.727975 53.80185,-100.062653 75.33289,-152.3115721 24.4953,-59.4422319 37.07732,-123.1625679 60.94415,-182.5876779 43.72148,-7.10732 88.1397,-8.23311 132.36019,-9.91662 64.512218,-2.45602 130.4085,-5.38586 193.690168,-0.25815 4.850457,44.38732 13.441836,86.78563 21.959611,129.87795 6.156332,31.145533 10.838384,62.7798446 21.053442,92.936695 10.691822,31.56435 26.366339,61.446603 41.795589,91.169235 13.87684,26.73208 29.51128,52.73962 45.57649,78.21482 1.49544,2.59678 2.58403,15.81825 0.49203,18.18976 z"
         id="path415"
         sodipodi:nodetypes="saaasaasasaaacs" /><path
         style="fill:none;fill-opacity:1;stroke:#2f1f00;stroke-width:7.99999;stroke-linecap:round;stroke-linejoin:round;stroke-dasharray:none;stroke-opacity:1"
         d="m -423.90983,171.0628 c 34.04039,-0.26701 68.24112,-1.65424 102.36409,-1.65424 5.29648,0 10.55267,0.12281 15.84582,0.28521 2.40382,0.0737 4.17203,0.057 6.54962,0.057 1.16203,0 3.63848,1.152 3.48608,0 -0.14971,-1.13172 -0.37405,-0.53861 -0.95076,-1.36902"
         id="path4415" /><path
         style="fill:none;fill-opacity:1;stroke:#2f1f00;stroke-width:7.99999;stroke-linecap:round;stroke-linejoin:round;stroke-dasharray:none;stroke-opacity:1"
         d="M -318.16529,-0.92108188 C -330.44222,19.97032 -336.70464,44.297808 -349.75133,64.792161 c -3.36761,5.290023 -7.16611,10.344327 -9.82443,16.086055 -3.56632,7.702952 -6.10719,15.904678 -9.50748,23.672734 -5.6756,12.96604 -13.64057,25.10222 -19.015,38.1616 -3.31851,8.06367 -7.13978,19.4546 -10.45826,25.72628"
         id="path4419" /><path
         style="fill:none;fill-opacity:1;stroke:#2f1f00;stroke-width:7.99999;stroke-linecap:round;stroke-linejoin:round;stroke-dasharray:none;stroke-opacity:1"
         d="m -246.96469,11.368461 c -3.52483,5.463088 -1.3546,3.352489 0,0 z"
         id="path4421" /><path
         style="fill:none;fill-opacity:1;stroke:#2f1f00;stroke-width:7.99999;stroke-linecap:round;stroke-linejoin:round;stroke-dasharray:none;stroke-opacity:1"
         d="m -213.89972,-3.5196959 c -0.70426,0.8176127 -1.40852,1.6352254 -2.11278,2.4528381"
         id="path4423" /><path
         style="fill:none;fill-opacity:1;stroke:#2f1f00;stroke-width:7.99999;stroke-linecap:round;stroke-linejoin:round;stroke-dasharray:none;stroke-opacity:1"
         d="m -362.74491,98.986119 c 30.48196,-1.752311 61.6925,-4.669404 91.90582,-2.338752"
         id="path4425" /><path
         style="fill:none;fill-opacity:1;stroke:#2f1f00;stroke-width:7.99999;stroke-linecap:round;stroke-linejoin:round;stroke-dasharray:none;stroke-opacity:1"
         d="m -288.05822,-122.96721 c 7.7161,-7.03101 14.36949,-35.72368 17.4304,-47.97294 5.94542,-1.31399 12.07354,-2.06792 18.1699,-2.22467 36.72634,-0.94436 73.74468,0.53822 110.49827,0.91268 41.80931,0.42597 107.600864,-8.03582 146.916628,-1.79179 2.9903334,2.91029 2.1324527,6.31605 3.0975642,9.96402 0.7787205,2.94345 0.3379408,6.08784 1.0457717,8.95444 0.7693481,3.11574 2.2027631,6.06585 2.7638251,9.19645 0.314522,1.75497 0.594862,12.2946 1.419261,8.51076"
         id="path4429"
         sodipodi:nodetypes="ccssc" /><path
         style="fill:none;fill-opacity:1;stroke:#2f1f00;stroke-width:7.99999;stroke-linecap:round;stroke-linejoin:round;stroke-dasharray:none;stroke-opacity:1"
         d="m -281.71989,-183.66069 c 3.42395,0.48599 12.37705,12.55416 13.09923,8.78459"
         id="path4431" /><path
         style="fill:none;fill-opacity:1;stroke:#2f1f00;stroke-width:7.99999;stroke-linecap:round;stroke-linejoin:round;stroke-dasharray:none;stroke-opacity:1"
         d="m 29.268486,-195.64017 c -8.362456,5.35233 -15.271613,15.71651 -23.3054871,21.03275"
         id="path4433" /><path
         style="fill:none;fill-opacity:1;stroke:#2f1f00;stroke-width:7.99999;stroke-linecap:round;stroke-linejoin:round;stroke-dasharray:none;stroke-opacity:1"
         d="m 28.447089,-60.648624 c 0.675902,8.998365 2.124435,17.652431 4.780669,26.258289 1.258404,4.077063 1.595665,8.387272 2.763825,12.503946 1.943613,6.84943 4.211841,13.5662034 6.050536,20.4500037 1.184122,4.4331815 1.328216,8.8491741 2.913221,13.1896473 2.860249,7.832691 4.595599,15.989941 7.69389,23.757499 0.414113,1.038198 3.712512,11.746195 1.568659,7.260357"
         id="path4437" /><path
         style="fill:none;fill-opacity:1;stroke:#2f1f00;stroke-width:7.99999;stroke-linecap:round;stroke-linejoin:round;stroke-dasharray:none;stroke-opacity:1"
         d="m -30.489612,13.245668 c 5.229512,0.188897 10.445384,0.367796 15.686575,0.242012 11.9602622,-0.287035 23.9115822,-1.855424 35.855026,-1.855424 5.762087,0 11.202682,0.03018 16.881741,0.927712 2.112632,0.333886 4.426728,0.254496 6.573422,0.322682 0.451176,0.01433 1.79415,0.120881 1.344562,0.161342 -0.722971,0.06507 -0.929211,-0.158732 -1.79275,-0.443689"
         id="path4439" /><path
         style="fill:none;fill-opacity:1;stroke:#2f1f00;stroke-width:7.99999;stroke-linecap:round;stroke-linejoin:round;stroke-dasharray:none;stroke-opacity:1"
         d="m 19.259238,-27.331656 c 4.392526,0.566949 9.519155,-1.178124 13.520332,0.76637"
         id="path4441" /><path
         style="fill:#2f1f00;fill-opacity:1;stroke:#2f1f00;stroke-width:7.99999;stroke-linecap:round;stroke-linejoin:round;stroke-dasharray:none;stroke-opacity:1"
         d="m -272.81972,-140.99094 c 42.52806,-1.8091 84.85738,-5.1984 127.58413,-4.27554 4.74792,0.10255 26.42881,2.76473 27.63825,-1.3714"
         id="path4322" /><path
         style="fill:#2f1f00;fill-opacity:1;stroke:#2f1f00;stroke-width:7.99999;stroke-linecap:round;stroke-linejoin:round;stroke-dasharray:none;stroke-opacity:1"
         d="m -166.898,-149.058 c 1.99938,-6.97895 1.75522,-15.32187 4.03369,-21.78107"
         id="path4324" /><path
         style="fill:#2f1f00;fill-opacity:1;stroke:#2f1f00;stroke-width:7.99999;stroke-linecap:round;stroke-linejoin:round;stroke-dasharray:none;stroke-opacity:1"
         d="m -327.72466,25.730344 c 45.92074,8.026914 92.20555,-1.478066 138.19126,-3.388166 10.67931,-0.443585 24.59696,-4.007605 34.95865,-1.21006"
         id="path4332" /><path
         style="fill:#2f1f00;fill-opacity:1;stroke:#2f1f00;stroke-width:7.99999;stroke-linecap:round;stroke-linejoin:round;stroke-dasharray:none;stroke-opacity:1"
         d="m -235.39796,25.004308 c 3.74491,-11.601955 2.78339,-28.6886309 5.37826,-38.963911"
         id="path4334" /><path
         style="fill:#2f1f00;fill-opacity:1;stroke:#2f1f00;stroke-width:7.99999;stroke-linecap:round;stroke-linejoin:round;stroke-dasharray:none;stroke-opacity:1"
         d="m -254.07245,-16.460393 c 60.84611,1.168756 121.49982,-2.558338 182.26305,-5.082249"
         id="path4338" /><path
         style="fill:none;fill-opacity:1;stroke:#2f1f00;stroke-width:7.99999;stroke-linecap:round;stroke-linejoin:round;stroke-dasharray:none;stroke-opacity:1"
         d="m -112.4451,78.488933 c 4.59019,5.560431 3.43611,20.788813 3.43611,23.797837 37.599798,-7.638117 75.407156,0.8067 113.2421241,0.8067 5.8988249,0 18.3205039,2.3133 22.1105999,0.0807"
         id="path4340" /><path
         style="fill:none;fill-opacity:1;stroke:#2f1f00;stroke-width:7.99999;stroke-linecap:round;stroke-linejoin:round;stroke-dasharray:none;stroke-opacity:1"
         d="m -74.797318,76.068813 c -26.832062,-2.527765 -53.993432,-1.210058 -80.972602,-1.210058 -4.29615,0 -13.07392,2.400501 -15.08899,-0.242012"
         id="path4342" /><path
         style="fill:#2f1f00;fill-opacity:1;stroke:#2f1f00;stroke-width:7.99999;stroke-linecap:round;stroke-linejoin:round;stroke-dasharray:none;stroke-opacity:1"
         d="m -291.10675,-78.864274 c 21.56949,-0.471204 43.04631,1.153718 64.61375,1.29073 8.65991,0.05501 17.18141,-0.771646 25.8455,-0.242011 4.51465,0.275978 9.00679,0.230465 13.52033,-0.04034 1.60417,-0.09625 9.29208,0.02127 8.14208,-0.806707"
         id="path5785" /><path
         style="fill:none;fill-opacity:1;stroke:#2f1f00;stroke-width:7.99999;stroke-linecap:round;stroke-linejoin:round;stroke-dasharray:none;stroke-opacity:1"
         d="m -212.00159,-85.559936 c 1.60527,-3.714917 4.90286,-15.141694 4.93006,-21.377714 4.90422,-1.87416 10.5876,-0.89195 15.76127,-0.52436 13.7652,0.97801 27.35642,3.29018 41.15858,3.75118 17.71051,0.59155 35.12806,-0.15289 52.886167,1.16973 3.402494,0.25341 7.945923,0.045 10.831206,0.52435"
         id="path5791" /><path
         style="fill:none;fill-opacity:1;stroke:#2f1f00;stroke-width:7.99999;stroke-linecap:round;stroke-linejoin:round;stroke-dasharray:none;stroke-opacity:1"
         d="m -204.93864,-107.40159 c -7.53604,-1.51994 -20.65115,-1.74523 -28.2584,-1.99649"
         id="path5795"
         sodipodi:nodetypes="cc" /></g><g
       id="g4186"
       inkscape:label="Wheel" /><g
       id="g20294"
       inkscape:label="Flag"><path
         style="color:#000000;fill:#2f1f00;fill-opacity:1;stroke:#000000;stroke-width:7.99996;stroke-linecap:round;stroke-linejoin:round;stroke-dasharray:none;stroke-opacity:1"
         d="m 42.669004,-316.87004 c -8.896173,-4.29242 -17.484304,3.52017 -14.225388,7.82486 -0.102086,13.33742 -2.647887,26.69835 -4.042625,40.04714 -1.482216,14.18611 -3.77455,28.37148 -4.597054,42.55735 -0.329742,5.68709 -0.682716,11.39251 -0.134806,17.04953 -3.476209,5.661 11.784354,9.69564 15.895639,3.32547 1.836186,-4.66266 0.271739,-9.98086 0.415876,-14.97142 0.150283,-5.20292 -0.01488,-10.40412 0.468102,-15.60906 1.560978,-16.82288 6.479677,-33.60897 7.848083,-50.43207 0.730226,-8.9768 -0.160076,-17.93518 0.190015,-26.90916 0.118603,-1.1123 -0.393828,-2.09677 -1.817842,-2.88264 z"
         id="path17155-5"
         sodipodi:nodetypes="scaassaaacs" /><path
         style="fill:#58508d;fill-opacity:1;stroke:#000000;stroke-width:7.99999;stroke-linecap:round;stroke-linejoin:round;stroke-dasharray:none;stroke-opacity:1"
         d="m -73.504442,-300.50279 c -4.058184,0.94556 -24.83149,5.42663 -26.582998,8.66238 -0.31322,0.57865 9.920439,4.99109 11.187013,5.38842 9.24515,2.90031 31.252444,0.8687 38.877637,7.91212 0.358663,0.33129 -0.783163,0.57505 -1.218388,0.75029 -3.453968,1.3907 -6.882631,2.79352 -10.300913,4.29709 -8.53039,3.75217 -16.773681,7.71541 -24.92156,12.48203 -3.867083,2.2623 -7.602929,4.71495 -11.187011,7.50287 -1.32477,1.03047 -5.591038,3.06935 -3.987458,3.06935 16.979938,0 32.995023,-0.23848 49.953892,-2.59191 16.14072,-2.23987 32.384399,-2.86472 48.6247401,-2.86472 3.85956888,-1.08124 27.2647749,3.32524 27.8113749,1.52817 3.879242,-26.67601 5.767859,-39.75493 8.40026,-60.57505 -37.1647056,0.68449 -69.508775,5.78326 -106.656589,14.43896 z"
         id="path20117"
         sodipodi:nodetypes="sscssssssscccs" /><path
         style="fill:#ffa600;fill-opacity:1;stroke:#000000;stroke-width:6;stroke-linecap:round;stroke-linejoin:round;stroke-dasharray:none;stroke-opacity:1"
         d="m -29.397133,-268.89844 c 0.235994,-4.35501 -0.155172,-8.72214 -1.234568,-12.97706 -0.961699,-4.36134 -1.599214,-8.79718 -1.694923,-13.24051 0.676276,-2.52676 3.431086,0.68426 4.32532,1.62709 2.320784,2.4627 4.175563,5.2421 6.355135,7.78998 1.708216,-3.1353 0.860492,-6.19442 1.305394,-9.82296 0.341403,-1.13497 0.894023,-2.93073 1.002562,-3.68041 1.83609,3.39443 6.463463,6.50705 8.835608,9.62608 0.9287125,0.43549 0.19758,-2.36619 0.300563,-3.1647 -0.125141,-2.95497 -0.79817,-5.99464 0.0273,-8.90208 1.3191665,-1.03831 2.6032028,1.95321 3.7286648,2.6822 4.030069,4.4853 7.9625412,9.04978 11.3797671,13.92591 1.60016,2.03349 3.052894,4.18212 4.810642,6.10436 2.1436881,1.48372 -2.604989,1.06044 -3.628989,1.73172 -11.0208731,2.62996 -21.3600919,7.86426 -32.9588669,8.30695 -0.850874,0.0272 -1.703007,0.0263 -2.553671,-0.007 z"
         id="path11691-2"
         sodipodi:nodetypes="ccccccccccccccccc"
         inkscape:transform-center-x="-645.24273"
         inkscape:transform-center-y="810.44532" /></g></g><g
     inkscape:groupmode="layer"
     id="layer2"
     inkscape:label="Left Wheel"
     transform="translate(70.962578,320.26108)"><path
       style="fill:#2f1f00;fill-opacity:1;stroke:#000000;stroke-width:7.99999;stroke-linecap:round;stroke-linejoin:round;stroke-dasharray:none;stroke-opacity:1"
       d="M 6.8142757,257.61068 C -10.583728,238.01168 -15.632896,205.89028 -8.8722982,180.57022 4.0058472,150.3736 55.847059,116.59679 92.736435,126.90678 c 39.738015,11.10615 70.836115,65.55454 63.623175,106.18002 -4.86934,27.4256 -37.59637,47.52944 -65.001306,52.51377 -29.20649,5.31199 -64.836738,-5.78946 -84.5440283,-27.98989 z"
       id="path3627"
       sodipodi:nodetypes="acaaaa"
       inkscape:label="Wheel Depth"
       transform="translate(-1.2083333e-5)" /><path
       style="fill:#624200;fill-opacity:1;stroke:#000000;stroke-width:7.99999;stroke-linecap:round;stroke-linejoin:round;stroke-dasharray:none;stroke-opacity:1"
       d="M 6.8142757,276.06228 C -10.583728,256.46328 -15.632896,224.34188 -8.8722982,199.02182 4.0058472,168.8252 55.847059,135.04839 92.736435,145.35838 c 39.738015,11.10615 70.836115,65.55454 63.623175,106.18002 -4.86934,27.4256 -37.59637,47.52944 -65.001306,52.51377 -29.20649,5.31199 -64.836738,-5.78946 -84.5440283,-27.98989 z"
       id="path3440"
       sodipodi:nodetypes="acaaaa" /><path
       style="fill:#2f1f00;fill-opacity:1;stroke:#000000;stroke-width:7.99999;stroke-linecap:round;stroke-linejoin:round;stroke-dasharray:none;stroke-opacity:1"
       d="m 68.025202,216.27436 c -5.392832,1.69349 -8.998204,4.36624 -9.56134,10.24517 -1.735945,18.12253 22.297323,13.63338 27.787645,1.77475 5.032247,-10.86923 -10.511544,-17.57433 -18.226305,-12.01992 z"
       id="path3611" /><path
       style="fill:#624200;fill-opacity:1;stroke:#000000;stroke-width:7.99999;stroke-linecap:round;stroke-linejoin:round;stroke-dasharray:none;stroke-opacity:1"
       d="m 21.861855,190.21775 c 8.15592,2.65819 24.021279,14.15246 27.190061,17.26351"
       id="path3613" /><path
       style="fill:#624200;fill-opacity:1;stroke:#000000;stroke-width:7.99999;stroke-linecap:round;stroke-linejoin:round;stroke-dasharray:none;stroke-opacity:1"
       d="m 40.984535,275.72861 c 5.66258,-6.77209 13.401378,-14.14627 15.835971,-22.91046"
       id="path3615" /><path
       style="fill:#624200;fill-opacity:1;stroke:#000000;stroke-width:7.99999;stroke-linecap:round;stroke-linejoin:round;stroke-dasharray:none;stroke-opacity:1"
       d="m 97.904389,239.99152 c 11.110781,1.06285 19.197011,12.9677 29.132211,15.6501"
       id="path3617" /><path
       style="fill:#624200;fill-opacity:1;stroke:#000000;stroke-width:7.99999;stroke-linecap:round;stroke-linejoin:round;stroke-dasharray:none;stroke-opacity:1"
       d="m 90.285196,202.56035 c 3.207046,-8.53086 10.426564,-14.64385 16.582954,-21.05503"
       id="path3619" /></g><g
     inkscape:groupmode="layer"
     id="g22669"
     inkscape:label="Right Wheel Depth"
     transform="translate(487.13924,322.1066)"><path
       style="fill:#2f1f00;fill-opacity:1;stroke:#000000;stroke-width:7.99999;stroke-linecap:round;stroke-linejoin:round;stroke-dasharray:none;stroke-opacity:1"
       d="M 6.8142757,257.61068 C -10.583728,238.01168 -15.632896,205.89028 -8.8722982,180.57022 4.0058472,150.3736 55.847059,116.59679 92.736435,126.90678 c 39.738015,11.10615 70.836115,65.55454 63.623175,106.18002 -4.86934,27.4256 -37.59637,47.52944 -65.001306,52.51377 -29.20649,5.31199 -64.836738,-5.78946 -84.5440283,-27.98989 z"
       id="path22667"
       sodipodi:nodetypes="acaaaa"
       inkscape:label="Wheel Depth" /></g><g
     inkscape:groupmode="layer"
     id="g22683"
     inkscape:label="Right Wheel"
     transform="translate(487.13924,322.1066)"><path
       style="fill:#624200;fill-opacity:1;stroke:#000000;stroke-width:7.99999;stroke-linecap:round;stroke-linejoin:round;stroke-dasharray:none;stroke-opacity:1"
       d="M 6.8142757,276.06228 C -10.583728,256.46328 -15.632896,224.34188 -8.8722982,199.02182 4.0058472,168.8252 55.847059,135.04839 92.736435,145.35838 c 39.738015,11.10615 70.836115,65.55454 63.623175,106.18002 -4.86934,27.4256 -37.59637,47.52944 -65.001306,52.51377 -29.20649,5.31199 -64.836738,-5.78946 -84.5440283,-27.98989 z"
       id="path22671"
       sodipodi:nodetypes="acaaaa" /><path
       style="fill:#2f1f00;fill-opacity:1;stroke:#000000;stroke-width:7.99999;stroke-linecap:round;stroke-linejoin:round;stroke-dasharray:none;stroke-opacity:1"
       d="m 68.025202,216.27436 c -5.392832,1.69349 -8.998204,4.36624 -9.56134,10.24517 -1.735945,18.12253 22.297323,13.63338 27.787645,1.77475 5.032247,-10.86923 -10.511544,-17.57433 -18.226305,-12.01992 z"
       id="path22673" /><path
       style="fill:#624200;fill-opacity:1;stroke:#000000;stroke-width:7.99999;stroke-linecap:round;stroke-linejoin:round;stroke-dasharray:none;stroke-opacity:1"
       d="m 21.861855,190.21775 c 8.15592,2.65819 24.021279,14.15246 27.190061,17.26351"
       id="path22675" /><path
       style="fill:#624200;fill-opacity:1;stroke:#000000;stroke-width:7.99999;stroke-linecap:round;stroke-linejoin:round;stroke-dasharray:none;stroke-opacity:1"
       d="m 40.984535,275.72861 c 5.66258,-6.77209 13.401378,-14.14627 15.835971,-22.91046"
       id="path22677" /><path
       style="fill:#624200;fill-opacity:1;stroke:#000000;stroke-width:7.99999;stroke-linecap:round;stroke-linejoin:round;stroke-dasharray:none;stroke-opacity:1"
       d="m 97.904389,239.99152 c 11.110781,1.06285 19.197011,12.9677 29.132211,15.6501"
       id="path22679" /><path
       style="fill:#624200;fill-opacity:1;stroke:#000000;stroke-width:7.99999;stroke-linecap:round;stroke-linejoin:round;stroke-dasharray:none;stroke-opacity:1"
       d="m 90.285196,202.56035 c 3.207046,-8.53086 10.426564,-14.64385 16.582954,-21.05503"
       id="path22681" /></g></svg>
