<?xml version="1.0" encoding="UTF-8" standalone="no"?>
<!-- Created with Inkscape (http://www.inkscape.org/) -->

<svg
   width="177.22928mm"
   height="188.40533mm"
   viewBox="0 0 177.22928 188.40533"
   version="1.1"
   id="svg5"
   inkscape:version="1.2.2 (732a01da63, 2022-12-09)"
   xml:space="preserve"
   sodipodi:docname="Seige Engine.svg"
   xmlns:inkscape="http://www.inkscape.org/namespaces/inkscape"
   xmlns:sodipodi="http://sodipodi.sourceforge.net/DTD/sodipodi-0.dtd"
   xmlns="http://www.w3.org/2000/svg"
   xmlns:svg="http://www.w3.org/2000/svg"><sodipodi:namedview
     id="namedview7"
     pagecolor="#7c7c7c"
     bordercolor="#000000"
     borderopacity="0.25"
     inkscape:showpageshadow="2"
     inkscape:pageopacity="0"
     inkscape:pagecheckerboard="true"
     inkscape:deskcolor="#2c2c2c"
     inkscape:document-units="mm"
     showgrid="false"
     inkscape:lockguides="false"
     inkscape:zoom="0.37282197"
     inkscape:cx="1101.0617"
     inkscape:cy="1156.0478"
     inkscape:window-width="1920"
     inkscape:window-height="1017"
     inkscape:window-x="1272"
     inkscape:window-y="-8"
     inkscape:window-maximized="1"
     inkscape:current-layer="layer1" /><defs
     id="defs2" /><g
     inkscape:groupmode="layer"
     id="layer2"
     inkscape:label="Left Wheel"
     transform="translate(15.812383,-120.98698)"><path
       style="fill:#2f1f00;fill-opacity:1;stroke:#000000;stroke-width:7.99999;stroke-linecap:round;stroke-linejoin:round;stroke-dasharray:none;stroke-opacity:1"
       d="M 6.8142757,257.61068 C -10.583728,238.01168 -15.632896,205.89028 -8.8722982,180.57022 4.0058472,150.3736 55.847059,116.59679 92.736435,126.90678 c 39.738015,11.10615 70.836115,65.55454 63.623175,106.18002 -4.86934,27.4256 -37.59637,47.52944 -65.001306,52.51377 -29.20649,5.31199 -64.836738,-5.78946 -84.5440283,-27.98989 z"
       id="path3627"
       sodipodi:nodetypes="acaaaa"
       inkscape:label="Wheel Depth"
       transform="translate(-1.2083333e-5)" /><path
       style="fill:#624200;fill-opacity:1;stroke:#000000;stroke-width:7.99999;stroke-linecap:round;stroke-linejoin:round;stroke-dasharray:none;stroke-opacity:1"
       d="M 6.8142757,276.06228 C -10.583728,256.46328 -15.632896,224.34188 -8.8722982,199.02182 4.0058472,168.8252 55.847059,135.04839 92.736435,145.35838 c 39.738015,11.10615 70.836115,65.55454 63.623175,106.18002 -4.86934,27.4256 -37.59637,47.52944 -65.001306,52.51377 -29.20649,5.31199 -64.836738,-5.78946 -84.5440283,-27.98989 z"
       id="path3440"
       sodipodi:nodetypes="acaaaa" /><path
       style="fill:#2f1f00;fill-opacity:1;stroke:#000000;stroke-width:7.99999;stroke-linecap:round;stroke-linejoin:round;stroke-dasharray:none;stroke-opacity:1"
       d="m 68.025202,216.27436 c -5.392832,1.69349 -8.998204,4.36624 -9.56134,10.24517 -1.735945,18.12253 22.297323,13.63338 27.787645,1.77475 5.032247,-10.86923 -10.511544,-17.57433 -18.226305,-12.01992 z"
       id="path3611" /><path
       style="fill:#624200;fill-opacity:1;stroke:#000000;stroke-width:7.99999;stroke-linecap:round;stroke-linejoin:round;stroke-dasharray:none;stroke-opacity:1"
       d="m 21.861855,190.21775 c 8.15592,2.65819 24.021279,14.15246 27.190061,17.26351"
       id="path3613" /><path
       style="fill:#624200;fill-opacity:1;stroke:#000000;stroke-width:7.99999;stroke-linecap:round;stroke-linejoin:round;stroke-dasharray:none;stroke-opacity:1"
       d="m 40.984535,275.72861 c 5.66258,-6.77209 13.401378,-14.14627 15.835971,-22.91046"
       id="path3615" /><path
       style="fill:#624200;fill-opacity:1;stroke:#000000;stroke-width:7.99999;stroke-linecap:round;stroke-linejoin:round;stroke-dasharray:none;stroke-opacity:1"
       d="m 97.904389,239.99152 c 11.110781,1.06285 19.197011,12.9677 29.132211,15.6501"
       id="path3617" /><path
       style="fill:#624200;fill-opacity:1;stroke:#000000;stroke-width:7.99999;stroke-linecap:round;stroke-linejoin:round;stroke-dasharray:none;stroke-opacity:1"
       d="m 90.285196,202.56035 c 3.207046,-8.53086 10.426564,-14.64385 16.582954,-21.05503"
       id="path3619" /></g></svg>
